<svg width="56" height="44" viewBox="0 0 56 44" fill="none" xmlns="http://www.w3.org/2000/svg">
<path d="M21.8476 30.8821C23.6867 32.1963 25.8088 32.8064 28.1667 32.8064C30.6661 32.8064 32.8354 32.1493 34.6745 30.7413C36.5137 29.3333 37.9284 27.4091 38.8716 24.9216C39.8147 22.4811 40.3335 19.6181 40.3335 16.4267C40.3335 13.0005 39.8147 10.0437 38.7773 7.55627C37.7398 5.11573 36.2779 3.2384 34.4387 1.92427C32.5996 0.657066 30.5246 0 28.1667 0C25.6202 0 23.4509 0.704 21.6589 2.112C19.8198 3.52 18.4051 5.44427 17.4619 7.93173C16.4716 10.4192 16 13.2352 16 16.4267C16 19.8528 16.5187 22.8096 17.5562 25.2501C18.5937 27.7376 20.0084 29.6149 21.8476 30.8821ZM34.1086 25.7195C32.6939 28.0192 30.7133 29.1456 28.1667 29.1456C26.5634 29.1456 25.1486 28.6763 23.9225 27.6437C22.6964 26.6581 21.7061 25.2032 21.0459 23.2789C20.3857 21.4016 20.0556 19.1019 20.0556 16.4267C20.0556 12.5312 20.7629 9.4336 22.1777 7.13387C23.5924 4.83413 25.6202 3.6608 28.1667 3.6608C30.6189 3.6608 32.5524 4.7872 34.0615 7.04C35.5234 9.2928 36.2779 12.3904 36.2779 16.4267C36.2779 20.3691 35.5234 23.4667 34.1086 25.7195ZM45.4813 9.90293L51.942 5.02187V32.5248H55.9032V0.2816H52.6022L43.5479 6.94613L45.4813 9.90293Z" fill="#FDB75E"/>
</svg>
