<svg width="56" height="44" viewBox="0 0 56 44" fill="none" xmlns="http://www.w3.org/2000/svg">
<path d="M12.8476 30.8821C14.6867 32.1963 16.8088 32.8064 19.1667 32.8064C21.6661 32.8064 23.8354 32.1493 25.6745 30.7413C27.5137 29.3333 28.9284 27.4091 29.8716 24.9216C30.8147 22.4811 31.3335 19.6181 31.3335 16.4267C31.3335 13.0005 30.8147 10.0437 29.7773 7.55627C28.7398 5.11573 27.2779 3.2384 25.4387 1.92427C23.5996 0.657066 21.5246 0 19.1667 0C16.6202 0 14.4509 0.704 12.6589 2.112C10.8198 3.52 9.40505 5.44427 8.46189 7.93173C7.47158 10.4192 7 13.2352 7 16.4267C7 19.8528 7.51874 22.8096 8.55621 25.2501C9.59368 27.7376 11.0084 29.6149 12.8476 30.8821ZM25.1086 25.7195C23.6939 28.0192 21.7133 29.1456 19.1667 29.1456C17.5634 29.1456 16.1486 28.6763 14.9225 27.6437C13.6964 26.6581 12.7061 25.2032 12.0459 23.2789C11.3857 21.4016 11.0556 19.1019 11.0556 16.4267C11.0556 12.5312 11.7629 9.4336 13.1777 7.13387C14.5924 4.83413 16.6202 3.6608 19.1667 3.6608C21.6189 3.6608 23.5524 4.7872 25.0615 7.04C26.5234 9.2928 27.2779 12.3904 27.2779 16.4267C27.2779 20.3691 26.5234 23.4667 25.1086 25.7195ZM46.5699 18.5387L35.4878 29.8027L35.5349 32.5248H55.9072V28.9109H41.5712L41.524 28.7701L49.9653 20.3221C51.9459 18.3509 53.3606 16.4736 54.2095 14.784C55.0583 13.0944 55.5299 11.3579 55.5299 9.52747C55.5299 7.65013 55.0583 5.96053 54.1623 4.5056C53.2192 3.0976 52.0402 1.9712 50.5312 1.22027C49.0221 0.469333 47.3716 0.0469304 45.6267 0.0469304C43.1745 0.0469304 41.1467 0.610133 39.449 1.6896C37.7514 2.816 36.4781 4.27093 35.5349 6.14827L38.4587 8.1664C39.9678 5.25653 42.2785 3.75467 45.3909 3.75467C47.1829 3.75467 48.6448 4.3648 49.7766 5.53813C50.9084 6.71147 51.4743 8.1664 51.4743 9.94987C51.4743 11.4517 51.0499 12.8128 50.2482 14.1269C49.3994 15.4411 48.1733 16.896 46.5699 18.5387Z" fill="#FDB75E"/>
</svg>
