<svg width="56" height="44" viewBox="0 0 56 44" fill="none" xmlns="http://www.w3.org/2000/svg">
<g clip-path="url(#clip0)">
<path d="M12.8476 30.8821C14.6867 32.1963 16.8088 32.8064 19.1667 32.8064C21.6661 32.8064 23.8354 32.1493 25.6745 30.7413C27.5137 29.3333 28.9284 27.4091 29.8716 24.9216C30.8147 22.4811 31.3335 19.6181 31.3335 16.4267C31.3335 13.0005 30.8147 10.0437 29.7773 7.55627C28.7398 5.11573 27.2779 3.2384 25.4387 1.92427C23.5996 0.657066 21.5246 0 19.1667 0C16.6202 0 14.4509 0.704 12.6589 2.112C10.8198 3.52 9.40505 5.44427 8.46189 7.93173C7.47158 10.4192 7 13.2352 7 16.4267C7 19.8528 7.51874 22.8096 8.55621 25.2501C9.59368 27.7376 11.0084 29.6149 12.8476 30.8821ZM25.1086 25.7195C23.6939 28.0192 21.7133 29.1456 19.1667 29.1456C17.5634 29.1456 16.1486 28.6763 14.9225 27.6437C13.6964 26.6581 12.7061 25.2032 12.0459 23.2789C11.3857 21.4016 11.0556 19.1019 11.0556 16.4267C11.0556 12.5312 11.7629 9.4336 13.1777 7.13387C14.5924 4.83413 16.6202 3.6608 19.1667 3.6608C21.6189 3.6608 23.5524 4.7872 25.0615 7.04C26.5234 9.2928 27.2779 12.3904 27.2779 16.4267C27.2779 20.3691 26.5234 23.4667 25.1086 25.7195ZM38.9807 31.0699C40.9142 32.2432 43.2249 32.8064 45.9129 32.8064C47.8936 32.8064 49.6384 32.4309 51.2418 31.68C52.8451 30.9291 54.0712 29.8965 55.0144 28.5355C55.9104 27.2213 56.382 25.6725 56.382 23.8891C56.382 22.0117 55.8632 20.3221 54.8729 18.9141C53.8826 17.5061 52.515 16.4736 50.7702 15.8165V15.6757C52.2792 15.0187 53.411 14.0331 54.2599 12.7189C55.1087 11.4048 55.5331 9.9968 55.5331 8.448C55.5331 6.7584 55.0616 5.25653 54.2127 3.9424C53.3167 2.6752 52.1378 1.6896 50.6287 1.03253C49.1197 0.375467 47.422 0 45.5828 0C43.3192 0 41.3858 0.469333 39.7352 1.408C38.0376 2.34667 36.7643 3.56693 35.9154 5.11573L39.1222 6.8992C40.5841 4.74027 42.7062 3.6608 45.4885 3.6608C47.1862 3.6608 48.6481 4.17707 49.7799 5.16267C50.9117 6.14827 51.5247 7.41547 51.5247 8.96427C51.5247 10.4192 51.006 11.6395 50.0628 12.6251C49.0725 13.6576 47.6106 14.1269 45.6771 14.1269H42.5176V17.5061H45.2056C47.4691 17.5061 49.2611 18.0693 50.4872 19.1957C51.7133 20.3221 52.3264 21.6832 52.3264 23.3259C52.3264 25.0624 51.6662 26.4704 50.3929 27.5499C49.1197 28.6293 47.5163 29.1456 45.63 29.1456C43.7908 29.1456 42.2346 28.7701 41.0085 28.0192C39.7824 27.2683 38.8392 26.2357 38.2733 24.8747L34.8308 26.4235C35.6325 28.3477 37.0001 29.8965 38.9807 31.0699Z" fill="#FE9A00"/>
</g>
<defs>
<clipPath id="clip0">
<rect width="56" height="44" fill="white"/>
</clipPath>
</defs>
</svg>
