<svg width="56" height="44" viewBox="0 0 56 44" fill="none" xmlns="http://www.w3.org/2000/svg">
<path d="M5.84758 30.8821C7.68674 32.1963 9.80884 32.8064 12.1667 32.8064C14.6661 32.8064 16.8354 32.1493 18.6745 30.7413C20.5137 29.3333 21.9284 27.4091 22.8716 24.9216C23.8147 22.4811 24.3335 19.6181 24.3335 16.4267C24.3335 13.0005 23.8147 10.0437 22.7773 7.55627C21.7398 5.11573 20.2779 3.2384 18.4387 1.92427C16.5996 0.657066 14.5246 0 12.1667 0C9.62021 0 7.45095 0.704 5.65895 2.112C3.81979 3.52 2.40505 5.44427 1.46189 7.93173C0.471579 10.4192 0 13.2352 0 16.4267C0 19.8528 0.518737 22.8096 1.55621 25.2501C2.59368 27.7376 4.00842 29.6149 5.84758 30.8821ZM18.1086 25.7195C16.6939 28.0192 14.7133 29.1456 12.1667 29.1456C10.5634 29.1456 9.14863 28.6763 7.92253 27.6437C6.69642 26.6581 5.7061 25.2032 5.04589 23.2789C4.38568 21.4016 4.05558 19.1019 4.05558 16.4267C4.05558 12.5312 4.76295 9.4336 6.17768 7.13387C7.59242 4.83413 9.62021 3.6608 12.1667 3.6608C14.6189 3.6608 16.5524 4.7872 18.0615 7.04C19.5234 9.2928 20.2779 12.3904 20.2779 16.4267C20.2779 20.3691 19.5234 23.4667 18.1086 25.7195ZM27.8344 26.8459H42.8777V32.5248H46.839V26.8459H51.5548V23.2789H46.839V0.2816H43.4908L27.8344 24.0299V26.8459ZM43.0192 6.99307V23.3728H32.4558L43.0192 6.99307Z" fill="#FE9A00"/>
</svg>
