<svg width="40" height="40" viewBox="0 0 40 40" fill="none" xmlns="http://www.w3.org/2000/svg">
<rect x="0.281738" width="39.1078" height="39.1078" rx="4.16667" fill="white"/>
<path d="M30.783 14.0694H23.2813V11.8711H30.783V14.0694ZM32.6049 25.0609C32.1762 26.4898 30.4615 28.3583 27.1393 28.3583C23.8172 28.3583 21.138 26.4898 21.138 22.0932C21.138 17.8065 23.6028 15.6082 27.0322 15.6082C30.3544 15.6082 32.3905 17.5867 32.8192 20.4444C32.9264 20.994 32.9264 21.7634 32.9264 22.8626H24.353C24.4602 26.3798 28.1038 26.4898 29.2827 25.0609H32.6049ZM24.353 20.6643H29.7114C29.6042 19.0156 28.5325 18.2462 27.0322 18.2462C25.5318 18.2462 24.6745 19.0156 24.353 20.6643ZM14.1721 28.3583H7.2063V11.8711H14.708C20.6022 11.981 20.7093 17.8065 17.6015 19.4552C21.2452 20.8841 21.3523 28.3583 14.1721 28.3583ZM10.4213 18.466H14.2793C16.9585 18.466 17.3872 15.1685 13.9578 15.1685H10.4213V18.466ZM14.065 21.7634H10.4213V25.0609H13.9578C17.28 25.0609 17.0657 21.7634 14.065 21.7634Z" fill="#261911"/>
</svg>
