<svg width="67" height="58" viewBox="0 0 67 58" fill="none" xmlns="http://www.w3.org/2000/svg">
<path d="M0.0142451 41.9327C0.0142451 50.7414 7.15466 57.8818 15.9632 57.8818C24.7719 57.8818 31.9123 50.7414 31.9123 41.9327C31.9123 33.124 24.7719 25.9837 15.9632 25.9837C14.1529 25.9837 12.42 26.2993 10.7978 26.8555C14.387 6.27044 30.4394 -7.00456 15.5589 3.92103C-0.941346 16.0363 -0.00342659 41.4453 0.0150364 41.911C0.0150364 41.9182 0.0142451 41.9247 0.0142451 41.9327Z" fill="#FE9A00"/>
<path d="M35.1019 41.9327C35.1019 50.7414 42.2423 57.8818 51.051 57.8818C59.8597 57.8818 67.0001 50.7414 67.0001 41.9327C67.0001 33.124 59.8596 25.9837 51.0509 25.9837C49.2405 25.9837 47.5077 26.2993 45.8855 26.8555C49.4747 6.27044 65.527 -7.00456 50.6466 3.92103C34.1463 16.0363 35.0841 41.4453 35.1027 41.911C35.1027 41.9182 35.1019 41.9247 35.1019 41.9327Z" fill="#FE9A00"/>
</svg>
