<svg width="40" height="40" viewBox="0 0 40 40" fill="none" xmlns="http://www.w3.org/2000/svg">
<rect x="0.174072" width="39.1078" height="39.1078" rx="4.16667" fill="white"/>
<path d="M22.2215 19.0773C22.0662 18.7086 21.8949 18.3324 21.7213 17.9693C24.4672 16.8064 25.9404 15.252 26.4327 14.6666C27.5101 16.0609 28.1707 17.7892 28.2446 19.6568C27.4252 19.5068 24.9161 19.1052 22.3525 19.3998C22.3376 19.3636 22.3231 19.3272 22.3082 19.2895C22.2823 19.2244 22.255 19.1555 22.2215 19.0773ZM22.2215 19.0773C22.2215 19.0775 22.2216 19.0776 22.2217 19.0778L22.0297 19.1587L22.2212 19.0766C22.2213 19.0768 22.2214 19.0771 22.2215 19.0773ZM19.6364 18.7018C19.8286 19.0777 20.009 19.46 20.1826 19.8445C20.1407 19.8565 20.0987 19.8687 20.058 19.8809L20.058 19.8808L20.0539 19.8822C15.8708 21.2318 13.4369 24.6576 12.8066 25.6373C11.5252 24.1181 10.7442 22.1456 10.7442 20.0008V20.0003V19.9997V19.9992V19.9987V19.9981V19.9976V19.9971V19.9965V19.996V19.9955V19.9949V19.9944V19.9939V19.9933V19.9928V19.9923V19.9917V19.9912V19.9907V19.9901V19.9896V19.9891V19.9885V19.988V19.9875V19.9869V19.9864V19.9859V19.9853V19.9848V19.9843V19.9837V19.9832V19.9827V19.9821V19.9816V19.9811V19.9805V19.98V19.9795V19.9789V19.9784V19.9779V19.9773V19.9768V19.9763V19.9757V19.9752V19.9747V19.9741V19.9736V19.9731V19.9725V19.972V19.9715V19.9709V19.9704V19.9699V19.9693V19.9688V19.9683V19.9677V19.9672V19.9667V19.9661V19.9656V19.9651V19.9645V19.964V19.9635V19.9629V19.9624V19.9619V19.9613V19.9608V19.9603V19.9597V19.9592V19.9587V19.9581V19.9576V19.9571V19.9565V19.956V19.9555V19.9549V19.9544V19.9539V19.9533V19.9528V19.9523V19.9517V19.9512V19.9507V19.9501V19.9496V19.949V19.9485V19.948V19.9474V19.9469V19.9464V19.9458V19.9453V19.9448V19.9442V19.9437V19.9432V19.9426V19.9421V19.9416V19.941V19.9405V19.94V19.9394V19.9392C11.7369 19.9457 15.6156 19.8794 19.6364 18.7018ZM14.2721 27.0086C14.6755 26.2693 16.5284 23.3102 20.9756 21.7125C22.1038 24.6799 22.6067 27.1835 22.7742 28.1123C21.7605 28.5266 20.6576 28.7485 19.5033 28.7485C17.5421 28.7485 15.7278 28.101 14.2721 27.0086ZM19.5033 9.28874C13.5959 9.28874 8.80265 14.0819 8.80265 19.9894C8.80265 25.8969 13.5959 30.6901 19.5033 30.6901C25.3992 30.6901 30.204 25.897 30.204 19.9894C30.204 14.0818 25.3992 9.28874 19.5033 9.28874ZM19.5033 11.2531C21.6572 11.2531 23.6336 12.0355 25.1601 13.328C24.7731 13.8135 23.4645 15.2469 20.8391 16.2704C19.5999 14.0191 18.2705 12.1323 17.7548 11.4194C18.3163 11.3087 18.9014 11.2531 19.5033 11.2531ZM15.6258 12.15C16.0438 12.7265 17.3939 14.6515 18.6988 16.9318C15.1208 17.849 11.9488 17.9395 10.9899 17.9481C11.6011 15.4059 13.3323 13.2897 15.6258 12.15ZM28.0988 21.5692C27.7013 23.8165 26.4289 25.7673 24.6472 27.0627C24.4786 26.1556 24.0048 23.9091 23.0404 21.2056C25.3999 20.8888 27.4655 21.387 28.0988 21.5692Z" fill="#261911" stroke="#261911" stroke-width="0.416667"/>
</svg>
