<svg width="18" height="16" viewBox="0 0 18 16" fill="none" xmlns="http://www.w3.org/2000/svg">
<path d="M17.4386 2.25787C16.6848 0.733516 14.5132 -0.513679 11.9872 0.212465C10.7801 0.555992 9.72702 1.29269 8.99988 2.30221C8.27273 1.29269 7.2196 0.555992 6.01256 0.212465C3.48094 -0.502593 1.315 0.733516 0.561134 2.25787C-0.496521 4.39195 -0.0577064 6.79211 1.86633 9.39182C3.37405 11.4261 5.52874 13.4882 8.6567 15.8828C8.75555 15.9587 8.87732 16 9.00269 16C9.12805 16 9.24982 15.9587 9.34868 15.8828C12.471 13.4937 14.6313 11.4483 16.139 9.39182C18.0575 6.79211 18.4963 4.39195 17.4386 2.25787Z" fill="#B74410"/>
</svg>
