<svg width="36" height="40" viewBox="0 0 36 40" fill="none" xmlns="http://www.w3.org/2000/svg">
<rect x="12.6975" y="0.172363" width="2.64536" height="7.93607" rx="1.32268" fill="#FE9A00"/>
<rect x="23.0708" y="2.81738" width="2.64536" height="7.93607" rx="1.32268" transform="rotate(45 23.0708 2.81738)" fill="#FE9A00"/>
<rect width="2.64536" height="7.93607" rx="1.32268" transform="matrix(-0.707107 0.707107 0.707107 0.707107 5.04541 3.34521)" fill="#FE9A00"/>
<rect width="2.64536" height="7.93607" rx="1.32268" transform="matrix(1.39071e-07 1 1 -1.39071e-07 0 12.3398)" fill="#FE9A00"/>
<path d="M17.3553 13.7941C16.0524 12.7783 14.1531 13.7068 14.1531 15.3576V37.855C14.1531 39.7358 16.5273 40.5612 17.6939 39.0851L23.2359 32.0749C23.4404 31.8165 23.7007 31.6078 23.9974 31.4644C24.294 31.321 24.6193 31.2466 24.9488 31.2469H34.0118C35.9006 31.2469 36.7219 28.8555 35.23 27.6968L17.3553 13.7928V13.7941Z" fill="#261911"/>
</svg>
