<svg width="729" height="165" viewBox="0 0 729 165" fill="none" xmlns="http://www.w3.org/2000/svg">
<path d="M254.693 105.135C255.577 105.135 256.462 104.838 257.346 105.731C257.051 106.029 257.051 106.625 256.757 106.625C254.693 107.816 252.924 109.305 251.156 110.794C249.387 111.986 247.029 112.879 243.786 114.368C243.491 114.964 242.017 116.453 241.428 117.049C238.48 118.538 236.417 119.431 234.353 120.623C234.058 120.623 233.763 120.623 233.763 120.623C233.469 120.623 232.879 120.623 232.584 120.325C232.29 119.431 231.995 118.836 231.7 117.942C230.226 119.134 227.868 119.134 226.983 121.516C227.868 121.814 228.457 122.112 229.342 122.41C229.047 122.708 229.047 123.303 228.752 123.303C227.573 124.197 226.099 124.792 225.215 125.686C224.33 126.579 223.151 127.175 221.972 127.771C220.498 128.366 219.024 128.962 218.435 130.153C217.256 131.643 215.487 131.047 214.603 132.536C214.013 133.43 212.834 132.834 212.244 133.132C212.244 132.536 212.539 131.94 212.244 131.345C211.949 131.047 211.36 130.749 211.065 130.749C210.77 129.856 211.065 128.664 209.886 129.856C210.181 130.153 210.476 130.451 211.065 130.749C211.065 131.345 211.065 132.536 211.065 133.43C209.886 133.132 209.591 134.323 209.002 134.919C208.412 135.514 208.117 136.408 206.938 136.408C206.643 135.514 207.528 134.323 206.054 133.727C205.464 135.514 205.464 135.514 206.938 136.408C207.233 137.301 206.643 137.599 205.759 137.897C205.464 137.897 204.875 138.195 204.58 138.195C203.696 139.088 203.106 139.684 202.222 140.578C201.042 140.578 199.569 140.578 198.095 140.578C197.505 141.471 196.621 142.365 195.736 142.96C194.557 142.96 193.378 142.96 192.789 143.258C189.251 145.343 185.124 146.832 181.587 149.215C180.408 150.108 178.934 148.917 177.755 150.108C176.87 151.3 174.807 151.002 173.922 152.491C173.333 153.98 171.564 153.384 170.68 154.278C169.501 155.171 168.027 155.469 166.848 156.661C165.963 158.15 163.9 157.554 163.015 159.043C159.183 158.745 156.825 161.724 152.698 163.213C152.108 163.213 150.34 163.213 148.571 163.213C147.981 163.809 147.687 164.107 147.097 164.702C143.854 164.702 140.907 164.702 137.664 164.702C137.074 164.107 136.78 163.809 136.19 163.213C135.306 163.213 134.421 163.213 133.537 163.213C132.653 162.617 132.653 161.724 133.242 160.83C138.843 151.002 139.433 150.108 143.854 145.939C143.854 145.641 143.854 145.045 143.854 144.747C143.854 144.449 144.149 144.449 144.444 144.152C145.034 144.152 145.918 144.152 146.802 144.152C147.097 144.152 147.097 143.854 147.392 143.854C147.687 142.96 147.981 142.365 148.276 141.471C148.866 141.471 149.161 141.471 149.75 141.471C151.814 139.684 153.582 137.897 155.646 135.812C158.299 135.514 158.888 132.238 161.247 131.643C161.541 131.643 161.836 131.643 161.836 131.643C162.721 130.749 163.9 129.558 164.784 128.664C165.963 127.473 167.437 125.984 168.616 124.792C170.68 125.09 171.564 123.005 172.743 121.814C173.922 120.623 175.102 119.134 176.87 118.836C177.46 118.836 178.049 117.644 178.934 117.049C180.702 115.56 181.882 113.177 184.535 112.283C186.893 111.688 187.482 108.114 190.135 108.114C192.789 105.433 195.442 102.455 198.095 99.7744C198.684 99.7744 199.274 99.7744 199.569 99.7744C201.337 97.3917 203.99 96.2004 206.938 95.3069C208.412 93.8177 210.181 92.0307 211.949 89.9459C212.244 89.9459 212.834 89.9459 213.129 89.9459C215.192 88.1589 216.666 85.4783 219.024 84.5848C221.383 83.6913 222.562 81.3087 224.625 79.8195C224.92 79.8195 224.92 79.2238 225.215 79.2238C227.278 79.2238 227.868 76.8412 229.342 76.5433C230.816 75.9477 231.405 75.352 232.584 74.4585C234.648 72.6715 235.827 70.2888 238.48 69.3953C240.838 68.7996 241.428 65.2256 244.081 65.2256C246.439 62.843 248.503 60.7581 250.566 58.3755C253.809 58.3755 254.398 54.5036 257.051 54.2058C259.41 53.9079 259.999 50.0361 262.652 50.0361C264.716 48.2491 266.19 45.8664 268.548 44.6751C270.906 43.1859 272.38 41.1011 274.444 39.3141C276.212 37.5271 277.981 35.7401 279.75 33.9531C281.518 31.8682 283.582 30.0812 285.351 27.9964C285.645 27.9964 286.235 27.9964 287.119 27.9964C287.414 27.4007 287.414 26.2094 287.709 25.9116C290.067 24.1245 290.362 20.8484 293.015 19.0614C291.836 18.4657 290.657 17.87 289.183 16.9765C288.298 16.9765 287.119 16.9765 285.645 16.9765C285.056 16.3809 284.761 16.083 284.171 15.4874C280.929 15.4874 277.981 15.4874 274.738 15.4874C274.444 15.7852 274.149 16.083 273.559 16.6787C270.906 16.6787 267.958 16.6787 265.305 16.6787C264.716 17.2744 264.421 17.5722 263.831 18.1679C262.652 18.1679 261.473 18.1679 259.999 18.1679C259.41 18.7635 258.82 19.0614 258.23 19.657C256.757 19.657 254.988 19.657 253.219 19.657C252.63 20.2527 252.04 20.5505 251.451 21.1462C250.271 21.1462 249.092 21.1462 247.618 21.1462C247.029 21.7419 246.734 22.0397 246.144 22.6354C244.965 22.6354 243.491 22.6354 242.312 22.6354C241.723 23.231 241.428 23.5289 240.838 24.1245C239.954 24.1245 239.07 24.1245 238.185 24.1245C238.775 23.8267 238.185 24.4224 237.89 25.018C237.006 25.018 236.122 25.018 235.237 25.018C234.648 25.6137 234.058 25.9116 233.763 26.5072C232.584 26.5072 231.11 26.2094 230.226 26.5072C228.752 27.4007 227.278 27.9964 225.51 27.9964C223.741 30.0812 220.793 29.7834 219.024 31.8682C218.14 31.8682 217.256 31.8682 216.371 31.8682C216.076 32.1661 215.782 32.4639 215.192 33.0596C214.308 33.0596 213.423 33.0596 212.244 33.3574C211.36 34.8466 210.181 34.8466 208.412 34.5487C207.822 35.1444 206.938 36.6336 205.759 37.2292C204.875 37.8249 203.696 37.8249 203.106 38.7184C201.632 38.7184 200.453 38.7184 198.979 38.7184C196.915 40.5054 193.968 41.1011 191.904 42.8881C189.546 42.2924 188.072 44.9729 185.419 44.0794C184.829 44.9729 184.24 46.1643 183.945 47.0578C182.176 47.0578 181.292 47.0578 180.113 47.0578C178.934 49.1426 176.87 49.7383 175.102 50.9296C174.512 51.5253 173.333 51.2274 172.154 51.5253C170.09 54.2058 166.553 55.0993 163.31 56.8863C161.541 57.7798 159.478 58.6733 158.004 60.1625C157.12 61.056 155.941 61.3538 154.172 62.2473C153.288 62.2473 151.814 62.2473 150.34 62.5451C150.045 63.4386 150.045 64.0343 149.75 64.9278C149.161 64.9278 148.571 64.9278 147.981 65.2256C147.687 65.5235 147.392 65.8213 147.097 66.1191C146.507 66.417 145.918 66.417 145.034 67.0126C144.444 67.6083 143.56 68.5018 142.97 69.0975C141.791 69.991 139.727 68.5018 138.843 70.5866C136.485 71.4801 134.127 72.3736 132.358 74.4585C131.474 75.352 130.294 75.6498 129.115 76.2455C127.052 77.139 124.988 78.3303 122.925 79.2238C120.861 80.1173 118.503 81.0108 117.029 83.3935C114.966 83.6913 113.197 84.8827 111.428 86.3718C109.954 87.861 107.596 88.1588 106.122 90.2437C104.353 89.3502 103.764 92.6264 101.995 91.7328C100.816 92.9242 99.3421 94.4134 98.163 95.6047C95.8047 95.009 94.3308 96.796 92.2673 97.6895C90.4986 98.583 88.1403 99.1787 86.6664 100.668C85.1925 102.455 82.8342 102.753 81.3603 104.54C79.8864 106.029 77.5281 106.327 76.349 108.412C74.8751 108.412 73.4011 108.412 72.222 108.412C69.8637 110.794 67.8002 112.879 65.442 115.262C64.5576 115.262 63.6733 115.262 62.4941 115.262C62.1994 116.155 61.9046 116.751 61.6098 117.644C59.8411 118.538 58.0724 119.134 56.5985 120.027C56.5985 120.623 56.5985 120.921 56.5985 121.516C54.8298 122.41 52.4715 123.005 51.2924 124.495C49.8184 126.282 47.4602 125.984 46.5758 127.771C46.281 128.069 45.9863 128.664 45.6915 128.664C43.3332 128.664 42.7436 131.345 40.9749 131.643C39.2062 131.94 38.9114 134.025 36.2584 134.621C36.848 134.621 36.2584 134.621 35.9636 134.621C34.7845 135.812 33.6053 137.301 32.1314 138.493C30.6575 139.684 30.0679 141.471 28.0044 141.769C26.5305 141.769 26.2357 144.449 24.467 144.449C22.6983 144.449 22.4036 147.13 20.3401 147.428C18.8662 147.726 17.3922 148.917 15.6235 150.108C15.034 150.108 14.1496 150.108 13.2653 150.108C12.6757 150.704 12.3809 151.002 11.7913 151.597C10.907 151.597 10.0226 151.597 9.13829 151.597C8.54873 152.193 8.25394 152.491 7.66438 153.087C6.19046 152.789 4.42176 153.682 3.24262 152.491C3.5374 151.597 4.71654 151.3 4.42176 150.406C5.30611 150.108 6.19046 150.406 5.30611 149.215C5.01132 149.513 4.71654 150.108 4.42176 150.406C3.83219 150.406 3.24262 150.406 2.65305 150.406C1.47392 148.917 0.589567 148.321 0 147.726C0.589567 147.13 1.17913 146.534 1.7687 145.641C2.35827 145.939 2.65305 146.236 2.94784 146.832C4.71654 145.939 6.19046 145.045 7.95916 144.449C8.84351 144.152 9.43308 143.258 10.0226 142.96C11.2018 142.365 10.0226 140.28 12.0861 140.28C12.9705 140.28 13.8548 139.088 14.4444 138.195C15.3288 137.301 16.8027 137.599 17.687 136.408C18.2766 135.217 19.4557 134.323 20.0453 133.43C21.5192 133.43 22.4036 133.43 23.2879 133.43C23.5827 132.834 23.5827 132.238 23.8775 131.345C25.0566 130.153 25.941 128.664 27.4149 127.771C28.594 128.366 29.7732 128.962 30.6575 129.558C32.1314 128.664 31.5419 127.473 31.8366 125.984C32.1314 125.686 32.4262 125.09 33.0158 124.792C34.7845 123.899 36.5532 123.005 37.7323 121.218C39.7958 121.218 40.6801 119.431 41.8593 118.24C42.4488 117.942 43.0384 117.942 43.628 117.644C45.1019 116.453 45.9863 114.666 48.3445 113.773C50.408 113.177 50.9976 110.199 53.3559 109.603C55.4193 109.305 55.7141 106.327 58.3672 106.625C59.2515 105.731 60.4307 104.838 61.315 103.646C62.1994 102.455 63.6733 102.753 64.5576 101.859C65.442 100.966 66.0315 99.4765 67.8002 99.7744C68.3898 98.2852 70.1585 98.583 71.0429 97.6895C71.9272 96.796 72.8116 95.9025 74.2855 95.3069C76.349 94.4134 78.7072 93.5199 80.1812 92.0307C81.9499 90.5415 84.0134 89.9459 85.4873 88.1589C86.3716 86.9675 87.8455 85.7762 89.0247 85.7762C90.4986 85.7762 91.0882 83.9892 92.5621 84.287C94.036 84.287 94.3308 82.7978 95.2151 82.2022C95.8047 81.9043 96.3943 81.6065 96.9838 81.3087C98.163 80.713 99.0473 79.5217 100.226 79.8195C101.406 78.0325 103.174 77.4368 104.943 76.2455C106.122 75.6498 106.712 74.4585 108.186 74.1607C109.66 73.8628 109.954 71.778 111.723 71.4801C112.902 71.1823 113.492 69.3953 114.671 69.0975C115.85 68.7996 116.734 68.5018 117.324 67.6083C118.208 67.6083 119.387 67.6083 120.272 67.6083C121.451 66.417 122.63 65.2256 124.399 64.63C126.167 64.0343 127.641 62.843 129.41 62.2473C130.884 61.6516 131.474 59.269 133.537 59.5668C134.716 58.0776 136.78 57.7798 138.548 56.8863C140.317 55.9928 141.791 55.0993 143.56 54.2058C145.328 53.3123 147.097 53.0144 148.571 51.5253C150.34 51.8231 150.634 50.3339 151.814 49.4404C152.698 48.8448 153.582 48.2491 154.467 47.9513C156.235 47.3556 158.004 46.4621 159.478 45.2708C160.952 44.3773 162.131 43.1859 163.605 42.2924C169.501 39.3141 175.396 36.0379 181.587 33.0596C182.766 32.4639 183.945 31.5704 185.714 31.5704C186.893 31.5704 187.777 30.3791 188.956 30.0812C190.43 29.4856 191.315 27.9964 192.789 27.9964C194.557 27.9964 196.031 27.1029 197.505 26.5072C198.979 25.6137 200.453 25.3159 202.222 25.018C203.696 24.7202 205.169 23.231 206.643 22.6354C208.117 21.7419 209.886 21.1462 211.065 20.2527C212.539 19.3592 214.897 20.8484 215.782 18.4657C217.845 19.3592 219.319 17.2744 221.383 16.9765C223.151 16.9765 224.92 16.083 226.394 14.5939C228.752 15.1895 230.521 12.2112 233.174 13.1047C233.763 12.8069 234.058 12.2112 234.648 11.6155C235.532 11.6155 236.417 11.6155 237.301 11.6155C237.89 11.0199 238.185 10.722 238.775 10.1264C239.659 10.1264 240.543 10.1264 241.428 10.1264C241.723 9.82852 242.017 9.53069 242.607 8.93502C244.376 8.93502 246.144 8.93502 247.913 8.93502C248.208 8.63718 248.503 8.33935 248.503 8.33935C248.797 8.04152 248.797 7.74368 249.092 7.74368C251.156 7.74368 252.63 6.55235 254.398 5.95668C255.283 5.65884 256.167 5.95668 257.051 5.95668C257.346 5.65884 257.936 5.06318 258.525 4.76534C259.704 4.76534 261.178 4.76534 262.357 4.76534C262.947 4.16968 263.242 3.87184 263.831 3.27617C265.011 3.27617 266.484 3.27617 267.958 3.27617C268.548 2.68051 268.843 2.38267 269.432 1.787C271.791 1.787 273.854 1.787 276.212 1.787C276.507 1.48917 276.802 1.19134 277.391 0.595668C280.929 0.595668 284.761 0.595668 288.593 0.595668C288.888 0.893502 289.183 1.19134 289.772 1.787C290.657 0.893502 291.246 0.297834 291.836 0C292.131 0.297834 292.72 0.595668 293.31 1.19134C294.489 1.19134 295.963 1.19134 297.142 1.19134C297.732 1.787 298.026 2.08484 298.616 2.68051C299.5 2.68051 300.385 2.68051 301.269 2.68051C302.743 4.46751 304.512 5.95668 305.985 7.74368C305.985 11.0199 305.985 14.296 305.985 16.9765C304.512 19.657 303.332 22.3375 301.858 24.7202C301.269 25.9116 300.974 27.6986 300.09 28.8899C299.5 30.0812 298.321 30.9747 297.142 31.8682C296.552 32.4639 295.668 33.0596 295.373 33.9531C295.078 34.5487 294.784 35.4422 294.489 36.3357C293.899 36.3357 293.31 36.3357 293.015 36.3357C291.541 37.5271 290.657 39.6119 288.298 39.3141C288.298 40.2076 288.298 40.8032 288.298 41.3989C285.056 44.6751 281.813 47.6534 278.865 51.2274C277.097 53.0144 274.738 53.6101 273.264 55.695C271.791 57.7798 270.022 59.5668 267.958 61.056C266.779 61.9495 265.305 62.2473 264.126 63.4386C263.242 64.3321 262.652 65.5235 261.178 65.8213C259.704 66.1191 258.82 67.9061 257.641 68.7996C256.757 69.6931 255.577 70.5866 254.693 71.778C253.809 72.9693 252.04 72.3736 251.451 73.565C250.271 75.6498 247.324 75.352 246.439 77.4368C245.555 79.5217 242.902 79.2238 241.723 80.713C240.249 82.5 238.775 83.9892 237.006 85.4783C236.711 85.7762 235.827 86.074 234.648 86.3718C233.174 87.861 231.7 89.648 229.931 91.435C227.278 91.7329 226.394 94.4134 224.33 95.9025C223.446 95.6047 222.856 96.2004 221.972 96.796C221.383 97.3917 220.498 97.3917 219.614 97.6895C219.614 98.2852 219.614 98.8809 219.614 99.1787C218.729 100.37 216.666 100.072 215.782 101.561C215.192 102.455 214.308 103.348 213.423 103.944C213.129 104.242 212.244 103.646 212.244 103.944C210.181 106.327 207.233 107.22 204.875 109.603C203.401 109.603 202.811 111.092 201.632 111.986C200.748 112.879 199.569 112.283 198.684 113.475C197.8 114.964 196.031 114.964 194.852 115.857C194.852 116.453 194.852 116.751 194.852 117.347C193.378 118.836 191.904 120.325 189.841 121.516C188.072 122.41 187.188 125.09 184.535 125.388C184.24 125.388 183.945 125.984 183.65 126.282C181.292 128.069 180.113 131.643 176.575 132.238C174.217 134.621 172.154 136.706 170.385 138.493C168.321 139.386 167.142 139.982 165.668 140.875C165.079 142.067 164.489 143.258 164.195 144.449C163.31 144.747 162.426 144.449 163.31 145.641C163.605 145.343 163.9 144.747 164.195 144.449C165.079 144.449 166.258 144.449 167.437 144.449C168.027 143.556 168.911 142.365 169.206 141.769C170.975 141.471 171.859 141.471 173.038 141.173C173.333 141.173 173.333 140.578 173.333 139.982C174.512 139.982 175.691 139.982 176.575 139.982C181.882 136.408 188.367 134.919 193.083 130.153C193.968 130.153 194.852 130.153 195.736 130.153C196.326 129.558 196.621 129.26 197.21 128.664C198.095 128.664 198.979 128.664 200.453 128.664C201.042 127.771 201.927 126.877 202.811 125.388C203.696 125.984 204.58 126.282 205.759 127.175C207.233 127.175 209.296 127.473 211.655 126.877C211.065 126.282 210.476 125.686 210.181 125.09C211.065 123.899 212.244 124.792 213.718 124.197C213.718 124.197 214.308 123.601 214.897 123.005C215.782 123.005 216.666 123.005 217.845 123.005C218.14 122.41 218.14 121.516 218.435 120.921C216.961 119.729 215.487 120.325 214.308 120.325C214.308 120.027 214.308 119.729 214.308 119.729C216.371 118.538 218.73 117.347 220.793 116.155C221.088 116.155 221.677 116.453 221.972 116.453C221.677 117.942 220.498 118.24 219.614 119.431C220.793 120.325 221.383 120.325 223.151 118.836C224.036 118.836 224.92 118.836 225.804 118.836C226.394 117.942 227.868 117.644 227.573 116.155C228.457 115.56 229.342 115.262 230.521 114.666C231.7 115.56 232.879 116.751 233.763 117.644C236.711 116.751 239.07 115.262 240.838 112.581C239.07 111.092 236.122 109.305 234.353 109.305C234.353 107.816 235.532 106.922 236.122 106.922C238.185 106.625 239.07 105.135 240.249 103.944C241.133 103.944 242.017 103.944 242.902 103.944C243.491 103.348 243.786 103.051 244.376 102.455C245.85 103.646 246.734 106.029 249.682 105.135C248.797 107.22 248.208 108.114 247.618 109.305C246.734 109.603 245.555 108.709 244.965 110.199C246.734 110.794 246.734 110.794 247.618 109.305C248.208 109.305 248.797 109.305 249.387 109.305C250.861 108.114 251.745 106.327 253.809 106.327C254.398 106.327 254.693 105.731 254.693 105.135ZM178.049 147.726C178.639 147.428 179.818 149.215 180.408 147.13C179.523 146.534 178.934 146.534 178.049 147.726ZM242.607 107.22C243.491 108.114 244.376 108.114 245.26 107.22C244.376 106.327 243.491 106.327 242.607 107.22ZM239.364 109.305C239.659 109.007 239.659 109.007 239.954 108.709C239.659 108.412 239.364 108.412 239.07 108.412C239.07 108.412 238.775 108.709 238.48 108.709C238.775 109.007 239.07 109.007 239.364 109.305ZM203.696 131.047C203.99 131.345 203.99 131.345 204.285 131.643C204.58 131.345 204.58 131.047 204.58 130.749C204.58 130.749 204.285 130.451 204.285 130.153C203.99 130.451 203.99 130.749 203.696 131.047ZM198.684 131.94C198.389 132.238 198.389 132.238 198.095 132.536C198.389 132.834 198.684 132.834 198.979 132.834C198.979 132.834 199.274 132.536 199.569 132.536C199.274 132.238 198.979 131.94 198.684 131.94ZM7.95916 148.917C7.66438 148.619 7.66438 148.321 7.36959 148.619C7.07481 148.619 6.78003 148.917 6.48524 148.917C6.78003 149.215 6.78003 149.513 7.07481 149.215C7.36959 149.215 7.66438 149.215 7.95916 148.917Z" fill="#FE9A00"/>
<path d="M719.862 87.2646C719.567 87.5625 719.567 88.1581 719.272 88.456C718.093 88.456 716.619 88.456 715.44 88.456C714.851 89.0516 714.261 89.3495 713.672 89.9451C710.134 89.9451 706.597 89.9451 703.059 89.9451C702.47 90.5408 702.175 90.8386 701.585 91.4343C700.406 91.4343 698.932 91.4343 697.753 91.4343C696.869 93.2213 694.511 92.6256 693.331 94.1148C691.563 93.817 690.384 94.7105 689.204 95.3061C687.731 95.9018 685.667 95.3061 684.193 95.3061C683.604 95.9018 683.309 96.1996 682.719 96.7953C681.54 96.7953 680.066 96.7953 678.592 96.7953C678.003 97.391 677.708 97.6888 677.413 97.9867C675.644 97.9867 673.876 97.9867 672.107 97.9867C671.517 98.5823 671.223 98.8802 670.633 99.4758C667.98 99.4758 665.327 99.4758 662.674 99.4758C662.084 100.071 661.79 100.369 661.2 100.965C655.894 100.965 650.588 100.965 644.987 100.965C644.692 101.263 644.397 101.561 643.808 102.156C641.744 102.156 639.091 102.156 637.028 102.156C636.438 102.752 636.143 103.05 635.554 103.645C633.49 103.645 631.132 103.645 628.774 103.645C628.184 104.241 627.889 104.539 627.3 105.135C625.236 105.135 622.583 105.135 620.52 105.135C619.93 105.73 619.635 106.028 619.046 106.624C616.982 106.624 614.329 106.624 612.266 106.624C611.676 107.22 611.382 107.517 611.087 107.815C609.908 107.815 608.434 107.815 607.255 107.815C606.665 108.411 606.37 108.709 605.781 109.304C604.896 109.304 604.012 109.304 603.128 109.304C602.833 109.602 602.538 109.9 602.243 110.198C600.769 111.091 599.001 110.496 597.527 110.794C597.232 111.091 596.937 111.389 596.348 111.985C594.579 111.985 592.81 111.985 591.042 111.985C590.452 112.581 590.157 112.878 589.568 113.474C588.388 113.474 586.915 112.878 586.03 113.474C584.556 114.665 582.788 114.368 581.314 114.963C579.84 115.559 578.661 116.452 577.187 117.346C575.713 117.346 573.944 117.346 572.175 117.346C571.586 117.942 571.291 118.239 570.701 118.835C569.817 118.835 568.933 118.835 568.048 118.835C567.459 119.431 567.164 119.729 566.574 120.324C565.101 120.324 563.627 119.729 562.742 121.516C560.974 121.516 559.205 121.516 557.731 121.516C555.962 122.409 554.488 123.303 552.72 124.494C551.835 124.494 550.656 124.494 549.182 124.494C548.593 125.09 548.298 125.387 547.708 125.983C546.529 125.983 545.055 125.983 543.876 125.983C543.287 126.579 542.992 126.877 542.402 127.472C541.518 127.472 540.634 127.472 539.749 127.472C539.454 127.77 539.16 128.068 538.57 128.664C537.391 128.664 535.917 128.664 534.443 128.961C534.148 129.259 533.853 129.557 533.264 130.153C532.38 130.153 530.906 129.855 529.726 130.153C528.547 130.451 527.663 131.642 526.189 131.642C525.305 131.642 524.42 132.833 523.241 132.833C522.062 133.131 520.588 132.833 519.704 134.322C518.82 134.322 517.935 134.322 517.051 134.322C516.461 134.918 516.166 135.216 515.577 135.812C514.693 135.812 513.808 135.812 512.924 135.812C512.334 136.407 512.039 136.705 511.45 137.301C509.976 137.301 508.797 137.301 507.618 137.301C507.028 137.896 506.439 138.492 505.849 138.492C504.08 138.194 502.901 139.386 501.722 139.981C500.543 140.279 499.364 140.279 498.185 141.173C497.3 141.768 495.532 141.47 494.058 141.47C493.763 141.768 493.173 142.364 492.584 142.662C490.815 142.662 489.046 142.662 487.278 142.662C486.688 143.257 486.393 143.555 485.804 144.151C482.561 144.151 479.613 144.151 476.371 144.151C475.781 142.96 475.192 141.768 474.602 140.577C474.897 140.279 475.192 139.683 475.781 139.386C475.486 139.088 475.192 138.79 474.897 138.79C473.423 138.194 472.538 141.768 470.475 139.386C470.77 139.088 471.065 138.79 471.654 138.194C471.654 136.407 471.654 134.62 471.654 133.429C472.538 131.94 472.833 130.748 473.718 129.259C474.012 129.259 474.602 128.961 475.486 128.961C475.486 128.366 475.781 127.77 476.076 126.877C477.255 125.685 478.434 124.196 479.908 122.707C479.613 120.324 482.856 120.026 482.561 117.644C482.561 117.346 482.561 117.346 482.856 117.048C484.33 115.559 485.804 114.07 486.983 112.581C488.162 111.091 488.162 108.411 490.226 108.113C490.815 106.326 489.931 104.539 491.699 103.348C490.226 101.858 490.52 99.4758 488.752 98.5823L483.445 97.0931C482.856 96.4975 481.972 95.9018 481.382 95.3061C480.498 95.9018 479.908 96.4975 479.319 97.0931C475.192 97.0931 471.359 97.0931 467.232 97.0931C466.938 97.391 466.643 97.6888 466.053 98.2845C464.285 98.2845 462.516 98.2845 460.747 98.2845C460.158 98.8802 459.863 99.178 459.273 99.7737C458.389 99.7737 457.21 99.7737 456.325 99.7737C454.851 99.4758 454.557 100.965 453.378 101.263C452.198 101.263 451.019 101.263 449.84 101.263C449.545 101.561 448.956 102.156 448.366 102.454C447.187 102.454 445.713 102.454 444.534 102.454C443.944 103.05 443.65 103.348 443.06 103.943C442.176 103.943 441.291 103.943 440.407 103.943C440.112 104.241 439.818 104.539 439.523 104.837C438.049 105.73 436.575 105.135 435.101 105.135C434.806 105.432 434.511 105.73 434.217 106.028C433.037 106.922 431.564 106.028 429.795 106.922C428.616 108.709 426.257 107.517 424.194 108.113C423.31 110.496 420.067 107.815 419.183 110.496C417.709 110.496 416.235 110.496 415.056 110.496C414.466 111.091 414.171 111.389 413.582 111.985C412.697 111.985 411.813 111.985 410.929 111.985C410.339 112.581 410.044 112.878 409.455 113.474C407.686 113.474 405.917 113.474 404.443 113.474C402.97 114.368 401.79 115.261 400.316 115.857C398.843 116.452 397.074 116.155 395.6 117.346C395.01 117.942 393.536 117.346 392.063 117.346C391.768 117.644 391.178 118.239 390.589 118.537C389.409 118.537 387.936 118.537 386.756 118.537C386.167 119.133 385.872 119.431 385.283 120.026C384.103 120.026 382.629 120.026 381.45 120.026C380.861 120.622 380.566 120.92 379.976 121.516C379.092 121.516 378.208 121.516 377.323 121.516C376.734 122.111 376.439 122.409 375.849 123.005C374.965 123.005 374.081 123.005 373.196 123.005C372.607 123.6 372.017 123.898 371.428 124.494C368.48 123.303 366.122 126.281 363.469 125.983C362.289 128.068 360.226 126.877 358.457 127.174C358.162 127.472 357.573 128.068 356.983 128.366C356.099 128.366 355.215 128.366 354.33 128.366C353.741 128.961 353.446 129.259 352.856 129.855C351.972 129.855 351.088 129.855 350.203 129.855C349.908 130.153 349.614 130.451 349.024 131.046C347.845 131.046 346.371 131.046 344.897 131.046C344.308 131.642 344.013 131.94 343.423 132.535C341.655 132.535 339.886 132.535 338.117 132.535C337.528 133.131 337.233 133.429 336.643 134.025C334.875 134.025 333.106 134.025 331.337 134.025C330.748 134.62 330.453 134.918 330.158 135.216C328.979 135.216 327.505 135.216 326.031 135.216C325.736 134.918 325.147 134.322 324.557 134.025C323.673 134.025 322.788 134.025 321.904 134.025C319.841 131.94 317.777 129.855 315.714 127.77C316.598 125.983 312.471 125.09 314.829 123.005C315.714 123.303 315.714 124.494 316.893 124.196C317.777 125.685 317.777 125.685 319.546 125.09C318.956 123.6 317.777 124.494 316.893 124.196C317.188 123.6 317.777 122.707 318.367 121.813C318.367 121.218 318.367 120.324 318.367 119.133C318.956 118.835 319.546 118.835 320.43 118.239C321.02 117.048 321.609 115.559 322.199 114.07C322.199 113.772 322.199 113.772 321.904 113.176C321.314 113.176 320.725 112.878 319.841 112.581C319.546 112.283 319.546 111.687 318.956 110.496C319.841 109.9 320.725 109.304 321.904 108.411C323.378 108.709 324.852 110.496 326.915 109.9C327.21 110.794 327.505 111.687 327.8 112.283C328.094 112.283 328.095 112.283 328.389 112.283C331.632 109.007 334.875 105.432 338.412 102.156C338.412 102.156 338.412 101.858 338.412 101.561C340.475 101.858 341.949 100.965 342.539 98.8802C343.423 98.8802 344.308 98.8802 345.192 98.8802C344.897 100.667 343.423 101.263 342.244 102.454C341.36 103.348 340.77 104.837 339.001 104.539C337.528 106.028 336.054 107.517 334.58 109.007C332.221 111.389 329.863 113.772 328.095 115.559C326.621 118.537 325.736 120.622 324.262 123.303C325.147 123.898 326.031 124.196 328.095 125.387C328.095 125.387 329.274 125.387 330.748 125.387C331.042 125.09 331.337 124.792 331.927 124.196C333.695 124.196 335.464 124.196 337.233 124.196C337.822 123.6 338.117 123.303 338.412 122.707C340.181 122.707 341.655 122.707 343.423 122.707C345.192 121.813 346.666 120.92 348.435 119.729C349.319 119.729 350.498 119.729 351.972 119.729C352.562 119.133 352.856 118.835 353.446 118.239C354.035 118.537 354.33 119.133 354.92 119.729C357.573 119.133 359.931 117.644 361.995 115.261C362.879 115.857 363.469 116.452 364.353 116.75C364.648 116.452 365.237 115.857 365.532 115.559C366.711 115.559 368.185 115.559 369.364 115.559C369.954 114.963 370.249 114.665 370.838 114.07C371.133 114.368 371.428 114.665 372.017 115.261C374.376 114.07 376.734 112.878 379.682 111.091C380.861 111.091 382.629 111.091 384.693 111.091C384.988 110.198 384.988 109.602 385.283 109.007C386.756 107.815 388.23 109.007 390.294 108.113C390.294 108.113 390.589 107.815 390.883 107.517C392.652 106.922 394.716 107.517 396.779 107.22C397.074 106.922 397.663 106.326 398.253 106.028C398.548 106.326 398.843 106.624 399.432 107.22C400.906 106.922 401.201 105.433 402.97 104.837C403.854 104.837 405.623 104.837 407.391 104.837C407.981 104.241 408.276 103.943 408.865 103.348C410.929 103.348 413.287 103.348 415.645 103.348C416.824 102.156 418.004 100.667 419.477 99.178C421.541 99.178 423.899 99.178 425.963 99.178C426.552 98.5823 427.142 98.2845 427.731 97.6888C428.911 97.6888 430.384 97.6888 431.858 97.391C432.448 96.7953 432.743 96.4975 433.037 96.1996C435.101 96.1996 437.459 96.1996 439.228 96.1996C441.881 94.7105 444.239 93.5191 444.829 93.2213C447.187 91.7321 448.366 92.03 449.545 92.03C450.725 92.03 451.904 92.03 452.788 92.03C454.262 91.1365 455.736 90.5408 457.505 89.6473C457.799 89.9451 458.094 90.243 458.684 90.5408C459.568 90.5408 460.747 90.8386 461.926 90.243C462.221 89.6473 462.221 89.0516 462.516 88.456C462.811 88.1581 463.4 87.8603 463.695 87.8603C467.822 87.8603 472.244 87.8603 476.371 87.8603C476.96 87.2646 477.255 86.9668 477.845 86.3711C479.319 85.7755 479.613 87.2646 480.498 87.5625C481.087 87.2646 481.382 86.669 481.972 86.3711C482.266 86.669 482.856 87.2646 483.151 87.5625C486.099 87.5625 489.636 87.5625 492.584 87.5625C493.173 88.1581 493.468 88.456 493.763 88.7538C494.942 88.7538 496.416 88.7538 497.595 88.7538C498.774 90.5408 501.722 89.6473 502.312 92.3278C502.606 93.5191 502.017 95.3062 503.786 96.4975C503.786 99.7737 503.786 103.05 503.786 106.326C501.722 107.517 501.427 109.9 499.953 111.389C498.479 113.176 496.711 114.665 495.237 116.452C493.763 117.942 491.994 119.729 490.52 121.516C489.046 123.303 487.867 125.387 486.099 127.77C486.099 128.664 486.393 129.557 488.162 129.259C488.457 128.961 489.046 128.366 489.636 128.068C491.405 128.068 493.173 128.068 494.942 128.068C495.532 127.472 495.826 127.174 496.416 126.579C497.3 126.579 498.185 126.579 499.069 126.579C499.659 125.983 499.953 125.685 500.543 125.09C501.427 125.09 502.312 125.09 503.196 125.09C503.786 124.494 504.08 124.196 504.67 123.6C506.733 123.303 514.987 120.622 516.756 119.431C517.935 119.431 519.409 119.431 520.293 119.431C521.767 118.537 523.241 117.942 524.42 117.048C525.6 116.155 527.368 117.346 528.547 115.857C529.432 114.665 531.79 115.559 533.264 114.07C534.148 113.176 536.212 114.665 537.686 113.176C538.865 111.687 540.633 112.878 542.107 112.581C543.287 111.389 544.76 111.091 546.234 111.091C546.824 110.794 547.119 110.198 547.708 109.602C548.593 109.602 549.477 109.602 550.361 109.602C550.951 109.007 551.246 108.709 551.835 108.113C553.014 108.113 554.488 108.113 555.962 108.113C556.257 107.815 556.552 107.517 556.847 107.22C558.32 106.624 559.794 106.922 561.268 106.922C561.858 107.22 562.153 107.815 563.037 108.411C563.332 107.517 563.332 106.922 563.627 106.028C564.216 105.432 564.806 104.837 565.395 104.241C566.574 104.241 568.048 104.241 569.228 104.241C569.817 103.645 570.112 103.348 570.701 102.752C571.586 102.752 572.47 102.752 573.354 102.752C573.944 102.156 574.239 101.858 574.828 101.263C576.302 101.263 577.481 101.263 578.955 101.263C579.25 100.965 579.545 100.667 580.135 100.071C581.019 100.071 581.903 99.7737 583.082 99.7737C583.672 99.178 584.261 98.8802 584.556 98.5823C586.03 98.5823 587.799 98.8802 588.683 98.2845C589.862 97.391 591.041 97.0932 592.221 97.391C593.695 97.6888 594.579 96.1997 595.758 95.9018C597.232 95.9018 598.411 95.9018 599.295 94.4126C600.769 94.4126 601.948 94.4126 603.422 94.4126C604.012 93.817 604.307 93.5191 604.896 92.9235C605.781 92.9235 606.665 92.9235 607.549 92.9235C607.844 92.6256 608.139 92.3278 608.729 91.7321C610.497 91.7321 612.266 91.7321 614.035 91.7321C614.624 91.1365 614.919 90.8386 615.509 90.243C617.277 90.243 619.046 90.243 620.815 90.243C621.404 89.6473 621.699 89.3495 622.289 88.7538C624.352 88.7538 627.005 88.7538 629.069 88.7538C629.658 88.1581 629.953 87.8603 630.248 87.5625C633.196 87.5625 636.438 87.5625 639.681 87.5625C640.27 86.9668 640.565 86.669 641.155 86.0733C642.334 86.0733 643.808 86.0733 644.987 86.0733C645.576 85.4776 645.871 85.1798 646.461 84.5841C649.703 84.5841 652.651 84.5841 655.894 84.5841C656.189 84.2863 656.483 83.9885 656.778 83.6906C657.073 83.6906 657.073 83.3928 657.368 83.3928C662.379 83.3928 667.096 83.3928 672.107 83.3928C672.402 83.095 672.697 82.7971 673.286 82.2015C675.644 82.2015 678.003 82.2015 680.361 82.2015C680.951 82.7971 681.54 83.095 682.13 83.6906C683.014 83.095 683.898 82.4993 685.077 81.9036C685.667 82.2015 686.257 82.7971 687.141 83.3928C687.731 83.3928 688.615 83.3928 689.499 83.3928C689.794 83.095 690.384 82.4993 690.973 81.9036C694.511 81.9036 698.048 81.9036 701.585 81.9036C702.175 81.308 702.47 81.0101 703.059 80.4144C704.238 80.7123 705.418 79.8188 706.302 81.0101C706.007 81.6058 705.418 81.9036 705.123 82.4993C706.302 83.3928 707.481 84.5841 708.66 85.7755C709.25 84.5841 710.134 83.095 710.724 81.6058C710.134 81.0101 709.839 80.4144 709.25 79.8188C709.545 78.6274 710.429 78.9253 711.313 79.2231C712.198 80.1166 711.608 81.308 711.903 82.4993C712.198 83.095 712.787 83.3928 713.377 83.9885C712.492 84.2863 711.608 84.882 710.724 85.1798C712.198 86.3711 713.966 85.4776 715.44 85.7755C716.03 84.5841 716.619 83.3928 717.209 81.9036C716.325 81.6058 715.735 81.308 714.851 81.0101C716.325 80.1166 716.619 80.1166 718.683 79.8188C718.683 79.2231 718.978 78.6274 719.272 77.7339C719.862 76.8404 720.746 76.8404 721.925 78.0318C721.631 78.3296 721.336 78.6274 720.746 79.2231C720.746 79.8188 720.746 80.7123 720.452 81.9036C720.157 82.4993 719.567 83.095 719.272 83.6906C718.388 86.3711 718.388 87.2646 719.862 87.2646ZM324.557 116.452C325.736 116.155 326.621 116.155 325.736 114.963C325.441 115.261 325.147 115.857 324.852 116.155C323.968 116.155 323.378 116.452 323.378 117.644C323.083 117.942 320.725 121.516 320.725 121.516C320.725 122.111 321.02 122.409 321.314 123.005C322.199 122.111 322.788 121.516 323.378 120.92C323.378 119.729 323.378 118.537 323.378 117.346C324.262 117.644 324.852 117.346 324.557 116.452Z" fill="#FE9A00"/>
<path d="M384.103 47.0574C384.693 47.0574 385.577 47.0574 386.167 47.0574C387.346 47.9509 386.756 49.1422 386.756 50.3335C386.461 50.9292 385.872 51.227 385.577 51.8227C386.461 53.3119 387.051 54.8011 387.935 56.2902C386.756 57.4816 384.987 56.5881 383.514 56.8859C381.155 58.3751 379.681 60.7577 378.797 63.4382C379.092 63.7361 379.387 64.0339 379.681 64.3317C379.387 64.9274 378.797 65.2252 378.502 65.8209C378.797 66.4166 379.387 66.7144 379.681 67.3101C379.681 68.2036 379.681 69.0971 379.681 69.9906C378.207 71.1819 377.323 72.6711 375.554 73.5646C374.965 72.9689 374.08 72.3733 373.491 72.0754C372.901 72.3733 372.606 72.9689 372.017 73.2668C371.427 73.2668 371.133 73.2668 370.543 73.2668C370.248 72.6711 370.248 72.0754 369.953 71.4798C370.543 70.8841 370.838 70.2884 371.427 69.6928C370.543 69.3949 369.659 68.7993 368.185 68.2036C372.607 63.7361 376.439 59.5664 380.86 55.3967C380.86 55.3967 380.86 54.8011 380.566 54.5032C379.092 53.0141 378.207 54.8011 377.323 55.3967C375.849 55.3967 374.67 55.3967 373.491 55.3967C373.196 55.6946 372.901 55.9924 372.312 56.5881C370.838 56.8859 369.069 57.1837 367.3 56.2902C368.185 54.8011 369.659 53.9076 371.722 53.0141C369.953 52.7162 368.774 52.4184 367.3 52.4184C367.3 51.8227 367.3 51.227 367.006 50.3335C367.595 50.0357 368.185 50.0357 368.774 49.7379C369.364 50.3335 369.953 50.6314 370.248 51.2271C370.838 51.2271 371.427 51.2271 372.312 51.2271C372.607 51.5249 372.607 52.1206 372.901 52.4184C375.26 52.4184 377.618 52.4184 379.976 52.4184C380.271 51.5249 380.566 50.9292 380.86 50.0357C381.45 50.3335 382.04 50.6314 382.629 50.9292C384.398 49.7379 384.103 48.2487 384.103 47.0574ZM373.491 67.3101C373.786 67.6079 373.786 67.6079 374.08 67.9058C374.375 67.6079 374.375 67.3101 374.375 67.0123C374.375 67.0123 374.08 66.7144 374.08 66.4166C373.786 66.7144 373.786 67.0123 373.491 67.3101Z" fill="#FE9A00"/>
<path d="M267.664 97.0929C267.074 97.6886 266.78 97.9864 266.19 98.5821C265.306 98.5821 264.421 98.5821 263.537 98.5821C262.947 97.0929 262.063 95.9016 261.473 94.7102C261.768 91.7319 264.716 92.0297 266.19 90.5406C266.78 89.9449 268.253 90.2427 269.433 90.5406C269.433 92.0297 268.253 91.4341 267.664 91.7319C267.369 91.7319 267.369 92.3276 267.074 92.9232C269.433 93.2211 271.496 92.9232 273.56 93.2211C273.265 95.9016 270.022 95.0081 269.433 97.3907C269.433 97.0929 268.253 97.0929 267.664 97.0929Z" fill="#FE9A00"/>
<path d="M227.868 116.453C226.689 116.453 225.215 116.75 224.036 116.155C224.036 115.857 223.741 115.857 224.036 115.559C225.215 114.368 226.099 113.176 226.983 112.283C228.163 112.283 228.752 112.283 229.931 112.283C230.816 111.389 231.7 110.496 232.584 109.602C233.469 109.602 234.058 109.602 234.648 109.602C234.353 111.389 234.943 113.176 234.353 115.261C233.763 114.666 233.469 114.368 232.584 113.772C231.405 114.368 229.636 112.879 228.163 114.368C227.868 114.963 227.868 115.559 227.868 116.453Z" fill="#FE9A00"/>
<path d="M301.859 76.2452C300.385 75.9474 299.501 75.9474 298.321 75.9474C298.321 75.3517 298.027 74.7561 298.027 74.1604C299.206 73.5647 300.385 72.9691 301.859 72.0756C302.448 72.0756 303.628 71.7777 304.512 72.3734C304.217 73.2669 303.922 73.8626 303.627 74.4582C304.512 74.7561 305.101 75.0539 305.986 75.3517C305.986 75.9474 305.986 76.2452 306.281 76.8409C305.101 77.4366 303.922 78.0322 302.448 78.9257C302.154 78.0322 301.859 77.4366 301.859 76.2452Z" fill="#FE9A00"/>
<path d="M335.464 66.4167C335.169 66.7146 335.169 67.6081 334.874 67.6081C332.81 67.6081 331.926 70.5864 329.568 68.7994C328.683 69.9908 327.799 71.1821 327.21 72.0756C325.146 72.0756 323.672 72.0756 322.198 72.0756C322.493 71.7778 322.493 71.1821 322.788 70.8842C324.262 70.2886 325.736 69.6929 327.21 69.0973C327.504 69.0973 327.504 68.5016 327.799 67.9059C328.978 67.9059 330.157 67.9059 331.042 67.9059C331.631 67.3102 331.926 67.0124 332.516 66.4167C333.4 66.4167 334.579 66.4167 335.464 66.4167Z" fill="#FE9A00"/>
<path d="M327.505 67.9053C326.326 67.9053 325.146 67.9053 323.967 67.9053C323.673 67.3097 323.378 66.714 323.083 65.8205C324.557 64.927 325.736 63.7357 327.21 62.8422C327.21 63.14 327.505 63.7357 327.505 64.6292C328.094 64.927 328.979 65.5227 330.158 65.8205C329.863 67.0118 327.21 65.5227 327.505 67.9053Z" fill="#FE9A00"/>
<path d="M358.457 85.7759C359.341 85.7759 360.225 85.7759 361.11 85.7759C360.225 88.1586 357.867 89.3499 356.393 91.4347C354.919 91.7326 354.035 91.1369 354.33 89.6477C355.804 88.4564 358.162 88.1586 358.457 85.7759Z" fill="#FE9A00"/>
<path d="M296.552 83.6922C299.206 82.5008 301.269 80.7138 303.922 80.1182C303.922 80.1182 304.217 80.416 304.512 80.416C304.217 82.5008 302.153 82.5008 300.974 83.3943C299.795 84.2878 298.616 84.8835 297.142 85.4792C296.553 85.1813 296.552 84.2878 296.552 83.6922Z" fill="#FE9A00"/>
<path d="M347.845 85.7758C347.845 84.2866 349.613 83.9888 349.613 83.0953C351.677 82.4996 352.561 85.478 354.625 84.2866C354.625 84.8823 354.625 85.1801 354.625 85.7758C354.035 86.0736 353.151 86.6693 352.561 86.9672C352.266 86.6693 351.677 86.0736 351.382 85.7758C349.908 85.7758 348.729 85.7758 347.845 85.7758Z" fill="#FE9A00"/>
<path d="M360.52 58.0775C359.931 58.3754 359.636 58.971 358.752 59.5667C358.457 58.6732 358.457 57.7797 358.162 57.1841C359.931 55.9927 361.405 56.8862 363.468 55.9927C363.763 55.6949 364.647 54.2057 366.121 55.3971C365.827 56.5884 364.942 57.184 364.353 57.7797C363.173 58.0775 361.994 58.0775 360.52 58.0775Z" fill="#FE9A00"/>
<path d="M369.364 45.5682C372.017 45.5682 374.08 45.5682 376.439 45.8661C375.554 47.0574 374.965 47.6531 374.375 48.2487C373.786 47.9509 372.901 47.3552 372.312 47.0574C370.838 46.4617 370.543 49.1422 368.774 48.5466C368.48 48.5466 368.48 48.2487 368.185 48.2487C367.89 46.7596 369.364 46.7596 369.364 45.5682Z" fill="#FE9A00"/>
<path d="M349.024 56.5874C346.666 56.2896 348.434 59.2679 346.666 59.2679C346.076 58.6722 346.371 57.7787 346.076 56.8852C345.781 55.9917 345.487 55.3961 344.897 54.2047C345.192 53.9069 345.781 53.3112 346.371 52.4177C347.55 52.4177 347.845 53.9069 348.729 54.2047C349.024 55.3961 349.024 55.9917 349.024 56.5874Z" fill="#FE9A00"/>
<path d="M338.411 100.966C338.411 100.371 338.411 99.7749 338.411 99.4771C339.885 97.9879 341.064 97.0944 342.244 95.9031C342.538 96.2009 343.128 96.7966 343.717 97.3923C343.423 98.2858 342.833 98.8814 342.538 99.4771C341.949 99.4771 341.359 99.4771 340.77 99.4771C339.59 100.371 339.001 100.668 338.411 100.966Z" fill="#FE9A00"/>
<path d="M288.299 89.351C287.414 91.4358 285.056 91.7336 283.287 92.925C282.993 93.2228 282.403 92.6271 282.108 92.6271C282.108 91.4358 283.287 91.138 283.877 90.2445C285.646 91.138 286.235 87.8618 288.004 89.0531C288.004 88.7553 288.004 89.0531 288.299 89.351Z" fill="#FE9A00"/>
<path d="M335.463 66.417C335.463 66.1191 335.463 65.8213 335.463 65.8213C337.527 64.6299 339.59 63.1408 342.243 63.7364C342.243 64.9278 341.064 65.2256 340.475 66.417C339.001 66.417 337.232 66.417 335.463 66.417Z" fill="#FE9A00"/>
<path d="M268.253 99.7755C267.959 102.456 265.011 102.158 263.537 103.647C263.242 103.945 262.358 103.647 261.178 103.647C261.768 102.754 262.063 102.456 262.358 101.86C263.242 100.669 265.305 100.967 266.19 99.4777C266.485 99.4777 267.664 99.7755 268.253 99.7755Z" fill="#FE9A00"/>
<path d="M273.559 97.0934C273.264 97.6891 272.969 98.2847 272.675 98.5826C272.38 99.1782 271.79 99.4761 271.496 99.7739C270.316 99.7739 269.432 99.7739 268.253 99.7739C268.548 99.4761 268.548 98.8804 268.842 98.5826C269.137 97.9869 269.432 97.3912 269.727 97.0934C270.906 97.0934 272.38 97.0934 273.559 97.0934Z" fill="#FE9A00"/>
<path d="M382.04 60.7587C382.629 60.7587 382.924 60.7587 383.514 60.7587C384.693 61.95 384.103 63.1413 384.103 64.6305C383.514 64.6305 382.924 64.9283 382.335 64.9283C380.861 63.737 380.861 62.2478 382.04 60.7587Z" fill="#FE9A00"/>
<path d="M362.584 83.0955C361.994 83.0955 361.11 83.0955 360.52 83.0955C360.225 81.6063 361.699 80.7128 361.699 79.2236C362.289 79.2236 362.878 79.2236 363.468 78.9258C363.763 79.2236 364.058 79.2236 364.058 79.5215C364.942 81.3085 362.289 81.6063 362.584 83.0955Z" fill="#FE9A00"/>
<path d="M311.291 77.4366C310.112 78.9258 307.754 80.1171 306.28 79.8193C306.28 78.628 307.459 78.3301 308.049 77.4366C309.228 77.4366 310.112 77.4366 311.291 77.4366Z" fill="#FE9A00"/>
<path d="M362.584 83.0963C363.468 83.0963 364.352 83.0963 365.237 83.0963C364.647 85.1812 363.173 86.0747 361.11 85.7768C361.405 85.479 361.405 84.8833 361.699 84.5855C361.994 84.2877 362.289 83.692 362.584 83.0963Z" fill="#FE9A00"/>
<path d="M354.329 84.584C354.035 83.9883 353.445 83.0948 353.15 82.4992C353.74 81.9035 354.33 81.3078 354.919 80.7122C356.098 81.9035 355.509 83.3927 355.509 84.8818C355.509 84.584 354.919 84.584 354.329 84.584Z" fill="#FE9A00"/>
<path d="M273.559 97.0944C273.559 95.6053 275.033 95.3074 275.622 94.4139C276.212 94.4139 276.801 94.4139 277.391 94.7118C277.391 96.2009 276.212 96.4988 275.622 97.3923C275.033 97.0944 274.148 97.0944 273.559 97.0944Z" fill="#FE9A00"/>
<path d="M362.584 74.7557C362.584 75.6492 362.584 76.2449 362.584 77.4362C361.405 77.4362 360.815 77.4362 359.931 77.4362C359.931 76.5427 359.931 75.9471 359.931 74.7557C361.11 74.7557 361.7 74.7557 362.584 74.7557Z" fill="#FE9A00"/>
<path d="M311.292 77.4362C311.292 75.9471 312.766 75.6492 313.355 74.7557C313.945 74.7557 314.534 74.7557 315.124 75.0536C315.124 76.5427 313.945 76.8406 313.355 77.7341C312.766 77.4362 311.881 77.4362 311.292 77.4362Z" fill="#FE9A00"/>
<path d="M313.945 72.0755C313.945 70.5864 315.418 70.2885 316.008 69.395C316.892 69.9907 317.482 70.5864 318.366 71.182C316.598 72.3734 315.418 71.7777 313.945 72.0755Z" fill="#FE9A00"/>
<path d="M330.158 100.967C329.863 102.456 328.978 103.052 327.504 103.945C327.504 103.052 327.505 102.158 327.21 101.265C328.684 101.265 329.273 101.265 330.158 100.967Z" fill="#FE9A00"/>
<path d="M342.244 63.4381C344.013 62.5446 344.013 62.5446 346.371 62.8424C345.192 64.3316 343.718 63.4381 342.244 63.4381Z" fill="#FE9A00"/>
<path d="M384.693 47.0582C382.924 46.7604 381.45 47.6539 380.271 46.1647C381.155 45.2712 382.335 45.569 383.219 45.569C383.514 45.569 383.808 46.4625 384.693 47.0582Z" fill="#FE9A00"/>
<path d="M349.024 56.5883C349.908 56.8861 351.087 55.9926 351.677 57.4818C349.908 58.0774 349.908 58.0774 349.024 56.5883Z" fill="#FE9A00"/>
<path d="M351.972 59.8647C352.561 59.8647 353.151 59.5669 353.74 59.5669C354.035 59.5669 354.035 60.1626 354.33 60.4604L354.035 60.7582C353.446 60.7582 352.856 60.7582 352.266 60.4604C351.972 60.4604 351.972 60.1626 351.972 59.8647Z" fill="#FE9A00"/>
<path d="M339.885 61.6513C338.706 62.5448 338.117 62.5448 337.232 61.9492C337.527 60.1622 338.412 60.7578 339.885 61.6513Z" fill="#FE9A00"/>
<path d="M320.724 63.7354C321.608 62.2462 321.608 62.2462 323.377 62.8419C322.788 64.331 321.608 63.4375 320.724 63.7354Z" fill="#FE9A00"/>
<path d="M320.724 63.7369C319.84 65.2261 319.84 65.2261 318.071 64.6304C318.661 63.1413 319.84 64.0348 320.724 63.7369Z" fill="#FE9A00"/>
<path d="M312.766 67.906C313.65 66.4169 313.65 66.4169 315.419 67.0125C314.829 68.5017 313.65 67.6082 312.766 67.906Z" fill="#FE9A00"/>
<path d="M359.931 77.4366C359.047 78.9258 359.047 78.9258 357.278 78.3301C357.868 76.841 359.047 77.7345 359.931 77.4366Z" fill="#FE9A00"/>
<path d="M369.954 77.4366C370.838 78.628 370.838 79.2237 370.248 80.1172C368.774 79.5215 369.069 78.628 369.954 77.4366Z" fill="#FE9A00"/>
<path d="M358.457 85.777C357.573 85.777 356.689 85.777 355.804 85.777C355.804 85.1814 355.804 84.8836 355.804 84.2879C356.394 84.2879 356.983 83.9901 357.573 84.2879C358.163 84.5857 358.162 85.4792 358.457 85.777Z" fill="#FE9A00"/>
<path d="M334.874 95.6044C335.759 96.7957 335.759 97.3914 335.169 98.2849C333.695 97.6892 333.99 96.7957 334.874 95.6044Z" fill="#FE9A00"/>
<path d="M373.491 51.2284C374.376 49.7392 374.376 49.7392 376.144 50.3349C375.555 51.8241 374.081 50.9306 373.491 51.2284Z" fill="#FE9A00"/>
<path d="M365.532 53.6105C365.827 53.3127 365.827 53.0149 366.121 52.717C366.416 53.0149 366.711 53.0149 366.416 53.3127C366.416 53.6105 366.121 53.9084 366.121 54.2062C365.827 53.9084 365.532 53.6105 365.532 53.6105Z" fill="#FE9A00"/>
<path d="M361.11 54.8018C360.815 55.0996 360.52 55.0996 360.226 55.0996C360.226 55.0996 359.931 54.8018 359.636 54.8018C359.931 54.504 360.226 54.504 360.52 54.504C360.815 54.2061 361.11 54.504 361.11 54.8018Z" fill="#FE9A00"/>
<path d="M337.822 56.8854C338.116 57.1832 338.116 57.1832 338.411 57.481C338.116 57.7789 337.822 57.7789 337.527 57.7789C337.527 57.7789 337.232 57.481 336.937 57.481C337.232 57.1832 337.527 57.1832 337.822 56.8854Z" fill="#FE9A00"/>
<path d="M331.042 59.5669C331.631 58.9713 331.926 58.6734 332.221 58.0778C333.4 59.5669 332.221 59.2691 331.042 59.5669Z" fill="#FE9A00"/>
<path d="M331.926 59.2697C331.337 59.8653 331.042 60.1632 330.747 60.7588C329.863 59.5675 330.747 59.5675 331.926 59.2697Z" fill="#FE9A00"/>
<path d="M386.461 60.7582C386.166 60.4604 385.871 60.4604 385.577 60.1625C385.871 59.8647 385.871 59.5669 386.166 59.8647C386.461 59.8647 386.756 60.1625 387.051 60.1625C386.756 60.4604 386.461 60.4604 386.461 60.7582Z" fill="#FE9A00"/>
<path d="M332.221 63.7369C332.516 64.0348 332.516 64.3326 332.516 64.6304C332.516 64.6304 332.221 64.9283 332.221 65.2261C331.927 64.9283 331.927 64.6304 331.927 64.3326C331.927 64.0348 332.221 63.7369 332.221 63.7369Z" fill="#FE9A00"/>
<path d="M313.06 67.6086C312.471 68.2043 312.176 68.5021 311.881 69.0978C310.997 67.9065 311.881 67.9065 313.06 67.6086Z" fill="#FE9A00"/>
<path d="M321.903 68.2043C321.609 68.5021 321.609 68.8 321.314 69.0978C321.019 68.8 320.724 68.8 321.019 68.5021C321.019 68.2043 321.314 67.9065 321.314 67.6086C321.609 67.9065 321.609 68.2043 321.903 68.2043Z" fill="#FE9A00"/>
<path d="M307.164 71.1825C306.869 71.4803 306.869 71.7781 306.575 72.076C306.28 71.7781 305.985 71.7781 306.28 71.4803C306.28 71.1825 306.575 70.8846 306.575 70.5868C306.869 70.8846 306.869 70.8846 307.164 71.1825Z" fill="#FE9A00"/>
<path d="M314.534 71.7772C313.944 72.3729 313.65 72.6707 313.355 73.2664C312.176 72.0751 313.355 72.0751 314.534 71.7772Z" fill="#FE9A00"/>
<path d="M322.493 71.7772C321.903 72.3729 321.609 72.6707 321.314 73.2664C320.429 72.0751 321.314 72.0751 322.493 71.7772Z" fill="#FE9A00"/>
<path d="M318.956 74.4576C318.661 74.1597 318.366 74.1597 318.071 73.8619C318.366 73.564 318.366 73.2662 318.661 73.564C318.956 73.564 319.25 73.8619 319.545 73.8619C319.25 74.1597 319.25 74.4576 318.956 74.4576Z" fill="#FE9A00"/>
<path d="M362.289 75.0546C362.879 74.4589 363.173 74.1611 363.468 73.5654C364.353 74.7568 363.173 74.7568 362.289 75.0546Z" fill="#FE9A00"/>
<path d="M369.069 75.6492C368.774 75.9471 368.774 75.9471 368.479 76.2449C368.185 75.9471 368.185 75.6492 368.185 75.3514C368.185 75.3514 368.479 75.0536 368.479 74.7557C368.774 75.0536 369.069 75.3514 369.069 75.6492Z" fill="#FE9A00"/>
<path d="M373.196 75.3514C372.902 75.6492 372.902 75.9471 372.607 76.2449C372.312 75.9471 372.017 75.9471 372.312 75.6492C372.312 75.3514 372.607 75.0536 372.607 74.7557C372.902 75.0536 372.902 75.0536 373.196 75.3514Z" fill="#FE9A00"/>
<path d="M300.09 79.223C300.385 79.5209 300.384 79.5209 300.679 79.8187C300.384 80.1165 300.09 80.1165 299.795 80.1165C299.795 80.1165 299.5 79.8187 299.205 79.8187C299.5 79.5209 299.795 79.223 300.09 79.223Z" fill="#FE9A00"/>
<path d="M715.44 79.8193C715.145 80.1171 715.145 80.1171 714.85 80.415C714.555 80.1171 714.555 79.8193 714.555 79.5215C714.555 79.5215 714.85 79.2236 714.85 78.9258C715.145 79.2236 715.44 79.5215 715.44 79.8193Z" fill="#FE9A00"/>
<path d="M285.646 81.3084C285.351 81.6062 285.351 81.6062 285.056 81.9041C284.761 81.6062 284.761 81.3084 284.761 81.0106C284.761 81.0106 285.056 80.7127 285.056 80.4149C285.351 80.7127 285.351 81.0106 285.646 81.3084Z" fill="#FE9A00"/>
<path d="M366.122 81.9041C366.711 81.3084 367.006 81.0106 367.301 80.4149C368.185 81.6062 367.301 81.6062 366.122 81.9041Z" fill="#FE9A00"/>
<path d="M282.698 82.203C282.403 82.5008 282.403 82.7986 282.108 83.0965C281.813 82.7986 281.518 82.7986 281.813 82.5008C281.813 82.203 282.108 81.9051 282.108 81.6073C282.403 81.9051 282.698 81.9051 282.698 82.203Z" fill="#FE9A00"/>
<path d="M366.711 81.6073C366.711 82.5008 366.416 83.0965 365.237 83.0965C365.237 82.203 365.532 81.6073 366.711 81.6073Z" fill="#FE9A00"/>
<path d="M723.105 81.6073C723.4 81.9051 723.4 82.203 723.4 82.5008C723.4 82.5008 723.105 82.7986 723.105 83.0965C722.81 82.7986 722.81 82.5008 722.81 82.203C722.81 81.9051 723.105 81.9051 723.105 81.6073Z" fill="#FE9A00"/>
<path d="M725.463 86.3723C724.873 85.7766 724.578 85.4788 723.989 85.181C725.168 83.9896 725.168 85.181 725.463 86.3723Z" fill="#FE9A00"/>
<path d="M729 85.479C728.705 85.7768 728.705 85.7768 728.411 86.0746C728.116 85.7768 728.116 85.479 728.116 85.1811C728.116 85.1811 728.411 84.8833 728.411 84.5854C728.705 84.8833 729 85.1811 729 85.479Z" fill="#FE9A00"/>
<path d="M285.35 86.075C285.645 86.3728 285.645 86.3728 285.94 86.6706C285.645 86.9685 285.35 86.9685 285.056 86.9685C285.056 86.9685 284.761 86.6706 284.466 86.6706C284.761 86.3728 285.056 86.075 285.35 86.075Z" fill="#FE9A00"/>
<path d="M348.139 85.7759C347.55 86.3715 347.255 86.6694 346.96 87.265C346.076 85.7759 346.96 86.0737 348.139 85.7759Z" fill="#FE9A00"/>
<path d="M355.804 85.7759C355.804 86.3715 355.804 86.9672 354.92 86.9672C354.625 86.9672 354.625 86.3715 354.33 85.7759C354.92 85.7759 355.509 85.7759 355.804 85.7759Z" fill="#FE9A00"/>
<path d="M719.272 87.265C719.862 86.6694 720.156 86.3715 720.451 85.7759C721.63 87.265 720.451 86.9672 719.272 87.265Z" fill="#FE9A00"/>
<path d="M724.873 85.4785C725.462 86.0742 725.757 86.372 726.347 86.6699C725.168 87.5634 725.168 86.6699 724.873 85.4785Z" fill="#FE9A00"/>
<path d="M279.75 87.5641C280.045 87.8619 280.045 87.8619 280.339 88.1598C280.045 88.4576 279.75 88.4576 279.455 88.4576C279.455 88.4576 279.16 88.1598 278.865 88.1598C279.16 87.8619 279.455 87.5641 279.75 87.5641Z" fill="#FE9A00"/>
<path d="M255.578 97.0936C256.167 96.4979 256.462 96.2 256.757 95.6044C257.641 96.7957 256.757 96.7957 255.578 97.0936Z" fill="#FE9A00"/>
<path d="M256.462 96.7961C255.872 97.3918 255.577 97.6896 255.283 98.2853C254.398 97.094 255.283 97.094 256.462 96.7961Z" fill="#FE9A00"/>
<path d="M346.076 98.5826C346.666 97.9869 346.96 97.6891 347.255 97.0934C348.139 98.2847 346.96 98.2847 346.076 98.5826Z" fill="#FE9A00"/>
<path d="M252.924 98.5825C253.219 98.8804 253.219 98.8804 253.514 99.1782C253.219 99.476 252.924 99.476 252.63 99.476C252.63 99.476 252.335 99.1782 252.04 99.1782C252.335 98.8804 252.63 98.5825 252.924 98.5825Z" fill="#FE9A00"/>
<path d="M331.042 99.7745C331.631 99.1788 331.926 98.8809 332.221 98.2853C333.4 99.7745 332.221 99.4766 331.042 99.7745Z" fill="#FE9A00"/>
<path d="M344.897 99.7745C344.897 98.8809 345.192 98.2853 346.371 98.2853C346.371 99.1788 346.076 99.7745 344.897 99.7745Z" fill="#FE9A00"/>
<path d="M259.115 100.071C259.41 100.369 259.705 100.369 260 100.667C259.705 100.965 259.705 101.262 259.41 100.965C259.115 100.965 258.82 100.667 258.526 100.667C258.82 100.369 259.115 100.071 259.115 100.071Z" fill="#FE9A00"/>
<path d="M331.632 99.7743C331.632 100.668 331.337 101.263 330.158 101.263C330.158 100.072 330.747 99.7743 331.632 99.7743Z" fill="#FE9A00"/>
<path d="M338.412 102.456C337.822 102.456 337.232 102.456 337.232 101.562C337.232 101.265 337.822 101.265 338.412 100.967C338.412 101.562 338.412 102.158 338.412 102.456Z" fill="#FE9A00"/>
<path d="M253.514 104.243C252.924 103.647 252.63 103.349 252.04 103.051C253.219 102.158 253.219 103.051 253.514 104.243Z" fill="#FE9A00"/>
<path d="M333.99 103.945C334.579 103.349 334.874 103.051 335.169 102.456C336.053 103.945 334.874 103.647 333.99 103.945Z" fill="#FE9A00"/>
<path d="M253.514 103.945C254.398 103.945 254.988 104.243 254.988 105.434C253.809 105.434 253.219 104.838 253.514 103.945Z" fill="#FE9A00"/>
<path d="M259.41 103.945C259.704 104.243 259.704 104.541 259.704 104.838C259.704 104.838 259.41 105.136 259.41 105.434C259.115 105.136 259.115 104.838 259.115 104.541C259.115 104.243 259.41 103.945 259.41 103.945Z" fill="#FE9A00"/>
<path d="M334.579 103.646C333.99 104.241 333.695 104.539 333.4 105.135C332.516 103.943 333.695 103.943 334.579 103.646Z" fill="#FE9A00"/>
<path d="M326.03 106.028C325.736 106.326 325.736 106.326 325.441 106.624C325.146 106.326 325.146 106.028 325.146 105.73C325.146 105.73 325.441 105.433 325.441 105.135C325.736 105.433 325.736 105.73 326.03 106.028Z" fill="#FE9A00"/>
<path d="M331.337 107.22C331.042 107.518 331.042 107.816 330.747 108.113C330.453 107.816 330.158 107.816 330.453 107.518C330.453 107.22 330.747 106.922 330.747 106.624C331.042 106.922 331.042 106.922 331.337 107.22Z" fill="#FE9A00"/>
<path d="M212.834 121.815C212.834 120.921 213.129 120.326 214.308 120.326C214.308 121.517 214.013 121.815 212.834 121.815Z" fill="#FE9A00"/>
<path d="M213.423 121.815C212.833 122.41 212.539 122.708 212.244 123.304C211.359 122.113 212.244 122.113 213.423 121.815Z" fill="#FE9A00"/>
<path d="M207.823 123.899C208.117 123.602 208.117 123.602 208.412 123.304C208.707 123.602 208.707 123.9 208.707 124.197C208.707 124.197 208.412 124.495 208.412 124.793C208.117 124.495 207.823 124.197 207.823 123.899Z" fill="#FE9A00"/>
<path d="M211.654 133.132C211.654 133.728 211.654 134.323 210.77 134.323C210.475 134.323 210.475 133.728 210.18 133.132C210.77 133.132 211.065 133.132 211.654 133.132Z" fill="#FE9A00"/>
<path d="M173.922 140.28C173.333 139.684 173.038 139.387 172.448 139.089C173.922 138.195 173.628 139.387 173.922 140.28Z" fill="#FE9A00"/>
</svg>
