<svg width="190" height="23" viewBox="0 0 190 23" fill="none" xmlns="http://www.w3.org/2000/svg">
<path d="M12.27 22H7.14L0.09 0.999999H4.59L9.72 17.14L14.82 0.999999H19.35L12.27 22ZM30.8067 8.77V7H34.6767V22H30.8067V20.23C29.6467 21.69 28.0167 22.42 25.9167 22.42C23.9167 22.42 22.1967 21.66 20.7567 20.14C19.3367 18.6 18.6267 16.72 18.6267 14.5C18.6267 12.3 19.3367 10.43 20.7567 8.89C22.1967 7.35 23.9167 6.58 25.9167 6.58C28.0167 6.58 29.6467 7.31 30.8067 8.77ZM23.6667 17.56C24.4467 18.34 25.4367 18.73 26.6367 18.73C27.8367 18.73 28.8267 18.34 29.6067 17.56C30.4067 16.76 30.8067 15.74 30.8067 14.5C30.8067 13.26 30.4067 12.25 29.6067 11.47C28.8267 10.67 27.8367 10.27 26.6367 10.27C25.4367 10.27 24.4467 10.67 23.6667 11.47C22.8867 12.25 22.4967 13.26 22.4967 14.5C22.4967 15.74 22.8867 16.76 23.6667 17.56ZM42.056 22H38.186V0.0999994H42.056V22ZM60.1781 16.09H48.8681C49.3681 17.97 50.7781 18.91 53.0981 18.91C54.5781 18.91 55.6981 18.41 56.4581 17.41L59.5781 19.21C58.0981 21.35 55.9181 22.42 53.0381 22.42C50.5581 22.42 48.5681 21.67 47.0681 20.17C45.5681 18.67 44.8181 16.78 44.8181 14.5C44.8181 12.26 45.5581 10.38 47.0381 8.86C48.4981 7.34 50.3981 6.58 52.7381 6.58C54.9581 6.58 56.7681 7.34 58.1681 8.86C59.6081 10.38 60.3281 12.26 60.3281 14.5C60.3281 14.92 60.2781 15.45 60.1781 16.09ZM48.8081 13.09H56.4581C56.2381 12.11 55.7881 11.36 55.1081 10.84C54.4481 10.32 53.6581 10.06 52.7381 10.06C51.6981 10.06 50.8381 10.33 50.1581 10.87C49.4781 11.39 49.0281 12.13 48.8081 13.09ZM66.8998 7V9.58C67.2398 8.64 67.8198 7.93 68.6398 7.45C69.4598 6.95 70.3998 6.7 71.4598 6.7V11.02C70.2798 10.86 69.2198 11.1 68.2798 11.74C67.3598 12.36 66.8998 13.39 66.8998 14.83V22H63.0298V7H66.8998ZM75.6431 5.2C75.0031 5.2 74.4431 4.97 73.9631 4.51C73.5031 4.03 73.2731 3.47 73.2731 2.83C73.2731 2.19 73.5031 1.63 73.9631 1.15C74.4431 0.669999 75.0031 0.429999 75.6431 0.429999C76.3031 0.429999 76.8631 0.669999 77.3231 1.15C77.8031 1.63 78.0431 2.19 78.0431 2.83C78.0431 3.47 77.8031 4.03 77.3231 4.51C76.8631 4.97 76.3031 5.2 75.6431 5.2ZM77.5931 22H73.7231V7H77.5931V22ZM92.5352 8.77V7H96.4052V22H92.5352V20.23C91.3752 21.69 89.7452 22.42 87.6452 22.42C85.6452 22.42 83.9252 21.66 82.4852 20.14C81.0652 18.6 80.3552 16.72 80.3552 14.5C80.3552 12.3 81.0652 10.43 82.4852 8.89C83.9252 7.35 85.6452 6.58 87.6452 6.58C89.7452 6.58 91.3752 7.31 92.5352 8.77ZM85.3952 17.56C86.1752 18.34 87.1652 18.73 88.3652 18.73C89.5652 18.73 90.5552 18.34 91.3352 17.56C92.1352 16.76 92.5352 15.74 92.5352 14.5C92.5352 13.26 92.1352 12.25 91.3352 11.47C90.5552 10.67 89.5652 10.27 88.3652 10.27C87.1652 10.27 86.1752 10.67 85.3952 11.47C84.6152 12.25 84.2252 13.26 84.2252 14.5C84.2252 15.74 84.6152 16.76 85.3952 17.56Z" fill="#FDB75E"/>
<path d="M107.595 0.999999H115.425C117.425 0.999999 119.125 1.68 120.525 3.04C121.905 4.4 122.595 6.07 122.595 8.05C122.595 10.03 121.905 11.7 120.525 13.06C119.125 14.42 117.425 15.1 115.425 15.1H111.735V22H107.595V0.999999ZM111.735 11.23H115.425C116.305 11.23 117.035 10.93 117.615 10.33C118.195 9.71 118.485 8.95 118.485 8.05C118.485 7.13 118.195 6.37 117.615 5.77C117.035 5.17 116.305 4.87 115.425 4.87H111.735V11.23ZM133.924 7V10.72H130.534V16.96C130.534 17.48 130.664 17.86 130.924 18.1C131.184 18.34 131.564 18.48 132.064 18.52C132.564 18.54 133.184 18.53 133.924 18.49V22C131.304 22.3 129.434 22.06 128.314 21.28C127.214 20.48 126.664 19.04 126.664 16.96V10.72H124.054V7H126.664V3.97L130.534 2.8V7H133.924ZM138.573 5.2C137.933 5.2 137.373 4.97 136.893 4.51C136.433 4.03 136.203 3.47 136.203 2.83C136.203 2.19 136.433 1.63 136.893 1.15C137.373 0.669999 137.933 0.429999 138.573 0.429999C139.233 0.429999 139.793 0.669999 140.253 1.15C140.733 1.63 140.973 2.19 140.973 2.83C140.973 3.47 140.733 4.03 140.253 4.51C139.793 4.97 139.233 5.2 138.573 5.2ZM140.523 22H136.653V7H140.523V22ZM145.985 5.2C145.345 5.2 144.785 4.97 144.305 4.51C143.845 4.03 143.615 3.47 143.615 2.83C143.615 2.19 143.845 1.63 144.305 1.15C144.785 0.669999 145.345 0.429999 145.985 0.429999C146.645 0.429999 147.205 0.669999 147.665 1.15C148.145 1.63 148.385 2.19 148.385 2.83C148.385 3.47 148.145 4.03 147.665 4.51C147.205 4.97 146.645 5.2 145.985 5.2ZM147.935 22H144.065V7H147.935V22ZM158.617 22.42C156.357 22.42 154.467 21.66 152.947 20.14C151.447 18.62 150.697 16.74 150.697 14.5C150.697 12.26 151.447 10.38 152.947 8.86C154.467 7.34 156.357 6.58 158.617 6.58C160.077 6.58 161.407 6.93 162.607 7.63C163.807 8.33 164.717 9.27 165.337 10.45L162.007 12.4C161.707 11.78 161.247 11.29 160.627 10.93C160.027 10.57 159.347 10.39 158.587 10.39C157.427 10.39 156.467 10.78 155.707 11.56C154.947 12.32 154.567 13.3 154.567 14.5C154.567 15.66 154.947 16.64 155.707 17.44C156.467 18.2 157.427 18.58 158.587 18.58C159.367 18.58 160.057 18.41 160.657 18.07C161.277 17.71 161.737 17.22 162.037 16.6L165.397 18.52C164.737 19.72 163.797 20.67 162.577 21.37C161.377 22.07 160.057 22.42 158.617 22.42ZM175.784 6.58C177.444 6.58 178.794 7.13 179.834 8.23C180.914 9.35 181.454 10.87 181.454 12.79V22H177.584V13.27C177.584 12.29 177.314 11.53 176.774 10.99C176.254 10.45 175.534 10.18 174.614 10.18C173.594 10.18 172.784 10.5 172.184 11.14C171.604 11.76 171.314 12.68 171.314 13.9V22H167.444V0.999999H171.314V8.68C172.234 7.28 173.724 6.58 175.784 6.58ZM189.558 19.84C189.558 20.54 189.308 21.14 188.808 21.64C188.308 22.14 187.708 22.39 187.008 22.39C186.308 22.39 185.708 22.14 185.208 21.64C184.708 21.14 184.458 20.54 184.458 19.84C184.458 19.14 184.708 18.54 185.208 18.04C185.708 17.54 186.308 17.29 187.008 17.29C187.708 17.29 188.308 17.54 188.808 18.04C189.308 18.54 189.558 19.14 189.558 19.84Z" fill="#261911"/>
</svg>
