<svg width="189" height="25" viewBox="0 0 189 25" fill="none" xmlns="http://www.w3.org/2000/svg">
<path d="M13.8058 23.7605H8.39524L0 0.882324H4.73995L11.1401 19.1358L17.5722 0.882324H22.2011L13.8058 23.7605Z" fill="#FE9A00"/>
<path d="M36.1504 23.7605H32.0803V22.0116C31.0747 23.2858 29.5744 24.1689 27.4514 24.1689C23.1903 24.1689 19.9658 20.59 19.9658 15.8352C19.9658 11.0795 23.1895 7.50146 27.4514 7.50146C29.5744 7.50146 31.0588 8.38369 32.0803 9.67512V7.92539H36.1504V23.7605ZM24.2278 15.8352C24.2278 18.2535 25.7761 20.198 28.218 20.198C30.5959 20.198 32.2082 18.3354 32.2082 15.8352C32.2082 13.335 30.5959 11.4723 28.218 11.4723C25.7761 11.4715 24.2278 13.416 24.2278 15.8352Z" fill="#FE9A00"/>
<path d="M43.0933 23.7603H38.9272V0.229004H43.0933V23.7603Z" fill="#FE9A00"/>
<path d="M60.2505 15.8186C60.2505 16.3089 60.2185 16.8973 60.1705 17.2566H49.2063C49.6531 19.544 51.2174 20.5408 53.1805 20.5408C54.521 20.5408 55.9733 19.9851 57.0908 19.021L59.5327 21.7667C57.7774 23.4174 55.5425 24.1687 52.9407 24.1687C48.2007 24.1687 44.9124 20.8681 44.9124 15.8833C44.9124 10.8985 48.1048 7.50049 52.7329 7.50049C57.1859 7.50049 60.2345 10.8829 60.2505 15.8186ZM49.2223 14.348H56.0692C55.6864 12.3216 54.489 11.1775 52.7017 11.1775C50.7386 11.1775 49.5892 12.3863 49.2223 14.348Z" fill="#FE9A00"/>
<path d="M72.6209 7.84339L71.9982 12.0761C71.3116 11.766 70.322 11.5695 69.4764 11.5695C67.5452 11.5695 66.2207 12.7791 66.2207 15.132V23.7603H62.0547V7.92523H66.0928V9.65777C67.0664 8.17075 68.5507 7.50049 70.4499 7.50049C71.3444 7.50049 72.0462 7.63143 72.6209 7.84339Z" fill="#FE9A00"/>
<path d="M78.5894 2.74571C78.5894 4.28183 77.424 5.45868 75.9237 5.45868C74.4233 5.45868 73.2739 4.28183 73.2739 2.74571C73.2747 1.20959 74.4241 0 75.9245 0C77.4248 0 78.5894 1.20959 78.5894 2.74571ZM78.0307 23.7604H73.8646V7.92532H78.0307V23.7604Z" fill="#FE9A00"/>
<path d="M96.0337 23.7605H91.9636V22.0116C90.9581 23.2858 89.4577 24.1689 87.3347 24.1689C83.0736 24.1689 79.8491 20.59 79.8491 15.8352C79.8491 11.0795 83.0728 7.50146 87.3347 7.50146C89.4577 7.50146 90.9421 8.38369 91.9636 9.67512V7.92539H96.0337V23.7605ZM84.1119 15.8352C84.1119 18.2535 85.6602 20.198 88.1021 20.198C90.4801 20.198 92.0923 18.3354 92.0923 15.8352C92.0923 13.335 90.4801 11.4723 88.1021 11.4723C85.6594 11.4715 84.1119 13.416 84.1119 15.8352Z" fill="#FE9A00"/>
<path d="M111.225 14.8036V24.2834H106.826V0.483887H115.834C121.102 0.483887 123.921 3.27799 123.921 7.65726C123.921 11.9826 121.102 14.8036 115.861 14.8036H111.225ZM111.225 4.64804V10.6927H115.755C118.152 10.6927 119.417 9.69885 119.417 7.65645C119.417 5.64185 118.178 4.62023 115.755 4.62023H111.225V4.64804Z" fill="#261911"/>
<path d="M125.83 8.30132V0.483398H129.966V8.30132H135.497V12.0361H129.966V17.7314C129.966 19.6928 130.967 20.3914 132.258 20.3914C133.233 20.3914 134.286 19.881 135.129 19.3706L136.657 22.6481C135.313 23.5887 133.759 24.2872 131.572 24.2872C127.779 24.2872 125.83 22.0845 125.83 18.0545V12.0361V8.30132Z" fill="#261911"/>
<path d="M143.444 3.19652C143.444 4.70072 142.285 5.88347 140.81 5.88347C139.336 5.88347 138.177 4.72853 138.177 3.19652C138.177 1.69232 139.309 0.483398 140.81 0.483398C142.285 0.483398 143.444 1.66533 143.444 3.19652ZM142.892 24.1902H138.782V8.30132H142.892V24.1902Z" fill="#261911"/>
<path d="M150.096 3.19652C150.096 4.70072 148.937 5.88347 147.462 5.88347C145.987 5.88347 144.828 4.72853 144.828 3.19652C144.828 1.66533 145.987 0.483398 147.462 0.483398C148.937 0.483398 150.096 1.66533 150.096 3.19652ZM149.543 24.1775H145.434V8.30132H149.543V24.1775Z" fill="#261911"/>
<path d="M165.724 10.7599L162.748 13.2857C161.826 12.2649 160.825 11.7275 159.482 11.7275C157.348 11.7275 155.636 13.4468 155.636 16.0258C155.636 18.6318 157.322 20.3241 159.455 20.3241C160.772 20.3241 161.931 19.7066 162.8 18.739L165.751 21.2909C164.302 23.1714 162.169 24.2192 159.613 24.2192C154.74 24.2192 151.474 20.7266 151.474 15.998C151.474 11.2695 154.74 7.77686 159.613 7.77686C162.169 7.80467 164.328 8.87944 165.724 10.7599Z" fill="#261911"/>
<path d="M171.232 9.75235C172.312 8.19416 173.945 7.65677 175.631 7.65677C179.107 7.65677 181.583 10.1286 181.583 13.7554V24.1531H177.474V15.0984C177.474 12.8417 176.368 11.6058 174.498 11.6058C172.733 11.6058 171.258 12.7877 171.258 15.1254V24.1261H167.149V0.483398H171.258V9.75235H171.232Z" fill="#261911"/>
<path d="M186.388 24.3137C187.83 24.3137 189 23.1162 189 21.639C189 20.1618 187.83 18.9644 186.388 18.9644C184.945 18.9644 183.775 20.1618 183.775 21.639C183.775 23.1162 184.945 24.3137 186.388 24.3137Z" fill="#261911"/>
</svg>
