<svg width="24" height="20" viewBox="0 0 24 20" fill="none" xmlns="http://www.w3.org/2000/svg">
<mask id="path-1-outside-1" maskUnits="userSpaceOnUse" x="0" y="8" width="24" height="4" fill="black">
<rect fill="white" y="8" width="24" height="4"/>
<path d="M2 10C9.81049 10 14.1895 10 22 10Z"/>
</mask>
<path d="M2 8.8C1.33726 8.8 0.8 9.33726 0.8 10C0.8 10.6627 1.33726 11.2 2 11.2V8.8ZM22 11.2C22.6627 11.2 23.2 10.6627 23.2 10C23.2 9.33726 22.6627 8.8 22 8.8V11.2ZM2 11.2C2.01525 11.2 2.0305 11.2 2.04573 11.2C2.06095 11.2 2.07617 11.2 2.09137 11.2C2.10658 11.2 2.12176 11.2 2.13694 11.2C2.15212 11.2 2.16728 11.2 2.18243 11.2C2.19758 11.2 2.21272 11.2 2.22785 11.2C2.24297 11.2 2.25809 11.2 2.27318 11.2C2.28828 11.2 2.30337 11.2 2.31845 11.2C2.33352 11.2 2.34858 11.2 2.36363 11.2C2.37868 11.2 2.39371 11.2 2.40874 11.2C2.42376 11.2 2.43877 11.2 2.45377 11.2C2.46877 11.2 2.48375 11.2 2.49873 11.2C2.5137 11.2 2.52866 11.2 2.54361 11.2C2.55856 11.2 2.57349 11.2 2.58842 11.2C2.60334 11.2 2.61825 11.2 2.63315 11.2C2.64805 11.2 2.66293 11.2 2.67781 11.2C2.69268 11.2 2.70754 11.2 2.72239 11.2C2.73724 11.2 2.75208 11.2 2.7669 11.2C2.78172 11.2 2.79654 11.2 2.81134 11.2C2.82614 11.2 2.84093 11.2 2.8557 11.2C2.87048 11.2 2.88524 11.2 2.89999 11.2C2.91474 11.2 2.92948 11.2 2.94421 11.2C2.95894 11.2 2.97365 11.2 2.98836 11.2C3.00306 11.2 3.01775 11.2 3.03243 11.2C3.04711 11.2 3.06178 11.2 3.07644 11.2C3.09109 11.2 3.10574 11.2 3.12037 11.2C3.135 11.2 3.14962 11.2 3.16423 11.2C3.17884 11.2 3.19344 11.2 3.20802 11.2C3.22261 11.2 3.23718 11.2 3.25174 11.2C3.2663 11.2 3.28085 11.2 3.29539 11.2C3.30993 11.2 3.32446 11.2 3.33897 11.2C3.35349 11.2 3.36799 11.2 3.38249 11.2C3.39698 11.2 3.41146 11.2 3.42593 11.2C3.4404 11.2 3.45486 11.2 3.4693 11.2C3.48375 11.2 3.49819 11.2 3.51261 11.2C3.52703 11.2 3.54145 11.2 3.55585 11.2C3.57025 11.2 3.58464 11.2 3.59902 11.2C3.61339 11.2 3.62776 11.2 3.64212 11.2C3.65647 11.2 3.67082 11.2 3.68515 11.2C3.69949 11.2 3.71381 11.2 3.72812 11.2C3.74243 11.2 3.75673 11.2 3.77102 11.2C3.78531 11.2 3.79959 11.2 3.81386 11.2C3.82813 11.2 3.84238 11.2 3.85663 11.2C3.87087 11.2 3.88511 11.2 3.89933 11.2C3.91356 11.2 3.92777 11.2 3.94197 11.2C3.95617 11.2 3.97036 11.2 3.98454 11.2C3.99872 11.2 4.01289 11.2 4.02705 11.2C4.04121 11.2 4.05536 11.2 4.0695 11.2C4.08363 11.2 4.09776 11.2 4.11188 11.2C4.12599 11.2 4.1401 11.2 4.15419 11.2C4.16829 11.2 4.18237 11.2 4.19645 11.2C4.21052 11.2 4.22458 11.2 4.23863 11.2C4.25269 11.2 4.26673 11.2 4.28076 11.2C4.29479 11.2 4.30881 11.2 4.32283 11.2C4.33684 11.2 4.35084 11.2 4.36483 11.2C4.37882 11.2 4.3928 11.2 4.40677 11.2C4.42074 11.2 4.4347 11.2 4.44864 11.2C4.46259 11.2 4.47653 11.2 4.49046 11.2C4.50439 11.2 4.51831 11.2 4.53222 11.2C4.54613 11.2 4.56002 11.2 4.57391 11.2C4.5878 11.2 4.60168 11.2 4.61555 11.2C4.62942 11.2 4.64327 11.2 4.65712 11.2C4.67097 11.2 4.68481 11.2 4.69864 11.2C4.71246 11.2 4.72628 11.2 4.74009 11.2C4.7539 11.2 4.7677 11.2 4.78149 11.2C4.79528 11.2 4.80905 11.2 4.82282 11.2C4.83659 11.2 4.85035 11.2 4.8641 11.2C4.87785 11.2 4.89159 11.2 4.90532 11.2C4.91905 11.2 4.93277 11.2 4.94648 11.2C4.9602 11.2 4.9739 11.2 4.98759 11.2C5.00128 11.2 5.01496 11.2 5.02864 11.2C5.04231 11.2 5.05597 11.2 5.06963 11.2C5.08328 11.2 5.09692 11.2 5.11056 11.2C5.12419 11.2 5.13782 11.2 5.15144 11.2C5.16505 11.2 5.17866 11.2 5.19226 11.2C5.20585 11.2 5.21944 11.2 5.23302 11.2C5.2466 11.2 5.26017 11.2 5.27373 11.2C5.28729 11.2 5.30084 11.2 5.31438 11.2C5.32793 11.2 5.34146 11.2 5.35498 11.2C5.36851 11.2 5.38202 11.2 5.39553 11.2C5.40903 11.2 5.42253 11.2 5.43602 11.2C5.44951 11.2 5.46298 11.2 5.47645 11.2C5.48992 11.2 5.50338 11.2 5.51684 11.2C5.53029 11.2 5.54373 11.2 5.55717 11.2C5.5706 11.2 5.58403 11.2 5.59744 11.2C5.61086 11.2 5.62427 11.2 5.63766 11.2C5.65106 11.2 5.66445 11.2 5.67784 11.2C5.69122 11.2 5.70459 11.2 5.71795 11.2C5.73132 11.2 5.74467 11.2 5.75802 11.2C5.77137 11.2 5.78471 11.2 5.79804 11.2C5.81137 11.2 5.82469 11.2 5.838 11.2C5.85131 11.2 5.86462 11.2 5.87791 11.2C5.89121 11.2 5.9045 11.2 5.91778 11.2C5.93105 11.2 5.94433 11.2 5.95759 11.2C5.97085 11.2 5.9841 11.2 5.99735 11.2C6.0106 11.2 6.02383 11.2 6.03706 11.2C6.05029 11.2 6.06351 11.2 6.07673 11.2C6.08994 11.2 6.10314 11.2 6.11634 11.2C6.12954 11.2 6.14272 11.2 6.1559 11.2C6.16909 11.2 6.18226 11.2 6.19542 11.2C6.20859 11.2 6.22174 11.2 6.23489 11.2C6.24804 11.2 6.26118 11.2 6.27431 11.2C6.28744 11.2 6.30057 11.2 6.31368 11.2C6.3268 11.2 6.33991 11.2 6.35301 11.2C6.36611 11.2 6.3792 11.2 6.39229 11.2C6.40537 11.2 6.41845 11.2 6.43152 11.2C6.44459 11.2 6.45765 11.2 6.47071 11.2C6.48376 11.2 6.49681 11.2 6.50985 11.2C6.52289 11.2 6.53592 11.2 6.54894 11.2C6.56197 11.2 6.57498 11.2 6.58799 11.2C6.601 11.2 6.614 11.2 6.62699 11.2C6.63999 11.2 6.65297 11.2 6.66595 11.2C6.67893 11.2 6.6919 11.2 6.70487 11.2C6.71783 11.2 6.73079 11.2 6.74374 11.2C6.75669 11.2 6.76963 11.2 6.78256 11.2C6.7955 11.2 6.80843 11.2 6.82135 11.2C6.83427 11.2 6.84718 11.2 6.86009 11.2C6.87299 11.2 6.88589 11.2 6.89878 11.2C6.91167 11.2 6.92456 11.2 6.93744 11.2C6.95031 11.2 6.96319 11.2 6.97605 11.2C6.98891 11.2 7.00177 11.2 7.01462 11.2C7.02747 11.2 7.04031 11.2 7.05315 11.2C7.06598 11.2 7.07881 11.2 7.09163 11.2C7.10445 11.2 7.11727 11.2 7.13008 11.2C7.14289 11.2 7.15569 11.2 7.16848 11.2C7.18128 11.2 7.19407 11.2 7.20685 11.2C7.21963 11.2 7.2324 11.2 7.24517 11.2C7.25794 11.2 7.2707 11.2 7.28345 11.2C7.29621 11.2 7.30896 11.2 7.3217 11.2C7.33444 11.2 7.34718 11.2 7.3599 11.2C7.37263 11.2 7.38535 11.2 7.39807 11.2C7.41079 11.2 7.4235 11.2 7.4362 11.2C7.4489 11.2 7.4616 11.2 7.47429 11.2C7.48698 11.2 7.49966 11.2 7.51234 11.2C7.52502 11.2 7.53769 11.2 7.55035 11.2C7.56302 11.2 7.57568 11.2 7.58833 11.2C7.60098 11.2 7.61363 11.2 7.62627 11.2C7.63891 11.2 7.65154 11.2 7.66417 11.2C7.6768 11.2 7.68942 11.2 7.70203 11.2C7.71465 11.2 7.72726 11.2 7.73986 11.2C7.75247 11.2 7.76507 11.2 7.77766 11.2C7.79025 11.2 7.80283 11.2 7.81541 11.2C7.82799 11.2 7.84057 11.2 7.85314 11.2C7.86571 11.2 7.87827 11.2 7.89082 11.2C7.90338 11.2 7.91593 11.2 7.92848 11.2C7.94102 11.2 7.95356 11.2 7.9661 11.2C7.97863 11.2 7.99116 11.2 8.00368 11.2C8.0162 11.2 8.02872 11.2 8.04123 11.2C8.05374 11.2 8.06625 11.2 8.07875 11.2C8.09125 11.2 8.10374 11.2 8.11623 11.2C8.12872 11.2 8.14121 11.2 8.15368 11.2C8.16616 11.2 8.17864 11.2 8.1911 11.2C8.20357 11.2 8.21603 11.2 8.22849 11.2C8.24095 11.2 8.2534 11.2 8.26584 11.2C8.27829 11.2 8.29073 11.2 8.30317 11.2C8.3156 11.2 8.32803 11.2 8.34046 11.2C8.35289 11.2 8.36531 11.2 8.37772 11.2C8.39014 11.2 8.40255 11.2 8.41495 11.2C8.42736 11.2 8.43976 11.2 8.45215 11.2C8.46455 11.2 8.47694 11.2 8.48932 11.2C8.50171 11.2 8.51409 11.2 8.52646 11.2C8.53884 11.2 8.55121 11.2 8.56357 11.2C8.57594 11.2 8.5883 11.2 8.60065 11.2C8.61301 11.2 8.62536 11.2 8.6377 11.2C8.65005 11.2 8.66239 11.2 8.67473 11.2C8.68707 11.2 8.6994 11.2 8.71172 11.2C8.72405 11.2 8.73637 11.2 8.74869 11.2C8.76101 11.2 8.77332 11.2 8.78563 11.2C8.79794 11.2 8.81025 11.2 8.82255 11.2C8.83485 11.2 8.84714 11.2 8.85943 11.2C8.87172 11.2 8.88401 11.2 8.89629 11.2C8.90857 11.2 8.92085 11.2 8.93312 11.2C8.9454 11.2 8.95767 11.2 8.96993 11.2C8.98219 11.2 8.99446 11.2 9.00671 11.2C9.01897 11.2 9.03122 11.2 9.04347 11.2C9.05571 11.2 9.06796 11.2 9.0802 11.2C9.09244 11.2 9.10467 11.2 9.1169 11.2C9.12913 11.2 9.14136 11.2 9.15358 11.2C9.16581 11.2 9.17803 11.2 9.19024 11.2C9.20246 11.2 9.21467 11.2 9.22687 11.2C9.23908 11.2 9.25128 11.2 9.26348 11.2C9.27568 11.2 9.28788 11.2 9.30007 11.2C9.31226 11.2 9.32445 11.2 9.33663 11.2C9.34882 11.2 9.361 11.2 9.37317 11.2C9.38535 11.2 9.39752 11.2 9.40969 11.2C9.42186 11.2 9.43402 11.2 9.44618 11.2C9.45835 11.2 9.4705 11.2 9.48266 11.2C9.49481 11.2 9.50696 11.2 9.51911 11.2C9.53126 11.2 9.5434 11.2 9.55554 11.2C9.56768 11.2 9.57982 11.2 9.59195 11.2C9.60409 11.2 9.61622 11.2 9.62834 11.2C9.64047 11.2 9.65259 11.2 9.66471 11.2C9.67683 11.2 9.68895 11.2 9.70106 11.2C9.71318 11.2 9.72529 11.2 9.73739 11.2C9.7495 11.2 9.7616 11.2 9.7737 11.2C9.7858 11.2 9.7979 11.2 9.80999 11.2C9.82209 11.2 9.83418 11.2 9.84627 11.2C9.85836 11.2 9.87044 11.2 9.88252 11.2C9.8946 11.2 9.90668 11.2 9.91876 11.2C9.93083 11.2 9.94291 11.2 9.95498 11.2C9.96705 11.2 9.97911 11.2 9.99118 11.2C10.0032 11.2 10.0153 11.2 10.0274 11.2C10.0394 11.2 10.0515 11.2 10.0635 11.2C10.0756 11.2 10.0876 11.2 10.0997 11.2C10.1117 11.2 10.1238 11.2 10.1358 11.2C10.1479 11.2 10.1599 11.2 10.1719 11.2C10.184 11.2 10.196 11.2 10.208 11.2C10.2201 11.2 10.2321 11.2 10.2441 11.2C10.2561 11.2 10.2682 11.2 10.2802 11.2C10.2922 11.2 10.3042 11.2 10.3163 11.2C10.3283 11.2 10.3403 11.2 10.3523 11.2C10.3643 11.2 10.3763 11.2 10.3883 11.2C10.4003 11.2 10.4123 11.2 10.4243 11.2C10.4363 11.2 10.4483 11.2 10.4603 11.2C10.4723 11.2 10.4843 11.2 10.4963 11.2C10.5083 11.2 10.5203 11.2 10.5323 11.2C10.5443 11.2 10.5563 11.2 10.5683 11.2C10.5803 11.2 10.5922 11.2 10.6042 11.2C10.6162 11.2 10.6282 11.2 10.6402 11.2C10.6521 11.2 10.6641 11.2 10.6761 11.2C10.6881 11.2 10.7 11.2 10.712 11.2C10.724 11.2 10.7359 11.2 10.7479 11.2C10.7599 11.2 10.7718 11.2 10.7838 11.2C10.7958 11.2 10.8077 11.2 10.8197 11.2C10.8316 11.2 10.8436 11.2 10.8556 11.2C10.8675 11.2 10.8795 11.2 10.8914 11.2C10.9034 11.2 10.9153 11.2 10.9273 11.2C10.9392 11.2 10.9512 11.2 10.9631 11.2C10.9751 11.2 10.987 11.2 10.999 11.2C11.0109 11.2 11.0228 11.2 11.0348 11.2C11.0467 11.2 11.0587 11.2 11.0706 11.2C11.0825 11.2 11.0945 11.2 11.1064 11.2C11.1184 11.2 11.1303 11.2 11.1422 11.2C11.1542 11.2 11.1661 11.2 11.178 11.2C11.1899 11.2 11.2019 11.2 11.2138 11.2C11.2257 11.2 11.2377 11.2 11.2496 11.2C11.2615 11.2 11.2734 11.2 11.2854 11.2C11.2973 11.2 11.3092 11.2 11.3211 11.2C11.3331 11.2 11.345 11.2 11.3569 11.2C11.3688 11.2 11.3807 11.2 11.3927 11.2C11.4046 11.2 11.4165 11.2 11.4284 11.2C11.4403 11.2 11.4522 11.2 11.4642 11.2C11.4761 11.2 11.488 11.2 11.4999 11.2C11.5118 11.2 11.5237 11.2 11.5356 11.2C11.5476 11.2 11.5595 11.2 11.5714 11.2C11.5833 11.2 11.5952 11.2 11.6071 11.2C11.619 11.2 11.6309 11.2 11.6428 11.2C11.6547 11.2 11.6667 11.2 11.6786 11.2C11.6905 11.2 11.7024 11.2 11.7143 11.2C11.7262 11.2 11.7381 11.2 11.75 11.2C11.7619 11.2 11.7738 11.2 11.7857 11.2C11.7976 11.2 11.8095 11.2 11.8214 11.2C11.8333 11.2 11.8452 11.2 11.8572 11.2C11.8691 11.2 11.881 11.2 11.8929 11.2C11.9048 11.2 11.9167 11.2 11.9286 11.2C11.9405 11.2 11.9524 11.2 11.9643 11.2C11.9762 11.2 11.9881 11.2 12 11.2C12.0119 11.2 12.0238 11.2 12.0357 11.2C12.0476 11.2 12.0595 11.2 12.0714 11.2C12.0833 11.2 12.0952 11.2 12.1071 11.2C12.119 11.2 12.1309 11.2 12.1428 11.2C12.1548 11.2 12.1667 11.2 12.1786 11.2C12.1905 11.2 12.2024 11.2 12.2143 11.2C12.2262 11.2 12.2381 11.2 12.25 11.2C12.2619 11.2 12.2738 11.2 12.2857 11.2C12.2976 11.2 12.3095 11.2 12.3214 11.2C12.3333 11.2 12.3453 11.2 12.3572 11.2C12.3691 11.2 12.381 11.2 12.3929 11.2C12.4048 11.2 12.4167 11.2 12.4286 11.2C12.4405 11.2 12.4524 11.2 12.4644 11.2C12.4763 11.2 12.4882 11.2 12.5001 11.2C12.512 11.2 12.5239 11.2 12.5358 11.2C12.5478 11.2 12.5597 11.2 12.5716 11.2C12.5835 11.2 12.5954 11.2 12.6073 11.2C12.6193 11.2 12.6312 11.2 12.6431 11.2C12.655 11.2 12.6669 11.2 12.6789 11.2C12.6908 11.2 12.7027 11.2 12.7146 11.2C12.7266 11.2 12.7385 11.2 12.7504 11.2C12.7623 11.2 12.7743 11.2 12.7862 11.2C12.7981 11.2 12.8101 11.2 12.822 11.2C12.8339 11.2 12.8458 11.2 12.8578 11.2C12.8697 11.2 12.8816 11.2 12.8936 11.2C12.9055 11.2 12.9175 11.2 12.9294 11.2C12.9413 11.2 12.9533 11.2 12.9652 11.2C12.9772 11.2 12.9891 11.2 13.001 11.2C13.013 11.2 13.0249 11.2 13.0369 11.2C13.0488 11.2 13.0608 11.2 13.0727 11.2C13.0847 11.2 13.0966 11.2 13.1086 11.2C13.1205 11.2 13.1325 11.2 13.1444 11.2C13.1564 11.2 13.1684 11.2 13.1803 11.2C13.1923 11.2 13.2042 11.2 13.2162 11.2C13.2282 11.2 13.2401 11.2 13.2521 11.2C13.2641 11.2 13.276 11.2 13.288 11.2C13.3 11.2 13.3119 11.2 13.3239 11.2C13.3359 11.2 13.3479 11.2 13.3598 11.2C13.3718 11.2 13.3838 11.2 13.3958 11.2C13.4078 11.2 13.4197 11.2 13.4317 11.2C13.4437 11.2 13.4557 11.2 13.4677 11.2C13.4797 11.2 13.4917 11.2 13.5037 11.2C13.5157 11.2 13.5277 11.2 13.5397 11.2C13.5517 11.2 13.5637 11.2 13.5757 11.2C13.5877 11.2 13.5997 11.2 13.6117 11.2C13.6237 11.2 13.6357 11.2 13.6477 11.2C13.6597 11.2 13.6717 11.2 13.6837 11.2C13.6958 11.2 13.7078 11.2 13.7198 11.2C13.7318 11.2 13.7439 11.2 13.7559 11.2C13.7679 11.2 13.7799 11.2 13.792 11.2C13.804 11.2 13.816 11.2 13.8281 11.2C13.8401 11.2 13.8521 11.2 13.8642 11.2C13.8762 11.2 13.8883 11.2 13.9003 11.2C13.9124 11.2 13.9244 11.2 13.9365 11.2C13.9485 11.2 13.9606 11.2 13.9726 11.2C13.9847 11.2 13.9968 11.2 14.0088 11.2C14.0209 11.2 14.033 11.2 14.045 11.2C14.0571 11.2 14.0692 11.2 14.0812 11.2C14.0933 11.2 14.1054 11.2 14.1175 11.2C14.1296 11.2 14.1416 11.2 14.1537 11.2C14.1658 11.2 14.1779 11.2 14.19 11.2C14.2021 11.2 14.2142 11.2 14.2263 11.2C14.2384 11.2 14.2505 11.2 14.2626 11.2C14.2747 11.2 14.2868 11.2 14.2989 11.2C14.3111 11.2 14.3232 11.2 14.3353 11.2C14.3474 11.2 14.3595 11.2 14.3717 11.2C14.3838 11.2 14.3959 11.2 14.408 11.2C14.4202 11.2 14.4323 11.2 14.4445 11.2C14.4566 11.2 14.4687 11.2 14.4809 11.2C14.493 11.2 14.5052 11.2 14.5173 11.2C14.5295 11.2 14.5417 11.2 14.5538 11.2C14.566 11.2 14.5781 11.2 14.5903 11.2C14.6025 11.2 14.6147 11.2 14.6268 11.2C14.639 11.2 14.6512 11.2 14.6634 11.2C14.6756 11.2 14.6877 11.2 14.6999 11.2C14.7121 11.2 14.7243 11.2 14.7365 11.2C14.7487 11.2 14.7609 11.2 14.7731 11.2C14.7853 11.2 14.7975 11.2 14.8098 11.2C14.822 11.2 14.8342 11.2 14.8464 11.2C14.8586 11.2 14.8709 11.2 14.8831 11.2C14.8953 11.2 14.9076 11.2 14.9198 11.2C14.932 11.2 14.9443 11.2 14.9565 11.2C14.9688 11.2 14.981 11.2 14.9933 11.2C15.0055 11.2 15.0178 11.2 15.0301 11.2C15.0423 11.2 15.0546 11.2 15.0669 11.2C15.0791 11.2 15.0914 11.2 15.1037 11.2C15.116 11.2 15.1283 11.2 15.1406 11.2C15.1529 11.2 15.1652 11.2 15.1775 11.2C15.1898 11.2 15.2021 11.2 15.2144 11.2C15.2267 11.2 15.239 11.2 15.2513 11.2C15.2636 11.2 15.2759 11.2 15.2883 11.2C15.3006 11.2 15.3129 11.2 15.3253 11.2C15.3376 11.2 15.3499 11.2 15.3623 11.2C15.3746 11.2 15.387 11.2 15.3993 11.2C15.4117 11.2 15.4241 11.2 15.4364 11.2C15.4488 11.2 15.4612 11.2 15.4735 11.2C15.4859 11.2 15.4983 11.2 15.5107 11.2C15.5231 11.2 15.5355 11.2 15.5478 11.2C15.5602 11.2 15.5726 11.2 15.585 11.2C15.5975 11.2 15.6099 11.2 15.6223 11.2C15.6347 11.2 15.6471 11.2 15.6595 11.2C15.672 11.2 15.6844 11.2 15.6968 11.2C15.7093 11.2 15.7217 11.2 15.7342 11.2C15.7466 11.2 15.7591 11.2 15.7715 11.2C15.784 11.2 15.7964 11.2 15.8089 11.2C15.8214 11.2 15.8338 11.2 15.8463 11.2C15.8588 11.2 15.8713 11.2 15.8838 11.2C15.8963 11.2 15.9088 11.2 15.9213 11.2C15.9338 11.2 15.9463 11.2 15.9588 11.2C15.9713 11.2 15.9838 11.2 15.9963 11.2C16.0088 11.2 16.0214 11.2 16.0339 11.2C16.0464 11.2 16.059 11.2 16.0715 11.2C16.0841 11.2 16.0966 11.2 16.1092 11.2C16.1217 11.2 16.1343 11.2 16.1469 11.2C16.1594 11.2 16.172 11.2 16.1846 11.2C16.1972 11.2 16.2098 11.2 16.2223 11.2C16.2349 11.2 16.2475 11.2 16.2601 11.2C16.2727 11.2 16.2854 11.2 16.298 11.2C16.3106 11.2 16.3232 11.2 16.3358 11.2C16.3485 11.2 16.3611 11.2 16.3737 11.2C16.3864 11.2 16.399 11.2 16.4117 11.2C16.4243 11.2 16.437 11.2 16.4496 11.2C16.4623 11.2 16.475 11.2 16.4877 11.2C16.5003 11.2 16.513 11.2 16.5257 11.2C16.5384 11.2 16.5511 11.2 16.5638 11.2C16.5765 11.2 16.5892 11.2 16.6019 11.2C16.6146 11.2 16.6274 11.2 16.6401 11.2C16.6528 11.2 16.6656 11.2 16.6783 11.2C16.691 11.2 16.7038 11.2 16.7165 11.2C16.7293 11.2 16.7421 11.2 16.7548 11.2C16.7676 11.2 16.7804 11.2 16.7932 11.2C16.8059 11.2 16.8187 11.2 16.8315 11.2C16.8443 11.2 16.8571 11.2 16.8699 11.2C16.8827 11.2 16.8955 11.2 16.9084 11.2C16.9212 11.2 16.934 11.2 16.9469 11.2C16.9597 11.2 16.9725 11.2 16.9854 11.2C16.9982 11.2 17.0111 11.2 17.024 11.2C17.0368 11.2 17.0497 11.2 17.0626 11.2C17.0754 11.2 17.0883 11.2 17.1012 11.2C17.1141 11.2 17.127 11.2 17.1399 11.2C17.1528 11.2 17.1657 11.2 17.1787 11.2C17.1916 11.2 17.2045 11.2 17.2174 11.2C17.2304 11.2 17.2433 11.2 17.2563 11.2C17.2692 11.2 17.2822 11.2 17.2951 11.2C17.3081 11.2 17.3211 11.2 17.334 11.2C17.347 11.2 17.36 11.2 17.373 11.2C17.386 11.2 17.399 11.2 17.412 11.2C17.425 11.2 17.438 11.2 17.4511 11.2C17.4641 11.2 17.4771 11.2 17.4902 11.2C17.5032 11.2 17.5162 11.2 17.5293 11.2C17.5423 11.2 17.5554 11.2 17.5685 11.2C17.5815 11.2 17.5946 11.2 17.6077 11.2C17.6208 11.2 17.6339 11.2 17.647 11.2C17.6601 11.2 17.6732 11.2 17.6863 11.2C17.6994 11.2 17.7126 11.2 17.7257 11.2C17.7388 11.2 17.752 11.2 17.7651 11.2C17.7783 11.2 17.7914 11.2 17.8046 11.2C17.8177 11.2 17.8309 11.2 17.8441 11.2C17.8573 11.2 17.8705 11.2 17.8837 11.2C17.8969 11.2 17.9101 11.2 17.9233 11.2C17.9365 11.2 17.9497 11.2 17.9629 11.2C17.9762 11.2 17.9894 11.2 18.0026 11.2C18.0159 11.2 18.0291 11.2 18.0424 11.2C18.0557 11.2 18.0689 11.2 18.0822 11.2C18.0955 11.2 18.1088 11.2 18.1221 11.2C18.1354 11.2 18.1487 11.2 18.162 11.2C18.1753 11.2 18.1886 11.2 18.202 11.2C18.2153 11.2 18.2286 11.2 18.242 11.2C18.2553 11.2 18.2687 11.2 18.282 11.2C18.2954 11.2 18.3088 11.2 18.3222 11.2C18.3355 11.2 18.3489 11.2 18.3623 11.2C18.3757 11.2 18.3891 11.2 18.4026 11.2C18.416 11.2 18.4294 11.2 18.4428 11.2C18.4563 11.2 18.4697 11.2 18.4832 11.2C18.4966 11.2 18.5101 11.2 18.5235 11.2C18.537 11.2 18.5505 11.2 18.564 11.2C18.5775 11.2 18.591 11.2 18.6045 11.2C18.618 11.2 18.6315 11.2 18.645 11.2C18.6585 11.2 18.6721 11.2 18.6856 11.2C18.6992 11.2 18.7127 11.2 18.7263 11.2C18.7398 11.2 18.7534 11.2 18.767 11.2C18.7806 11.2 18.7941 11.2 18.8077 11.2C18.8213 11.2 18.8349 11.2 18.8486 11.2C18.8622 11.2 18.8758 11.2 18.8894 11.2C18.9031 11.2 18.9167 11.2 18.9304 11.2C18.944 11.2 18.9577 11.2 18.9714 11.2C18.985 11.2 18.9987 11.2 19.0124 11.2C19.0261 11.2 19.0398 11.2 19.0535 11.2C19.0672 11.2 19.0809 11.2 19.0947 11.2C19.1084 11.2 19.1221 11.2 19.1359 11.2C19.1496 11.2 19.1634 11.2 19.1772 11.2C19.1909 11.2 19.2047 11.2 19.2185 11.2C19.2323 11.2 19.2461 11.2 19.2599 11.2C19.2737 11.2 19.2875 11.2 19.3014 11.2C19.3152 11.2 19.329 11.2 19.3429 11.2C19.3567 11.2 19.3706 11.2 19.3845 11.2C19.3983 11.2 19.4122 11.2 19.4261 11.2C19.44 11.2 19.4539 11.2 19.4678 11.2C19.4817 11.2 19.4956 11.2 19.5095 11.2C19.5235 11.2 19.5374 11.2 19.5514 11.2C19.5653 11.2 19.5793 11.2 19.5932 11.2C19.6072 11.2 19.6212 11.2 19.6352 11.2C19.6492 11.2 19.6632 11.2 19.6772 11.2C19.6912 11.2 19.7052 11.2 19.7192 11.2C19.7333 11.2 19.7473 11.2 19.7614 11.2C19.7754 11.2 19.7895 11.2 19.8036 11.2C19.8176 11.2 19.8317 11.2 19.8458 11.2C19.8599 11.2 19.874 11.2 19.8881 11.2C19.9022 11.2 19.9164 11.2 19.9305 11.2C19.9446 11.2 19.9588 11.2 19.9729 11.2C19.9871 11.2 20.0013 11.2 20.0155 11.2C20.0296 11.2 20.0438 11.2 20.058 11.2C20.0722 11.2 20.0864 11.2 20.1007 11.2C20.1149 11.2 20.1291 11.2 20.1434 11.2C20.1576 11.2 20.1719 11.2 20.1861 11.2C20.2004 11.2 20.2147 11.2 20.229 11.2C20.2433 11.2 20.2576 11.2 20.2719 11.2C20.2862 11.2 20.3005 11.2 20.3148 11.2C20.3292 11.2 20.3435 11.2 20.3579 11.2C20.3722 11.2 20.3866 11.2 20.401 11.2C20.4154 11.2 20.4298 11.2 20.4442 11.2C20.4586 11.2 20.473 11.2 20.4874 11.2C20.5018 11.2 20.5163 11.2 20.5307 11.2C20.5451 11.2 20.5596 11.2 20.5741 11.2C20.5885 11.2 20.603 11.2 20.6175 11.2C20.632 11.2 20.6465 11.2 20.661 11.2C20.6755 11.2 20.6901 11.2 20.7046 11.2C20.7191 11.2 20.7337 11.2 20.7483 11.2C20.7628 11.2 20.7774 11.2 20.792 11.2C20.8066 11.2 20.8212 11.2 20.8358 11.2C20.8504 11.2 20.865 11.2 20.8796 11.2C20.8943 11.2 20.9089 11.2 20.9236 11.2C20.9382 11.2 20.9529 11.2 20.9676 11.2C20.9822 11.2 20.9969 11.2 21.0116 11.2C21.0263 11.2 21.0411 11.2 21.0558 11.2C21.0705 11.2 21.0853 11.2 21.1 11.2C21.1148 11.2 21.1295 11.2 21.1443 11.2C21.1591 11.2 21.1739 11.2 21.1887 11.2C21.2035 11.2 21.2183 11.2 21.2331 11.2C21.2479 11.2 21.2628 11.2 21.2776 11.2C21.2925 11.2 21.3073 11.2 21.3222 11.2C21.3371 11.2 21.352 11.2 21.3669 11.2C21.3818 11.2 21.3967 11.2 21.4116 11.2C21.4265 11.2 21.4414 11.2 21.4564 11.2C21.4713 11.2 21.4863 11.2 21.5013 11.2C21.5162 11.2 21.5312 11.2 21.5462 11.2C21.5612 11.2 21.5762 11.2 21.5913 11.2C21.6063 11.2 21.6213 11.2 21.6364 11.2C21.6514 11.2 21.6665 11.2 21.6816 11.2C21.6966 11.2 21.7117 11.2 21.7268 11.2C21.7419 11.2 21.757 11.2 21.7722 11.2C21.7873 11.2 21.8024 11.2 21.8176 11.2C21.8327 11.2 21.8479 11.2 21.8631 11.2C21.8782 11.2 21.8934 11.2 21.9086 11.2C21.9238 11.2 21.939 11.2 21.9543 11.2C21.9695 11.2 21.9847 11.2 22 11.2V8.8C21.9847 8.8 21.9695 8.8 21.9543 8.8C21.939 8.8 21.9238 8.8 21.9086 8.8C21.8934 8.8 21.8782 8.8 21.8631 8.8C21.8479 8.8 21.8327 8.8 21.8176 8.8C21.8024 8.8 21.7873 8.8 21.7722 8.8C21.757 8.8 21.7419 8.8 21.7268 8.8C21.7117 8.8 21.6966 8.8 21.6816 8.8C21.6665 8.8 21.6514 8.8 21.6364 8.8C21.6213 8.8 21.6063 8.8 21.5913 8.8C21.5762 8.8 21.5612 8.8 21.5462 8.8C21.5312 8.8 21.5162 8.8 21.5013 8.8C21.4863 8.8 21.4713 8.8 21.4564 8.8C21.4414 8.8 21.4265 8.8 21.4116 8.8C21.3967 8.8 21.3818 8.8 21.3669 8.8C21.352 8.8 21.3371 8.8 21.3222 8.8C21.3073 8.8 21.2925 8.8 21.2776 8.8C21.2628 8.8 21.2479 8.8 21.2331 8.8C21.2183 8.8 21.2035 8.8 21.1887 8.8C21.1739 8.8 21.1591 8.8 21.1443 8.8C21.1295 8.8 21.1148 8.8 21.1 8.8C21.0853 8.8 21.0705 8.8 21.0558 8.8C21.0411 8.8 21.0263 8.8 21.0116 8.8C20.9969 8.8 20.9822 8.8 20.9676 8.8C20.9529 8.8 20.9382 8.8 20.9236 8.8C20.9089 8.8 20.8943 8.8 20.8796 8.8C20.865 8.8 20.8504 8.8 20.8358 8.8C20.8212 8.8 20.8066 8.8 20.792 8.8C20.7774 8.8 20.7628 8.8 20.7483 8.8C20.7337 8.8 20.7191 8.8 20.7046 8.8C20.6901 8.8 20.6755 8.8 20.661 8.8C20.6465 8.8 20.632 8.8 20.6175 8.8C20.603 8.8 20.5885 8.8 20.5741 8.8C20.5596 8.8 20.5451 8.8 20.5307 8.8C20.5163 8.8 20.5018 8.8 20.4874 8.8C20.473 8.8 20.4586 8.8 20.4442 8.8C20.4298 8.8 20.4154 8.8 20.401 8.8C20.3866 8.8 20.3722 8.8 20.3579 8.8C20.3435 8.8 20.3292 8.8 20.3148 8.8C20.3005 8.8 20.2862 8.8 20.2719 8.8C20.2576 8.8 20.2433 8.8 20.229 8.8C20.2147 8.8 20.2004 8.8 20.1861 8.8C20.1719 8.8 20.1576 8.8 20.1434 8.8C20.1291 8.8 20.1149 8.8 20.1007 8.8C20.0864 8.8 20.0722 8.8 20.058 8.8C20.0438 8.8 20.0296 8.8 20.0155 8.8C20.0013 8.8 19.9871 8.8 19.9729 8.8C19.9588 8.8 19.9446 8.8 19.9305 8.8C19.9164 8.8 19.9022 8.8 19.8881 8.8C19.874 8.8 19.8599 8.8 19.8458 8.8C19.8317 8.8 19.8176 8.8 19.8036 8.8C19.7895 8.8 19.7754 8.8 19.7614 8.8C19.7473 8.8 19.7333 8.8 19.7192 8.8C19.7052 8.8 19.6912 8.8 19.6772 8.8C19.6632 8.8 19.6492 8.8 19.6352 8.8C19.6212 8.8 19.6072 8.8 19.5932 8.8C19.5793 8.8 19.5653 8.8 19.5514 8.8C19.5374 8.8 19.5235 8.8 19.5095 8.8C19.4956 8.8 19.4817 8.8 19.4678 8.8C19.4539 8.8 19.44 8.8 19.4261 8.8C19.4122 8.8 19.3983 8.8 19.3845 8.8C19.3706 8.8 19.3567 8.8 19.3429 8.8C19.329 8.8 19.3152 8.8 19.3014 8.8C19.2875 8.8 19.2737 8.8 19.2599 8.8C19.2461 8.8 19.2323 8.8 19.2185 8.8C19.2047 8.8 19.1909 8.8 19.1772 8.8C19.1634 8.8 19.1496 8.8 19.1359 8.8C19.1221 8.8 19.1084 8.8 19.0947 8.8C19.0809 8.8 19.0672 8.8 19.0535 8.8C19.0398 8.8 19.0261 8.8 19.0124 8.8C18.9987 8.8 18.985 8.8 18.9714 8.8C18.9577 8.8 18.944 8.8 18.9304 8.8C18.9167 8.8 18.9031 8.8 18.8894 8.8C18.8758 8.8 18.8622 8.8 18.8486 8.8C18.8349 8.8 18.8213 8.8 18.8077 8.8C18.7941 8.8 18.7806 8.8 18.767 8.8C18.7534 8.8 18.7398 8.8 18.7263 8.8C18.7127 8.8 18.6992 8.8 18.6856 8.8C18.6721 8.8 18.6585 8.8 18.645 8.8C18.6315 8.8 18.618 8.8 18.6045 8.8C18.591 8.8 18.5775 8.8 18.564 8.8C18.5505 8.8 18.537 8.8 18.5235 8.8C18.5101 8.8 18.4966 8.8 18.4832 8.8C18.4697 8.8 18.4563 8.8 18.4428 8.8C18.4294 8.8 18.416 8.8 18.4026 8.8C18.3891 8.8 18.3757 8.8 18.3623 8.8C18.3489 8.8 18.3355 8.8 18.3222 8.8C18.3088 8.8 18.2954 8.8 18.282 8.8C18.2687 8.8 18.2553 8.8 18.242 8.8C18.2286 8.8 18.2153 8.8 18.202 8.8C18.1886 8.8 18.1753 8.8 18.162 8.8C18.1487 8.8 18.1354 8.8 18.1221 8.8C18.1088 8.8 18.0955 8.8 18.0822 8.8C18.0689 8.8 18.0557 8.8 18.0424 8.8C18.0291 8.8 18.0159 8.8 18.0026 8.8C17.9894 8.8 17.9762 8.8 17.9629 8.8C17.9497 8.8 17.9365 8.8 17.9233 8.8C17.9101 8.8 17.8969 8.8 17.8837 8.8C17.8705 8.8 17.8573 8.8 17.8441 8.8C17.8309 8.8 17.8177 8.8 17.8046 8.8C17.7914 8.8 17.7783 8.8 17.7651 8.8C17.752 8.8 17.7388 8.8 17.7257 8.8C17.7126 8.8 17.6994 8.8 17.6863 8.8C17.6732 8.8 17.6601 8.8 17.647 8.8C17.6339 8.8 17.6208 8.8 17.6077 8.8C17.5946 8.8 17.5815 8.8 17.5685 8.8C17.5554 8.8 17.5423 8.8 17.5293 8.8C17.5162 8.8 17.5032 8.8 17.4902 8.8C17.4771 8.8 17.4641 8.8 17.4511 8.8C17.438 8.8 17.425 8.8 17.412 8.8C17.399 8.8 17.386 8.8 17.373 8.8C17.36 8.8 17.347 8.8 17.334 8.8C17.3211 8.8 17.3081 8.8 17.2951 8.8C17.2822 8.8 17.2692 8.8 17.2563 8.8C17.2433 8.8 17.2304 8.8 17.2174 8.8C17.2045 8.8 17.1916 8.8 17.1787 8.8C17.1657 8.8 17.1528 8.8 17.1399 8.8C17.127 8.8 17.1141 8.8 17.1012 8.8C17.0883 8.8 17.0754 8.8 17.0626 8.8C17.0497 8.8 17.0368 8.8 17.024 8.8C17.0111 8.8 16.9982 8.8 16.9854 8.8C16.9725 8.8 16.9597 8.8 16.9469 8.8C16.934 8.8 16.9212 8.8 16.9084 8.8C16.8955 8.8 16.8827 8.8 16.8699 8.8C16.8571 8.8 16.8443 8.8 16.8315 8.8C16.8187 8.8 16.8059 8.8 16.7932 8.8C16.7804 8.8 16.7676 8.8 16.7548 8.8C16.7421 8.8 16.7293 8.8 16.7165 8.8C16.7038 8.8 16.691 8.8 16.6783 8.8C16.6656 8.8 16.6528 8.8 16.6401 8.8C16.6274 8.8 16.6146 8.8 16.6019 8.8C16.5892 8.8 16.5765 8.8 16.5638 8.8C16.5511 8.8 16.5384 8.8 16.5257 8.8C16.513 8.8 16.5003 8.8 16.4877 8.8C16.475 8.8 16.4623 8.8 16.4496 8.8C16.437 8.8 16.4243 8.8 16.4117 8.8C16.399 8.8 16.3864 8.8 16.3737 8.8C16.3611 8.8 16.3485 8.8 16.3358 8.8C16.3232 8.8 16.3106 8.8 16.298 8.8C16.2854 8.8 16.2727 8.8 16.2601 8.8C16.2475 8.8 16.2349 8.8 16.2223 8.8C16.2098 8.8 16.1972 8.8 16.1846 8.8C16.172 8.8 16.1594 8.8 16.1469 8.8C16.1343 8.8 16.1217 8.8 16.1092 8.8C16.0966 8.8 16.0841 8.8 16.0715 8.8C16.059 8.8 16.0464 8.8 16.0339 8.8C16.0214 8.8 16.0088 8.8 15.9963 8.8C15.9838 8.8 15.9713 8.8 15.9588 8.8C15.9463 8.8 15.9338 8.8 15.9213 8.8C15.9088 8.8 15.8963 8.8 15.8838 8.8C15.8713 8.8 15.8588 8.8 15.8463 8.8C15.8338 8.8 15.8214 8.8 15.8089 8.8C15.7964 8.8 15.784 8.8 15.7715 8.8C15.7591 8.8 15.7466 8.8 15.7342 8.8C15.7217 8.8 15.7093 8.8 15.6968 8.8C15.6844 8.8 15.672 8.8 15.6595 8.8C15.6471 8.8 15.6347 8.8 15.6223 8.8C15.6099 8.8 15.5975 8.8 15.585 8.8C15.5726 8.8 15.5602 8.8 15.5478 8.8C15.5355 8.8 15.5231 8.8 15.5107 8.8C15.4983 8.8 15.4859 8.8 15.4735 8.8C15.4612 8.8 15.4488 8.8 15.4364 8.8C15.4241 8.8 15.4117 8.8 15.3993 8.8C15.387 8.8 15.3746 8.8 15.3623 8.8C15.3499 8.8 15.3376 8.8 15.3253 8.8C15.3129 8.8 15.3006 8.8 15.2883 8.8C15.2759 8.8 15.2636 8.8 15.2513 8.8C15.239 8.8 15.2267 8.8 15.2144 8.8C15.2021 8.8 15.1898 8.8 15.1775 8.8C15.1652 8.8 15.1529 8.8 15.1406 8.8C15.1283 8.8 15.116 8.8 15.1037 8.8C15.0914 8.8 15.0791 8.8 15.0669 8.8C15.0546 8.8 15.0423 8.8 15.0301 8.8C15.0178 8.8 15.0055 8.8 14.9933 8.8C14.981 8.8 14.9688 8.8 14.9565 8.8C14.9443 8.8 14.932 8.8 14.9198 8.8C14.9076 8.8 14.8953 8.8 14.8831 8.8C14.8709 8.8 14.8586 8.8 14.8464 8.8C14.8342 8.8 14.822 8.8 14.8098 8.8C14.7975 8.8 14.7853 8.8 14.7731 8.8C14.7609 8.8 14.7487 8.8 14.7365 8.8C14.7243 8.8 14.7121 8.8 14.6999 8.8C14.6877 8.8 14.6756 8.8 14.6634 8.8C14.6512 8.8 14.639 8.8 14.6268 8.8C14.6147 8.8 14.6025 8.8 14.5903 8.8C14.5781 8.8 14.566 8.8 14.5538 8.8C14.5417 8.8 14.5295 8.8 14.5173 8.8C14.5052 8.8 14.493 8.8 14.4809 8.8C14.4687 8.8 14.4566 8.8 14.4445 8.8C14.4323 8.8 14.4202 8.8 14.408 8.8C14.3959 8.8 14.3838 8.8 14.3717 8.8C14.3595 8.8 14.3474 8.8 14.3353 8.8C14.3232 8.8 14.3111 8.8 14.2989 8.8C14.2868 8.8 14.2747 8.8 14.2626 8.8C14.2505 8.8 14.2384 8.8 14.2263 8.8C14.2142 8.8 14.2021 8.8 14.19 8.8C14.1779 8.8 14.1658 8.8 14.1537 8.8C14.1416 8.8 14.1296 8.8 14.1175 8.8C14.1054 8.8 14.0933 8.8 14.0812 8.8C14.0692 8.8 14.0571 8.8 14.045 8.8C14.033 8.8 14.0209 8.8 14.0088 8.8C13.9968 8.8 13.9847 8.8 13.9726 8.8C13.9606 8.8 13.9485 8.8 13.9365 8.8C13.9244 8.8 13.9124 8.8 13.9003 8.8C13.8883 8.8 13.8762 8.8 13.8642 8.8C13.8521 8.8 13.8401 8.8 13.8281 8.8C13.816 8.8 13.804 8.8 13.792 8.8C13.7799 8.8 13.7679 8.8 13.7559 8.8C13.7439 8.8 13.7318 8.8 13.7198 8.8C13.7078 8.8 13.6958 8.8 13.6837 8.8C13.6717 8.8 13.6597 8.8 13.6477 8.8C13.6357 8.8 13.6237 8.8 13.6117 8.8C13.5997 8.8 13.5877 8.8 13.5757 8.8C13.5637 8.8 13.5517 8.8 13.5397 8.8C13.5277 8.8 13.5157 8.8 13.5037 8.8C13.4917 8.8 13.4797 8.8 13.4677 8.8C13.4557 8.8 13.4437 8.8 13.4317 8.8C13.4197 8.8 13.4078 8.8 13.3958 8.8C13.3838 8.8 13.3718 8.8 13.3598 8.8C13.3479 8.8 13.3359 8.8 13.3239 8.8C13.3119 8.8 13.3 8.8 13.288 8.8C13.276 8.8 13.2641 8.8 13.2521 8.8C13.2401 8.8 13.2282 8.8 13.2162 8.8C13.2042 8.8 13.1923 8.8 13.1803 8.8C13.1684 8.8 13.1564 8.8 13.1444 8.8C13.1325 8.8 13.1205 8.8 13.1086 8.8C13.0966 8.8 13.0847 8.8 13.0727 8.8C13.0608 8.8 13.0488 8.8 13.0369 8.8C13.0249 8.8 13.013 8.8 13.001 8.8C12.9891 8.8 12.9772 8.8 12.9652 8.8C12.9533 8.8 12.9413 8.8 12.9294 8.8C12.9175 8.8 12.9055 8.8 12.8936 8.8C12.8816 8.8 12.8697 8.8 12.8578 8.8C12.8458 8.8 12.8339 8.8 12.822 8.8C12.8101 8.8 12.7981 8.8 12.7862 8.8C12.7743 8.8 12.7623 8.8 12.7504 8.8C12.7385 8.8 12.7266 8.8 12.7146 8.8C12.7027 8.8 12.6908 8.8 12.6789 8.8C12.6669 8.8 12.655 8.8 12.6431 8.8C12.6312 8.8 12.6193 8.8 12.6073 8.8C12.5954 8.8 12.5835 8.8 12.5716 8.8C12.5597 8.8 12.5478 8.8 12.5358 8.8C12.5239 8.8 12.512 8.8 12.5001 8.8C12.4882 8.8 12.4763 8.8 12.4644 8.8C12.4524 8.8 12.4405 8.8 12.4286 8.8C12.4167 8.8 12.4048 8.8 12.3929 8.8C12.381 8.8 12.3691 8.8 12.3572 8.8C12.3453 8.8 12.3333 8.8 12.3214 8.8C12.3095 8.8 12.2976 8.8 12.2857 8.8C12.2738 8.8 12.2619 8.8 12.25 8.8C12.2381 8.8 12.2262 8.8 12.2143 8.8C12.2024 8.8 12.1905 8.8 12.1786 8.8C12.1667 8.8 12.1548 8.8 12.1428 8.8C12.1309 8.8 12.119 8.8 12.1071 8.8C12.0952 8.8 12.0833 8.8 12.0714 8.8C12.0595 8.8 12.0476 8.8 12.0357 8.8C12.0238 8.8 12.0119 8.8 12 8.8C11.9881 8.8 11.9762 8.8 11.9643 8.8C11.9524 8.8 11.9405 8.8 11.9286 8.8C11.9167 8.8 11.9048 8.8 11.8929 8.8C11.881 8.8 11.8691 8.8 11.8572 8.8C11.8452 8.8 11.8333 8.8 11.8214 8.8C11.8095 8.8 11.7976 8.8 11.7857 8.8C11.7738 8.8 11.7619 8.8 11.75 8.8C11.7381 8.8 11.7262 8.8 11.7143 8.8C11.7024 8.8 11.6905 8.8 11.6786 8.8C11.6667 8.8 11.6547 8.8 11.6428 8.8C11.6309 8.8 11.619 8.8 11.6071 8.8C11.5952 8.8 11.5833 8.8 11.5714 8.8C11.5595 8.8 11.5476 8.8 11.5356 8.8C11.5237 8.8 11.5118 8.8 11.4999 8.8C11.488 8.8 11.4761 8.8 11.4642 8.8C11.4522 8.8 11.4403 8.8 11.4284 8.8C11.4165 8.8 11.4046 8.8 11.3927 8.8C11.3807 8.8 11.3688 8.8 11.3569 8.8C11.345 8.8 11.3331 8.8 11.3211 8.8C11.3092 8.8 11.2973 8.8 11.2854 8.8C11.2734 8.8 11.2615 8.8 11.2496 8.8C11.2377 8.8 11.2257 8.8 11.2138 8.8C11.2019 8.8 11.1899 8.8 11.178 8.8C11.1661 8.8 11.1542 8.8 11.1422 8.8C11.1303 8.8 11.1184 8.8 11.1064 8.8C11.0945 8.8 11.0825 8.8 11.0706 8.8C11.0587 8.8 11.0467 8.8 11.0348 8.8C11.0228 8.8 11.0109 8.8 10.999 8.8C10.987 8.8 10.9751 8.8 10.9631 8.8C10.9512 8.8 10.9392 8.8 10.9273 8.8C10.9153 8.8 10.9034 8.8 10.8914 8.8C10.8795 8.8 10.8675 8.8 10.8556 8.8C10.8436 8.8 10.8316 8.8 10.8197 8.8C10.8077 8.8 10.7958 8.8 10.7838 8.8C10.7718 8.8 10.7599 8.8 10.7479 8.8C10.7359 8.8 10.724 8.8 10.712 8.8C10.7 8.8 10.6881 8.8 10.6761 8.8C10.6641 8.8 10.6521 8.8 10.6402 8.8C10.6282 8.8 10.6162 8.8 10.6042 8.8C10.5922 8.8 10.5803 8.8 10.5683 8.8C10.5563 8.8 10.5443 8.8 10.5323 8.8C10.5203 8.8 10.5083 8.8 10.4963 8.8C10.4843 8.8 10.4723 8.8 10.4603 8.8C10.4483 8.8 10.4363 8.8 10.4243 8.8C10.4123 8.8 10.4003 8.8 10.3883 8.8C10.3763 8.8 10.3643 8.8 10.3523 8.8C10.3403 8.8 10.3283 8.8 10.3163 8.8C10.3042 8.8 10.2922 8.8 10.2802 8.8C10.2682 8.8 10.2561 8.8 10.2441 8.8C10.2321 8.8 10.2201 8.8 10.208 8.8C10.196 8.8 10.184 8.8 10.1719 8.8C10.1599 8.8 10.1479 8.8 10.1358 8.8C10.1238 8.8 10.1117 8.8 10.0997 8.8C10.0876 8.8 10.0756 8.8 10.0635 8.8C10.0515 8.8 10.0394 8.8 10.0274 8.8C10.0153 8.8 10.0032 8.8 9.99118 8.8C9.97911 8.8 9.96705 8.8 9.95498 8.8C9.94291 8.8 9.93083 8.8 9.91876 8.8C9.90668 8.8 9.8946 8.8 9.88252 8.8C9.87044 8.8 9.85836 8.8 9.84627 8.8C9.83418 8.8 9.82209 8.8 9.80999 8.8C9.7979 8.8 9.7858 8.8 9.7737 8.8C9.7616 8.8 9.7495 8.8 9.73739 8.8C9.72529 8.8 9.71318 8.8 9.70106 8.8C9.68895 8.8 9.67683 8.8 9.66471 8.8C9.65259 8.8 9.64047 8.8 9.62834 8.8C9.61622 8.8 9.60409 8.8 9.59195 8.8C9.57982 8.8 9.56768 8.8 9.55554 8.8C9.5434 8.8 9.53126 8.8 9.51911 8.8C9.50696 8.8 9.49481 8.8 9.48266 8.8C9.4705 8.8 9.45835 8.8 9.44618 8.8C9.43402 8.8 9.42186 8.8 9.40969 8.8C9.39752 8.8 9.38535 8.8 9.37317 8.8C9.361 8.8 9.34882 8.8 9.33663 8.8C9.32445 8.8 9.31226 8.8 9.30007 8.8C9.28788 8.8 9.27568 8.8 9.26348 8.8C9.25128 8.8 9.23908 8.8 9.22687 8.8C9.21467 8.8 9.20246 8.8 9.19024 8.8C9.17803 8.8 9.16581 8.8 9.15358 8.8C9.14136 8.8 9.12913 8.8 9.1169 8.8C9.10467 8.8 9.09244 8.8 9.0802 8.8C9.06796 8.8 9.05571 8.8 9.04347 8.8C9.03122 8.8 9.01897 8.8 9.00671 8.8C8.99446 8.8 8.98219 8.8 8.96993 8.8C8.95767 8.8 8.9454 8.8 8.93312 8.8C8.92085 8.8 8.90857 8.8 8.89629 8.8C8.88401 8.8 8.87172 8.8 8.85943 8.8C8.84714 8.8 8.83485 8.8 8.82255 8.8C8.81025 8.8 8.79794 8.8 8.78563 8.8C8.77332 8.8 8.76101 8.8 8.74869 8.8C8.73637 8.8 8.72405 8.8 8.71172 8.8C8.6994 8.8 8.68707 8.8 8.67473 8.8C8.66239 8.8 8.65005 8.8 8.6377 8.8C8.62536 8.8 8.61301 8.8 8.60065 8.8C8.5883 8.8 8.57594 8.8 8.56357 8.8C8.55121 8.8 8.53884 8.8 8.52646 8.8C8.51409 8.8 8.50171 8.8 8.48932 8.8C8.47694 8.8 8.46455 8.8 8.45215 8.8C8.43976 8.8 8.42736 8.8 8.41495 8.8C8.40255 8.8 8.39014 8.8 8.37772 8.8C8.36531 8.8 8.35289 8.8 8.34046 8.8C8.32803 8.8 8.3156 8.8 8.30317 8.8C8.29073 8.8 8.27829 8.8 8.26584 8.8C8.2534 8.8 8.24095 8.8 8.22849 8.8C8.21603 8.8 8.20357 8.8 8.1911 8.8C8.17864 8.8 8.16616 8.8 8.15368 8.8C8.14121 8.8 8.12872 8.8 8.11623 8.8C8.10374 8.8 8.09125 8.8 8.07875 8.8C8.06625 8.8 8.05374 8.8 8.04123 8.8C8.02872 8.8 8.0162 8.8 8.00368 8.8C7.99116 8.8 7.97863 8.8 7.9661 8.8C7.95356 8.8 7.94102 8.8 7.92848 8.8C7.91593 8.8 7.90338 8.8 7.89082 8.8C7.87827 8.8 7.86571 8.8 7.85314 8.8C7.84057 8.8 7.82799 8.8 7.81541 8.8C7.80283 8.8 7.79025 8.8 7.77766 8.8C7.76507 8.8 7.75247 8.8 7.73986 8.8C7.72726 8.8 7.71465 8.8 7.70203 8.8C7.68942 8.8 7.6768 8.8 7.66417 8.8C7.65154 8.8 7.63891 8.8 7.62627 8.8C7.61363 8.8 7.60098 8.8 7.58833 8.8C7.57568 8.8 7.56302 8.8 7.55035 8.8C7.53769 8.8 7.52502 8.8 7.51234 8.8C7.49966 8.8 7.48698 8.8 7.47429 8.8C7.4616 8.8 7.4489 8.8 7.4362 8.8C7.4235 8.8 7.41079 8.8 7.39807 8.8C7.38535 8.8 7.37263 8.8 7.3599 8.8C7.34718 8.8 7.33444 8.8 7.3217 8.8C7.30896 8.8 7.29621 8.8 7.28345 8.8C7.2707 8.8 7.25794 8.8 7.24517 8.8C7.2324 8.8 7.21963 8.8 7.20685 8.8C7.19407 8.8 7.18128 8.8 7.16848 8.8C7.15569 8.8 7.14289 8.8 7.13008 8.8C7.11727 8.8 7.10445 8.8 7.09163 8.8C7.07881 8.8 7.06598 8.8 7.05315 8.8C7.04031 8.8 7.02747 8.8 7.01462 8.8C7.00177 8.8 6.98891 8.8 6.97605 8.8C6.96319 8.8 6.95031 8.8 6.93744 8.8C6.92456 8.8 6.91167 8.8 6.89878 8.8C6.88589 8.8 6.87299 8.8 6.86009 8.8C6.84718 8.8 6.83427 8.8 6.82135 8.8C6.80843 8.8 6.7955 8.8 6.78256 8.8C6.76963 8.8 6.75669 8.8 6.74374 8.8C6.73079 8.8 6.71783 8.8 6.70487 8.8C6.6919 8.8 6.67893 8.8 6.66595 8.8C6.65297 8.8 6.63999 8.8 6.62699 8.8C6.614 8.8 6.601 8.8 6.58799 8.8C6.57498 8.8 6.56197 8.8 6.54894 8.8C6.53592 8.8 6.52289 8.8 6.50985 8.8C6.49681 8.8 6.48376 8.8 6.47071 8.8C6.45765 8.8 6.44459 8.8 6.43152 8.8C6.41845 8.8 6.40537 8.8 6.39229 8.8C6.3792 8.8 6.36611 8.8 6.35301 8.8C6.33991 8.8 6.3268 8.8 6.31368 8.8C6.30057 8.8 6.28744 8.8 6.27431 8.8C6.26118 8.8 6.24804 8.8 6.23489 8.8C6.22174 8.8 6.20859 8.8 6.19542 8.8C6.18226 8.8 6.16909 8.8 6.1559 8.8C6.14272 8.8 6.12954 8.8 6.11634 8.8C6.10314 8.8 6.08994 8.8 6.07673 8.8C6.06351 8.8 6.05029 8.8 6.03706 8.8C6.02383 8.8 6.0106 8.8 5.99735 8.8C5.9841 8.8 5.97085 8.8 5.95759 8.8C5.94433 8.8 5.93105 8.8 5.91778 8.8C5.9045 8.8 5.89121 8.8 5.87791 8.8C5.86462 8.8 5.85131 8.8 5.838 8.8C5.82469 8.8 5.81137 8.8 5.79804 8.8C5.78471 8.8 5.77137 8.8 5.75802 8.8C5.74467 8.8 5.73132 8.8 5.71795 8.8C5.70459 8.8 5.69122 8.8 5.67784 8.8C5.66445 8.8 5.65106 8.8 5.63766 8.8C5.62427 8.8 5.61086 8.8 5.59744 8.8C5.58403 8.8 5.5706 8.8 5.55717 8.8C5.54373 8.8 5.53029 8.8 5.51684 8.8C5.50338 8.8 5.48992 8.8 5.47645 8.8C5.46298 8.8 5.44951 8.8 5.43602 8.8C5.42253 8.8 5.40903 8.8 5.39553 8.8C5.38202 8.8 5.36851 8.8 5.35498 8.8C5.34146 8.8 5.32793 8.8 5.31438 8.8C5.30084 8.8 5.28729 8.8 5.27373 8.8C5.26017 8.8 5.2466 8.8 5.23302 8.8C5.21944 8.8 5.20585 8.8 5.19226 8.8C5.17866 8.8 5.16505 8.8 5.15144 8.8C5.13782 8.8 5.12419 8.8 5.11056 8.8C5.09692 8.8 5.08328 8.8 5.06963 8.8C5.05597 8.8 5.04231 8.8 5.02864 8.8C5.01496 8.8 5.00128 8.8 4.98759 8.8C4.9739 8.8 4.9602 8.8 4.94648 8.8C4.93277 8.8 4.91905 8.8 4.90532 8.8C4.89159 8.8 4.87785 8.8 4.8641 8.8C4.85035 8.8 4.83659 8.8 4.82282 8.8C4.80905 8.8 4.79528 8.8 4.78149 8.8C4.7677 8.8 4.7539 8.8 4.74009 8.8C4.72628 8.8 4.71246 8.8 4.69864 8.8C4.68481 8.8 4.67097 8.8 4.65712 8.8C4.64327 8.8 4.62942 8.8 4.61555 8.8C4.60168 8.8 4.5878 8.8 4.57391 8.8C4.56002 8.8 4.54613 8.8 4.53222 8.8C4.51831 8.8 4.50439 8.8 4.49046 8.8C4.47653 8.8 4.46259 8.8 4.44864 8.8C4.4347 8.8 4.42074 8.8 4.40677 8.8C4.3928 8.8 4.37882 8.8 4.36483 8.8C4.35084 8.8 4.33684 8.8 4.32283 8.8C4.30881 8.8 4.29479 8.8 4.28076 8.8C4.26673 8.8 4.25269 8.8 4.23863 8.8C4.22458 8.8 4.21052 8.8 4.19645 8.8C4.18237 8.8 4.16829 8.8 4.15419 8.8C4.1401 8.8 4.12599 8.8 4.11188 8.8C4.09776 8.8 4.08363 8.8 4.0695 8.8C4.05536 8.8 4.04121 8.8 4.02705 8.8C4.01289 8.8 3.99872 8.8 3.98454 8.8C3.97036 8.8 3.95617 8.8 3.94197 8.8C3.92777 8.8 3.91356 8.8 3.89933 8.8C3.88511 8.8 3.87087 8.8 3.85663 8.8C3.84238 8.8 3.82813 8.8 3.81386 8.8C3.79959 8.8 3.78531 8.8 3.77102 8.8C3.75673 8.8 3.74243 8.8 3.72812 8.8C3.71381 8.8 3.69949 8.8 3.68515 8.8C3.67082 8.8 3.65647 8.8 3.64212 8.8C3.62776 8.8 3.61339 8.8 3.59902 8.8C3.58464 8.8 3.57025 8.8 3.55585 8.8C3.54145 8.8 3.52703 8.8 3.51261 8.8C3.49819 8.8 3.48375 8.8 3.4693 8.8C3.45486 8.8 3.4404 8.8 3.42593 8.8C3.41146 8.8 3.39698 8.8 3.38249 8.8C3.36799 8.8 3.35349 8.8 3.33897 8.8C3.32446 8.8 3.30993 8.8 3.29539 8.8C3.28085 8.8 3.2663 8.8 3.25174 8.8C3.23718 8.8 3.22261 8.8 3.20802 8.8C3.19344 8.8 3.17884 8.8 3.16423 8.8C3.14962 8.8 3.135 8.8 3.12037 8.8C3.10574 8.8 3.09109 8.8 3.07644 8.8C3.06178 8.8 3.04711 8.8 3.03243 8.8C3.01775 8.8 3.00306 8.8 2.98836 8.8C2.97365 8.8 2.95894 8.8 2.94421 8.8C2.92948 8.8 2.91474 8.8 2.89999 8.8C2.88524 8.8 2.87048 8.8 2.8557 8.8C2.84093 8.8 2.82614 8.8 2.81134 8.8C2.79654 8.8 2.78172 8.8 2.7669 8.8C2.75208 8.8 2.73724 8.8 2.72239 8.8C2.70754 8.8 2.69268 8.8 2.67781 8.8C2.66293 8.8 2.64805 8.8 2.63315 8.8C2.61825 8.8 2.60334 8.8 2.58842 8.8C2.57349 8.8 2.55856 8.8 2.54361 8.8C2.52866 8.8 2.5137 8.8 2.49873 8.8C2.48375 8.8 2.46877 8.8 2.45377 8.8C2.43877 8.8 2.42376 8.8 2.40874 8.8C2.39371 8.8 2.37868 8.8 2.36363 8.8C2.34858 8.8 2.33352 8.8 2.31845 8.8C2.30337 8.8 2.28828 8.8 2.27318 8.8C2.25809 8.8 2.24297 8.8 2.22785 8.8C2.21272 8.8 2.19758 8.8 2.18243 8.8C2.16728 8.8 2.15212 8.8 2.13694 8.8C2.12176 8.8 2.10658 8.8 2.09137 8.8C2.07617 8.8 2.06095 8.8 2.04573 8.8C2.0305 8.8 2.01525 8.8 2 8.8V11.2Z" fill="#FDB75E" mask="url(#path-1-outside-1)"/>
</svg>
