<svg width="24" height="24" viewBox="0 0 24 24" fill="none" xmlns="http://www.w3.org/2000/svg">
<mask id="path-1-outside-1" maskUnits="userSpaceOnUse" x="0" y="0" width="24" height="24" fill="black">
<rect fill="white" width="24" height="24"/>
<path d="M12 2V22V2ZM2 12H22Z"/>
</mask>
<path d="M13.2 2C13.2 1.33726 12.6627 0.8 12 0.8C11.3373 0.8 10.8 1.33726 10.8 2H13.2ZM10.8 22C10.8 22.6627 11.3373 23.2 12 23.2C12.6627 23.2 13.2 22.6627 13.2 22H10.8ZM2 10.8C1.33726 10.8 0.8 11.3373 0.8 12C0.8 12.6627 1.33726 13.2 2 13.2V10.8ZM22 13.2C22.6627 13.2 23.2 12.6627 23.2 12C23.2 11.3373 22.6627 10.8 22 10.8V13.2ZM10.8 2V22H13.2V2H10.8ZM13.2 22V2H10.8V22H13.2ZM2 13.2H22V10.8H2V13.2Z" fill="#FE9A00" mask="url(#path-1-outside-1)"/>
</svg>
