<svg width="396" height="31" viewBox="0 0 396 31" fill="none" xmlns="http://www.w3.org/2000/svg">
<path d="M237.896 29.6157C237.473 29.7146 237.261 29.9123 237.261 30.0112C237.261 30.1101 237.473 30.1101 237.896 30.1101C238.32 30.1101 238.531 29.9123 238.531 29.7146C238.531 29.5169 238.108 29.5169 237.896 29.6157Z" fill="#FE9A00"/>
<path d="M84.6606 5.78804C83.814 6.18352 85.2956 6.28239 87.2004 5.88691L88.8936 5.5903H86.9888C85.9305 5.49143 84.8722 5.5903 84.6606 5.78804Z" fill="#FE9A00"/>
<path d="M233.028 30.3078C230.277 30.5055 229.854 30.4067 230.277 29.9123C230.489 29.6157 230.277 29.418 229.642 29.418C229.007 29.418 228.16 29.2202 227.737 29.0225C227.314 28.8247 226.044 28.5281 224.986 28.5281C223.504 28.4293 223.081 28.627 222.658 29.1214C222.446 29.5168 222.023 29.7146 221.599 29.6157C221.176 29.5168 220.753 29.5168 220.753 29.7146C220.753 30.1101 221.176 30.1101 228.584 30.7033C233.24 31.0988 237.261 30.901 236.627 30.4067C236.627 30.3078 234.933 30.2089 233.028 30.3078Z" fill="#FE9A00"/>
<path d="M357.479 16.565C356.633 16.9605 356.844 16.9605 359.173 16.9605C360.231 16.9605 361.289 16.8616 361.289 16.6639C361.289 16.2684 358.326 16.1695 357.479 16.565Z" fill="#FE9A00"/>
<path d="M225.409 10.6328C225.62 10.7317 226.255 10.7317 226.679 10.6328C227.314 10.5339 227.102 10.4351 226.255 10.4351C225.62 10.4351 225.197 10.5339 225.409 10.6328Z" fill="#FE9A00"/>
<path d="M297.371 9.34735C296.524 9.44622 295.889 9.64396 295.889 9.8417C295.889 10.0394 296.312 10.0394 296.947 9.94057C297.582 9.8417 298.429 9.74283 298.641 9.74283C299.064 9.74283 299.064 9.64396 298.852 9.44622C299.064 9.34735 298.217 9.24848 297.371 9.34735Z" fill="#FE9A00"/>
<path d="M394.518 16.3136C391.978 15.1271 384.782 13.3475 383.512 13.5452C382.666 13.7429 382.454 13.5452 382.454 12.8531C382.454 12.3588 382.031 11.9633 381.184 11.7655C380.549 11.6667 379.068 11.3701 377.798 11.1723C375.893 10.7768 375.681 10.7768 375.47 11.2712C375.258 11.5678 375.893 12.0621 376.951 12.3588C377.798 12.6554 378.433 12.952 378.221 13.0508C378.009 13.1497 375.47 13.2486 372.718 13.3475C369.755 13.4463 368.273 13.4463 369.12 13.3475C371.872 13.1497 370.602 12.2599 366.58 11.5678C364.464 11.2712 360.019 10.8757 356.421 10.7768C352.823 10.678 348.167 10.4802 345.838 10.3814C343.51 10.2825 341.182 10.1836 340.547 10.0847C339.912 9.98587 335.891 9.887 331.446 9.78813C327.001 9.68926 320.017 9.59039 315.996 9.49152C311.974 9.39265 305.413 9.19491 301.603 9.09604C297.794 8.99717 291.021 8.79943 286.788 8.60169C282.555 8.40395 277.687 8.20621 275.993 8.20621C274.3 8.20621 272.184 8.00847 271.549 7.9096C270.49 7.9096 268.797 7.9096 267.527 8.00847C266.046 8.10734 264.564 8.10734 264.141 7.9096C263.083 7.51412 256.521 7.21751 247.632 7.11864C234.298 6.9209 217.578 6.42655 206.995 5.9322C203.397 5.73446 196.624 5.53672 191.968 5.43785C187.311 5.33898 182.655 5.24011 181.385 5.14124C178.634 4.9435 165.723 4.64689 150.907 4.44915C144.558 4.35028 136.092 4.25141 132.282 4.05367C128.472 3.9548 119.795 3.75706 113.022 3.75706C82.9672 3.46045 66.0351 3.26271 62.8603 3.06497C54.6059 2.57062 50.3729 2.57062 48.6796 3.16384C47.6214 3.55932 46.3515 3.55932 45.0816 3.46045C44.0233 3.36158 40.4252 3.16384 37.2505 3.06497C33.864 2.9661 30.6893 2.9661 29.8427 2.86723C28.9961 2.86723 26.8795 2.86723 24.763 2.86723C20.7416 3.06497 16.9319 2.47175 16.9319 1.77966C16.9319 1.48305 17.3552 1.28531 17.7785 1.28531C18.2018 1.28531 18.4135 1.18644 18.2018 1.08757C17.7785 0.9887 16.9319 1.08757 16.297 1.38418C15.2387 1.87853 14.8154 1.87853 13.7571 1.48305C12.0639 0.88983 11.2173 0.88983 11.2173 1.48305C11.2173 2.07627 10.3707 2.37288 9.10081 1.9774C8.25421 1.77966 8.25421 1.58192 9.10081 1.18644C10.1591 0.59322 9.52411 0 8.04255 0C6.9843 0 6.77264 0.39548 6.9843 1.18644C6.9843 1.38418 6.13769 1.58192 5.07943 1.58192C4.02117 1.58192 2.96292 1.77966 2.96292 1.9774C2.75127 2.17514 2.11631 2.57062 1.48136 3.06497C0.211447 3.65819 0.211447 3.85593 1.05805 4.44915C2.32796 5.43785 2.32796 6.52542 1.05805 6.72316C-0.846811 7.11864 -0.000204746 8.20621 2.53961 8.8983C5.07943 9.59039 5.07943 9.68926 4.65613 11.0734C4.23283 12.3588 4.44448 12.5565 5.92604 12.8531C6.9843 13.0508 7.4076 13.4463 7.19595 13.8418C6.9843 14.3362 10.794 16.4124 14.8154 17.7966C15.8737 18.0932 16.0853 18.291 15.662 18.1921C14.3921 17.8955 13.7571 18.983 14.8154 19.3785C15.4504 19.5763 16.7203 19.6751 17.9902 19.6751C20.53 19.6751 22.2232 20.9605 21.1649 21.9492C20.1067 22.839 20.3183 22.9379 22.6465 23.2345C24.5514 23.4322 24.9747 23.6299 24.763 24.322C24.5514 24.9153 24.9747 25.2119 26.2446 25.4096C28.9961 25.8051 32.1708 26.4972 33.0174 26.9915C33.4407 27.2881 34.2873 27.4859 34.9223 27.4859C35.5573 27.4859 37.4621 28.178 39.367 28.9689C43.1767 30.6497 45.5049 30.8475 47.4097 29.7599C48.8913 28.9689 51.2195 28.7712 49.7379 29.661C48.2563 30.452 50.1612 30.8475 53.9709 30.5508C57.1457 30.3531 57.9923 30.3531 63.7069 30.5508C67.9399 30.7486 71.7497 30.3531 71.7497 29.7599C71.7497 29.0678 75.3477 28.8701 84.2371 28.7712C89.5284 28.7712 91.8566 28.8701 92.2799 29.1667C93.3381 29.9576 95.8779 30.3531 99.8993 30.452C107.519 30.5508 110.27 30.452 110.694 30.0565C111.117 29.7599 111.752 29.7599 113.233 30.1554C115.985 30.7486 128.684 31.2429 130.377 30.8475C131.224 30.6497 132.705 30.6497 134.61 30.8475C136.303 31.0452 139.055 31.2429 141.171 31.3418C143.076 31.4407 147.521 31.6384 151.119 31.8362C160.855 32.3305 164.241 32.2316 165.088 31.5395C165.723 31.0452 166.781 30.9463 171.014 31.0452C185.195 31.2429 189.851 31.1441 191.121 30.8475C191.968 30.6497 192.814 30.6497 193.026 30.7486C193.449 30.8475 195.566 31.2429 197.682 31.4407C201.28 31.8362 201.915 31.7373 203.609 31.2429C204.878 30.8475 206.36 30.7486 208.9 30.8475C210.805 30.9463 212.286 30.9463 212.286 30.7486C212.286 30.2542 214.614 30.1554 219.059 30.452C221.387 30.6497 225.62 30.8475 228.583 30.9463C231.547 31.0452 234.298 31.2429 234.933 31.3418C236.415 31.6384 255.463 32.3305 268.586 32.5282C273.454 32.6271 275.782 32.5282 277.263 32.2316C278.533 31.935 279.591 31.8362 280.438 32.0339C282.555 32.5282 287.423 33.0226 288.481 32.8249C289.116 32.726 290.809 32.8249 292.291 33.0226C296.1 33.5169 304.566 33.5169 309.223 33.0226C311.339 32.8249 314.091 32.6271 315.572 32.5282C316.842 32.4294 319.382 32.3305 320.864 32.2316C322.345 32.1328 325.943 32.0339 328.483 32.0339C333.563 31.935 336.737 31.3418 338.007 30.2542C338.431 29.9576 339.066 29.7599 339.701 29.8588C340.335 29.9576 340.759 29.8588 341.182 29.7599C341.605 29.4633 340.759 29.3644 330.599 29.2655C327.213 29.2655 321.287 29.1667 317.689 29.1667C314.091 29.1667 310.493 29.1667 309.646 29.1667C307.318 29.3644 307.953 28.5734 310.916 27.6836C313.456 26.8927 317.265 26.4972 319.17 26.8927C320.229 27.0904 334.833 27.387 351.553 27.4859C355.363 27.4859 358.538 27.6836 358.961 27.7825C360.019 28.2768 363.405 27.9802 365.099 27.2881L366.58 26.596L364.887 26.3983C363.829 26.2994 362.347 26.0028 361.501 25.7062C360.442 25.4096 359.807 25.3107 359.384 25.6073C358.114 26.4972 355.786 26.2994 353.035 25.2119C350.918 24.322 350.071 24.2232 349.013 24.4209C348.167 24.6186 347.532 24.6186 346.897 24.4209C346.262 24.1243 346.473 24.0254 347.532 24.0254C348.378 24.0254 350.071 23.8277 351.341 23.5311C353.458 23.1356 355.363 23.1356 358.114 23.6299C358.961 23.8277 362.559 23.9265 373.141 24.1243C376.951 24.2232 378.433 24.1243 378.009 23.7288C377.798 23.5311 376.74 23.4322 375.893 23.4322C375.046 23.4322 373.988 23.3333 373.776 23.1356C373.565 22.9379 371.448 22.6412 369.12 22.4435C366.792 22.2458 364.675 21.8503 364.464 21.5537C364.04 21.0593 360.019 20.9604 359.172 21.3559C358.538 21.6525 351.13 21.7514 348.59 21.5537C347.108 21.4548 346.897 21.2571 347.32 20.9605C347.955 20.565 342.875 20.565 330.811 20.8616C327.213 20.9604 325.52 20.7627 325.52 20.2684C325.52 19.6751 323.403 19.5763 322.133 20.1695C320.864 20.7627 314.937 20.7627 314.302 20.1695C313.879 19.774 313.456 19.774 312.186 20.0706C310.493 20.565 308.588 20.565 308.588 20.1695C308.588 19.9717 307.953 19.8729 307.106 19.8729C306.26 19.8729 305.836 19.774 306.048 19.5763C306.471 19.2797 298.852 18.983 286.576 18.7853C284.671 18.7853 283.19 18.6864 283.19 18.5876C283.19 18.291 286.153 17.2034 286.999 17.2034C287.423 17.2034 287.634 17.1045 287.211 17.0056C286.999 16.9068 286.153 17.0056 285.306 17.2034C283.401 17.6977 274.3 17.9943 272.819 17.6977C272.184 17.5989 270.067 17.4011 268.162 17.4011C263.718 17.3023 262.659 16.8079 265.622 16.3136C269.432 15.7203 267.739 15.1271 262.024 15.1271C259.061 15.1271 255.675 14.9294 254.193 14.8305C252.077 14.6328 251.442 14.7316 251.019 15.1271C250.807 15.5226 251.019 15.8192 251.653 16.1158C252.288 16.3136 252.5 16.6102 252.288 16.709C251.653 17.0056 247.632 17.0056 246.574 16.6102C245.939 16.4124 245.304 16.4124 244.669 16.6102C243.611 17.0056 242.764 16.4124 243.399 15.9181C243.822 15.5226 240.436 15.8192 239.166 16.3136C238.743 16.5113 238.319 16.5113 238.108 16.4124C237.896 16.3136 235.78 16.2147 233.663 16.1158C223.081 15.8192 217.578 15.6215 217.366 15.4237C217.154 15.3249 216.943 15.0282 216.943 14.7316C216.943 14.435 216.519 14.1384 216.096 14.0395C215.673 13.9407 215.249 14.1384 215.249 14.435C215.249 14.8305 214.826 14.9294 214.191 14.8305C213.556 14.7316 213.345 14.8305 213.556 15.1271C213.98 15.5226 213.556 15.6215 211.863 15.4237C210.381 15.226 209.535 15.3249 209.323 15.7203C209.112 16.0169 208.477 16.2147 207.842 16.2147C207.207 16.2147 206.783 16.0169 206.995 15.7203C207.63 14.9294 204.244 14.7316 201.069 15.3249C197.471 16.0169 193.449 16.0169 192.814 15.3249C192.603 15.0282 191.544 14.8305 190.063 14.8305C188.793 14.8305 186.888 14.6328 185.618 14.3362C184.137 14.0395 182.655 13.9407 181.385 14.0395C179.48 14.2373 179.269 14.1384 179.269 13.4463C179.269 13.0508 179.692 12.4576 180.115 12.2599C181.385 11.6667 180.115 11.0734 178.634 11.4689C177.999 11.6667 176.729 11.7655 176.094 11.7655C173.342 11.6667 172.284 11.8644 172.284 12.4576C172.284 13.2486 170.591 13.1497 170.379 12.3588C170.168 12.0621 171.226 11.6667 172.707 11.2712C173.977 10.9746 175.459 10.5791 175.671 10.3814C176.517 9.78813 168.051 10.2825 167.205 10.8757C166.781 11.1723 166.146 11.3701 165.935 11.3701C165.3 11.3701 163.606 12.3588 162.76 13.2486C161.702 14.435 160.22 14.1384 160.008 12.6554C160.008 11.9633 160.22 11.3701 160.432 11.2712C160.643 11.2712 161.913 11.1723 162.971 11.1723C165.3 11.0734 165.935 10.8757 165.088 10.3814C164.665 10.0847 163.606 10.0847 161.702 10.1836C156.199 10.5791 142.23 10.678 142.23 10.3814C142.23 10.1836 141.171 10.0847 140.113 10.1836C137.573 10.2825 136.727 9.68926 138.632 9.29378C139.69 9.09604 153.659 8.70056 159.585 8.79943C160.643 8.79943 162.76 8.40395 164.241 7.9096C165.723 7.41525 168.051 7.01977 169.321 7.01977C170.591 7.01977 172.073 6.82203 172.496 6.72316C173.554 6.9209 174.824 6.9209 175.882 6.9209C176.94 7.01977 178.21 6.9209 178.634 6.82203C179.057 6.72316 179.692 6.82203 179.904 7.11864C180.115 7.41525 179.904 7.61299 178.845 7.61299C177.999 7.61299 176.94 7.71186 176.306 7.9096C175.671 8.10734 175.882 8.20621 177.364 8.40395C178.422 8.50282 179.48 8.60169 179.692 8.70056C179.904 8.70056 180.327 8.40395 180.962 7.9096C181.597 7.31638 181.808 7.21751 181.808 7.71186C181.808 8.30508 184.56 8.50282 185.618 8.10734C186.042 7.9096 187.946 7.71186 195.566 7.51412C198.317 7.41525 201.069 7.21751 202.127 7.01977C203.397 6.72316 204.032 6.72316 204.878 7.11864C205.725 7.41525 208.053 7.61299 212.71 7.61299C216.308 7.61299 221.387 7.81073 223.715 8.00847C226.044 8.20621 229.218 8.50282 230.7 8.50282C232.182 8.50282 235.568 8.79943 238.108 9.09604C240.648 9.39265 244.457 9.49152 246.574 9.49152C252.712 9.29378 256.733 9.39265 257.156 9.68926C257.368 9.887 259.273 9.98587 261.178 9.887C263.294 9.887 264.988 9.98587 265.199 10.0847C265.622 10.4802 268.162 10.3814 268.162 9.98588C268.162 9.49152 270.279 9.59039 271.549 10.1836C272.395 10.5791 275.993 10.7768 284.883 10.9746C291.656 11.1723 298.64 11.2712 300.757 11.2712C302.662 11.2712 304.99 11.3701 305.836 11.5678C306.683 11.7655 312.397 11.9633 320.44 11.9633C336.314 11.9633 342.452 12.0621 343.934 12.3588C344.569 12.4576 346.897 12.6554 349.013 12.7542C351.13 12.8531 353.035 13.0508 353.035 13.2486C353.035 13.9407 339.066 14.0395 338.431 13.2486C338.007 12.7542 336.102 12.7542 336.102 13.3475C336.102 13.6441 335.256 14.0395 333.986 14.2373C329.965 15.0282 331.234 15.4237 338.431 15.6215C341.182 15.6215 343.299 15.8192 343.51 16.0169C343.934 16.5113 336.737 16.6102 334.833 16.1158C332.928 15.6215 329.753 16.0169 329.753 16.709C329.753 17.1045 330.6 17.2034 332.504 17.2034C333.986 17.2034 335.256 17.3023 335.256 17.5C335.256 17.6977 336.737 17.6977 338.854 17.5989C341.394 17.5 342.452 17.5 342.452 17.7966C342.452 18.0932 343.51 18.1921 345.838 17.9943C347.743 17.8955 349.225 17.7966 349.436 17.7966C350.071 17.6977 350.706 17.7966 350.706 18.1921C350.706 18.4887 351.765 18.5876 353.67 18.4887C355.574 18.3898 356.421 18.4887 356.209 18.6864C355.574 19.1808 357.903 19.0819 360.231 18.5876C361.924 18.1921 362.136 18.1921 361.924 18.6864C361.712 19.4774 369.967 22.1469 370.602 21.5537C371.025 21.1582 373.776 21.1582 383.512 21.5537C386.687 21.6525 387.322 21.6525 387.957 21.0593C388.38 20.6638 389.227 20.3672 389.439 20.3672C389.862 20.3672 391.344 20.0706 392.613 19.774C396.423 18.983 397.058 17.5989 394.518 16.3136ZM4.65613 3.26271C4.02117 3.26271 3.59787 3.16384 3.59787 2.9661C3.59787 2.76836 3.80952 2.66949 4.23283 2.66949C4.65613 2.66949 5.07943 2.86723 5.29108 2.9661C5.50274 3.16384 5.29108 3.26271 4.65613 3.26271ZM58.6273 6.03107C58.204 5.63559 57.3574 5.53672 54.3942 5.73446C47.6214 6.03107 49.9496 5.53672 57.7807 5.04237C60.9554 4.84463 61.1671 4.84463 61.1671 5.73446C60.9554 6.62429 59.2622 6.9209 58.6273 6.03107ZM316.842 23.4322C318.535 23.5311 319.805 23.5311 319.594 23.4322C319.382 23.3333 321.71 23.1356 324.885 23.1356C329.541 23.1356 330.176 23.2345 329.541 23.5311C329.118 23.8277 328.06 23.9266 327.425 23.8277C326.79 23.7288 325.097 23.8277 323.827 24.0254C322.557 24.2232 319.17 24.4209 316.419 24.4209C313.667 24.4209 311.128 24.4209 310.916 24.2232C310.281 23.7288 313.879 23.2345 316.842 23.4322ZM287.634 23.0367C288.693 23.0367 288.904 23.1356 288.481 23.2345C288.058 23.3333 287.211 23.3333 286.788 23.2345C286.153 23.0367 286.576 23.0367 287.634 23.0367ZM262.448 26.2006C262.024 26.3983 261.389 26.4972 260.966 26.3983C259.908 26.2006 260.966 25.8051 262.236 25.8051C263.083 25.904 263.083 26.0028 262.448 26.2006ZM260.331 16.5113C262.236 16.4124 263.718 16.5113 263.718 16.709C263.718 16.9068 262.024 17.0056 259.908 17.0056C257.791 17.0056 256.098 16.9068 256.098 16.8079C256.098 16.709 255.887 16.709 260.331 16.5113ZM246.997 23.2345C249.325 23.2345 249.537 23.4322 247.632 24.5198C246.785 25.0141 245.939 25.2119 245.092 25.113C244.457 25.0141 244.034 24.8164 244.034 24.6186C244.457 23.5311 245.092 23.2345 246.997 23.2345ZM241.071 24.7175C241.283 24.8164 240.859 25.0141 240.013 25.2119C238.954 25.5085 238.531 25.5085 238.531 25.2119C238.531 24.8164 240.436 24.4209 241.071 24.7175ZM218.424 23.6299C219.482 23.4322 220.752 23.3333 221.176 23.4322C221.599 23.5311 220.964 23.7288 219.906 23.9266C218.848 24.1243 217.578 24.2232 217.154 24.1243C216.731 24.0254 217.366 23.8277 218.424 23.6299ZM143.711 13.1497C144.346 13.1497 145.193 12.952 145.404 12.6554C146.039 11.8644 148.368 12.0621 148.791 12.952C149.002 13.4463 149.002 13.8418 148.791 13.9407C148.368 14.1384 144.769 14.1384 143.5 13.9407C142.018 13.6441 142.018 13.1497 143.711 13.1497ZM121.911 5.9322C122.334 5.9322 122.758 6.12994 122.969 6.22881C123.181 6.42655 122.969 6.52542 122.334 6.52542C121.699 6.52542 121.276 6.32768 121.276 6.22881C121.276 6.03107 121.699 5.9322 121.911 5.9322ZM116.62 5.43785C118.525 5.33898 119.371 5.33898 119.583 5.73446C120.006 6.12994 119.371 6.22881 116.196 6.22881C110.694 6.22881 110.905 5.83333 116.62 5.43785ZM109.847 5.73446C110.482 5.63559 111.117 5.73446 111.328 5.83333C111.54 6.03107 111.117 6.12994 110.27 6.12994C108.577 6.22881 108.365 6.03107 109.847 5.73446ZM104.767 12.4576C104.344 12.6554 103.709 12.7542 103.074 12.6554C102.016 12.4576 103.074 12.0621 104.344 12.0621C105.191 12.161 105.191 12.2599 104.767 12.4576ZM108.577 12.4576C107.307 12.4576 106.884 11.7655 107.73 11.3701C108.577 10.9746 109.847 11.1723 109.847 11.7655C109.847 12.161 109.424 12.4576 108.577 12.4576ZM114.715 10.9746C113.657 11.0734 113.022 11.2712 113.022 11.4689C113.022 11.6667 112.81 11.7655 112.387 11.7655C111.963 11.7655 111.54 11.5678 111.328 11.2712C110.905 10.678 112.81 10.0847 115.138 10.0847C117.043 10.1836 116.831 10.7768 114.715 10.9746ZM143.076 7.31638C142.018 7.41525 141.595 7.71186 141.383 8.20621C141.383 8.60169 141.171 8.99717 140.96 9.09604C140.748 9.19491 136.938 9.29378 132.282 9.39265C127.626 9.49152 123.393 9.68926 122.758 9.78813C121.488 9.98587 121.064 9.39265 122.334 9.09604C122.546 8.8983 122.758 8.60169 122.758 8.30508C122.758 7.9096 122.334 7.9096 120.853 8.20621C119.795 8.40395 118.525 8.50282 118.313 8.40395C117.89 8.40395 116.831 8.50282 115.985 8.79943C114.927 9.09604 111.329 9.29378 106.249 9.39265C101.593 9.49152 97.3595 9.59039 96.7245 9.59039C94.608 9.68926 95.8779 10.2825 98.4178 10.4802C100.746 10.678 100.746 10.678 99.0527 10.8757C96.7245 11.1723 92.0682 10.7768 91.6449 10.2825C91.01 9.59039 90.1634 9.78813 89.7401 10.4802C89.5284 10.9746 88.8934 11.0734 88.0468 10.9746C87.4119 10.8757 85.2954 10.9746 83.3905 11.2712C80.0041 11.7655 78.9458 11.6667 80.0041 10.9746C80.8507 10.5791 77.6759 8.70056 76.6177 8.99717C76.1944 9.09604 75.9827 8.8983 75.9827 8.50282C75.9827 7.9096 75.771 7.81073 74.5011 8.00847C73.6545 8.10734 73.0196 8.10734 73.0196 7.81073C73.0196 7.61299 72.3846 7.51412 71.7497 7.61299C68.3632 8.10734 66.0351 8.20621 66.0351 7.9096C66.0351 7.71186 66.67 7.51412 67.5166 7.41525C68.9982 7.21751 69.4215 6.42655 68.1516 6.03107C67.7283 5.9322 66.8817 6.03107 66.4584 6.22881C65.8234 6.42655 65.4001 6.52542 65.1885 6.52542C65.1885 6.42655 64.5535 6.12994 64.1302 5.83333C63.2836 5.33898 63.4953 5.24011 65.1885 5.04237C67.9399 4.74576 78.9458 4.84463 83.3905 5.14124C85.2954 5.33898 86.7769 5.53672 86.5653 5.53672C85.507 5.73446 76.8293 5.73446 75.9827 5.53672C74.7128 5.24011 71.538 5.73446 70.9031 6.42655C70.6914 6.72316 71.1147 6.82203 72.8079 6.62429C74.0778 6.52542 78.5225 6.42655 82.7555 6.52542C91.01 6.62429 93.1265 6.42655 92.4915 5.9322C92.2799 5.73446 91.6449 5.63559 91.01 5.73446C90.375 5.83333 89.5284 5.83333 88.8934 5.73446C88.0468 5.53672 88.2585 5.43785 90.1633 5.14124C93.1265 4.64689 98.6294 4.54802 97.1479 5.04237C96.3012 5.33898 96.3012 5.43785 97.1479 5.73446C98.6294 6.22881 99.6877 6.12994 102.227 5.53672C104.344 5.04237 104.556 5.04237 106.037 5.9322C107.095 6.42655 107.519 7.01977 107.307 7.41525C107.095 7.81073 107.519 8.10734 108.789 8.40395C110.905 8.79943 113.022 8.50282 116.62 7.41525C118.101 6.9209 118.948 6.9209 120.853 7.21751C124.663 7.71186 132.07 7.61299 132.494 7.01977C132.705 6.72316 133.129 6.52542 133.552 6.52542C133.975 6.52542 133.975 6.72316 133.764 7.01977C133.552 7.31638 133.764 7.51412 134.399 7.51412C134.822 7.51412 136.092 7.61299 136.938 7.71186C137.997 7.81073 138.42 7.81073 138.42 7.41525C138.42 6.82203 142.653 6.32768 143.923 6.72316C144.981 6.72316 144.558 7.11864 143.076 7.31638ZM160.643 7.71186C160.643 8.10734 160.432 8.10734 159.373 7.9096C158.738 7.71186 157.045 7.41525 155.775 7.11864C154.082 6.72316 153.659 6.52542 154.505 6.42655C155.775 6.22881 160.855 6.62429 160.855 7.01977C160.643 7.11864 160.643 7.41525 160.643 7.71186Z" fill="#FE9A00"/>
<path d="M74.078 25.8589C73.2314 25.76 73.0197 25.8589 73.2314 26.1555C73.443 26.3532 74.078 26.6498 74.7129 26.7487C75.5595 26.8476 75.7712 26.7487 75.5595 26.4521C75.3479 26.1555 74.7129 25.9577 74.078 25.8589Z" fill="#FE9A00"/>
<path d="M86.7772 25.4634C85.5072 25.4634 85.2956 25.5622 86.3539 25.76C87.6238 26.1555 88.4704 26.1555 88.4704 25.76C88.4704 25.6611 87.6238 25.4634 86.7772 25.4634Z" fill="#FE9A00"/>
</svg>
