<svg width="40" height="40" viewBox="0 0 40 40" fill="none" xmlns="http://www.w3.org/2000/svg">
<rect width="39.1742" height="39.1742" rx="4.16667" fill="white"/>
<path d="M9.1573 19.6595L14.0174 21.4124L15.912 27.3084C15.9943 27.7068 16.4886 27.7865 16.8181 27.5474L19.5364 25.3962C19.7835 25.1572 20.1954 25.1572 20.5249 25.3962L25.3849 28.8223C25.7144 29.0613 26.2087 28.9019 26.291 28.5036L29.9155 11.7715C29.9979 11.3731 29.586 10.9748 29.1741 11.1341L9.1573 18.6237C8.66306 18.783 8.66306 19.5001 9.1573 19.6595ZM15.6648 20.5359L25.2202 14.8789C25.3849 14.7992 25.5497 15.0383 25.3849 15.1179L17.5594 22.2091C17.3123 22.4482 17.0652 22.7669 17.0652 23.1652L16.8181 25.0775C16.8181 25.3165 16.4062 25.3962 16.3238 25.0775L15.3353 21.5717C15.0882 21.1733 15.253 20.6953 15.6648 20.5359Z" fill="#261911"/>
</svg>
