<svg width="641" height="481" viewBox="0 0 641 481" fill="none" xmlns="http://www.w3.org/2000/svg">
<g filter="url(#filter0_d)">
<rect x="22" y="22" width="582" height="422.094" rx="7.20297" fill="white"/>
</g>
<g opacity="0.7" clip-path="url(#clip0)">
<path d="M52.0142 108.933C52.0142 117.741 59.1547 124.882 67.9632 124.882C76.7719 124.882 83.9123 117.741 83.9123 108.933C83.9123 100.124 76.7719 92.9837 67.9632 92.9837C66.1529 92.9837 64.42 93.2993 62.7978 93.8555C66.387 73.2704 82.4394 59.9954 67.5589 70.921C51.0587 83.0363 51.9966 108.445 52.015 108.911C52.015 108.918 52.0142 108.925 52.0142 108.933Z" fill="#FDB75E"/>
<path d="M87.1019 108.933C87.1019 117.741 94.2423 124.882 103.051 124.882C111.86 124.882 119 117.741 119 108.933C119 100.124 111.86 92.9837 103.051 92.9837C101.24 92.9837 99.5077 93.2993 97.8855 93.8555C101.475 73.2704 117.527 59.9954 102.647 70.921C86.1463 83.0363 87.0841 108.445 87.1027 108.911C87.1027 108.918 87.1019 108.925 87.1019 108.933Z" fill="#FDB75E"/>
</g>
<path d="M134.957 97.175V88.5H136.282V106H134.957V98.425C133.407 99.1917 131.765 99.575 130.032 99.575C128.315 99.575 126.973 99.1167 126.007 98.2C125.023 97.2667 124.532 96.0917 124.532 94.675V88.5H125.857V94.675C125.857 95.7917 126.223 96.6833 126.957 97.35C127.707 98 128.732 98.325 130.032 98.325C131.765 98.325 133.407 97.9417 134.957 97.175ZM146.006 93.225C147.839 93.225 149.322 93.875 150.456 95.175C151.606 96.475 152.181 98.0167 152.181 99.8C152.181 99.8333 152.172 99.9333 152.156 100.1C152.156 100.267 152.156 100.367 152.156 100.4H140.831C140.981 101.8 141.539 102.933 142.506 103.8C143.472 104.65 144.681 105.075 146.131 105.075C147.114 105.075 147.981 104.875 148.731 104.475C149.481 104.058 150.056 103.5 150.456 102.8L151.556 103.45C151.039 104.317 150.297 105.008 149.331 105.525C148.381 106.025 147.306 106.275 146.106 106.275C144.172 106.275 142.597 105.667 141.381 104.45C140.147 103.217 139.531 101.65 139.531 99.75C139.531 97.8833 140.131 96.3333 141.331 95.1C142.564 93.85 144.122 93.225 146.006 93.225ZM146.006 94.425C144.606 94.425 143.422 94.8667 142.456 95.75C141.506 96.6333 140.964 97.775 140.831 99.175H150.881C150.747 97.6917 150.214 96.5333 149.281 95.7C148.347 94.85 147.256 94.425 146.006 94.425ZM153.014 93.5H163.364V94.725H158.814V106H157.564V94.725H153.014V93.5ZM168.225 99.5L175.2 106H173.5L166.875 99.85V106H165.625V93.5H166.875V99.175L173.2 93.5H174.95L168.225 99.5ZM182.19 106.275C180.356 106.275 178.798 105.65 177.515 104.4C176.248 103.133 175.615 101.583 175.615 99.75C175.615 97.9167 176.248 96.375 177.515 95.125C178.781 93.8583 180.34 93.225 182.19 93.225C184.006 93.225 185.548 93.8583 186.815 95.125C188.098 96.375 188.74 97.9167 188.74 99.75C188.74 101.567 188.098 103.117 186.815 104.4C185.531 105.65 183.99 106.275 182.19 106.275ZM178.415 103.525C179.448 104.558 180.706 105.075 182.19 105.075C183.656 105.075 184.906 104.558 185.94 103.525C186.956 102.508 187.465 101.25 187.465 99.75C187.465 98.25 186.956 96.9917 185.94 95.975C184.906 94.9417 183.656 94.425 182.19 94.425C180.706 94.425 179.448 94.9417 178.415 95.975C177.398 96.9917 176.89 98.25 176.89 99.75C176.89 101.25 177.398 102.508 178.415 103.525ZM197.473 106.275C195.589 106.275 194.023 105.65 192.773 104.4C191.523 103.15 190.898 101.6 190.898 99.75C190.898 97.9 191.523 96.35 192.773 95.1C194.023 93.85 195.589 93.225 197.473 93.225C198.689 93.225 199.789 93.5167 200.773 94.1C201.756 94.6667 202.473 95.4417 202.923 96.425L201.898 97.025C201.531 96.225 200.948 95.5917 200.148 95.125C199.364 94.6583 198.473 94.425 197.473 94.425C195.989 94.425 194.731 94.9417 193.698 95.975C192.681 96.9917 192.173 98.25 192.173 99.75C192.173 101.267 192.681 102.533 193.698 103.55C194.714 104.567 195.973 105.075 197.473 105.075C198.473 105.075 199.364 104.842 200.148 104.375C200.948 103.908 201.556 103.275 201.973 102.475L203.023 103.1C202.523 104.067 201.773 104.842 200.773 105.425C199.773 105.992 198.673 106.275 197.473 106.275ZM203.917 93.5H214.267V94.725H209.717V106H208.467V94.725H203.917V93.5ZM217.778 98.35H221.478C222.645 98.35 223.62 98.7083 224.403 99.425C225.203 100.142 225.603 101.058 225.603 102.175C225.603 103.292 225.203 104.208 224.403 104.925C223.62 105.642 222.645 106 221.478 106H216.528V93.5H217.778V98.35ZM217.778 104.775H221.478C222.295 104.775 222.97 104.533 223.503 104.05C224.053 103.55 224.328 102.925 224.328 102.175C224.328 101.392 224.053 100.767 223.503 100.3C222.97 99.8167 222.295 99.575 221.478 99.575H217.778V104.775ZM228.675 104.3H230.225L228.875 109.5H227.725L228.675 104.3ZM246.057 106.275C244.223 106.275 242.665 105.65 241.382 104.4C240.115 103.133 239.482 101.583 239.482 99.75C239.482 97.9167 240.115 96.375 241.382 95.125C242.648 93.8583 244.207 93.225 246.057 93.225C247.873 93.225 249.415 93.8583 250.682 95.125C251.965 96.375 252.607 97.9167 252.607 99.75C252.607 101.567 251.965 103.117 250.682 104.4C249.398 105.65 247.857 106.275 246.057 106.275ZM242.282 103.525C243.315 104.558 244.573 105.075 246.057 105.075C247.523 105.075 248.773 104.558 249.807 103.525C250.823 102.508 251.332 101.25 251.332 99.75C251.332 98.25 250.823 96.9917 249.807 95.975C248.773 94.9417 247.523 94.425 246.057 94.425C244.573 94.425 243.315 94.9417 242.282 95.975C241.265 96.9917 240.757 98.25 240.757 99.75C240.757 101.25 241.265 102.508 242.282 103.525ZM253.527 93.5H263.877V94.725H259.327V106H258.077V94.725H253.527V93.5ZM271.649 99.55C272.399 99.8 272.982 100.2 273.399 100.75C273.816 101.3 274.024 101.933 274.024 102.65C274.024 103.7 273.607 104.567 272.774 105.25C271.957 105.933 270.841 106.275 269.424 106.275C266.924 106.275 265.299 105.292 264.549 103.325L265.624 102.7C266.157 104.283 267.424 105.075 269.424 105.075C270.457 105.075 271.266 104.85 271.849 104.4C272.449 103.933 272.749 103.325 272.749 102.575C272.749 101.892 272.499 101.342 271.999 100.925C271.499 100.492 270.832 100.275 269.999 100.275H268.274V99.05H269.524C270.341 99.05 270.982 98.8417 271.449 98.425C271.916 98.0083 272.149 97.45 272.149 96.75C272.149 96.0833 271.874 95.5333 271.324 95.1C270.791 94.65 270.082 94.425 269.199 94.425C267.499 94.425 266.374 95.1 265.824 96.45L264.774 95.85C265.141 95.0333 265.699 94.3917 266.449 93.925C267.199 93.4583 268.116 93.225 269.199 93.225C270.466 93.225 271.482 93.5667 272.249 94.25C273.016 94.9167 273.399 95.7333 273.399 96.7C273.399 98.05 272.816 99 271.649 99.55ZM278.032 98.35H281.732C282.899 98.35 283.874 98.7083 284.657 99.425C285.457 100.142 285.857 101.058 285.857 102.175C285.857 103.292 285.457 104.208 284.657 104.925C283.874 105.642 282.899 106 281.732 106H276.782V93.5H278.032V98.35ZM287.782 106V93.5H289.032V106H287.782ZM278.032 104.775H281.732C282.549 104.775 283.224 104.533 283.757 104.05C284.307 103.55 284.582 102.925 284.582 102.175C284.582 101.392 284.307 100.767 283.757 100.3C283.224 99.8167 282.549 99.575 281.732 99.575H278.032V104.775ZM300.571 99.55C302.037 100.017 302.771 101.017 302.771 102.55C302.771 103.583 302.429 104.417 301.746 105.05C301.079 105.683 300.137 106 298.921 106H292.871V93.5H298.446C299.612 93.5 300.521 93.8083 301.171 94.425C301.837 95.025 302.171 95.8083 302.171 96.775C302.171 98.1083 301.637 99.0333 300.571 99.55ZM298.446 94.725H294.121V99.05H298.446C299.246 99.05 299.854 98.8583 300.271 98.475C300.687 98.0917 300.896 97.55 300.896 96.85C300.896 96.1833 300.679 95.6667 300.246 95.3C299.829 94.9167 299.229 94.725 298.446 94.725ZM294.121 104.775H298.921C299.754 104.775 300.396 104.575 300.846 104.175C301.296 103.775 301.521 103.217 301.521 102.5C301.521 101.8 301.287 101.258 300.821 100.875C300.371 100.475 299.737 100.275 298.921 100.275H294.121V104.775ZM313.475 99.925V93.5H314.75V106H313.475V101.1C312.375 101.65 311.109 101.925 309.675 101.925C308.075 101.925 306.842 101.55 305.975 100.8C305.109 100.05 304.675 98.975 304.675 97.575V93.5H305.925V97.575C305.925 99.675 307.159 100.725 309.625 100.725C310.975 100.725 312.259 100.458 313.475 99.925ZM319.853 103.825L327.828 93.5H328.928V106H327.653V95.675L319.703 106H318.603V93.5H319.853V103.825ZM340.488 99.55C341.954 100.017 342.688 101.017 342.688 102.55C342.688 103.583 342.346 104.417 341.663 105.05C340.996 105.683 340.054 106 338.838 106H332.788V93.5H338.363C339.529 93.5 340.438 93.8083 341.088 94.425C341.754 95.025 342.088 95.8083 342.088 96.775C342.088 98.1083 341.554 99.0333 340.488 99.55ZM338.363 94.725H334.038V99.05H338.363C339.163 99.05 339.771 98.8583 340.188 98.475C340.604 98.0917 340.813 97.55 340.813 96.85C340.813 96.1833 340.596 95.6667 340.163 95.3C339.746 94.9167 339.146 94.725 338.363 94.725ZM334.038 104.775H338.838C339.671 104.775 340.313 104.575 340.763 104.175C341.213 103.775 341.438 103.217 341.438 102.5C341.438 101.8 341.204 101.258 340.738 100.875C340.288 100.475 339.654 100.275 338.838 100.275H334.038V104.775ZM351.184 106.275C349.35 106.275 347.792 105.65 346.509 104.4C345.242 103.133 344.609 101.583 344.609 99.75C344.609 97.9167 345.242 96.375 346.509 95.125C347.775 93.8583 349.334 93.225 351.184 93.225C353 93.225 354.542 93.8583 355.809 95.125C357.092 96.375 357.734 97.9167 357.734 99.75C357.734 101.567 357.092 103.117 355.809 104.4C354.525 105.65 352.984 106.275 351.184 106.275ZM347.409 103.525C348.442 104.558 349.7 105.075 351.184 105.075C352.65 105.075 353.9 104.558 354.934 103.525C355.95 102.508 356.459 101.25 356.459 99.75C356.459 98.25 355.95 96.9917 354.934 95.975C353.9 94.9417 352.65 94.425 351.184 94.425C349.7 94.425 348.442 94.9417 347.409 95.975C346.392 96.9917 345.884 98.25 345.884 99.75C345.884 101.25 346.392 102.508 347.409 103.525ZM366.467 106.275C364.584 106.275 363.017 105.65 361.767 104.4C360.517 103.15 359.892 101.6 359.892 99.75C359.892 97.9 360.517 96.35 361.767 95.1C363.017 93.85 364.584 93.225 366.467 93.225C367.684 93.225 368.784 93.5167 369.767 94.1C370.75 94.6667 371.467 95.4417 371.917 96.425L370.892 97.025C370.525 96.225 369.942 95.5917 369.142 95.125C368.359 94.6583 367.467 94.425 366.467 94.425C364.984 94.425 363.725 94.9417 362.692 95.975C361.675 96.9917 361.167 98.25 361.167 99.75C361.167 101.267 361.675 102.533 362.692 103.55C363.709 104.567 364.967 105.075 366.467 105.075C367.467 105.075 368.359 104.842 369.142 104.375C369.942 103.908 370.55 103.275 370.967 102.475L372.017 103.1C371.517 104.067 370.767 104.842 369.767 105.425C368.767 105.992 367.667 106.275 366.467 106.275ZM372.911 93.5H383.261V94.725H378.711V106H377.461V94.725H372.911V93.5ZM386.772 98.35H390.472C391.639 98.35 392.614 98.7083 393.397 99.425C394.197 100.142 394.597 101.058 394.597 102.175C394.597 103.292 394.197 104.208 393.397 104.925C392.614 105.642 391.639 106 390.472 106H385.522V93.5H386.772V98.35ZM386.772 104.775H390.472C391.289 104.775 391.964 104.533 392.497 104.05C393.047 103.55 393.322 102.925 393.322 102.175C393.322 101.392 393.047 100.767 392.497 100.3C391.964 99.8167 391.289 99.575 390.472 99.575H386.772V104.775ZM397.669 104.3H399.219L397.869 109.5H396.719L397.669 104.3ZM409.901 93.175H408.901L408.726 88.5H410.076L409.901 93.175ZM413.226 93.175H412.226L412.076 88.5H413.401L413.226 93.175ZM424.35 99.55C425.817 100.017 426.55 101.017 426.55 102.55C426.55 103.583 426.208 104.417 425.525 105.05C424.858 105.683 423.917 106 422.7 106H416.65V93.5H422.225C423.392 93.5 424.3 93.8083 424.95 94.425C425.617 95.025 425.95 95.8083 425.95 96.775C425.95 98.1083 425.417 99.0333 424.35 99.55ZM422.225 94.725H417.9V99.05H422.225C423.025 99.05 423.633 98.8583 424.05 98.475C424.467 98.0917 424.675 97.55 424.675 96.85C424.675 96.1833 424.458 95.6667 424.025 95.3C423.608 94.9167 423.008 94.725 422.225 94.725ZM417.9 104.775H422.7C423.533 104.775 424.175 104.575 424.625 104.175C425.075 103.775 425.3 103.217 425.3 102.5C425.3 101.8 425.067 101.258 424.6 100.875C424.15 100.475 423.517 100.275 422.7 100.275H417.9V104.775ZM430.571 103.825L438.546 93.5H439.646V106H438.371V95.675L430.421 106H429.321V93.5H430.571V103.825ZM453.756 93.5V104.775H455.506V109.35H454.231V106H443.431V109.35H442.156V104.775H443.606C444.522 103.542 444.981 101.867 444.981 99.75V93.5H453.756ZM445.156 104.775H452.481V94.725H446.231V99.75C446.231 101.817 445.872 103.492 445.156 104.775ZM463.388 93.225C465.222 93.225 466.705 93.875 467.838 95.175C468.988 96.475 469.563 98.0167 469.563 99.8C469.563 99.8333 469.555 99.9333 469.538 100.1C469.538 100.267 469.538 100.367 469.538 100.4H458.213C458.363 101.8 458.922 102.933 459.888 103.8C460.855 104.65 462.063 105.075 463.513 105.075C464.497 105.075 465.363 104.875 466.113 104.475C466.863 104.058 467.438 103.5 467.838 102.8L468.938 103.45C468.422 104.317 467.68 105.008 466.713 105.525C465.763 106.025 464.688 106.275 463.488 106.275C461.555 106.275 459.98 105.667 458.763 104.45C457.53 103.217 456.913 101.65 456.913 99.75C456.913 97.8833 457.513 96.3333 458.713 95.1C459.947 93.85 461.505 93.225 463.388 93.225ZM463.388 94.425C461.988 94.425 460.805 94.8667 459.838 95.75C458.888 96.6333 458.347 97.775 458.213 99.175H468.263C468.13 97.6917 467.597 96.5333 466.663 95.7C465.73 94.85 464.638 94.425 463.388 94.425ZM481.535 99.15V93.5H482.81V106H481.535V100.35H473.735V106H472.485V93.5H473.735V99.15H481.535ZM487.92 103.825L495.895 93.5H496.995V106H495.72V95.675L487.77 106H486.67V93.5H487.92V103.825ZM506.479 93.225C508.313 93.225 509.796 93.875 510.929 95.175C512.079 96.475 512.654 98.0167 512.654 99.8C512.654 99.8333 512.646 99.9333 512.629 100.1C512.629 100.267 512.629 100.367 512.629 100.4H501.304C501.454 101.8 502.013 102.933 502.979 103.8C503.946 104.65 505.154 105.075 506.604 105.075C507.588 105.075 508.454 104.875 509.204 104.475C509.954 104.058 510.529 103.5 510.929 102.8L512.029 103.45C511.513 104.317 510.771 105.008 509.804 105.525C508.854 106.025 507.779 106.275 506.579 106.275C504.646 106.275 503.071 105.667 501.854 104.45C500.621 103.217 500.004 101.65 500.004 99.75C500.004 97.8833 500.604 96.3333 501.804 95.1C503.038 93.85 504.596 93.225 506.479 93.225ZM506.479 94.425C505.079 94.425 503.896 94.8667 502.929 95.75C501.979 96.6333 501.438 97.775 501.304 99.175H511.354C511.221 97.6917 510.688 96.5333 509.754 95.7C508.821 94.85 507.729 94.425 506.479 94.425ZM515.394 93.175H514.394L514.219 88.5H515.569L515.394 93.175ZM518.719 93.175H517.719L517.569 88.5H518.894L518.719 93.175ZM181.262 128.5H191.587V141H190.312V129.725H182.512V141H181.262V128.5ZM202.071 128.225C203.871 128.225 205.396 128.858 206.646 130.125C207.913 131.375 208.546 132.917 208.546 134.75C208.546 136.583 207.913 138.133 206.646 139.4C205.396 140.65 203.871 141.275 202.071 141.275C200.888 141.275 199.821 141 198.871 140.45C197.938 139.883 197.213 139.1 196.696 138.1V146H195.446V128.5H196.696V131.4C197.213 130.4 197.938 129.625 198.871 129.075C199.821 128.508 200.888 128.225 202.071 128.225ZM198.221 138.525C199.255 139.558 200.513 140.075 201.996 140.075C203.463 140.075 204.713 139.558 205.746 138.525C206.78 137.492 207.296 136.233 207.296 134.75C207.296 133.267 206.78 132.008 205.746 130.975C204.713 129.942 203.463 129.425 201.996 129.425C200.513 129.425 199.255 129.942 198.221 130.975C197.205 131.992 196.696 133.25 196.696 134.75C196.696 136.25 197.205 137.508 198.221 138.525ZM217.285 141.275C215.451 141.275 213.893 140.65 212.61 139.4C211.343 138.133 210.71 136.583 210.71 134.75C210.71 132.917 211.343 131.375 212.61 130.125C213.876 128.858 215.435 128.225 217.285 128.225C219.101 128.225 220.643 128.858 221.91 130.125C223.193 131.375 223.835 132.917 223.835 134.75C223.835 136.567 223.193 138.117 221.91 139.4C220.626 140.65 219.085 141.275 217.285 141.275ZM213.51 138.525C214.543 139.558 215.801 140.075 217.285 140.075C218.751 140.075 220.001 139.558 221.035 138.525C222.051 137.508 222.56 136.25 222.56 134.75C222.56 133.25 222.051 131.992 221.035 130.975C220.001 129.942 218.751 129.425 217.285 129.425C215.801 129.425 214.543 129.942 213.51 130.975C212.493 131.992 211.985 133.25 211.985 134.75C211.985 136.25 212.493 137.508 213.51 138.525ZM232.293 141.3C230.51 141.3 229.01 140.708 227.793 139.525C226.593 138.325 225.993 136.775 225.993 134.875C225.993 132.792 226.293 131.183 226.893 130.05C227.526 128.883 228.785 127.842 230.668 126.925L231.968 126.35C233.201 125.833 233.935 125.508 234.168 125.375C234.718 125.075 235.135 124.767 235.418 124.45C235.701 124.117 235.876 123.692 235.943 123.175L236.943 123.75C236.76 124.683 236.268 125.417 235.468 125.95C235.118 126.167 234.735 126.392 234.318 126.625C233.985 126.808 233.485 127.033 232.818 127.3L231.343 127.925C230.093 128.492 229.185 129.092 228.618 129.725C228.051 130.358 227.668 131.233 227.468 132.35C228.035 131.467 228.776 130.792 229.693 130.325C230.61 129.858 231.568 129.625 232.568 129.625C234.235 129.625 235.618 130.175 236.718 131.275C237.818 132.375 238.368 133.775 238.368 135.475C238.368 137.158 237.793 138.55 236.643 139.65C235.526 140.75 234.076 141.3 232.293 141.3ZM232.293 140.05C233.693 140.05 234.843 139.625 235.743 138.775C236.643 137.892 237.093 136.792 237.093 135.475C237.093 134.125 236.66 133.017 235.793 132.15C234.926 131.283 233.801 130.85 232.418 130.85C231.151 130.85 230.01 131.25 228.993 132.05C227.993 132.85 227.443 133.883 227.343 135.15C227.343 136.567 227.81 137.742 228.743 138.675C229.66 139.592 230.843 140.05 232.293 140.05ZM241.987 128.5H250.787V141H249.537V129.725H243.237V135.75C243.237 137.717 242.879 139.108 242.162 139.925C241.445 140.742 240.404 141.1 239.037 141V139.825C240.054 139.908 240.795 139.633 241.262 139C241.745 138.367 241.987 137.283 241.987 135.75V128.5ZM260.251 128.225C262.085 128.225 263.568 128.875 264.701 130.175C265.851 131.475 266.426 133.017 266.426 134.8C266.426 134.833 266.418 134.933 266.401 135.1C266.401 135.267 266.401 135.367 266.401 135.4H255.076C255.226 136.8 255.785 137.933 256.751 138.8C257.718 139.65 258.926 140.075 260.376 140.075C261.36 140.075 262.226 139.875 262.976 139.475C263.726 139.058 264.301 138.5 264.701 137.8L265.801 138.45C265.285 139.317 264.543 140.008 263.576 140.525C262.626 141.025 261.551 141.275 260.351 141.275C258.418 141.275 256.843 140.667 255.626 139.45C254.393 138.217 253.776 136.65 253.776 134.75C253.776 132.883 254.376 131.333 255.576 130.1C256.81 128.85 258.368 128.225 260.251 128.225ZM260.251 129.425C258.851 129.425 257.668 129.867 256.701 130.75C255.751 131.633 255.21 132.775 255.076 134.175H265.126C264.993 132.692 264.46 131.533 263.526 130.7C262.593 129.85 261.501 129.425 260.251 129.425ZM279.923 128.5H281.423V141H280.148V130.4L275.473 137.775H275.298L270.598 130.35V141H269.348V128.5H270.823L275.373 135.675L279.923 128.5ZM286.516 133.35H290.216C291.382 133.35 292.357 133.708 293.141 134.425C293.941 135.142 294.341 136.058 294.341 137.175C294.341 138.292 293.941 139.208 293.141 139.925C292.357 140.642 291.382 141 290.216 141H285.266V128.5H286.516V133.35ZM296.266 141V128.5H297.516V141H296.266ZM286.516 139.775H290.216C291.032 139.775 291.707 139.533 292.241 139.05C292.791 138.55 293.066 137.925 293.066 137.175C293.066 136.392 292.791 135.767 292.241 135.3C291.707 134.817 291.032 134.575 290.216 134.575H286.516V139.775ZM301.93 139.3H303.48L302.13 144.5H300.98L301.93 139.3ZM322.636 134.15V128.5H323.911V141H322.636V135.35H314.836V141H313.586V128.5H314.836V134.15H322.636ZM332.571 139.625L336.921 128.5H338.271L332.871 142.15C332.371 143.4 331.679 144.375 330.796 145.075C329.912 145.775 328.954 146.083 327.921 146V144.825C328.704 144.892 329.421 144.667 330.071 144.15C330.721 143.633 331.246 142.883 331.646 141.9L331.921 141.225L326.171 128.5H327.521L332.571 139.625ZM348.43 138.825L356.405 128.5H357.505V141H356.23V130.675L348.28 141H347.18V128.5H348.43V138.825ZM366.429 128.5H376.779V129.725H372.229V141H370.979V129.725H366.429V128.5ZM389.552 131.325V128.5H390.827V141H389.552V138.175C389.002 139.142 388.26 139.9 387.327 140.45C386.394 141 385.344 141.275 384.177 141.275C382.41 141.275 380.885 140.65 379.602 139.4C378.335 138.133 377.702 136.583 377.702 134.75C377.702 132.917 378.335 131.375 379.602 130.125C380.869 128.858 382.394 128.225 384.177 128.225C385.344 128.225 386.394 128.5 387.327 129.05C388.26 129.6 389.002 130.358 389.552 131.325ZM380.502 138.525C381.535 139.558 382.794 140.075 384.277 140.075C385.744 140.075 386.994 139.558 388.027 138.525C389.044 137.508 389.552 136.25 389.552 134.75C389.552 133.25 389.044 131.992 388.027 130.975C386.994 129.942 385.744 129.425 384.277 129.425C382.794 129.425 381.535 129.942 380.502 130.975C379.485 131.992 378.977 133.25 378.977 134.75C378.977 136.25 379.485 137.508 380.502 138.525ZM396.015 128.5H404.815V141H403.565V129.725H397.265V135.75C397.265 137.717 396.907 139.108 396.19 139.925C395.474 140.742 394.432 141.1 393.065 141V139.825C394.082 139.908 394.824 139.633 395.29 139C395.774 138.367 396.015 137.283 396.015 135.75V128.5ZM419.654 131.325V128.5H420.929V141H419.654V138.175C419.104 139.142 418.363 139.9 417.429 140.45C416.496 141 415.446 141.275 414.279 141.275C412.513 141.275 410.988 140.65 409.704 139.4C408.438 138.133 407.804 136.583 407.804 134.75C407.804 132.917 408.438 131.375 409.704 130.125C410.971 128.858 412.496 128.225 414.279 128.225C415.446 128.225 416.496 128.5 417.429 129.05C418.363 129.6 419.104 130.358 419.654 131.325ZM410.604 138.525C411.638 139.558 412.896 140.075 414.379 140.075C415.846 140.075 417.096 139.558 418.129 138.525C419.146 137.508 419.654 136.25 419.654 134.75C419.654 133.25 419.146 131.992 418.129 130.975C417.096 129.942 415.846 129.425 414.379 129.425C412.896 129.425 411.638 129.942 410.604 130.975C409.588 131.992 409.079 133.25 409.079 134.75C409.079 136.25 409.588 137.508 410.604 138.525ZM433.818 134.15V128.5H435.093V141H433.818V135.35H426.018V141H424.768V128.5H426.018V134.15H433.818ZM437.352 128.5H447.702V129.725H443.152V141H441.902V129.725H437.352V128.5ZM460.475 131.325V128.5H461.75V141H460.475V138.175C459.925 139.142 459.183 139.9 458.25 140.45C457.316 141 456.266 141.275 455.1 141.275C453.333 141.275 451.808 140.65 450.525 139.4C449.258 138.133 448.625 136.583 448.625 134.75C448.625 132.917 449.258 131.375 450.525 130.125C451.791 128.858 453.316 128.225 455.1 128.225C456.266 128.225 457.316 128.5 458.25 129.05C459.183 129.6 459.925 130.358 460.475 131.325ZM451.425 138.525C452.458 139.558 453.716 140.075 455.2 140.075C456.666 140.075 457.916 139.558 458.95 138.525C459.966 137.508 460.475 136.25 460.475 134.75C460.475 133.25 459.966 131.992 458.95 130.975C457.916 129.942 456.666 129.425 455.2 129.425C453.716 129.425 452.458 129.942 451.425 130.975C450.408 131.992 449.9 133.25 449.9 134.75C449.9 136.25 450.408 137.508 451.425 138.525ZM144.633 169.15V163.5H145.908V176H144.633V170.35H136.833V176H135.583V163.5H136.833V169.15H144.633ZM155.393 163.225C157.226 163.225 158.709 163.875 159.843 165.175C160.993 166.475 161.568 168.017 161.568 169.8C161.568 169.833 161.559 169.933 161.543 170.1C161.543 170.267 161.543 170.367 161.543 170.4H150.218C150.368 171.8 150.926 172.933 151.893 173.8C152.859 174.65 154.068 175.075 155.518 175.075C156.501 175.075 157.368 174.875 158.118 174.475C158.868 174.058 159.443 173.5 159.843 172.8L160.943 173.45C160.426 174.317 159.684 175.008 158.718 175.525C157.768 176.025 156.693 176.275 155.493 176.275C153.559 176.275 151.984 175.667 150.768 174.45C149.534 173.217 148.918 171.65 148.918 169.75C148.918 167.883 149.518 166.333 150.718 165.1C151.951 163.85 153.509 163.225 155.393 163.225ZM155.393 164.425C153.993 164.425 152.809 164.867 151.843 165.75C150.893 166.633 150.351 167.775 150.218 169.175H160.268C160.134 167.692 159.601 166.533 158.668 165.7C157.734 164.85 156.643 164.425 155.393 164.425ZM176.879 176.275C175.046 176.275 173.488 175.65 172.204 174.4C170.938 173.133 170.304 171.583 170.304 169.75C170.304 167.917 170.938 166.375 172.204 165.125C173.471 163.858 175.029 163.225 176.879 163.225C178.696 163.225 180.238 163.858 181.504 165.125C182.788 166.375 183.429 167.917 183.429 169.75C183.429 171.567 182.788 173.117 181.504 174.4C180.221 175.65 178.679 176.275 176.879 176.275ZM173.104 173.525C174.138 174.558 175.396 175.075 176.879 175.075C178.346 175.075 179.596 174.558 180.629 173.525C181.646 172.508 182.154 171.25 182.154 169.75C182.154 168.25 181.646 166.992 180.629 165.975C179.596 164.942 178.346 164.425 176.879 164.425C175.396 164.425 174.138 164.942 173.104 165.975C172.088 166.992 171.579 168.25 171.579 169.75C171.579 171.25 172.088 172.508 173.104 173.525ZM184.349 163.5H194.699V164.725H190.149V176H188.899V164.725H184.349V163.5ZM206.01 169.15V163.5H207.285V176H206.01V170.35H198.21V176H196.96V163.5H198.21V169.15H206.01ZM214.845 163.5H219.795V176H218.545V171.125H215.845L211.92 176H210.295L214.295 171.1C213.261 170.983 212.403 170.575 211.72 169.875C211.053 169.175 210.72 168.325 210.72 167.325C210.72 166.208 211.12 165.292 211.92 164.575C212.703 163.858 213.678 163.5 214.845 163.5ZM214.845 169.925H218.545V164.725H214.845C214.028 164.725 213.345 164.975 212.795 165.475C212.261 165.958 211.995 166.575 211.995 167.325C211.995 168.108 212.261 168.742 212.795 169.225C213.345 169.692 214.028 169.925 214.845 169.925ZM222.045 163.5H232.395V164.725H227.845V176H226.595V164.725H222.045V163.5ZM235.905 168.35H239.605C240.772 168.35 241.747 168.708 242.53 169.425C243.33 170.142 243.73 171.058 243.73 172.175C243.73 173.292 243.33 174.208 242.53 174.925C241.747 175.642 240.772 176 239.605 176H234.655V163.5H235.905V168.35ZM235.905 174.775H239.605C240.422 174.775 241.097 174.533 241.63 174.05C242.18 173.55 242.455 172.925 242.455 172.175C242.455 171.392 242.18 170.767 241.63 170.3C241.097 169.817 240.422 169.575 239.605 169.575H235.905V174.775ZM255.012 164.625C255.012 164.942 254.904 165.208 254.687 165.425C254.47 165.642 254.204 165.75 253.887 165.75C253.57 165.75 253.304 165.642 253.087 165.425C252.87 165.208 252.762 164.942 252.762 164.625C252.762 164.308 252.87 164.042 253.087 163.825C253.304 163.608 253.57 163.5 253.887 163.5C254.204 163.5 254.47 163.608 254.687 163.825C254.904 164.042 255.012 164.308 255.012 164.625ZM255.012 175.125C255.012 175.442 254.904 175.708 254.687 175.925C254.47 176.142 254.204 176.25 253.887 176.25C253.57 176.25 253.304 176.142 253.087 175.925C252.87 175.708 252.762 175.442 252.762 175.125C252.762 174.808 252.87 174.542 253.087 174.325C253.304 174.108 253.57 174 253.887 174C254.204 174 254.47 174.108 254.687 174.325C254.904 174.542 255.012 174.808 255.012 175.125ZM258.809 178.5H257.534C259.368 174.833 260.284 171.083 260.284 167.25C260.284 163.417 259.368 159.667 257.534 156H258.809C260.643 159.667 261.559 163.417 261.559 167.25C261.559 171.083 260.643 174.833 258.809 178.5ZM270.168 176V174.825C271.434 174.975 272.376 174.567 272.993 173.6C273.626 172.633 273.943 170.958 273.943 168.575V158.5H285.018V176H283.668V159.75H275.268V168.6C275.268 171.35 274.843 173.308 273.993 174.475C273.159 175.642 271.884 176.15 270.168 176ZM294.724 163.225C296.557 163.225 298.04 163.875 299.174 165.175C300.324 166.475 300.899 168.017 300.899 169.8C300.899 169.833 300.89 169.933 300.874 170.1C300.874 170.267 300.874 170.367 300.874 170.4H289.549C289.699 171.8 290.257 172.933 291.224 173.8C292.19 174.65 293.399 175.075 294.849 175.075C295.832 175.075 296.699 174.875 297.449 174.475C298.199 174.058 298.774 173.5 299.174 172.8L300.274 173.45C299.757 174.317 299.015 175.008 298.049 175.525C297.099 176.025 296.024 176.275 294.824 176.275C292.89 176.275 291.315 175.667 290.099 174.45C288.865 173.217 288.249 171.65 288.249 169.75C288.249 167.883 288.849 166.333 290.049 165.1C291.282 163.85 292.84 163.225 294.724 163.225ZM294.724 164.425C293.324 164.425 292.14 164.867 291.174 165.75C290.224 166.633 289.682 167.775 289.549 169.175H299.599C299.465 167.692 298.932 166.533 297.999 165.7C297.065 164.85 295.974 164.425 294.724 164.425ZM310.446 163.225C312.246 163.225 313.771 163.858 315.021 165.125C316.287 166.375 316.921 167.917 316.921 169.75C316.921 171.583 316.287 173.133 315.021 174.4C313.771 175.65 312.246 176.275 310.446 176.275C309.262 176.275 308.196 176 307.246 175.45C306.312 174.883 305.587 174.1 305.071 173.1V181H303.821V163.5H305.071V166.4C305.587 165.4 306.312 164.625 307.246 164.075C308.196 163.508 309.262 163.225 310.446 163.225ZM306.596 173.525C307.629 174.558 308.887 175.075 310.371 175.075C311.837 175.075 313.087 174.558 314.121 173.525C315.154 172.492 315.671 171.233 315.671 169.75C315.671 168.267 315.154 167.008 314.121 165.975C313.087 164.942 311.837 164.425 310.371 164.425C308.887 164.425 307.629 164.942 306.596 165.975C305.579 166.992 305.071 168.25 305.071 169.75C305.071 171.25 305.579 172.508 306.596 173.525ZM330.934 166.325V163.5H332.209V176H330.934V173.175C330.384 174.142 329.642 174.9 328.709 175.45C327.775 176 326.725 176.275 325.559 176.275C323.792 176.275 322.267 175.65 320.984 174.4C319.717 173.133 319.084 171.583 319.084 169.75C319.084 167.917 319.717 166.375 320.984 165.125C322.25 163.858 323.775 163.225 325.559 163.225C326.725 163.225 327.775 163.5 328.709 164.05C329.642 164.6 330.384 165.358 330.934 166.325ZM321.884 173.525C322.917 174.558 324.175 175.075 325.659 175.075C327.125 175.075 328.375 174.558 329.409 173.525C330.425 172.508 330.934 171.25 330.934 169.75C330.934 168.25 330.425 166.992 329.409 165.975C328.375 164.942 327.125 164.425 325.659 164.425C324.175 164.425 322.917 164.942 321.884 165.975C320.867 166.992 320.359 168.25 320.359 169.75C320.359 171.25 320.867 172.508 321.884 173.525ZM336.622 174.3H338.172L336.822 179.5H335.672L336.622 174.3ZM354.004 176.275C352.12 176.275 350.554 175.65 349.304 174.4C348.054 173.15 347.429 171.6 347.429 169.75C347.429 167.9 348.054 166.35 349.304 165.1C350.554 163.85 352.12 163.225 354.004 163.225C355.22 163.225 356.32 163.517 357.304 164.1C358.287 164.667 359.004 165.442 359.454 166.425L358.429 167.025C358.062 166.225 357.479 165.592 356.679 165.125C355.895 164.658 355.004 164.425 354.004 164.425C352.52 164.425 351.262 164.942 350.229 165.975C349.212 166.992 348.704 168.25 348.704 169.75C348.704 171.267 349.212 172.533 350.229 173.55C351.245 174.567 352.504 175.075 354.004 175.075C355.004 175.075 355.895 174.842 356.679 174.375C357.479 173.908 358.087 173.275 358.504 172.475L359.554 173.1C359.054 174.067 358.304 174.842 357.304 175.425C356.304 175.992 355.204 176.275 354.004 176.275ZM362.292 163.5H372.617V176H371.342V164.725H363.542V176H362.292V163.5ZM387.477 166.325V163.5H388.752V176H387.477V173.175C386.927 174.142 386.185 174.9 385.252 175.45C384.318 176 383.268 176.275 382.102 176.275C380.335 176.275 378.81 175.65 377.527 174.4C376.26 173.133 375.627 171.583 375.627 169.75C375.627 167.917 376.26 166.375 377.527 165.125C378.793 163.858 380.318 163.225 382.102 163.225C383.268 163.225 384.318 163.5 385.252 164.05C386.185 164.6 386.927 165.358 387.477 166.325ZM378.427 173.525C379.46 174.558 380.718 175.075 382.202 175.075C383.668 175.075 384.918 174.558 385.952 173.525C386.968 172.508 387.477 171.25 387.477 169.75C387.477 168.25 386.968 166.992 385.952 165.975C384.918 164.942 383.668 164.425 382.202 164.425C380.718 164.425 379.46 164.942 378.427 165.975C377.41 166.992 376.902 168.25 376.902 169.75C376.902 171.25 377.41 172.508 378.427 173.525ZM398.315 176.275C396.432 176.275 394.865 175.65 393.615 174.4C392.365 173.15 391.74 171.6 391.74 169.75C391.74 167.9 392.365 166.35 393.615 165.1C394.865 163.85 396.432 163.225 398.315 163.225C399.532 163.225 400.632 163.517 401.615 164.1C402.598 164.667 403.315 165.442 403.765 166.425L402.74 167.025C402.373 166.225 401.79 165.592 400.99 165.125C400.207 164.658 399.315 164.425 398.315 164.425C396.832 164.425 395.573 164.942 394.54 165.975C393.523 166.992 393.015 168.25 393.015 169.75C393.015 171.267 393.523 172.533 394.54 173.55C395.557 174.567 396.815 175.075 398.315 175.075C399.315 175.075 400.207 174.842 400.99 174.375C401.79 173.908 402.398 173.275 402.815 172.475L403.865 173.1C403.365 174.067 402.615 174.842 401.615 175.425C400.615 175.992 399.515 176.275 398.315 176.275ZM407.854 173.825L415.829 163.5H416.929V176H415.654V165.675L407.704 176H406.604V163.5H407.854V173.825ZM426.238 176.3C424.455 176.3 422.955 175.708 421.738 174.525C420.538 173.325 419.938 171.775 419.938 169.875C419.938 167.792 420.238 166.183 420.838 165.05C421.472 163.883 422.73 162.842 424.613 161.925L425.913 161.35C427.147 160.833 427.88 160.508 428.113 160.375C428.663 160.075 429.08 159.767 429.363 159.45C429.647 159.117 429.822 158.692 429.888 158.175L430.888 158.75C430.705 159.683 430.213 160.417 429.413 160.95C429.063 161.167 428.68 161.392 428.263 161.625C427.93 161.808 427.43 162.033 426.763 162.3L425.288 162.925C424.038 163.492 423.13 164.092 422.563 164.725C421.997 165.358 421.613 166.233 421.413 167.35C421.98 166.467 422.722 165.792 423.638 165.325C424.555 164.858 425.513 164.625 426.513 164.625C428.18 164.625 429.563 165.175 430.663 166.275C431.763 167.375 432.313 168.775 432.313 170.475C432.313 172.158 431.738 173.55 430.588 174.65C429.472 175.75 428.022 176.3 426.238 176.3ZM426.238 175.05C427.638 175.05 428.788 174.625 429.688 173.775C430.588 172.892 431.038 171.792 431.038 170.475C431.038 169.125 430.605 168.017 429.738 167.15C428.872 166.283 427.747 165.85 426.363 165.85C425.097 165.85 423.955 166.25 422.938 167.05C421.938 167.85 421.388 168.883 421.288 170.15C421.288 171.567 421.755 172.742 422.688 173.675C423.605 174.592 424.788 175.05 426.238 175.05ZM440.796 176.275C438.962 176.275 437.404 175.65 436.121 174.4C434.854 173.133 434.221 171.583 434.221 169.75C434.221 167.917 434.854 166.375 436.121 165.125C437.387 163.858 438.946 163.225 440.796 163.225C442.612 163.225 444.154 163.858 445.421 165.125C446.704 166.375 447.346 167.917 447.346 169.75C447.346 171.567 446.704 173.117 445.421 174.4C444.137 175.65 442.596 176.275 440.796 176.275ZM437.021 173.525C438.054 174.558 439.312 175.075 440.796 175.075C442.262 175.075 443.512 174.558 444.546 173.525C445.562 172.508 446.071 171.25 446.071 169.75C446.071 168.25 445.562 166.992 444.546 165.975C443.512 164.942 442.262 164.425 440.796 164.425C439.312 164.425 438.054 164.942 437.021 165.975C436.004 166.992 435.496 168.25 435.496 169.75C435.496 171.25 436.004 172.508 437.021 173.525ZM455.419 163.5H465.769V164.725H461.219V176H459.969V164.725H455.419V163.5ZM473.166 163.225C475 163.225 476.483 163.875 477.616 165.175C478.766 166.475 479.341 168.017 479.341 169.8C479.341 169.833 479.333 169.933 479.316 170.1C479.316 170.267 479.316 170.367 479.316 170.4H467.991C468.141 171.8 468.7 172.933 469.666 173.8C470.633 174.65 471.841 175.075 473.291 175.075C474.275 175.075 475.141 174.875 475.891 174.475C476.641 174.058 477.216 173.5 477.616 172.8L478.716 173.45C478.2 174.317 477.458 175.008 476.491 175.525C475.541 176.025 474.466 176.275 473.266 176.275C471.333 176.275 469.758 175.667 468.541 174.45C467.308 173.217 466.691 171.65 466.691 169.75C466.691 167.883 467.291 166.333 468.491 165.1C469.725 163.85 471.283 163.225 473.166 163.225ZM473.166 164.425C471.766 164.425 470.583 164.867 469.616 165.75C468.666 166.633 468.125 167.775 467.991 169.175H478.041C477.908 167.692 477.375 166.533 476.441 165.7C475.508 164.85 474.416 164.425 473.166 164.425ZM487.713 176.3C485.93 176.3 484.43 175.708 483.213 174.525C482.013 173.325 481.413 171.775 481.413 169.875C481.413 167.792 481.713 166.183 482.313 165.05C482.946 163.883 484.205 162.842 486.088 161.925L487.388 161.35C488.621 160.833 489.355 160.508 489.588 160.375C490.138 160.075 490.555 159.767 490.838 159.45C491.121 159.117 491.296 158.692 491.363 158.175L492.363 158.75C492.18 159.683 491.688 160.417 490.888 160.95C490.538 161.167 490.155 161.392 489.738 161.625C489.405 161.808 488.905 162.033 488.238 162.3L486.763 162.925C485.513 163.492 484.605 164.092 484.038 164.725C483.471 165.358 483.088 166.233 482.888 167.35C483.455 166.467 484.196 165.792 485.113 165.325C486.03 164.858 486.988 164.625 487.988 164.625C489.655 164.625 491.038 165.175 492.138 166.275C493.238 167.375 493.788 168.775 493.788 170.475C493.788 172.158 493.213 173.55 492.063 174.65C490.946 175.75 489.496 176.3 487.713 176.3ZM487.713 175.05C489.113 175.05 490.263 174.625 491.163 173.775C492.063 172.892 492.513 171.792 492.513 170.475C492.513 169.125 492.08 168.017 491.213 167.15C490.346 166.283 489.221 165.85 487.838 165.85C486.571 165.85 485.43 166.25 484.413 167.05C483.413 167.85 482.863 168.883 482.763 170.15C482.763 171.567 483.23 172.742 484.163 173.675C485.08 174.592 486.263 175.05 487.713 175.05ZM502.17 163.225C504.003 163.225 505.487 163.875 506.62 165.175C507.77 166.475 508.345 168.017 508.345 169.8C508.345 169.833 508.337 169.933 508.32 170.1C508.32 170.267 508.32 170.367 508.32 170.4H496.995C497.145 171.8 497.703 172.933 498.67 173.8C499.637 174.65 500.845 175.075 502.295 175.075C503.278 175.075 504.145 174.875 504.895 174.475C505.645 174.058 506.22 173.5 506.62 172.8L507.72 173.45C507.203 174.317 506.462 175.008 505.495 175.525C504.545 176.025 503.47 176.275 502.27 176.275C500.337 176.275 498.762 175.667 497.545 174.45C496.312 173.217 495.695 171.65 495.695 169.75C495.695 167.883 496.295 166.333 497.495 165.1C498.728 163.85 500.287 163.225 502.17 163.225ZM502.17 164.425C500.77 164.425 499.587 164.867 498.62 165.75C497.67 166.633 497.128 167.775 496.995 169.175H507.045C506.912 167.692 506.378 166.533 505.445 165.7C504.512 164.85 503.42 164.425 502.17 164.425ZM157.427 211.3C155.644 211.3 154.144 210.708 152.927 209.525C151.727 208.325 151.127 206.775 151.127 204.875C151.127 202.792 151.427 201.183 152.027 200.05C152.661 198.883 153.919 197.842 155.802 196.925L157.102 196.35C158.336 195.833 159.069 195.508 159.302 195.375C159.852 195.075 160.269 194.767 160.552 194.45C160.836 194.117 161.011 193.692 161.077 193.175L162.077 193.75C161.894 194.683 161.402 195.417 160.602 195.95C160.252 196.167 159.869 196.392 159.452 196.625C159.119 196.808 158.619 197.033 157.952 197.3L156.477 197.925C155.227 198.492 154.319 199.092 153.752 199.725C153.186 200.358 152.802 201.233 152.602 202.35C153.169 201.467 153.911 200.792 154.827 200.325C155.744 199.858 156.702 199.625 157.702 199.625C159.369 199.625 160.752 200.175 161.852 201.275C162.952 202.375 163.502 203.775 163.502 205.475C163.502 207.158 162.927 208.55 161.777 209.65C160.661 210.75 159.211 211.3 157.427 211.3ZM157.427 210.05C158.827 210.05 159.977 209.625 160.877 208.775C161.777 207.892 162.227 206.792 162.227 205.475C162.227 204.125 161.794 203.017 160.927 202.15C160.061 201.283 158.936 200.85 157.552 200.85C156.286 200.85 155.144 201.25 154.127 202.05C153.127 202.85 152.577 203.883 152.477 205.15C152.477 206.567 152.944 207.742 153.877 208.675C154.794 209.592 155.977 210.05 157.427 210.05ZM171.984 211.275C170.151 211.275 168.593 210.65 167.309 209.4C166.043 208.133 165.409 206.583 165.409 204.75C165.409 202.917 166.043 201.375 167.309 200.125C168.576 198.858 170.134 198.225 171.984 198.225C173.801 198.225 175.343 198.858 176.609 200.125C177.893 201.375 178.534 202.917 178.534 204.75C178.534 206.567 177.893 208.117 176.609 209.4C175.326 210.65 173.784 211.275 171.984 211.275ZM168.209 208.525C169.243 209.558 170.501 210.075 171.984 210.075C173.451 210.075 174.701 209.558 175.734 208.525C176.751 207.508 177.259 206.25 177.259 204.75C177.259 203.25 176.751 201.992 175.734 200.975C174.701 199.942 173.451 199.425 171.984 199.425C170.501 199.425 169.243 199.942 168.209 200.975C167.193 201.992 166.684 203.25 166.684 204.75C166.684 206.25 167.193 207.508 168.209 208.525ZM182.404 198.5H191.204V211H189.954V199.725H183.654V205.75C183.654 207.717 183.296 209.108 182.579 209.925C181.863 210.742 180.821 211.1 179.454 211V209.825C180.471 209.908 181.213 209.633 181.679 209C182.163 208.367 182.404 207.283 182.404 205.75V198.5ZM196.294 203.35H199.994C201.16 203.35 202.135 203.708 202.919 204.425C203.719 205.142 204.119 206.058 204.119 207.175C204.119 208.292 203.719 209.208 202.919 209.925C202.135 210.642 201.16 211 199.994 211H195.044V198.5H196.294V203.35ZM196.294 209.775H199.994C200.81 209.775 201.485 209.533 202.019 209.05C202.569 208.55 202.844 207.925 202.844 207.175C202.844 206.392 202.569 205.767 202.019 205.3C201.485 204.817 200.81 204.575 199.994 204.575H196.294V209.775ZM222.16 209.775V198.5H223.435V211H206.86V198.5H208.11V209.775H214.51V198.5H215.785V209.775H222.16ZM233.02 211.275C231.186 211.275 229.628 210.65 228.345 209.4C227.078 208.133 226.445 206.583 226.445 204.75C226.445 202.917 227.078 201.375 228.345 200.125C229.611 198.858 231.17 198.225 233.02 198.225C234.836 198.225 236.378 198.858 237.645 200.125C238.928 201.375 239.57 202.917 239.57 204.75C239.57 206.567 238.928 208.117 237.645 209.4C236.361 210.65 234.82 211.275 233.02 211.275ZM229.245 208.525C230.278 209.558 231.536 210.075 233.02 210.075C234.486 210.075 235.736 209.558 236.77 208.525C237.786 207.508 238.295 206.25 238.295 204.75C238.295 203.25 237.786 201.992 236.77 200.975C235.736 199.942 234.486 199.425 233.02 199.425C231.536 199.425 230.278 199.942 229.245 200.975C228.228 201.992 227.72 203.25 227.72 204.75C227.72 206.25 228.228 207.508 229.245 208.525ZM248.203 198.225C250.036 198.225 251.519 198.875 252.653 200.175C253.803 201.475 254.378 203.017 254.378 204.8C254.378 204.833 254.369 204.933 254.353 205.1C254.353 205.267 254.353 205.367 254.353 205.4H243.028C243.178 206.8 243.736 207.933 244.703 208.8C245.669 209.65 246.878 210.075 248.328 210.075C249.311 210.075 250.178 209.875 250.928 209.475C251.678 209.058 252.253 208.5 252.653 207.8L253.753 208.45C253.236 209.317 252.494 210.008 251.528 210.525C250.578 211.025 249.503 211.275 248.303 211.275C246.369 211.275 244.794 210.667 243.578 209.45C242.344 208.217 241.728 206.65 241.728 204.75C241.728 202.883 242.328 201.333 243.528 200.1C244.761 198.85 246.319 198.225 248.203 198.225ZM248.203 199.425C246.803 199.425 245.619 199.867 244.653 200.75C243.703 201.633 243.161 202.775 243.028 204.175H253.078C252.944 202.692 252.411 201.533 251.478 200.7C250.544 199.85 249.453 199.425 248.203 199.425ZM256.874 209.3H258.424L257.074 214.5H255.924L256.874 209.3ZM273.98 211.3C272.197 211.3 270.697 210.708 269.48 209.525C268.28 208.325 267.68 206.775 267.68 204.875C267.68 202.792 267.98 201.183 268.58 200.05C269.213 198.883 270.472 197.842 272.355 196.925L273.655 196.35C274.888 195.833 275.622 195.508 275.855 195.375C276.405 195.075 276.822 194.767 277.105 194.45C277.388 194.117 277.563 193.692 277.63 193.175L278.63 193.75C278.447 194.683 277.955 195.417 277.155 195.95C276.805 196.167 276.422 196.392 276.005 196.625C275.672 196.808 275.172 197.033 274.505 197.3L273.03 197.925C271.78 198.492 270.872 199.092 270.305 199.725C269.738 200.358 269.355 201.233 269.155 202.35C269.722 201.467 270.463 200.792 271.38 200.325C272.297 199.858 273.255 199.625 274.255 199.625C275.922 199.625 277.305 200.175 278.405 201.275C279.505 202.375 280.055 203.775 280.055 205.475C280.055 207.158 279.48 208.55 278.33 209.65C277.213 210.75 275.763 211.3 273.98 211.3ZM273.98 210.05C275.38 210.05 276.53 209.625 277.43 208.775C278.33 207.892 278.78 206.792 278.78 205.475C278.78 204.125 278.347 203.017 277.48 202.15C276.613 201.283 275.488 200.85 274.105 200.85C272.838 200.85 271.697 201.25 270.68 202.05C269.68 202.85 269.13 203.883 269.03 205.15C269.03 206.567 269.497 207.742 270.43 208.675C271.347 209.592 272.53 210.05 273.98 210.05ZM283.674 198.5H292.474V211H291.224V199.725H284.924V205.75C284.924 207.717 284.566 209.108 283.849 209.925C283.132 210.742 282.091 211.1 280.724 211V209.825C281.741 209.908 282.482 209.633 282.949 209C283.432 208.367 283.674 207.283 283.674 205.75V198.5ZM307.313 201.325V198.5H308.588V211H307.313V208.175C306.763 209.142 306.022 209.9 305.088 210.45C304.155 211 303.105 211.275 301.938 211.275C300.172 211.275 298.647 210.65 297.363 209.4C296.097 208.133 295.463 206.583 295.463 204.75C295.463 202.917 296.097 201.375 297.363 200.125C298.63 198.858 300.155 198.225 301.938 198.225C303.105 198.225 304.155 198.5 305.088 199.05C306.022 199.6 306.763 200.358 307.313 201.325ZM298.263 208.525C299.297 209.558 300.555 210.075 302.038 210.075C303.505 210.075 304.755 209.558 305.788 208.525C306.805 207.508 307.313 206.25 307.313 204.75C307.313 203.25 306.805 201.992 305.788 200.975C304.755 199.942 303.505 199.425 302.038 199.425C300.555 199.425 299.297 199.942 298.263 200.975C297.247 201.992 296.738 203.25 296.738 204.75C296.738 206.25 297.247 207.508 298.263 208.525ZM312.426 198.5H320.251V199.725H313.676V211H312.426V198.5ZM327.722 211.275C325.888 211.275 324.33 210.65 323.047 209.4C321.78 208.133 321.147 206.583 321.147 204.75C321.147 202.917 321.78 201.375 323.047 200.125C324.313 198.858 325.872 198.225 327.722 198.225C329.538 198.225 331.08 198.858 332.347 200.125C333.63 201.375 334.272 202.917 334.272 204.75C334.272 206.567 333.63 208.117 332.347 209.4C331.063 210.65 329.522 211.275 327.722 211.275ZM323.947 208.525C324.98 209.558 326.238 210.075 327.722 210.075C329.188 210.075 330.438 209.558 331.472 208.525C332.488 207.508 332.997 206.25 332.997 204.75C332.997 203.25 332.488 201.992 331.472 200.975C330.438 199.942 329.188 199.425 327.722 199.425C326.238 199.425 324.98 199.942 323.947 200.975C322.93 201.992 322.422 203.25 322.422 204.75C322.422 206.25 322.93 207.508 323.947 208.525ZM347.042 198.5V209.775H348.792V214.35H347.517V211H336.717V214.35H335.442V209.775H336.892C337.808 208.542 338.267 206.867 338.267 204.75V198.5H347.042ZM338.442 209.775H345.767V199.725H339.517V204.75C339.517 206.817 339.158 208.492 338.442 209.775ZM362.05 201.325V198.5H363.325V211H362.05V208.175C361.5 209.142 360.758 209.9 359.825 210.45C358.891 211 357.841 211.275 356.675 211.275C354.908 211.275 353.383 210.65 352.1 209.4C350.833 208.133 350.2 206.583 350.2 204.75C350.2 202.917 350.833 201.375 352.1 200.125C353.366 198.858 354.891 198.225 356.675 198.225C357.841 198.225 358.891 198.5 359.825 199.05C360.758 199.6 361.5 200.358 362.05 201.325ZM353 208.525C354.033 209.558 355.291 210.075 356.775 210.075C358.241 210.075 359.491 209.558 360.525 208.525C361.541 207.508 362.05 206.25 362.05 204.75C362.05 203.25 361.541 201.992 360.525 200.975C359.491 199.942 358.241 199.425 356.775 199.425C355.291 199.425 354.033 199.942 353 200.975C351.983 201.992 351.475 203.25 351.475 204.75C351.475 206.25 351.983 207.508 353 208.525ZM373.788 198.225C375.588 198.225 377.113 198.858 378.363 200.125C379.629 201.375 380.263 202.917 380.263 204.75C380.263 206.583 379.629 208.133 378.363 209.4C377.113 210.65 375.588 211.275 373.788 211.275C372.604 211.275 371.538 211 370.588 210.45C369.654 209.883 368.929 209.1 368.413 208.1V216H367.163V198.5H368.413V201.4C368.929 200.4 369.654 199.625 370.588 199.075C371.538 198.508 372.604 198.225 373.788 198.225ZM369.938 208.525C370.971 209.558 372.229 210.075 373.713 210.075C375.179 210.075 376.429 209.558 377.463 208.525C378.496 207.492 379.013 206.233 379.013 204.75C379.013 203.267 378.496 202.008 377.463 200.975C376.429 199.942 375.179 199.425 373.713 199.425C372.229 199.425 370.971 199.942 369.938 200.975C368.921 201.992 368.413 203.25 368.413 204.75C368.413 206.25 368.921 207.508 369.938 208.525ZM386.488 198.5H391.438V211H390.188V206.125H387.488L383.563 211H381.938L385.938 206.1C384.904 205.983 384.046 205.575 383.363 204.875C382.696 204.175 382.363 203.325 382.363 202.325C382.363 201.208 382.763 200.292 383.563 199.575C384.346 198.858 385.321 198.5 386.488 198.5ZM386.488 204.925H390.188V199.725H386.488C385.671 199.725 384.988 199.975 384.438 200.475C383.904 200.958 383.638 201.575 383.638 202.325C383.638 203.108 383.904 203.742 384.438 204.225C384.988 204.692 385.671 204.925 386.488 204.925ZM400.353 198.5H410.703V199.725H406.153V211H404.903V199.725H400.353V198.5ZM418.1 198.225C419.934 198.225 421.417 198.875 422.55 200.175C423.7 201.475 424.275 203.017 424.275 204.8C424.275 204.833 424.267 204.933 424.25 205.1C424.25 205.267 424.25 205.367 424.25 205.4H412.925C413.075 206.8 413.634 207.933 414.6 208.8C415.567 209.65 416.775 210.075 418.225 210.075C419.209 210.075 420.075 209.875 420.825 209.475C421.575 209.058 422.15 208.5 422.55 207.8L423.65 208.45C423.134 209.317 422.392 210.008 421.425 210.525C420.475 211.025 419.4 211.275 418.2 211.275C416.267 211.275 414.692 210.667 413.475 209.45C412.242 208.217 411.625 206.65 411.625 204.75C411.625 202.883 412.225 201.333 413.425 200.1C414.659 198.85 416.217 198.225 418.1 198.225ZM418.1 199.425C416.7 199.425 415.517 199.867 414.55 200.75C413.6 201.633 413.059 202.775 412.925 204.175H422.975C422.842 202.692 422.309 201.533 421.375 200.7C420.442 199.85 419.35 199.425 418.1 199.425ZM432.647 211.3C430.864 211.3 429.364 210.708 428.147 209.525C426.947 208.325 426.347 206.775 426.347 204.875C426.347 202.792 426.647 201.183 427.247 200.05C427.88 198.883 429.139 197.842 431.022 196.925L432.322 196.35C433.555 195.833 434.289 195.508 434.522 195.375C435.072 195.075 435.489 194.767 435.772 194.45C436.055 194.117 436.23 193.692 436.297 193.175L437.297 193.75C437.114 194.683 436.622 195.417 435.822 195.95C435.472 196.167 435.089 196.392 434.672 196.625C434.339 196.808 433.839 197.033 433.172 197.3L431.697 197.925C430.447 198.492 429.539 199.092 428.972 199.725C428.405 200.358 428.022 201.233 427.822 202.35C428.389 201.467 429.13 200.792 430.047 200.325C430.964 199.858 431.922 199.625 432.922 199.625C434.589 199.625 435.972 200.175 437.072 201.275C438.172 202.375 438.722 203.775 438.722 205.475C438.722 207.158 438.147 208.55 436.997 209.65C435.88 210.75 434.43 211.3 432.647 211.3ZM432.647 210.05C434.047 210.05 435.197 209.625 436.097 208.775C436.997 207.892 437.447 206.792 437.447 205.475C437.447 204.125 437.014 203.017 436.147 202.15C435.28 201.283 434.155 200.85 432.772 200.85C431.505 200.85 430.364 201.25 429.347 202.05C428.347 202.85 427.797 203.883 427.697 205.15C427.697 206.567 428.164 207.742 429.097 208.675C430.014 209.592 431.197 210.05 432.647 210.05ZM447.104 198.225C448.938 198.225 450.421 198.875 451.554 200.175C452.704 201.475 453.279 203.017 453.279 204.8C453.279 204.833 453.271 204.933 453.254 205.1C453.254 205.267 453.254 205.367 453.254 205.4H441.929C442.079 206.8 442.638 207.933 443.604 208.8C444.571 209.65 445.779 210.075 447.229 210.075C448.213 210.075 449.079 209.875 449.829 209.475C450.579 209.058 451.154 208.5 451.554 207.8L452.654 208.45C452.138 209.317 451.396 210.008 450.429 210.525C449.479 211.025 448.404 211.275 447.204 211.275C445.271 211.275 443.696 210.667 442.479 209.45C441.246 208.217 440.629 206.65 440.629 204.75C440.629 202.883 441.229 201.333 442.429 200.1C443.663 198.85 445.221 198.225 447.104 198.225ZM447.104 199.425C445.704 199.425 444.521 199.867 443.554 200.75C442.604 201.633 442.063 202.775 441.929 204.175H451.979C451.846 202.692 451.313 201.533 450.379 200.7C449.446 199.85 448.354 199.425 447.104 199.425ZM473.441 198.5H474.941V211H473.666V200.4L468.991 207.775H468.816L464.116 200.35V211H462.866V198.5H464.341L468.891 205.675L473.441 198.5ZM480.034 203.35H483.734C484.901 203.35 485.876 203.708 486.659 204.425C487.459 205.142 487.859 206.058 487.859 207.175C487.859 208.292 487.459 209.208 486.659 209.925C485.876 210.642 484.901 211 483.734 211H478.784V198.5H480.034V203.35ZM489.784 211V198.5H491.034V211H489.784ZM480.034 209.775H483.734C484.551 209.775 485.226 209.533 485.759 209.05C486.309 208.55 486.584 207.925 486.584 207.175C486.584 206.392 486.309 205.767 485.759 205.3C485.226 204.817 484.551 204.575 483.734 204.575H480.034V209.775ZM134.274 233.225C136.074 233.225 137.599 233.858 138.849 235.125C140.115 236.375 140.749 237.917 140.749 239.75C140.749 241.583 140.115 243.133 138.849 244.4C137.599 245.65 136.074 246.275 134.274 246.275C133.09 246.275 132.024 246 131.074 245.45C130.14 244.883 129.415 244.1 128.899 243.1V251H127.649V233.5H128.899V236.4C129.415 235.4 130.14 234.625 131.074 234.075C132.024 233.508 133.09 233.225 134.274 233.225ZM130.424 243.525C131.457 244.558 132.715 245.075 134.199 245.075C135.665 245.075 136.915 244.558 137.949 243.525C138.982 242.492 139.499 241.233 139.499 239.75C139.499 238.267 138.982 237.008 137.949 235.975C136.915 234.942 135.665 234.425 134.199 234.425C132.715 234.425 131.457 234.942 130.424 235.975C129.407 236.992 128.899 238.25 128.899 239.75C128.899 241.25 129.407 242.508 130.424 243.525ZM149.387 233.225C151.22 233.225 152.704 233.875 153.837 235.175C154.987 236.475 155.562 238.017 155.562 239.8C155.562 239.833 155.554 239.933 155.537 240.1C155.537 240.267 155.537 240.367 155.537 240.4H144.212C144.362 241.8 144.92 242.933 145.887 243.8C146.854 244.65 148.062 245.075 149.512 245.075C150.495 245.075 151.362 244.875 152.112 244.475C152.862 244.058 153.437 243.5 153.837 242.8L154.937 243.45C154.42 244.317 153.679 245.008 152.712 245.525C151.762 246.025 150.687 246.275 149.487 246.275C147.554 246.275 145.979 245.667 144.762 244.45C143.529 243.217 142.912 241.65 142.912 239.75C142.912 237.883 143.512 236.333 144.712 235.1C145.945 233.85 147.504 233.225 149.387 233.225ZM149.387 234.425C147.987 234.425 146.804 234.867 145.837 235.75C144.887 236.633 144.345 237.775 144.212 239.175H154.262C154.129 237.692 153.595 236.533 152.662 235.7C151.729 234.85 150.637 234.425 149.387 234.425ZM169.484 236.325V233.5H170.759V246H169.484V243.175C168.934 244.142 168.192 244.9 167.259 245.45C166.325 246 165.275 246.275 164.109 246.275C162.342 246.275 160.817 245.65 159.534 244.4C158.267 243.133 157.634 241.583 157.634 239.75C157.634 237.917 158.267 236.375 159.534 235.125C160.8 233.858 162.325 233.225 164.109 233.225C165.275 233.225 166.325 233.5 167.259 234.05C168.192 234.6 168.934 235.358 169.484 236.325ZM160.434 243.525C161.467 244.558 162.725 245.075 164.209 245.075C165.675 245.075 166.925 244.558 167.959 243.525C168.975 242.508 169.484 241.25 169.484 239.75C169.484 238.25 168.975 236.992 167.959 235.975C166.925 234.942 165.675 234.425 164.209 234.425C162.725 234.425 161.467 234.942 160.434 235.975C159.417 236.992 158.909 238.25 158.909 239.75C158.909 241.25 159.417 242.508 160.434 243.525ZM175.947 233.5H184.747V246H183.497V234.725H177.197V240.75C177.197 242.717 176.839 244.108 176.122 244.925C175.405 245.742 174.364 246.1 172.997 246V244.825C174.014 244.908 174.755 244.633 175.222 244C175.705 243.367 175.947 242.283 175.947 240.75V233.5ZM189.836 243.825L197.811 233.5H198.911V246H197.636V235.675L189.686 246H188.586V233.5H189.836V243.825ZM208.771 239.55C209.521 239.8 210.104 240.2 210.521 240.75C210.937 241.3 211.146 241.933 211.146 242.65C211.146 243.7 210.729 244.567 209.896 245.25C209.079 245.933 207.962 246.275 206.546 246.275C204.046 246.275 202.421 245.292 201.671 243.325L202.746 242.7C203.279 244.283 204.546 245.075 206.546 245.075C207.579 245.075 208.387 244.85 208.971 244.4C209.571 243.933 209.871 243.325 209.871 242.575C209.871 241.892 209.621 241.342 209.121 240.925C208.621 240.492 207.954 240.275 207.121 240.275H205.396V239.05H206.646C207.462 239.05 208.104 238.842 208.571 238.425C209.037 238.008 209.271 237.45 209.271 236.75C209.271 236.083 208.996 235.533 208.446 235.1C207.912 234.65 207.204 234.425 206.321 234.425C204.621 234.425 203.496 235.1 202.946 236.45L201.896 235.85C202.262 235.033 202.821 234.392 203.571 233.925C204.321 233.458 205.237 233.225 206.321 233.225C207.587 233.225 208.604 233.567 209.371 234.25C210.137 234.917 210.521 235.733 210.521 236.7C210.521 238.05 209.937 239 208.771 239.55ZM219.629 246.275C217.795 246.275 216.237 245.65 214.954 244.4C213.687 243.133 213.054 241.583 213.054 239.75C213.054 237.917 213.687 236.375 214.954 235.125C216.22 233.858 217.779 233.225 219.629 233.225C221.445 233.225 222.987 233.858 224.254 235.125C225.537 236.375 226.179 237.917 226.179 239.75C226.179 241.567 225.537 243.117 224.254 244.4C222.97 245.65 221.429 246.275 219.629 246.275ZM215.854 243.525C216.887 244.558 218.145 245.075 219.629 245.075C221.095 245.075 222.345 244.558 223.379 243.525C224.395 242.508 224.904 241.25 224.904 239.75C224.904 238.25 224.395 236.992 223.379 235.975C222.345 234.942 221.095 234.425 219.629 234.425C218.145 234.425 216.887 234.942 215.854 235.975C214.837 236.992 214.329 238.25 214.329 239.75C214.329 241.25 214.837 242.508 215.854 243.525ZM236.887 239.55C238.353 240.017 239.087 241.017 239.087 242.55C239.087 243.583 238.745 244.417 238.062 245.05C237.395 245.683 236.453 246 235.237 246H229.187V233.5H234.762C235.928 233.5 236.837 233.808 237.487 234.425C238.153 235.025 238.487 235.808 238.487 236.775C238.487 238.108 237.953 239.033 236.887 239.55ZM234.762 234.725H230.437V239.05H234.762C235.562 239.05 236.17 238.858 236.587 238.475C237.003 238.092 237.212 237.55 237.212 236.85C237.212 236.183 236.995 235.667 236.562 235.3C236.145 234.917 235.545 234.725 234.762 234.725ZM230.437 244.775H235.237C236.07 244.775 236.712 244.575 237.162 244.175C237.612 243.775 237.837 243.217 237.837 242.5C237.837 241.8 237.603 241.258 237.137 240.875C236.687 240.475 236.053 240.275 235.237 240.275H230.437V244.775ZM252.858 236.325V233.5H254.133V246H252.858V243.175C252.308 244.142 251.566 244.9 250.633 245.45C249.699 246 248.649 246.275 247.483 246.275C245.716 246.275 244.191 245.65 242.908 244.4C241.641 243.133 241.008 241.583 241.008 239.75C241.008 237.917 241.641 236.375 242.908 235.125C244.174 233.858 245.699 233.225 247.483 233.225C248.649 233.225 249.699 233.5 250.633 234.05C251.566 234.6 252.308 235.358 252.858 236.325ZM243.808 243.525C244.841 244.558 246.099 245.075 247.583 245.075C249.049 245.075 250.299 244.558 251.333 243.525C252.349 242.508 252.858 241.25 252.858 239.75C252.858 238.25 252.349 236.992 251.333 235.975C250.299 234.942 249.049 234.425 247.583 234.425C246.099 234.425 244.841 234.942 243.808 235.975C242.791 236.992 242.283 238.25 242.283 239.75C242.283 241.25 242.791 242.508 243.808 243.525ZM259.321 233.5H268.121V246H266.871V234.725H260.571V240.75C260.571 242.717 260.213 244.108 259.496 244.925C258.779 245.742 257.738 246.1 256.371 246V244.825C257.388 244.908 258.129 244.633 258.596 244C259.079 243.367 259.321 242.283 259.321 240.75V233.5ZM273.21 243.825L281.185 233.5H282.285V246H281.01V235.675L273.06 246H271.96V233.5H273.21V243.825ZM298.535 246.275C296.701 246.275 295.143 245.65 293.86 244.4C292.593 243.133 291.96 241.583 291.96 239.75C291.96 237.917 292.593 236.375 293.86 235.125C295.126 233.858 296.685 233.225 298.535 233.225C300.351 233.225 301.893 233.858 303.16 235.125C304.443 236.375 305.085 237.917 305.085 239.75C305.085 241.567 304.443 243.117 303.16 244.4C301.876 245.65 300.335 246.275 298.535 246.275ZM294.76 243.525C295.793 244.558 297.051 245.075 298.535 245.075C300.001 245.075 301.251 244.558 302.285 243.525C303.301 242.508 303.81 241.25 303.81 239.75C303.81 238.25 303.301 236.992 302.285 235.975C301.251 234.942 300.001 234.425 298.535 234.425C297.051 234.425 295.793 234.942 294.76 235.975C293.743 236.992 293.235 238.25 293.235 239.75C293.235 241.25 293.743 242.508 294.76 243.525ZM316.149 239.925V233.5H317.424V246H316.149V241.1C315.049 241.65 313.782 241.925 312.349 241.925C310.749 241.925 309.515 241.55 308.649 240.8C307.782 240.05 307.349 238.975 307.349 237.575V233.5H308.599V237.575C308.599 239.675 309.832 240.725 312.299 240.725C313.649 240.725 314.932 240.458 316.149 239.925ZM326.902 233.225C328.735 233.225 330.218 233.875 331.352 235.175C332.502 236.475 333.077 238.017 333.077 239.8C333.077 239.833 333.068 239.933 333.052 240.1C333.052 240.267 333.052 240.367 333.052 240.4H321.727C321.877 241.8 322.435 242.933 323.402 243.8C324.368 244.65 325.577 245.075 327.027 245.075C328.01 245.075 328.877 244.875 329.627 244.475C330.377 244.058 330.952 243.5 331.352 242.8L332.452 243.45C331.935 244.317 331.193 245.008 330.227 245.525C329.277 246.025 328.202 246.275 327.002 246.275C325.068 246.275 323.493 245.667 322.277 244.45C321.043 243.217 320.427 241.65 320.427 239.75C320.427 237.883 321.027 236.333 322.227 235.1C323.46 233.85 325.018 233.225 326.902 233.225ZM326.902 234.425C325.502 234.425 324.318 234.867 323.352 235.75C322.402 236.633 321.86 237.775 321.727 239.175H331.777C331.643 237.692 331.11 236.533 330.177 235.7C329.243 234.85 328.152 234.425 326.902 234.425ZM345.048 239.15V233.5H346.323V246H345.048V240.35H337.248V246H335.998V233.5H337.248V239.15H345.048ZM351.433 238.35H355.133C356.299 238.35 357.274 238.708 358.058 239.425C358.858 240.142 359.258 241.058 359.258 242.175C359.258 243.292 358.858 244.208 358.058 244.925C357.274 245.642 356.299 246 355.133 246H350.183V233.5H351.433V238.35ZM351.433 244.775H355.133C355.949 244.775 356.624 244.533 357.158 244.05C357.708 243.55 357.983 242.925 357.983 242.175C357.983 241.392 357.708 240.767 357.158 240.3C356.624 239.817 355.949 239.575 355.133 239.575H351.433V244.775ZM376.364 239.55C377.831 240.017 378.564 241.017 378.564 242.55C378.564 243.583 378.223 244.417 377.539 245.05C376.873 245.683 375.931 246 374.714 246H368.664V233.5H374.239C375.406 233.5 376.314 233.808 376.964 234.425C377.631 235.025 377.964 235.808 377.964 236.775C377.964 238.108 377.431 239.033 376.364 239.55ZM374.239 234.725H369.914V239.05H374.239C375.039 239.05 375.648 238.858 376.064 238.475C376.481 238.092 376.689 237.55 376.689 236.85C376.689 236.183 376.473 235.667 376.039 235.3C375.623 234.917 375.023 234.725 374.239 234.725ZM369.914 244.775H374.714C375.548 244.775 376.189 244.575 376.639 244.175C377.089 243.775 377.314 243.217 377.314 242.5C377.314 241.8 377.081 241.258 376.614 240.875C376.164 240.475 375.531 240.275 374.714 240.275H369.914V244.775ZM392.335 236.325V233.5H393.61V246H392.335V243.175C391.785 244.142 391.043 244.9 390.11 245.45C389.177 246 388.127 246.275 386.96 246.275C385.193 246.275 383.668 245.65 382.385 244.4C381.118 243.133 380.485 241.583 380.485 239.75C380.485 237.917 381.118 236.375 382.385 235.125C383.652 233.858 385.177 233.225 386.96 233.225C388.127 233.225 389.177 233.5 390.11 234.05C391.043 234.6 391.785 235.358 392.335 236.325ZM383.285 243.525C384.318 244.558 385.577 245.075 387.06 245.075C388.527 245.075 389.777 244.558 390.81 243.525C391.827 242.508 392.335 241.25 392.335 239.75C392.335 238.25 391.827 236.992 390.81 235.975C389.777 234.942 388.527 234.425 387.06 234.425C385.577 234.425 384.318 234.942 383.285 235.975C382.268 236.992 381.76 238.25 381.76 239.75C381.76 241.25 382.268 242.508 383.285 243.525ZM405.623 239.5L411.523 246H409.973L404.448 239.85V246H403.173V239.85L397.648 246H396.098L402.023 239.5L396.348 233.5H397.898L403.173 239.15V233.5H404.448V239.15L409.723 233.5H411.273L405.623 239.5ZM423.076 239.15V233.5H424.351V246H423.076V240.35H415.276V246H414.026V233.5H415.276V239.15H423.076ZM429.46 238.35H433.16C434.327 238.35 435.302 238.708 436.085 239.425C436.885 240.142 437.285 241.058 437.285 242.175C437.285 243.292 436.885 244.208 436.085 244.925C435.302 245.642 434.327 246 433.16 246H428.21V233.5H429.46V238.35ZM439.21 246V233.5H440.46V246H439.21ZM429.46 244.775H433.16C433.977 244.775 434.652 244.533 435.185 244.05C435.735 243.55 436.01 242.925 436.01 242.175C436.01 241.392 435.735 240.767 435.185 240.3C434.652 239.817 433.977 239.575 433.16 239.575H429.46V244.775ZM452.599 231.325H446.274V230.225H452.599V231.325ZM445.549 243.825L453.524 233.5H454.624V246H453.349V235.675L445.399 246H444.299V233.5H445.549V243.825ZM469.549 233.225C471.449 233.225 472.974 233.842 474.124 235.075C475.29 236.292 475.874 237.85 475.874 239.75C475.874 241.65 475.29 243.208 474.124 244.425C472.94 245.658 471.407 246.275 469.524 246.275C468.19 246.275 467.032 245.992 466.049 245.425C465.065 244.858 464.349 244.075 463.899 243.075L464.974 242.425C465.324 243.242 465.89 243.892 466.674 244.375C467.474 244.842 468.424 245.075 469.524 245.075C470.924 245.075 472.082 244.633 472.999 243.75C473.932 242.85 474.457 241.717 474.574 240.35H468.099V239.15H474.574C474.44 237.767 473.924 236.633 473.024 235.75C472.107 234.867 470.949 234.425 469.549 234.425C468.515 234.425 467.599 234.658 466.799 235.125C466.015 235.592 465.432 236.233 465.049 237.05L463.949 236.425C464.449 235.425 465.19 234.642 466.174 234.075C467.174 233.508 468.299 233.225 469.549 233.225ZM476.781 233.5H487.131V234.725H482.581V246H481.331V234.725H476.781V233.5ZM499.904 236.325V233.5H501.179V246H499.904V243.175C499.354 244.142 498.612 244.9 497.679 245.45C496.745 246 495.695 246.275 494.529 246.275C492.762 246.275 491.237 245.65 489.954 244.4C488.687 243.133 488.054 241.583 488.054 239.75C488.054 237.917 488.687 236.375 489.954 235.125C491.22 233.858 492.745 233.225 494.529 233.225C495.695 233.225 496.745 233.5 497.679 234.05C498.612 234.6 499.354 235.358 499.904 236.325ZM490.854 243.525C491.887 244.558 493.145 245.075 494.629 245.075C496.095 245.075 497.345 244.558 498.379 243.525C499.395 242.508 499.904 241.25 499.904 239.75C499.904 238.25 499.395 236.992 498.379 235.975C497.345 234.942 496.095 234.425 494.629 234.425C493.145 234.425 491.887 234.942 490.854 235.975C489.837 236.992 489.329 238.25 489.329 239.75C489.329 241.25 489.837 242.508 490.854 243.525ZM505.017 233.5H515.342V246H514.067V234.725H506.267V246H505.017V233.5ZM114.445 274.15V268.5H115.72V281H114.445V275.35H106.645V281H105.395V268.5H106.645V274.15H114.445ZM130.58 271.325V268.5H131.855V281H130.58V278.175C130.03 279.142 129.288 279.9 128.355 280.45C127.421 281 126.371 281.275 125.205 281.275C123.438 281.275 121.913 280.65 120.63 279.4C119.363 278.133 118.73 276.583 118.73 274.75C118.73 272.917 119.363 271.375 120.63 270.125C121.896 268.858 123.421 268.225 125.205 268.225C126.371 268.225 127.421 268.5 128.355 269.05C129.288 269.6 130.03 270.358 130.58 271.325ZM121.53 278.525C122.563 279.558 123.821 280.075 125.305 280.075C126.771 280.075 128.021 279.558 129.055 278.525C130.071 277.508 130.58 276.25 130.58 274.75C130.58 273.25 130.071 271.992 129.055 270.975C128.021 269.942 126.771 269.425 125.305 269.425C123.821 269.425 122.563 269.942 121.53 270.975C120.513 271.992 120.005 273.25 120.005 274.75C120.005 276.25 120.513 277.508 121.53 278.525ZM150.993 279.775V268.5H152.268V281H135.693V268.5H136.943V279.775H143.343V268.5H144.618V279.775H150.993ZM161.753 268.225C163.586 268.225 165.069 268.875 166.203 270.175C167.353 271.475 167.928 273.017 167.928 274.8C167.928 274.833 167.919 274.933 167.903 275.1C167.903 275.267 167.903 275.367 167.903 275.4H156.578C156.728 276.8 157.286 277.933 158.253 278.8C159.219 279.65 160.428 280.075 161.878 280.075C162.861 280.075 163.728 279.875 164.478 279.475C165.228 279.058 165.803 278.5 166.203 277.8L167.303 278.45C166.786 279.317 166.044 280.008 165.078 280.525C164.128 281.025 163.053 281.275 161.853 281.275C159.919 281.275 158.344 280.667 157.128 279.45C155.894 278.217 155.278 276.65 155.278 274.75C155.278 272.883 155.878 271.333 157.078 270.1C158.311 268.85 159.869 268.225 161.753 268.225ZM161.753 269.425C160.353 269.425 159.169 269.867 158.203 270.75C157.253 271.633 156.711 272.775 156.578 274.175H166.628C166.494 272.692 165.961 271.533 165.028 270.7C164.094 269.85 163.003 269.425 161.753 269.425ZM170.849 268.5H178.674V269.725H172.099V281H170.849V268.5ZM186.145 281.275C184.311 281.275 182.753 280.65 181.47 279.4C180.203 278.133 179.57 276.583 179.57 274.75C179.57 272.917 180.203 271.375 181.47 270.125C182.736 268.858 184.295 268.225 186.145 268.225C187.961 268.225 189.503 268.858 190.77 270.125C192.053 271.375 192.695 272.917 192.695 274.75C192.695 276.567 192.053 278.117 190.77 279.4C189.486 280.65 187.945 281.275 186.145 281.275ZM182.37 278.525C183.403 279.558 184.661 280.075 186.145 280.075C187.611 280.075 188.861 279.558 189.895 278.525C190.911 277.508 191.42 276.25 191.42 274.75C191.42 273.25 190.911 271.992 189.895 270.975C188.861 269.942 187.611 269.425 186.145 269.425C184.661 269.425 183.403 269.942 182.37 270.975C181.353 271.992 180.845 273.25 180.845 274.75C180.845 276.25 181.353 277.508 182.37 278.525ZM202.368 268.5H212.693V281H211.418V269.725H203.618V281H202.368V268.5ZM223.177 268.225C224.977 268.225 226.502 268.858 227.752 270.125C229.019 271.375 229.652 272.917 229.652 274.75C229.652 276.583 229.019 278.133 227.752 279.4C226.502 280.65 224.977 281.275 223.177 281.275C221.994 281.275 220.927 281 219.977 280.45C219.044 279.883 218.319 279.1 217.802 278.1V286H216.552V268.5H217.802V271.4C218.319 270.4 219.044 269.625 219.977 269.075C220.927 268.508 221.994 268.225 223.177 268.225ZM219.327 278.525C220.361 279.558 221.619 280.075 223.102 280.075C224.569 280.075 225.819 279.558 226.852 278.525C227.886 277.492 228.402 276.233 228.402 274.75C228.402 273.267 227.886 272.008 226.852 270.975C225.819 269.942 224.569 269.425 223.102 269.425C221.619 269.425 220.361 269.942 219.327 270.975C218.311 271.992 217.802 273.25 217.802 274.75C217.802 276.25 218.311 277.508 219.327 278.525ZM238.391 281.275C236.557 281.275 234.999 280.65 233.716 279.4C232.449 278.133 231.816 276.583 231.816 274.75C231.816 272.917 232.449 271.375 233.716 270.125C234.982 268.858 236.541 268.225 238.391 268.225C240.207 268.225 241.749 268.858 243.016 270.125C244.299 271.375 244.941 272.917 244.941 274.75C244.941 276.567 244.299 278.117 243.016 279.4C241.732 280.65 240.191 281.275 238.391 281.275ZM234.616 278.525C235.649 279.558 236.907 280.075 238.391 280.075C239.857 280.075 241.107 279.558 242.141 278.525C243.157 277.508 243.666 276.25 243.666 274.75C243.666 273.25 243.157 271.992 242.141 270.975C241.107 269.942 239.857 269.425 238.391 269.425C236.907 269.425 235.649 269.942 234.616 270.975C233.599 271.992 233.091 273.25 233.091 274.75C233.091 276.25 233.599 277.508 234.616 278.525ZM253.574 268.225C255.407 268.225 256.891 268.875 258.024 270.175C259.174 271.475 259.749 273.017 259.749 274.8C259.749 274.833 259.741 274.933 259.724 275.1C259.724 275.267 259.724 275.367 259.724 275.4H248.399C248.549 276.8 249.107 277.933 250.074 278.8C251.041 279.65 252.249 280.075 253.699 280.075C254.682 280.075 255.549 279.875 256.299 279.475C257.049 279.058 257.624 278.5 258.024 277.8L259.124 278.45C258.607 279.317 257.866 280.008 256.899 280.525C255.949 281.025 254.874 281.275 253.674 281.275C251.741 281.275 250.166 280.667 248.949 279.45C247.716 278.217 247.099 276.65 247.099 274.75C247.099 272.883 247.699 271.333 248.899 270.1C250.132 268.85 251.691 268.225 253.574 268.225ZM253.574 269.425C252.174 269.425 250.991 269.867 250.024 270.75C249.074 271.633 248.532 272.775 248.399 274.175H258.449C258.316 272.692 257.782 271.533 256.849 270.7C255.916 269.85 254.824 269.425 253.574 269.425ZM265.271 274.5L272.246 281H270.546L263.921 274.85V281H262.671V268.5H263.921V274.175L270.246 268.5H271.996L265.271 274.5ZM273.156 268.5H283.506V269.725H278.956V281H277.706V269.725H273.156V268.5ZM296.278 271.325V268.5H297.553V281H296.278V278.175C295.728 279.142 294.986 279.9 294.053 280.45C293.12 281 292.07 281.275 290.903 281.275C289.136 281.275 287.611 280.65 286.328 279.4C285.061 278.133 284.428 276.583 284.428 274.75C284.428 272.917 285.061 271.375 286.328 270.125C287.595 268.858 289.12 268.225 290.903 268.225C292.07 268.225 293.12 268.5 294.053 269.05C294.986 269.6 295.728 270.358 296.278 271.325ZM287.228 278.525C288.261 279.558 289.52 280.075 291.003 280.075C292.47 280.075 293.72 279.558 294.753 278.525C295.77 277.508 296.278 276.25 296.278 274.75C296.278 273.25 295.77 271.992 294.753 270.975C293.72 269.942 292.47 269.425 291.003 269.425C289.52 269.425 288.261 269.942 287.228 270.975C286.211 271.992 285.703 273.25 285.703 274.75C285.703 276.25 286.211 277.508 287.228 278.525ZM303.266 280.125C303.266 280.442 303.158 280.708 302.941 280.925C302.725 281.142 302.458 281.25 302.141 281.25C301.825 281.25 301.558 281.142 301.341 280.925C301.125 280.708 301.016 280.442 301.016 280.125C301.016 279.808 301.125 279.542 301.341 279.325C301.558 279.108 301.825 279 302.141 279C302.458 279 302.725 279.108 302.941 279.325C303.158 279.542 303.266 279.808 303.266 280.125ZM312.029 263.5H324.379V264.75H318.879V281H317.529V264.75H312.029V263.5ZM330.258 268.225C332.092 268.225 333.575 268.875 334.708 270.175C335.858 271.475 336.433 273.017 336.433 274.8C336.433 274.833 336.425 274.933 336.408 275.1C336.408 275.267 336.408 275.367 336.408 275.4H325.083C325.233 276.8 325.792 277.933 326.758 278.8C327.725 279.65 328.933 280.075 330.383 280.075C331.367 280.075 332.233 279.875 332.983 279.475C333.733 279.058 334.308 278.5 334.708 277.8L335.808 278.45C335.292 279.317 334.55 280.008 333.583 280.525C332.633 281.025 331.558 281.275 330.358 281.275C328.425 281.275 326.85 280.667 325.633 279.45C324.4 278.217 323.783 276.65 323.783 274.75C323.783 272.883 324.383 271.333 325.583 270.1C326.817 268.85 328.375 268.225 330.258 268.225ZM330.258 269.425C328.858 269.425 327.675 269.867 326.708 270.75C325.758 271.633 325.217 272.775 325.083 274.175H335.133C335 272.692 334.467 271.533 333.533 270.7C332.6 269.85 331.508 269.425 330.258 269.425ZM339.355 268.5H349.68V281H348.405V269.725H340.605V281H339.355V268.5ZM359.165 268.225C360.998 268.225 362.481 268.875 363.615 270.175C364.765 271.475 365.34 273.017 365.34 274.8C365.34 274.833 365.331 274.933 365.315 275.1C365.315 275.267 365.315 275.367 365.315 275.4H353.99C354.14 276.8 354.698 277.933 355.665 278.8C356.631 279.65 357.84 280.075 359.29 280.075C360.273 280.075 361.14 279.875 361.89 279.475C362.64 279.058 363.215 278.5 363.615 277.8L364.715 278.45C364.198 279.317 363.456 280.008 362.49 280.525C361.54 281.025 360.465 281.275 359.265 281.275C357.331 281.275 355.756 280.667 354.54 279.45C353.306 278.217 352.69 276.65 352.69 274.75C352.69 272.883 353.29 271.333 354.49 270.1C355.723 268.85 357.281 268.225 359.165 268.225ZM359.165 269.425C357.765 269.425 356.581 269.867 355.615 270.75C354.665 271.633 354.123 272.775 353.99 274.175H364.04C363.906 272.692 363.373 271.533 362.44 270.7C361.506 269.85 360.415 269.425 359.165 269.425ZM374.886 268.225C376.686 268.225 378.211 268.858 379.461 270.125C380.728 271.375 381.361 272.917 381.361 274.75C381.361 276.583 380.728 278.133 379.461 279.4C378.211 280.65 376.686 281.275 374.886 281.275C373.703 281.275 372.636 281 371.686 280.45C370.753 279.883 370.028 279.1 369.511 278.1V286H368.261V268.5H369.511V271.4C370.028 270.4 370.753 269.625 371.686 269.075C372.636 268.508 373.703 268.225 374.886 268.225ZM371.036 278.525C372.07 279.558 373.328 280.075 374.811 280.075C376.278 280.075 377.528 279.558 378.561 278.525C379.595 277.492 380.111 276.233 380.111 274.75C380.111 273.267 379.595 272.008 378.561 270.975C377.528 269.942 376.278 269.425 374.811 269.425C373.328 269.425 372.07 269.942 371.036 270.975C370.02 271.992 369.511 273.25 369.511 274.75C369.511 276.25 370.02 277.508 371.036 278.525ZM385.625 273.35H389.325C390.491 273.35 391.466 273.708 392.25 274.425C393.05 275.142 393.45 276.058 393.45 277.175C393.45 278.292 393.05 279.208 392.25 279.925C391.466 280.642 390.491 281 389.325 281H384.375V268.5H385.625V273.35ZM385.625 279.775H389.325C390.141 279.775 390.816 279.533 391.35 279.05C391.9 278.55 392.175 277.925 392.175 277.175C392.175 276.392 391.9 275.767 391.35 275.3C390.816 274.817 390.141 274.575 389.325 274.575H385.625V279.775ZM411.906 274.15V268.5H413.181V281H411.906V275.35H404.106V281H402.856V268.5H404.106V274.15H411.906ZM428.041 271.325V268.5H429.316V281H428.041V278.175C427.491 279.142 426.749 279.9 425.816 280.45C424.882 281 423.832 281.275 422.666 281.275C420.899 281.275 419.374 280.65 418.091 279.4C416.824 278.133 416.191 276.583 416.191 274.75C416.191 272.917 416.824 271.375 418.091 270.125C419.357 268.858 420.882 268.225 422.666 268.225C423.832 268.225 424.882 268.5 425.816 269.05C426.749 269.6 427.491 270.358 428.041 271.325ZM418.991 278.525C420.024 279.558 421.282 280.075 422.766 280.075C424.232 280.075 425.482 279.558 426.516 278.525C427.532 277.508 428.041 276.25 428.041 274.75C428.041 273.25 427.532 271.992 426.516 270.975C425.482 269.942 424.232 269.425 422.766 269.425C421.282 269.425 420.024 269.942 418.991 270.975C417.974 271.992 417.466 273.25 417.466 274.75C417.466 276.25 417.974 277.508 418.991 278.525ZM448.454 279.775V268.5H449.729V281H433.154V268.5H434.404V279.775H440.804V268.5H442.079V279.775H448.454ZM465.979 281.275C464.095 281.275 462.529 280.65 461.279 279.4C460.029 278.15 459.404 276.6 459.404 274.75C459.404 272.9 460.029 271.35 461.279 270.1C462.529 268.85 464.095 268.225 465.979 268.225C467.195 268.225 468.295 268.517 469.279 269.1C470.262 269.667 470.979 270.442 471.429 271.425L470.404 272.025C470.037 271.225 469.454 270.592 468.654 270.125C467.87 269.658 466.979 269.425 465.979 269.425C464.495 269.425 463.237 269.942 462.204 270.975C461.187 271.992 460.679 273.25 460.679 274.75C460.679 276.267 461.187 277.533 462.204 278.55C463.22 279.567 464.479 280.075 465.979 280.075C466.979 280.075 467.87 279.842 468.654 279.375C469.454 278.908 470.062 278.275 470.479 277.475L471.529 278.1C471.029 279.067 470.279 279.842 469.279 280.425C468.279 280.992 467.179 281.275 465.979 281.275ZM485.145 271.325V268.5H486.42V281H485.145V278.175C484.595 279.142 483.854 279.9 482.92 280.45C481.987 281 480.937 281.275 479.77 281.275C478.004 281.275 476.479 280.65 475.195 279.4C473.929 278.133 473.295 276.583 473.295 274.75C473.295 272.917 473.929 271.375 475.195 270.125C476.462 268.858 477.987 268.225 479.77 268.225C480.937 268.225 481.987 268.5 482.92 269.05C483.854 269.6 484.595 270.358 485.145 271.325ZM476.095 278.525C477.129 279.558 478.387 280.075 479.87 280.075C481.337 280.075 482.587 279.558 483.62 278.525C484.637 277.508 485.145 276.25 485.145 274.75C485.145 273.25 484.637 271.992 483.62 270.975C482.587 269.942 481.337 269.425 479.87 269.425C478.387 269.425 477.129 269.942 476.095 270.975C475.079 271.992 474.57 273.25 474.57 274.75C474.57 276.25 475.079 277.508 476.095 278.525ZM498.558 266.325H492.233V265.225H498.558V266.325ZM491.508 278.825L499.483 268.5H500.583V281H499.308V270.675L491.358 281H490.258V268.5H491.508V278.825ZM502.843 268.5H513.193V269.725H508.643V281H507.393V269.725H502.843V268.5ZM537.369 273.875H522.369V272.675H537.369V273.875ZM140.849 309.15V303.5H142.124V316H140.849V310.35H133.049V316H131.799V303.5H133.049V309.15H140.849ZM156.984 306.325V303.5H158.259V316H156.984V313.175C156.434 314.142 155.692 314.9 154.759 315.45C153.825 316 152.775 316.275 151.609 316.275C149.842 316.275 148.317 315.65 147.034 314.4C145.767 313.133 145.134 311.583 145.134 309.75C145.134 307.917 145.767 306.375 147.034 305.125C148.3 303.858 149.825 303.225 151.609 303.225C152.775 303.225 153.825 303.5 154.759 304.05C155.692 304.6 156.434 305.358 156.984 306.325ZM147.934 313.525C148.967 314.558 150.225 315.075 151.709 315.075C153.175 315.075 154.425 314.558 155.459 313.525C156.475 312.508 156.984 311.25 156.984 309.75C156.984 308.25 156.475 306.992 155.459 305.975C154.425 304.942 153.175 304.425 151.709 304.425C150.225 304.425 148.967 304.942 147.934 305.975C146.917 306.992 146.409 308.25 146.409 309.75C146.409 311.25 146.917 312.508 147.934 313.525ZM168.762 303.5H179.087V316H177.812V304.725H170.012V316H168.762V303.5ZM189.571 303.225C191.371 303.225 192.896 303.858 194.146 305.125C195.413 306.375 196.046 307.917 196.046 309.75C196.046 311.583 195.413 313.133 194.146 314.4C192.896 315.65 191.371 316.275 189.571 316.275C188.388 316.275 187.321 316 186.371 315.45C185.438 314.883 184.713 314.1 184.196 313.1V321H182.946V303.5H184.196V306.4C184.713 305.4 185.438 304.625 186.371 304.075C187.321 303.508 188.388 303.225 189.571 303.225ZM185.721 313.525C186.755 314.558 188.013 315.075 189.496 315.075C190.963 315.075 192.213 314.558 193.246 313.525C194.28 312.492 194.796 311.233 194.796 309.75C194.796 308.267 194.28 307.008 193.246 305.975C192.213 304.942 190.963 304.425 189.496 304.425C188.013 304.425 186.755 304.942 185.721 305.975C184.705 306.992 184.196 308.25 184.196 309.75C184.196 311.25 184.705 312.508 185.721 313.525ZM204.785 316.275C202.951 316.275 201.393 315.65 200.11 314.4C198.843 313.133 198.21 311.583 198.21 309.75C198.21 307.917 198.843 306.375 200.11 305.125C201.376 303.858 202.935 303.225 204.785 303.225C206.601 303.225 208.143 303.858 209.41 305.125C210.693 306.375 211.335 307.917 211.335 309.75C211.335 311.567 210.693 313.117 209.41 314.4C208.126 315.65 206.585 316.275 204.785 316.275ZM201.01 313.525C202.043 314.558 203.301 315.075 204.785 315.075C206.251 315.075 207.501 314.558 208.535 313.525C209.551 312.508 210.06 311.25 210.06 309.75C210.06 308.25 209.551 306.992 208.535 305.975C207.501 304.942 206.251 304.425 204.785 304.425C203.301 304.425 202.043 304.942 201.01 305.975C199.993 306.992 199.485 308.25 199.485 309.75C199.485 311.25 199.993 312.508 201.01 313.525ZM221.418 316.275V321H220.168V316.275C218.135 316.142 216.518 315.475 215.318 314.275C214.101 313.058 213.493 311.55 213.493 309.75C213.493 307.967 214.101 306.467 215.318 305.25C216.535 304.033 218.151 303.358 220.168 303.225V298.5H221.418V303.225C223.401 303.342 225.01 304.017 226.243 305.25C227.476 306.483 228.093 307.983 228.093 309.75C228.093 311.533 227.476 313.042 226.243 314.275C225.043 315.475 223.435 316.142 221.418 316.275ZM220.168 315.05V304.45C218.518 304.583 217.21 305.133 216.243 306.1C215.26 307.083 214.768 308.3 214.768 309.75C214.768 311.2 215.26 312.417 216.243 313.4C217.21 314.367 218.518 314.917 220.168 315.05ZM221.418 304.45V315.05C223.068 314.917 224.376 314.367 225.343 313.4C226.326 312.417 226.818 311.2 226.818 309.75C226.818 308.3 226.326 307.083 225.343 306.1C224.376 305.133 223.068 304.583 221.418 304.45ZM236.716 303.225C238.549 303.225 240.033 303.875 241.166 305.175C242.316 306.475 242.891 308.017 242.891 309.8C242.891 309.833 242.883 309.933 242.866 310.1C242.866 310.267 242.866 310.367 242.866 310.4H231.541C231.691 311.8 232.249 312.933 233.216 313.8C234.183 314.65 235.391 315.075 236.841 315.075C237.824 315.075 238.691 314.875 239.441 314.475C240.191 314.058 240.766 313.5 241.166 312.8L242.266 313.45C241.749 314.317 241.008 315.008 240.041 315.525C239.091 316.025 238.016 316.275 236.816 316.275C234.883 316.275 233.308 315.667 232.091 314.45C230.858 313.217 230.241 311.65 230.241 309.75C230.241 307.883 230.841 306.333 232.041 305.1C233.274 303.85 234.833 303.225 236.716 303.225ZM236.716 304.425C235.316 304.425 234.133 304.867 233.166 305.75C232.216 306.633 231.674 307.775 231.541 309.175H241.591C241.458 307.692 240.924 306.533 239.991 305.7C239.058 304.85 237.966 304.425 236.716 304.425ZM251.538 316.275C249.654 316.275 248.088 315.65 246.838 314.4C245.588 313.15 244.963 311.6 244.963 309.75C244.963 307.9 245.588 306.35 246.838 305.1C248.088 303.85 249.654 303.225 251.538 303.225C252.754 303.225 253.854 303.517 254.838 304.1C255.821 304.667 256.538 305.442 256.988 306.425L255.963 307.025C255.596 306.225 255.013 305.592 254.213 305.125C253.429 304.658 252.538 304.425 251.538 304.425C250.054 304.425 248.796 304.942 247.763 305.975C246.746 306.992 246.238 308.25 246.238 309.75C246.238 311.267 246.746 312.533 247.763 313.55C248.779 314.567 250.038 315.075 251.538 315.075C252.538 315.075 253.429 314.842 254.213 314.375C255.013 313.908 255.621 313.275 256.038 312.475L257.088 313.1C256.588 314.067 255.838 314.842 254.838 315.425C253.838 315.992 252.738 316.275 251.538 316.275ZM265.429 316.275C263.546 316.275 261.979 315.65 260.729 314.4C259.479 313.15 258.854 311.6 258.854 309.75C258.854 307.9 259.479 306.35 260.729 305.1C261.979 303.85 263.546 303.225 265.429 303.225C266.646 303.225 267.746 303.517 268.729 304.1C269.713 304.667 270.429 305.442 270.879 306.425L269.854 307.025C269.488 306.225 268.904 305.592 268.104 305.125C267.321 304.658 266.429 304.425 265.429 304.425C263.946 304.425 262.688 304.942 261.654 305.975C260.638 306.992 260.129 308.25 260.129 309.75C260.129 311.267 260.638 312.533 261.654 313.55C262.671 314.567 263.929 315.075 265.429 315.075C266.429 315.075 267.321 314.842 268.104 314.375C268.904 313.908 269.513 313.275 269.929 312.475L270.979 313.1C270.479 314.067 269.729 314.842 268.729 315.425C267.729 315.992 266.629 316.275 265.429 316.275ZM274.968 313.825L282.943 303.5H284.043V316H282.768V305.675L274.818 316H273.718V303.5H274.968V313.825ZM293.628 316.275C291.794 316.275 290.236 315.65 288.953 314.4C287.686 313.133 287.053 311.583 287.053 309.75C287.053 307.917 287.686 306.375 288.953 305.125C290.219 303.858 291.778 303.225 293.628 303.225C295.444 303.225 296.986 303.858 298.253 305.125C299.536 306.375 300.178 307.917 300.178 309.75C300.178 311.567 299.536 313.117 298.253 314.4C296.969 315.65 295.428 316.275 293.628 316.275ZM289.853 313.525C290.886 314.558 292.144 315.075 293.628 315.075C295.094 315.075 296.344 314.558 297.378 313.525C298.394 312.508 298.903 311.25 298.903 309.75C298.903 308.25 298.394 306.992 297.378 305.975C296.344 304.942 295.094 304.425 293.628 304.425C292.144 304.425 290.886 304.942 289.853 305.975C288.836 306.992 288.328 308.25 288.328 309.75C288.328 311.25 288.836 312.508 289.853 313.525ZM312.236 309.15V303.5H313.511V316H312.236V310.35H304.436V316H303.186V303.5H304.436V309.15H312.236ZM328.37 306.325V303.5H329.645V316H328.37V313.175C327.82 314.142 327.079 314.9 326.145 315.45C325.212 316 324.162 316.275 322.995 316.275C321.229 316.275 319.704 315.65 318.42 314.4C317.154 313.133 316.52 311.583 316.52 309.75C316.52 307.917 317.154 306.375 318.42 305.125C319.687 303.858 321.212 303.225 322.995 303.225C324.162 303.225 325.212 303.5 326.145 304.05C327.079 304.6 327.82 305.358 328.37 306.325ZM319.32 313.525C320.354 314.558 321.612 315.075 323.095 315.075C324.562 315.075 325.812 314.558 326.845 313.525C327.862 312.508 328.37 311.25 328.37 309.75C328.37 308.25 327.862 306.992 326.845 305.975C325.812 304.942 324.562 304.425 323.095 304.425C321.612 304.425 320.354 304.942 319.32 305.975C318.304 306.992 317.795 308.25 317.795 309.75C317.795 311.25 318.304 312.508 319.32 313.525ZM334.834 303.5H343.634V316H342.384V304.725H336.084V310.75C336.084 312.717 335.725 314.108 335.009 314.925C334.292 315.742 333.25 316.1 331.884 316V314.825C332.9 314.908 333.642 314.633 334.109 314C334.592 313.367 334.834 312.283 334.834 310.75V303.5ZM348.723 308.35H352.423C353.59 308.35 354.565 308.708 355.348 309.425C356.148 310.142 356.548 311.058 356.548 312.175C356.548 313.292 356.148 314.208 355.348 314.925C354.565 315.642 353.59 316 352.423 316H347.473V303.5H348.723V308.35ZM348.723 314.775H352.423C353.24 314.775 353.915 314.533 354.448 314.05C354.998 313.55 355.273 312.925 355.273 312.175C355.273 311.392 354.998 310.767 354.448 310.3C353.915 309.817 353.24 309.575 352.423 309.575H348.723V314.775ZM368.339 309.15V303.5H369.614V316H368.339V310.35H360.539V316H359.289V303.5H360.539V309.15H368.339ZM379.199 316.275C377.365 316.275 375.807 315.65 374.524 314.4C373.257 313.133 372.624 311.583 372.624 309.75C372.624 307.917 373.257 306.375 374.524 305.125C375.79 303.858 377.349 303.225 379.199 303.225C381.015 303.225 382.557 303.858 383.824 305.125C385.107 306.375 385.749 307.917 385.749 309.75C385.749 311.567 385.107 313.117 383.824 314.4C382.54 315.65 380.999 316.275 379.199 316.275ZM375.424 313.525C376.457 314.558 377.715 315.075 379.199 315.075C380.665 315.075 381.915 314.558 382.949 313.525C383.965 312.508 384.474 311.25 384.474 309.75C384.474 308.25 383.965 306.992 382.949 305.975C381.915 304.942 380.665 304.425 379.199 304.425C377.715 304.425 376.457 304.942 375.424 305.975C374.407 306.992 373.899 308.25 373.899 309.75C373.899 311.25 374.407 312.508 375.424 313.525ZM399.332 303.5H400.832V316H399.557V305.4L394.882 312.775H394.707L390.007 305.35V316H388.757V303.5H390.232L394.782 310.675L399.332 303.5ZM416.14 314.625L420.49 303.5H421.84L416.44 317.15C415.94 318.4 415.248 319.375 414.365 320.075C413.482 320.775 412.523 321.083 411.49 321V319.825C412.273 319.892 412.99 319.667 413.64 319.15C414.29 318.633 414.815 317.883 415.215 316.9L415.49 316.225L409.74 303.5H411.09L416.14 314.625ZM430.709 303.225C432.509 303.225 434.034 303.858 435.284 305.125C436.551 306.375 437.184 307.917 437.184 309.75C437.184 311.583 436.551 313.133 435.284 314.4C434.034 315.65 432.509 316.275 430.709 316.275C429.526 316.275 428.459 316 427.509 315.45C426.576 314.883 425.851 314.1 425.334 313.1V321H424.084V303.5H425.334V306.4C425.851 305.4 426.576 304.625 427.509 304.075C428.459 303.508 429.526 303.225 430.709 303.225ZM426.859 313.525C427.893 314.558 429.151 315.075 430.634 315.075C432.101 315.075 433.351 314.558 434.384 313.525C435.418 312.492 435.934 311.233 435.934 309.75C435.934 308.267 435.418 307.008 434.384 305.975C433.351 304.942 432.101 304.425 430.634 304.425C429.151 304.425 427.893 304.942 426.859 305.975C425.843 306.992 425.334 308.25 425.334 309.75C425.334 311.25 425.843 312.508 426.859 313.525ZM445.922 316.275C444.089 316.275 442.531 315.65 441.247 314.4C439.981 313.133 439.347 311.583 439.347 309.75C439.347 307.917 439.981 306.375 441.247 305.125C442.514 303.858 444.072 303.225 445.922 303.225C447.739 303.225 449.281 303.858 450.547 305.125C451.831 306.375 452.472 307.917 452.472 309.75C452.472 311.567 451.831 313.117 450.547 314.4C449.264 315.65 447.722 316.275 445.922 316.275ZM442.147 313.525C443.181 314.558 444.439 315.075 445.922 315.075C447.389 315.075 448.639 314.558 449.672 313.525C450.689 312.508 451.197 311.25 451.197 309.75C451.197 308.25 450.689 306.992 449.672 305.975C448.639 304.942 447.389 304.425 445.922 304.425C444.439 304.425 443.181 304.942 442.147 305.975C441.131 306.992 440.622 308.25 440.622 309.75C440.622 311.25 441.131 312.508 442.147 313.525ZM463.181 309.55C464.647 310.017 465.381 311.017 465.381 312.55C465.381 313.583 465.039 314.417 464.356 315.05C463.689 315.683 462.747 316 461.531 316H455.481V303.5H461.056C462.222 303.5 463.131 303.808 463.781 304.425C464.447 305.025 464.781 305.808 464.781 306.775C464.781 308.108 464.247 309.033 463.181 309.55ZM461.056 304.725H456.731V309.05H461.056C461.856 309.05 462.464 308.858 462.881 308.475C463.297 308.092 463.506 307.55 463.506 306.85C463.506 306.183 463.289 305.667 462.856 305.3C462.439 304.917 461.839 304.725 461.056 304.725ZM456.731 314.775H461.531C462.364 314.775 463.006 314.575 463.456 314.175C463.906 313.775 464.131 313.217 464.131 312.5C464.131 311.8 463.897 311.258 463.431 310.875C462.981 310.475 462.347 310.275 461.531 310.275H456.731V314.775ZM477.202 309.15V303.5H478.477V316H477.202V310.35H469.402V316H468.152V303.5H469.402V309.15H477.202ZM487.961 303.225C489.794 303.225 491.278 303.875 492.411 305.175C493.561 306.475 494.136 308.017 494.136 309.8C494.136 309.833 494.128 309.933 494.111 310.1C494.111 310.267 494.111 310.367 494.111 310.4H482.786C482.936 311.8 483.494 312.933 484.461 313.8C485.428 314.65 486.636 315.075 488.086 315.075C489.069 315.075 489.936 314.875 490.686 314.475C491.436 314.058 492.011 313.5 492.411 312.8L493.511 313.45C492.994 314.317 492.253 315.008 491.286 315.525C490.336 316.025 489.261 316.275 488.061 316.275C486.128 316.275 484.553 315.667 483.336 314.45C482.103 313.217 481.486 311.65 481.486 309.75C481.486 307.883 482.086 306.333 483.286 305.1C484.519 303.85 486.078 303.225 487.961 303.225ZM487.961 304.425C486.561 304.425 485.378 304.867 484.411 305.75C483.461 306.633 482.919 307.775 482.786 309.175H492.836C492.703 307.692 492.169 306.533 491.236 305.7C490.303 304.85 489.211 304.425 487.961 304.425ZM498.383 311.5H497.383L497.133 303.5V298.5H498.633V303.5L498.383 311.5ZM499.008 315.125C499.008 315.442 498.899 315.708 498.683 315.925C498.466 316.142 498.199 316.25 497.883 316.25C497.566 316.25 497.299 316.142 497.083 315.925C496.866 315.708 496.758 315.442 496.758 315.125C496.758 314.808 496.866 314.542 497.083 314.325C497.299 314.108 497.566 314 497.883 314C498.199 314 498.466 314.108 498.683 314.325C498.899 314.542 499.008 314.808 499.008 315.125Z" fill="#261911"/>
<path d="M240.355 385.375H225.23V383.275H240.355V385.375ZM250.353 374.5H256.703C258.303 374.5 259.644 375.042 260.728 376.125C261.811 377.208 262.353 378.542 262.353 380.125C262.353 381.708 261.811 383.042 260.728 384.125C259.644 385.208 258.303 385.75 256.703 385.75H252.678V392H250.353V374.5ZM252.678 383.575H256.703C257.686 383.575 258.486 383.25 259.103 382.6C259.736 381.917 260.053 381.092 260.053 380.125C260.053 379.125 259.736 378.3 259.103 377.65C258.469 377 257.669 376.675 256.703 376.675H252.678V383.575ZM274.271 381.65V379.5H276.446V392H274.271V389.85C273.205 391.5 271.63 392.325 269.546 392.325C267.78 392.325 266.288 391.692 265.071 390.425C263.838 389.142 263.221 387.583 263.221 385.75C263.221 383.933 263.838 382.383 265.071 381.1C266.305 379.817 267.796 379.175 269.546 379.175C271.63 379.175 273.205 380 274.271 381.65ZM269.821 390.225C271.088 390.225 272.146 389.8 272.996 388.95C273.846 388.067 274.271 387 274.271 385.75C274.271 384.483 273.846 383.425 272.996 382.575C272.146 381.708 271.088 381.275 269.821 381.275C268.571 381.275 267.521 381.708 266.671 382.575C265.821 383.425 265.396 384.483 265.396 385.75C265.396 387 265.821 388.067 266.671 388.95C267.521 389.8 268.571 390.225 269.821 390.225ZM289.917 379.5H292.242V392H290.117V382.925L286.142 389.325H285.867L281.892 382.925V392H279.742V379.5H282.067L285.992 385.825L289.917 379.5ZM297.712 388.275L304.637 379.5H306.387V392H304.237V383.225L297.312 392H295.562V379.5H297.712V388.275ZM316.448 385.6C317.831 386.183 318.523 387.175 318.523 388.575C318.523 389.658 318.098 390.558 317.248 391.275C316.398 391.975 315.223 392.325 313.723 392.325C311.223 392.325 309.548 391.325 308.698 389.325L310.523 388.25C310.99 389.617 312.065 390.3 313.748 390.3C314.565 390.3 315.206 390.125 315.673 389.775C316.14 389.425 316.373 388.958 316.373 388.375C316.373 387.875 316.181 387.467 315.798 387.15C315.431 386.833 314.931 386.675 314.298 386.675H312.473V384.7H313.823C314.456 384.7 314.948 384.55 315.298 384.25C315.648 383.933 315.823 383.508 315.823 382.975C315.823 382.425 315.615 381.992 315.198 381.675C314.781 381.342 314.223 381.175 313.523 381.175C312.123 381.175 311.173 381.767 310.673 382.95L308.898 381.925C309.781 380.092 311.323 379.175 313.523 379.175C314.856 379.175 315.923 379.525 316.723 380.225C317.54 380.908 317.948 381.767 317.948 382.8C317.948 384.067 317.448 385 316.448 385.6ZM321.361 389.425H323.861L322.236 395.5H320.361L321.361 389.425Z" fill="#261911"/>
<path d="M347.159 374.5H349.784V392H347.484V378.325L341.759 387.85H341.459L335.734 378.35V392H333.409V374.5H336.034L341.609 383.75L347.159 374.5ZM352.601 383.25C352.601 380.717 353.476 378.575 355.226 376.825C356.976 375.058 359.118 374.175 361.651 374.175C364.185 374.175 366.326 375.058 368.076 376.825C369.843 378.575 370.726 380.717 370.726 383.25C370.726 385.767 369.843 387.908 368.076 389.675C366.326 391.442 364.185 392.325 361.651 392.325C359.118 392.325 356.976 391.442 355.226 389.675C353.476 387.892 352.601 385.75 352.601 383.25ZM368.401 383.25C368.401 381.317 367.751 379.7 366.451 378.4C365.185 377.083 363.585 376.425 361.651 376.425C359.735 376.425 358.126 377.083 356.826 378.4C355.543 379.717 354.901 381.333 354.901 383.25C354.901 385.15 355.543 386.767 356.826 388.1C358.126 389.4 359.735 390.05 361.651 390.05C363.585 390.05 365.185 389.4 366.451 388.1C367.751 386.767 368.401 385.15 368.401 383.25ZM372.596 383.25C372.596 380.717 373.471 378.575 375.221 376.825C376.971 375.058 379.113 374.175 381.646 374.175C384.18 374.175 386.321 375.058 388.071 376.825C389.838 378.575 390.721 380.717 390.721 383.25C390.721 385.767 389.838 387.908 388.071 389.675C386.321 391.442 384.18 392.325 381.646 392.325C379.113 392.325 376.971 391.442 375.221 389.675C373.471 387.892 372.596 385.75 372.596 383.25ZM388.396 383.25C388.396 381.317 387.746 379.7 386.446 378.4C385.18 377.083 383.58 376.425 381.646 376.425C379.73 376.425 378.121 377.083 376.821 378.4C375.538 379.717 374.896 381.333 374.896 383.25C374.896 385.15 375.538 386.767 376.821 388.1C378.121 389.4 379.73 390.05 381.646 390.05C383.58 390.05 385.18 389.4 386.446 388.1C387.746 386.767 388.396 385.15 388.396 383.25ZM399.935 392H397.31L391.06 374.5H393.56L398.635 389.1L403.685 374.5H406.21L399.935 392ZM410.588 384.25V389.8H418.713V392H408.263V374.5H418.588V376.7H410.588V382.075H417.963V384.25H410.588Z" fill="#FDB75E"/>
<defs>
<filter id="filter0_d" x="0.391088" y="0.391088" width="639.624" height="479.718" filterUnits="userSpaceOnUse" color-interpolation-filters="sRGB">
<feFlood flood-opacity="0" result="BackgroundImageFix"/>
<feColorMatrix in="SourceAlpha" type="matrix" values="0 0 0 0 0 0 0 0 0 0 0 0 0 0 0 0 0 0 127 0" result="hardAlpha"/>
<feOffset dx="7.20297" dy="7.20297"/>
<feGaussianBlur stdDeviation="14.4059"/>
<feComposite in2="hardAlpha" operator="out"/>
<feColorMatrix type="matrix" values="0 0 0 0 0 0 0 0 0 0 0 0 0 0 0 0 0 0 0.08 0"/>
<feBlend mode="normal" in2="BackgroundImageFix" result="effect1_dropShadow"/>
<feBlend mode="normal" in="SourceGraphic" in2="effect1_dropShadow" result="shape"/>
</filter>
<clipPath id="clip0">
<rect width="67" height="67" fill="white" transform="translate(52 62)"/>
</clipPath>
</defs>
</svg>
