<svg width="641" height="481" viewBox="0 0 641 481" fill="none" xmlns="http://www.w3.org/2000/svg">
<g filter="url(#filter0_d)">
<rect x="22" y="22" width="582" height="422.094" rx="7.20297" fill="white"/>
</g>
<g opacity="0.7" clip-path="url(#clip0)">
<path d="M52.0142 108.933C52.0142 117.741 59.1547 124.882 67.9632 124.882C76.7719 124.882 83.9123 117.741 83.9123 108.933C83.9123 100.124 76.7719 92.9837 67.9632 92.9837C66.1529 92.9837 64.42 93.2993 62.7978 93.8555C66.387 73.2704 82.4394 59.9954 67.5589 70.921C51.0587 83.0363 51.9966 108.445 52.015 108.911C52.015 108.918 52.0142 108.925 52.0142 108.933Z" fill="#FDB75E"/>
<path d="M87.1022 108.933C87.1022 117.741 94.2426 124.882 103.051 124.882C111.86 124.882 119 117.741 119 108.933C119 100.124 111.86 92.9837 103.051 92.9837C101.241 92.9837 99.508 93.2993 97.8857 93.8555C101.475 73.2704 117.527 59.9954 102.647 70.921C86.1466 83.0363 87.0844 108.445 87.103 108.911C87.103 108.918 87.1022 108.925 87.1022 108.933Z" fill="#FDB75E"/>
</g>
<path d="M127.142 88.5H133.092C134.659 88.5 135.959 89.0167 136.992 90.05C138.026 91.0833 138.542 92.375 138.542 93.925C138.542 95.475 138.026 96.7667 136.992 97.8C135.976 98.8167 134.676 99.325 133.092 99.325H128.467V106H127.142V88.5ZM128.467 98.075H133.092C134.276 98.075 135.259 97.6833 136.042 96.9C136.826 96.1167 137.217 95.125 137.217 93.925C137.217 92.7083 136.826 91.7083 136.042 90.925C135.259 90.1417 134.276 89.75 133.092 89.75H128.467V98.075ZM151.564 96.325V93.5H152.839V106H151.564V103.175C151.014 104.142 150.272 104.9 149.339 105.45C148.406 106 147.356 106.275 146.189 106.275C144.422 106.275 142.897 105.65 141.614 104.4C140.347 103.133 139.714 101.583 139.714 99.75C139.714 97.9167 140.347 96.375 141.614 95.125C142.881 93.8583 144.406 93.225 146.189 93.225C147.356 93.225 148.406 93.5 149.339 94.05C150.272 94.6 151.014 95.3583 151.564 96.325ZM142.514 103.525C143.547 104.558 144.806 105.075 146.289 105.075C147.756 105.075 149.006 104.558 150.039 103.525C151.056 102.508 151.564 101.25 151.564 99.75C151.564 98.25 151.056 96.9917 150.039 95.975C149.006 94.9417 147.756 94.425 146.289 94.425C144.806 94.425 143.547 94.9417 142.514 95.975C141.497 96.9917 140.989 98.25 140.989 99.75C140.989 101.25 141.497 102.508 142.514 103.525ZM162.127 106.3C160.344 106.3 158.844 105.708 157.627 104.525C156.427 103.325 155.827 101.775 155.827 99.875C155.827 97.7917 156.127 96.1833 156.727 95.05C157.361 93.8833 158.619 92.8417 160.502 91.925L161.802 91.35C163.036 90.8333 163.769 90.5083 164.002 90.375C164.552 90.075 164.969 89.7667 165.252 89.45C165.536 89.1167 165.711 88.6917 165.777 88.175L166.777 88.75C166.594 89.6833 166.102 90.4167 165.302 90.95C164.952 91.1667 164.569 91.3917 164.152 91.625C163.819 91.8083 163.319 92.0333 162.652 92.3L161.177 92.925C159.927 93.4917 159.019 94.0917 158.452 94.725C157.886 95.3583 157.502 96.2333 157.302 97.35C157.869 96.4667 158.611 95.7917 159.527 95.325C160.444 94.8583 161.402 94.625 162.402 94.625C164.069 94.625 165.452 95.175 166.552 96.275C167.652 97.375 168.202 98.775 168.202 100.475C168.202 102.158 167.627 103.55 166.477 104.65C165.361 105.75 163.911 106.3 162.127 106.3ZM162.127 105.05C163.527 105.05 164.677 104.625 165.577 103.775C166.477 102.892 166.927 101.792 166.927 100.475C166.927 99.125 166.494 98.0167 165.627 97.15C164.761 96.2833 163.636 95.85 162.252 95.85C160.986 95.85 159.844 96.25 158.827 97.05C157.827 97.85 157.277 98.8833 157.177 100.15C157.177 101.567 157.644 102.742 158.577 103.675C159.494 104.592 160.677 105.05 162.127 105.05ZM176.685 106.275C174.851 106.275 173.293 105.65 172.01 104.4C170.743 103.133 170.11 101.583 170.11 99.75C170.11 97.9167 170.743 96.375 172.01 95.125C173.276 93.8583 174.835 93.225 176.685 93.225C178.501 93.225 180.043 93.8583 181.31 95.125C182.593 96.375 183.235 97.9167 183.235 99.75C183.235 101.567 182.593 103.117 181.31 104.4C180.026 105.65 178.485 106.275 176.685 106.275ZM172.91 103.525C173.943 104.558 175.201 105.075 176.685 105.075C178.151 105.075 179.401 104.558 180.435 103.525C181.451 102.508 181.96 101.25 181.96 99.75C181.96 98.25 181.451 96.9917 180.435 95.975C179.401 94.9417 178.151 94.425 176.685 94.425C175.201 94.425 173.943 94.9417 172.91 95.975C171.893 96.9917 171.385 98.25 171.385 99.75C171.385 101.25 171.893 102.508 172.91 103.525ZM184.155 93.5H194.505V94.725H189.955V106H188.705V94.725H184.155V93.5ZM207.277 96.325V93.5H208.552V106H207.277V103.175C206.727 104.142 205.985 104.9 205.052 105.45C204.119 106 203.069 106.275 201.902 106.275C200.135 106.275 198.61 105.65 197.327 104.4C196.06 103.133 195.427 101.583 195.427 99.75C195.427 97.9167 196.06 96.375 197.327 95.125C198.594 93.8583 200.119 93.225 201.902 93.225C203.069 93.225 204.119 93.5 205.052 94.05C205.985 94.6 206.727 95.3583 207.277 96.325ZM198.227 103.525C199.26 104.558 200.519 105.075 202.002 105.075C203.469 105.075 204.719 104.558 205.752 103.525C206.769 102.508 207.277 101.25 207.277 99.75C207.277 98.25 206.769 96.9917 205.752 95.975C204.719 94.9417 203.469 94.425 202.002 94.425C200.519 94.425 199.26 94.9417 198.227 95.975C197.21 96.9917 196.702 98.25 196.702 99.75C196.702 101.25 197.21 102.508 198.227 103.525ZM213.74 93.5H222.54V106H221.29V94.725H214.99V100.75C214.99 102.717 214.632 104.108 213.915 104.925C213.199 105.742 212.157 106.1 210.79 106V104.825C211.807 104.908 212.549 104.633 213.015 104C213.499 103.367 213.74 102.283 213.74 100.75V93.5ZM227.63 103.825L235.605 93.5H236.705V106H235.43V95.675L227.48 106H226.38V93.5H227.63V103.825ZM247.229 93.5H257.554V106H256.279V94.725H248.479V106H247.229V93.5ZM267.139 106.275C265.305 106.275 263.747 105.65 262.464 104.4C261.197 103.133 260.564 101.583 260.564 99.75C260.564 97.9167 261.197 96.375 262.464 95.125C263.73 93.8583 265.289 93.225 267.139 93.225C268.955 93.225 270.497 93.8583 271.764 95.125C273.047 96.375 273.689 97.9167 273.689 99.75C273.689 101.567 273.047 103.117 271.764 104.4C270.48 105.65 268.939 106.275 267.139 106.275ZM263.364 103.525C264.397 104.558 265.655 105.075 267.139 105.075C268.605 105.075 269.855 104.558 270.889 103.525C271.905 102.508 272.414 101.25 272.414 99.75C272.414 98.25 271.905 96.9917 270.889 95.975C269.855 94.9417 268.605 94.425 267.139 94.425C265.655 94.425 264.397 94.9417 263.364 95.975C262.347 96.9917 261.839 98.25 261.839 99.75C261.839 101.25 262.347 102.508 263.364 103.525ZM289.987 93.225C291.787 93.225 293.312 93.8583 294.562 95.125C295.829 96.375 296.462 97.9167 296.462 99.75C296.462 101.583 295.829 103.133 294.562 104.4C293.312 105.65 291.787 106.275 289.987 106.275C288.804 106.275 287.737 106 286.787 105.45C285.854 104.883 285.129 104.1 284.612 103.1V111H283.362V93.5H284.612V96.4C285.129 95.4 285.854 94.625 286.787 94.075C287.737 93.5083 288.804 93.225 289.987 93.225ZM286.137 103.525C287.17 104.558 288.429 105.075 289.912 105.075C291.379 105.075 292.629 104.558 293.662 103.525C294.695 102.492 295.212 101.233 295.212 99.75C295.212 98.2667 294.695 97.0083 293.662 95.975C292.629 94.9417 291.379 94.425 289.912 94.425C288.429 94.425 287.17 94.9417 286.137 95.975C285.12 96.9917 284.612 98.25 284.612 99.75C284.612 101.25 285.12 102.508 286.137 103.525ZM305.1 93.225C306.934 93.225 308.417 93.875 309.55 95.175C310.7 96.475 311.275 98.0167 311.275 99.8C311.275 99.8333 311.267 99.9333 311.25 100.1C311.25 100.267 311.25 100.367 311.25 100.4H299.925C300.075 101.8 300.634 102.933 301.6 103.8C302.567 104.65 303.775 105.075 305.225 105.075C306.209 105.075 307.075 104.875 307.825 104.475C308.575 104.058 309.15 103.5 309.55 102.8L310.65 103.45C310.134 104.317 309.392 105.008 308.425 105.525C307.475 106.025 306.4 106.275 305.2 106.275C303.267 106.275 301.692 105.667 300.475 104.45C299.242 103.217 298.625 101.65 298.625 99.75C298.625 97.8833 299.225 96.3333 300.425 95.1C301.659 93.85 303.217 93.225 305.1 93.225ZM305.1 94.425C303.7 94.425 302.517 94.8667 301.55 95.75C300.6 96.6333 300.059 97.775 299.925 99.175H309.975C309.842 97.6917 309.309 96.5333 308.375 95.7C307.442 94.85 306.35 94.425 305.1 94.425ZM323.959 93.5V104.775H325.709V109.35H324.434V106H313.634V109.35H312.359V104.775H313.809C314.725 103.542 315.184 101.867 315.184 99.75V93.5H323.959ZM315.359 104.775H322.684V94.725H316.434V99.75C316.434 101.817 316.075 103.492 315.359 104.775ZM329.705 103.825L337.68 93.5H338.78V106H337.505V95.675L329.555 106H328.455V93.5H329.705V103.825ZM348.639 99.55C349.389 99.8 349.973 100.2 350.389 100.75C350.806 101.3 351.014 101.933 351.014 102.65C351.014 103.7 350.598 104.567 349.764 105.25C348.948 105.933 347.831 106.275 346.414 106.275C343.914 106.275 342.289 105.292 341.539 103.325L342.614 102.7C343.148 104.283 344.414 105.075 346.414 105.075C347.448 105.075 348.256 104.85 348.839 104.4C349.439 103.933 349.739 103.325 349.739 102.575C349.739 101.892 349.489 101.342 348.989 100.925C348.489 100.492 347.823 100.275 346.989 100.275H345.264V99.05H346.514C347.331 99.05 347.973 98.8417 348.439 98.425C348.906 98.0083 349.139 97.45 349.139 96.75C349.139 96.0833 348.864 95.5333 348.314 95.1C347.781 94.65 347.073 94.425 346.189 94.425C344.489 94.425 343.364 95.1 342.814 96.45L341.764 95.85C342.131 95.0333 342.689 94.3917 343.439 93.925C344.189 93.4583 345.106 93.225 346.189 93.225C347.456 93.225 348.473 93.5667 349.239 94.25C350.006 94.9167 350.389 95.7333 350.389 96.7C350.389 98.05 349.806 99 348.639 99.55ZM364.772 96.325V93.5H366.047V106H364.772V103.175C364.222 104.142 363.481 104.9 362.547 105.45C361.614 106 360.564 106.275 359.397 106.275C357.631 106.275 356.106 105.65 354.822 104.4C353.556 103.133 352.922 101.583 352.922 99.75C352.922 97.9167 353.556 96.375 354.822 95.125C356.089 93.8583 357.614 93.225 359.397 93.225C360.564 93.225 361.614 93.5 362.547 94.05C363.481 94.6 364.222 95.3583 364.772 96.325ZM355.722 103.525C356.756 104.558 358.014 105.075 359.497 105.075C360.964 105.075 362.214 104.558 363.247 103.525C364.264 102.508 364.772 101.25 364.772 99.75C364.772 98.25 364.264 96.9917 363.247 95.975C362.214 94.9417 360.964 94.425 359.497 94.425C358.014 94.425 356.756 94.9417 355.722 95.975C354.706 96.9917 354.197 98.25 354.197 99.75C354.197 101.25 354.706 102.508 355.722 103.525ZM378.185 91.325H371.86V90.225H378.185V91.325ZM371.135 103.825L379.11 93.5H380.21V106H378.935V95.675L370.985 106H369.885V93.5H371.135V103.825ZM393.12 99.15V93.5H394.395V106H393.12V100.35H385.32V106H384.07V93.5H385.32V99.15H393.12ZM403.055 104.625L407.405 93.5H408.755L403.355 107.15C402.855 108.4 402.163 109.375 401.28 110.075C400.396 110.775 399.438 111.083 398.405 111V109.825C399.188 109.892 399.905 109.667 400.555 109.15C401.205 108.633 401.73 107.883 402.13 106.9L402.405 106.225L396.655 93.5H398.005L403.055 104.625ZM417.664 93.5H425.489V94.725H418.914V106H417.664V93.5ZM428.316 93.5H437.116V106H435.866V94.725H429.566V100.75C429.566 102.717 429.207 104.108 428.491 104.925C427.774 105.742 426.732 106.1 425.366 106V104.825C426.382 104.908 427.124 104.633 427.591 104C428.074 103.367 428.316 102.283 428.316 100.75V93.5ZM451.955 96.325V93.5H453.23V106H451.955V103.175C451.405 104.142 450.663 104.9 449.73 105.45C448.796 106 447.746 106.275 446.58 106.275C444.813 106.275 443.288 105.65 442.005 104.4C440.738 103.133 440.105 101.583 440.105 99.75C440.105 97.9167 440.738 96.375 442.005 95.125C443.271 93.8583 444.796 93.225 446.58 93.225C447.746 93.225 448.796 93.5 449.73 94.05C450.663 94.6 451.405 95.3583 451.955 96.325ZM442.905 103.525C443.938 104.558 445.196 105.075 446.68 105.075C448.146 105.075 449.396 104.558 450.43 103.525C451.446 102.508 451.955 101.25 451.955 99.75C451.955 98.25 451.446 96.9917 450.43 95.975C449.396 94.9417 448.146 94.425 446.68 94.425C445.196 94.425 443.938 94.9417 442.905 95.975C441.888 96.9917 441.38 98.25 441.38 99.75C441.38 101.25 441.888 102.508 442.905 103.525ZM464.768 99.55C466.235 100.017 466.968 101.017 466.968 102.55C466.968 103.583 466.626 104.417 465.943 105.05C465.276 105.683 464.335 106 463.118 106H457.068V93.5H462.643C463.81 93.5 464.718 93.8083 465.368 94.425C466.035 95.025 466.368 95.8083 466.368 96.775C466.368 98.1083 465.835 99.0333 464.768 99.55ZM462.643 94.725H458.318V99.05H462.643C463.443 99.05 464.051 98.8583 464.468 98.475C464.885 98.0917 465.093 97.55 465.093 96.85C465.093 96.1833 464.876 95.6667 464.443 95.3C464.026 94.9167 463.426 94.725 462.643 94.725ZM458.318 104.775H463.118C463.951 104.775 464.593 104.575 465.043 104.175C465.493 103.775 465.718 103.217 465.718 102.5C465.718 101.8 465.485 101.258 465.018 100.875C464.568 100.475 463.935 100.275 463.118 100.275H458.318V104.775ZM478.789 99.15V93.5H480.064V106H478.789V100.35H470.989V106H469.739V93.5H470.989V99.15H478.789ZM489.649 106.275C487.815 106.275 486.257 105.65 484.974 104.4C483.707 103.133 483.074 101.583 483.074 99.75C483.074 97.9167 483.707 96.375 484.974 95.125C486.24 93.8583 487.799 93.225 489.649 93.225C491.465 93.225 493.007 93.8583 494.274 95.125C495.557 96.375 496.199 97.9167 496.199 99.75C496.199 101.567 495.557 103.117 494.274 104.4C492.99 105.65 491.449 106.275 489.649 106.275ZM485.874 103.525C486.907 104.558 488.165 105.075 489.649 105.075C491.115 105.075 492.365 104.558 493.399 103.525C494.415 102.508 494.924 101.25 494.924 99.75C494.924 98.25 494.415 96.9917 493.399 95.975C492.365 94.9417 491.115 94.425 489.649 94.425C488.165 94.425 486.907 94.9417 485.874 95.975C484.857 96.9917 484.349 98.25 484.349 99.75C484.349 101.25 484.857 102.508 485.874 103.525ZM507.507 91.325H501.182V90.225H507.507V91.325ZM500.457 103.825L508.432 93.5H509.532V106H508.257V95.675L500.307 106H499.207V93.5H500.457V103.825ZM513.966 104.3H515.516L514.166 109.5H513.016L513.966 104.3ZM121.692 141.275C119.809 141.275 118.242 140.65 116.992 139.4C115.742 138.15 115.117 136.6 115.117 134.75C115.117 132.9 115.742 131.35 116.992 130.1C118.242 128.85 119.809 128.225 121.692 128.225C122.909 128.225 124.009 128.517 124.992 129.1C125.975 129.667 126.692 130.442 127.142 131.425L126.117 132.025C125.75 131.225 125.167 130.592 124.367 130.125C123.584 129.658 122.692 129.425 121.692 129.425C120.209 129.425 118.95 129.942 117.917 130.975C116.9 131.992 116.392 133.25 116.392 134.75C116.392 136.267 116.9 137.533 117.917 138.55C118.934 139.567 120.192 140.075 121.692 140.075C122.692 140.075 123.584 139.842 124.367 139.375C125.167 138.908 125.775 138.275 126.192 137.475L127.242 138.1C126.742 139.067 125.992 139.842 124.992 140.425C123.992 140.992 122.892 141.275 121.692 141.275ZM128.137 128.5H138.487V129.725H133.937V141H132.687V129.725H128.137V128.5ZM147.372 128.225C149.172 128.225 150.697 128.858 151.947 130.125C153.214 131.375 153.847 132.917 153.847 134.75C153.847 136.583 153.214 138.133 151.947 139.4C150.697 140.65 149.172 141.275 147.372 141.275C146.189 141.275 145.122 141 144.172 140.45C143.239 139.883 142.514 139.1 141.997 138.1V146H140.747V128.5H141.997V131.4C142.514 130.4 143.239 129.625 144.172 129.075C145.122 128.508 146.189 128.225 147.372 128.225ZM143.522 138.525C144.556 139.558 145.814 140.075 147.297 140.075C148.764 140.075 150.014 139.558 151.047 138.525C152.081 137.492 152.597 136.233 152.597 134.75C152.597 133.267 152.081 132.008 151.047 130.975C150.014 129.942 148.764 129.425 147.297 129.425C145.814 129.425 144.556 129.942 143.522 130.975C142.506 131.992 141.997 133.25 141.997 134.75C141.997 136.25 142.506 137.508 143.522 138.525ZM167.861 131.325V128.5H169.136V141H167.861V138.175C167.311 139.142 166.569 139.9 165.636 140.45C164.702 141 163.652 141.275 162.486 141.275C160.719 141.275 159.194 140.65 157.911 139.4C156.644 138.133 156.011 136.583 156.011 134.75C156.011 132.917 156.644 131.375 157.911 130.125C159.177 128.858 160.702 128.225 162.486 128.225C163.652 128.225 164.702 128.5 165.636 129.05C166.569 129.6 167.311 130.358 167.861 131.325ZM158.811 138.525C159.844 139.558 161.102 140.075 162.586 140.075C164.052 140.075 165.302 139.558 166.336 138.525C167.352 137.508 167.861 136.25 167.861 134.75C167.861 133.25 167.352 131.992 166.336 130.975C165.302 129.942 164.052 129.425 162.586 129.425C161.102 129.425 159.844 129.942 158.811 130.975C157.794 131.992 157.286 133.25 157.286 134.75C157.286 136.25 157.794 137.508 158.811 138.525ZM182.024 134.15V128.5H183.299V141H182.024V135.35H174.224V141H172.974V128.5H174.224V134.15H182.024ZM188.408 138.825L196.383 128.5H197.483V141H196.208V130.675L188.258 141H187.158V128.5H188.408V138.825ZM211.418 128.5V139.775H213.418V144.35H212.143V141H201.343V128.5H202.593V139.775H210.143V128.5H211.418ZM217.412 133.35H221.112C222.279 133.35 223.254 133.708 224.037 134.425C224.837 135.142 225.237 136.058 225.237 137.175C225.237 138.292 224.837 139.208 224.037 139.925C223.254 140.642 222.279 141 221.112 141H216.162V128.5H217.412V133.35ZM227.162 141V128.5H228.412V141H227.162ZM217.412 139.775H221.112C221.929 139.775 222.604 139.533 223.137 139.05C223.687 138.55 223.962 137.925 223.962 137.175C223.962 136.392 223.687 135.767 223.137 135.3C222.604 134.817 221.929 134.575 221.112 134.575H217.412V139.775ZM232.826 139.3H234.376L233.026 144.5H231.876L232.826 139.3ZM247.083 134.5L254.058 141H252.358L245.733 134.85V141H244.483V128.5H245.733V134.175L252.058 128.5H253.808L247.083 134.5ZM261.047 141.275C259.214 141.275 257.656 140.65 256.372 139.4C255.106 138.133 254.472 136.583 254.472 134.75C254.472 132.917 255.106 131.375 256.372 130.125C257.639 128.858 259.197 128.225 261.047 128.225C262.864 128.225 264.406 128.858 265.672 130.125C266.956 131.375 267.597 132.917 267.597 134.75C267.597 136.567 266.956 138.117 265.672 139.4C264.389 140.65 262.847 141.275 261.047 141.275ZM257.272 138.525C258.306 139.558 259.564 140.075 261.047 140.075C262.514 140.075 263.764 139.558 264.797 138.525C265.814 137.508 266.322 136.25 266.322 134.75C266.322 133.25 265.814 131.992 264.797 130.975C263.764 129.942 262.514 129.425 261.047 129.425C259.564 129.425 258.306 129.942 257.272 130.975C256.256 131.992 255.747 133.25 255.747 134.75C255.747 136.25 256.256 137.508 257.272 138.525ZM268.517 128.5H278.867V129.725H274.317V141H273.067V129.725H268.517V128.5ZM286.365 141.275C284.532 141.275 282.973 140.65 281.69 139.4C280.423 138.133 279.79 136.583 279.79 134.75C279.79 132.917 280.423 131.375 281.69 130.125C282.957 128.858 284.515 128.225 286.365 128.225C288.182 128.225 289.723 128.858 290.99 130.125C292.273 131.375 292.915 132.917 292.915 134.75C292.915 136.567 292.273 138.117 290.99 139.4C289.707 140.65 288.165 141.275 286.365 141.275ZM282.59 138.525C283.623 139.558 284.882 140.075 286.365 140.075C287.832 140.075 289.082 139.558 290.115 138.525C291.132 137.508 291.64 136.25 291.64 134.75C291.64 133.25 291.132 131.992 290.115 130.975C289.082 129.942 287.832 129.425 286.365 129.425C284.882 129.425 283.623 129.942 282.59 130.975C281.573 131.992 281.065 133.25 281.065 134.75C281.065 136.25 281.573 137.508 282.59 138.525ZM302.548 128.225C304.348 128.225 305.873 128.858 307.123 130.125C308.39 131.375 309.023 132.917 309.023 134.75C309.023 136.583 308.39 138.133 307.123 139.4C305.873 140.65 304.348 141.275 302.548 141.275C301.365 141.275 300.298 141 299.348 140.45C298.415 139.883 297.69 139.1 297.173 138.1V146H295.923V128.5H297.173V131.4C297.69 130.4 298.415 129.625 299.348 129.075C300.298 128.508 301.365 128.225 302.548 128.225ZM298.698 138.525C299.731 139.558 300.99 140.075 302.473 140.075C303.94 140.075 305.19 139.558 306.223 138.525C307.256 137.492 307.773 136.233 307.773 134.75C307.773 133.267 307.256 132.008 306.223 130.975C305.19 129.942 303.94 129.425 302.473 129.425C300.99 129.425 299.731 129.942 298.698 130.975C297.681 131.992 297.173 133.25 297.173 134.75C297.173 136.25 297.681 137.508 298.698 138.525ZM313.286 133.35H316.986C318.153 133.35 319.128 133.708 319.911 134.425C320.711 135.142 321.111 136.058 321.111 137.175C321.111 138.292 320.711 139.208 319.911 139.925C319.128 140.642 318.153 141 316.986 141H312.036V128.5H313.286V133.35ZM323.036 141V128.5H324.286V141H323.036ZM313.286 139.775H316.986C317.803 139.775 318.478 139.533 319.011 139.05C319.561 138.55 319.836 137.925 319.836 137.175C319.836 136.392 319.561 135.767 319.011 135.3C318.478 134.817 317.803 134.575 316.986 134.575H313.286V139.775ZM336.425 126.325H330.1V125.225H336.425V126.325ZM329.375 138.825L337.35 128.5H338.45V141H337.175V130.675L329.225 141H328.125V128.5H329.375V138.825ZM359.225 128.5V139.775H360.975V144.35H359.7V141H348.9V144.35H347.625V139.775H349.075C349.991 138.542 350.45 136.867 350.45 134.75V128.5H359.225ZM350.625 139.775H357.95V129.725H351.7V134.75C351.7 136.817 351.341 138.492 350.625 139.775ZM368.958 141.275C367.124 141.275 365.566 140.65 364.283 139.4C363.016 138.133 362.383 136.583 362.383 134.75C362.383 132.917 363.016 131.375 364.283 130.125C365.549 128.858 367.108 128.225 368.958 128.225C370.774 128.225 372.316 128.858 373.583 130.125C374.866 131.375 375.508 132.917 375.508 134.75C375.508 136.567 374.866 138.117 373.583 139.4C372.299 140.65 370.758 141.275 368.958 141.275ZM365.183 138.525C366.216 139.558 367.474 140.075 368.958 140.075C370.424 140.075 371.674 139.558 372.708 138.525C373.724 137.508 374.233 136.25 374.233 134.75C374.233 133.25 373.724 131.992 372.708 130.975C371.674 129.942 370.424 129.425 368.958 129.425C367.474 129.425 366.216 129.942 365.183 130.975C364.166 131.992 363.658 133.25 363.658 134.75C363.658 136.25 364.166 137.508 365.183 138.525ZM378.516 128.5H388.841V141H387.566V129.725H379.766V141H378.516V128.5ZM398.425 141.275C396.592 141.275 395.034 140.65 393.75 139.4C392.484 138.133 391.85 136.583 391.85 134.75C391.85 132.917 392.484 131.375 393.75 130.125C395.017 128.858 396.575 128.225 398.425 128.225C400.242 128.225 401.784 128.858 403.05 130.125C404.334 131.375 404.975 132.917 404.975 134.75C404.975 136.567 404.334 138.117 403.05 139.4C401.767 140.65 400.225 141.275 398.425 141.275ZM394.65 138.525C395.684 139.558 396.942 140.075 398.425 140.075C399.892 140.075 401.142 139.558 402.175 138.525C403.192 137.508 403.7 136.25 403.7 134.75C403.7 133.25 403.192 131.992 402.175 130.975C401.142 129.942 399.892 129.425 398.425 129.425C396.942 129.425 395.684 129.942 394.65 130.975C393.634 131.992 393.125 133.25 393.125 134.75C393.125 136.25 393.634 137.508 394.65 138.525ZM408.845 128.5H417.645V141H416.395V129.725H410.095V135.75C410.095 137.717 409.737 139.108 409.02 139.925C408.304 140.742 407.262 141.1 405.895 141V139.825C406.912 139.908 407.654 139.633 408.12 139C408.604 138.367 408.845 137.283 408.845 135.75V128.5ZM430.535 134.15V128.5H431.81V141H430.535V135.35H422.735V141H421.485V128.5H422.735V134.15H430.535ZM436.919 138.825L444.894 128.5H445.994V141H444.719V130.675L436.769 141H435.669V128.5H436.919V138.825ZM448.254 128.5H458.604V129.725H454.054V141H452.804V129.725H448.254V128.5ZM466.001 128.225C467.835 128.225 469.318 128.875 470.451 130.175C471.601 131.475 472.176 133.017 472.176 134.8C472.176 134.833 472.168 134.933 472.151 135.1C472.151 135.267 472.151 135.367 472.151 135.4H460.826C460.976 136.8 461.535 137.933 462.501 138.8C463.468 139.65 464.676 140.075 466.126 140.075C467.11 140.075 467.976 139.875 468.726 139.475C469.476 139.058 470.051 138.5 470.451 137.8L471.551 138.45C471.035 139.317 470.293 140.008 469.326 140.525C468.376 141.025 467.301 141.275 466.101 141.275C464.168 141.275 462.593 140.667 461.376 139.45C460.143 138.217 459.526 136.65 459.526 134.75C459.526 132.883 460.126 131.333 461.326 130.1C462.56 128.85 464.118 128.225 466.001 128.225ZM466.001 129.425C464.601 129.425 463.418 129.867 462.451 130.75C461.501 131.633 460.96 132.775 460.826 134.175H470.876C470.743 132.692 470.21 131.533 469.276 130.7C468.343 129.85 467.251 129.425 466.001 129.425ZM475.96 128.5H484.76V141H483.51V129.725H477.21V135.75C477.21 137.717 476.851 139.108 476.135 139.925C475.418 140.742 474.376 141.1 473.01 141V139.825C474.026 139.908 474.768 139.633 475.235 139C475.718 138.367 475.96 137.283 475.96 135.75V128.5ZM489.849 133.35H493.549C494.715 133.35 495.69 133.708 496.474 134.425C497.274 135.142 497.674 136.058 497.674 137.175C497.674 138.292 497.274 139.208 496.474 139.925C495.69 140.642 494.715 141 493.549 141H488.599V128.5H489.849V133.35ZM489.849 139.775H493.549C494.365 139.775 495.04 139.533 495.574 139.05C496.124 138.55 496.399 137.925 496.399 137.175C496.399 136.392 496.124 135.767 495.574 135.3C495.04 134.817 494.365 134.575 493.549 134.575H489.849V139.775ZM509.465 134.15V128.5H510.74V141H509.465V135.35H501.665V141H500.415V128.5H501.665V134.15H509.465ZM520.325 141.275C518.491 141.275 516.933 140.65 515.65 139.4C514.383 138.133 513.75 136.583 513.75 134.75C513.75 132.917 514.383 131.375 515.65 130.125C516.916 128.858 518.475 128.225 520.325 128.225C522.141 128.225 523.683 128.858 524.95 130.125C526.233 131.375 526.875 132.917 526.875 134.75C526.875 136.567 526.233 138.117 524.95 139.4C523.666 140.65 522.125 141.275 520.325 141.275ZM516.55 138.525C517.583 139.558 518.841 140.075 520.325 140.075C521.791 140.075 523.041 139.558 524.075 138.525C525.091 137.508 525.6 136.25 525.6 134.75C525.6 133.25 525.091 131.992 524.075 130.975C523.041 129.942 521.791 129.425 520.325 129.425C518.841 129.425 517.583 129.942 516.55 130.975C515.533 131.992 515.025 133.25 515.025 134.75C515.025 136.25 515.533 137.508 516.55 138.525ZM94.9343 163.5H105.259V176H103.984V164.725H96.1843V176H94.9343V163.5ZM115.744 163.225C117.544 163.225 119.069 163.858 120.319 165.125C121.586 166.375 122.219 167.917 122.219 169.75C122.219 171.583 121.586 173.133 120.319 174.4C119.069 175.65 117.544 176.275 115.744 176.275C114.561 176.275 113.494 176 112.544 175.45C111.611 174.883 110.886 174.1 110.369 173.1V181H109.119V163.5H110.369V166.4C110.886 165.4 111.611 164.625 112.544 164.075C113.494 163.508 114.561 163.225 115.744 163.225ZM111.894 173.525C112.927 174.558 114.186 175.075 115.669 175.075C117.136 175.075 118.386 174.558 119.419 173.525C120.452 172.492 120.969 171.233 120.969 169.75C120.969 168.267 120.452 167.008 119.419 165.975C118.386 164.942 117.136 164.425 115.669 164.425C114.186 164.425 112.927 164.942 111.894 165.975C110.877 166.992 110.369 168.25 110.369 169.75C110.369 171.25 110.877 172.508 111.894 173.525ZM130.857 163.225C132.69 163.225 134.174 163.875 135.307 165.175C136.457 166.475 137.032 168.017 137.032 169.8C137.032 169.833 137.024 169.933 137.007 170.1C137.007 170.267 137.007 170.367 137.007 170.4H125.682C125.832 171.8 126.39 172.933 127.357 173.8C128.324 174.65 129.532 175.075 130.982 175.075C131.965 175.075 132.832 174.875 133.582 174.475C134.332 174.058 134.907 173.5 135.307 172.8L136.407 173.45C135.89 174.317 135.149 175.008 134.182 175.525C133.232 176.025 132.157 176.275 130.957 176.275C129.024 176.275 127.449 175.667 126.232 174.45C124.999 173.217 124.382 171.65 124.382 169.75C124.382 167.883 124.982 166.333 126.182 165.1C127.415 163.85 128.974 163.225 130.857 163.225ZM130.857 164.425C129.457 164.425 128.274 164.867 127.307 165.75C126.357 166.633 125.815 167.775 125.682 169.175H135.732C135.599 167.692 135.065 166.533 134.132 165.7C133.199 164.85 132.107 164.425 130.857 164.425ZM149.716 163.5V174.775H151.466V179.35H150.191V176H139.391V179.35H138.116V174.775H139.566C140.482 173.542 140.941 171.867 140.941 169.75V163.5H149.716ZM141.116 174.775H148.441V164.725H142.191V169.75C142.191 171.817 141.832 173.492 141.116 174.775ZM155.562 163.5H164.362V176H163.112V164.725H156.812V170.75C156.812 172.717 156.453 174.108 155.737 174.925C155.02 175.742 153.978 176.1 152.612 176V174.825C153.628 174.908 154.37 174.633 154.837 174C155.32 173.367 155.562 172.283 155.562 170.75V163.5ZM173.926 176.275C172.093 176.275 170.534 175.65 169.251 174.4C167.984 173.133 167.351 171.583 167.351 169.75C167.351 167.917 167.984 166.375 169.251 165.125C170.518 163.858 172.076 163.225 173.926 163.225C175.743 163.225 177.284 163.858 178.551 165.125C179.834 166.375 180.476 167.917 180.476 169.75C180.476 171.567 179.834 173.117 178.551 174.4C177.268 175.65 175.726 176.275 173.926 176.275ZM170.151 173.525C171.184 174.558 172.443 175.075 173.926 175.075C175.393 175.075 176.643 174.558 177.676 173.525C178.693 172.508 179.201 171.25 179.201 169.75C179.201 168.25 178.693 166.992 177.676 165.975C176.643 164.942 175.393 164.425 173.926 164.425C172.443 164.425 171.184 164.942 170.151 165.975C169.134 166.992 168.626 168.25 168.626 169.75C168.626 171.25 169.134 172.508 170.151 173.525ZM190.658 169.5L196.558 176H195.008L189.483 169.85V176H188.208V169.85L182.683 176H181.133L187.058 169.5L181.383 163.5H182.933L188.208 169.15V163.5H189.483V169.15L194.758 163.5H196.308L190.658 169.5ZM200.31 173.825L208.285 163.5H209.385V176H208.11V165.675L200.16 176H199.06V163.5H200.31V173.825ZM214.595 163.5H223.395V176H222.145V164.725H215.845V170.75C215.845 172.717 215.486 174.108 214.77 174.925C214.053 175.742 213.011 176.1 211.645 176V174.825C212.661 174.908 213.403 174.633 213.87 174C214.353 173.367 214.595 172.283 214.595 170.75V163.5ZM238.234 166.325V163.5H239.509V176H238.234V173.175C237.684 174.142 236.942 174.9 236.009 175.45C235.076 176 234.026 176.275 232.859 176.275C231.092 176.275 229.567 175.65 228.284 174.4C227.017 173.133 226.384 171.583 226.384 169.75C226.384 167.917 227.017 166.375 228.284 165.125C229.551 163.858 231.076 163.225 232.859 163.225C234.026 163.225 235.076 163.5 236.009 164.05C236.942 164.6 237.684 165.358 238.234 166.325ZM229.184 173.525C230.217 174.558 231.476 175.075 232.959 175.075C234.426 175.075 235.676 174.558 236.709 173.525C237.726 172.508 238.234 171.25 238.234 169.75C238.234 168.25 237.726 166.992 236.709 165.975C235.676 164.942 234.426 164.425 232.959 164.425C231.476 164.425 230.217 164.942 229.184 165.975C228.167 166.992 227.659 168.25 227.659 169.75C227.659 171.25 228.167 172.508 229.184 173.525ZM259.587 166.925C260.504 167.275 261.229 167.833 261.762 168.6C262.312 169.367 262.587 170.242 262.587 171.225C262.587 172.542 262.121 173.667 261.187 174.6C260.254 175.533 259.129 176 257.812 176H250.262V158.5H257.237C258.504 158.5 259.587 158.95 260.487 159.85C261.387 160.75 261.837 161.833 261.837 163.1C261.837 163.933 261.637 164.692 261.237 165.375C260.837 166.042 260.287 166.558 259.587 166.925ZM257.237 159.75H251.587V166.45H257.237C258.137 166.45 258.904 166.125 259.537 165.475C260.187 164.792 260.512 164 260.512 163.1C260.512 162.183 260.187 161.4 259.537 160.75C258.921 160.083 258.154 159.75 257.237 159.75ZM251.587 174.75H257.812C258.746 174.75 259.554 174.408 260.237 173.725C260.921 173.008 261.262 172.175 261.262 171.225C261.262 170.258 260.921 169.433 260.237 168.75C259.571 168.05 258.762 167.7 257.812 167.7H251.587V174.75ZM276.589 166.325V163.5H277.864V176H276.589V173.175C276.039 174.142 275.297 174.9 274.364 175.45C273.43 176 272.38 176.275 271.214 176.275C269.447 176.275 267.922 175.65 266.639 174.4C265.372 173.133 264.739 171.583 264.739 169.75C264.739 167.917 265.372 166.375 266.639 165.125C267.905 163.858 269.43 163.225 271.214 163.225C272.38 163.225 273.43 163.5 274.364 164.05C275.297 164.6 276.039 165.358 276.589 166.325ZM267.539 173.525C268.572 174.558 269.83 175.075 271.314 175.075C272.78 175.075 274.03 174.558 275.064 173.525C276.08 172.508 276.589 171.25 276.589 169.75C276.589 168.25 276.08 166.992 275.064 165.975C274.03 164.942 272.78 164.425 271.314 164.425C269.83 164.425 268.572 164.942 267.539 165.975C266.522 166.992 266.014 168.25 266.014 169.75C266.014 171.25 266.522 172.508 267.539 173.525ZM283.052 163.5H291.852V176H290.602V164.725H284.302V170.75C284.302 172.717 283.944 174.108 283.227 174.925C282.51 175.742 281.469 176.1 280.102 176V174.825C281.119 174.908 281.86 174.633 282.327 174C282.81 173.367 283.052 172.283 283.052 170.75V163.5ZM301.316 163.225C303.149 163.225 304.633 163.875 305.766 165.175C306.916 166.475 307.491 168.017 307.491 169.8C307.491 169.833 307.483 169.933 307.466 170.1C307.466 170.267 307.466 170.367 307.466 170.4H296.141C296.291 171.8 296.849 172.933 297.816 173.8C298.783 174.65 299.991 175.075 301.441 175.075C302.424 175.075 303.291 174.875 304.041 174.475C304.791 174.058 305.366 173.5 305.766 172.8L306.866 173.45C306.349 174.317 305.608 175.008 304.641 175.525C303.691 176.025 302.616 176.275 301.416 176.275C299.483 176.275 297.908 175.667 296.691 174.45C295.458 173.217 294.841 171.65 294.841 169.75C294.841 167.883 295.441 166.333 296.641 165.1C297.874 163.85 299.433 163.225 301.316 163.225ZM301.316 164.425C299.916 164.425 298.733 164.867 297.766 165.75C296.816 166.633 296.274 167.775 296.141 169.175H306.191C306.058 167.692 305.524 166.533 304.591 165.7C303.658 164.85 302.566 164.425 301.316 164.425ZM317.038 163.225C318.838 163.225 320.363 163.858 321.613 165.125C322.879 166.375 323.513 167.917 323.513 169.75C323.513 171.583 322.879 173.133 321.613 174.4C320.363 175.65 318.838 176.275 317.038 176.275C315.854 176.275 314.788 176 313.838 175.45C312.904 174.883 312.179 174.1 311.663 173.1V181H310.413V163.5H311.663V166.4C312.179 165.4 312.904 164.625 313.838 164.075C314.788 163.508 315.854 163.225 317.038 163.225ZM313.188 173.525C314.221 174.558 315.479 175.075 316.963 175.075C318.429 175.075 319.679 174.558 320.713 173.525C321.746 172.492 322.263 171.233 322.263 169.75C322.263 168.267 321.746 167.008 320.713 165.975C319.679 164.942 318.429 164.425 316.963 164.425C315.479 164.425 314.221 164.942 313.188 165.975C312.171 166.992 311.663 168.25 311.663 169.75C311.663 171.25 312.171 172.508 313.188 173.525ZM327.776 173.825L335.751 163.5H336.851V176H335.576V165.675L327.626 176H326.526V163.5H327.776V173.825ZM344.411 163.5H349.361V176H348.111V171.125H345.411L341.486 176H339.861L343.861 171.1C342.827 170.983 341.969 170.575 341.286 169.875C340.619 169.175 340.286 168.325 340.286 167.325C340.286 166.208 340.686 165.292 341.486 164.575C342.269 163.858 343.244 163.5 344.411 163.5ZM344.411 169.925H348.111V164.725H344.411C343.594 164.725 342.911 164.975 342.361 165.475C341.827 165.958 341.561 166.575 341.561 167.325C341.561 168.108 341.827 168.742 342.361 169.225C342.911 169.692 343.594 169.925 344.411 169.925ZM353.786 174.3H355.336L353.986 179.5H352.836L353.786 174.3ZM370.242 174.625L374.592 163.5H375.942L370.542 177.15C370.042 178.4 369.35 179.375 368.467 180.075C367.584 180.775 366.625 181.083 365.592 181V179.825C366.375 179.892 367.092 179.667 367.742 179.15C368.392 178.633 368.917 177.883 369.317 176.9L369.592 176.225L363.842 163.5H365.192L370.242 174.625ZM386.117 169.5L392.017 176H390.467L384.942 169.85V176H383.667V169.85L378.142 176H376.592L382.517 169.5L376.842 163.5H378.392L383.667 169.15V163.5H384.942V169.15L390.217 163.5H391.767L386.117 169.5ZM399.143 163.225C400.977 163.225 402.46 163.875 403.593 165.175C404.743 166.475 405.318 168.017 405.318 169.8C405.318 169.833 405.31 169.933 405.293 170.1C405.293 170.267 405.293 170.367 405.293 170.4H393.968C394.118 171.8 394.677 172.933 395.643 173.8C396.61 174.65 397.818 175.075 399.268 175.075C400.252 175.075 401.118 174.875 401.868 174.475C402.618 174.058 403.193 173.5 403.593 172.8L404.693 173.45C404.177 174.317 403.435 175.008 402.468 175.525C401.518 176.025 400.443 176.275 399.243 176.275C397.31 176.275 395.735 175.667 394.518 174.45C393.285 173.217 392.668 171.65 392.668 169.75C392.668 167.883 393.268 166.333 394.468 165.1C395.702 163.85 397.26 163.225 399.143 163.225ZM399.143 164.425C397.743 164.425 396.56 164.867 395.593 165.75C394.643 166.633 394.102 167.775 393.968 169.175H404.018C403.885 167.692 403.352 166.533 402.418 165.7C401.485 164.85 400.393 164.425 399.143 164.425ZM422.605 169.55C424.072 170.017 424.805 171.017 424.805 172.55C424.805 173.583 424.463 174.417 423.78 175.05C423.113 175.683 422.172 176 420.955 176H414.905V163.5H420.48C421.647 163.5 422.555 163.808 423.205 164.425C423.872 165.025 424.205 165.808 424.205 166.775C424.205 168.108 423.672 169.033 422.605 169.55ZM420.48 164.725H416.155V169.05H420.48C421.28 169.05 421.888 168.858 422.305 168.475C422.722 168.092 422.93 167.55 422.93 166.85C422.93 166.183 422.713 165.667 422.28 165.3C421.863 164.917 421.263 164.725 420.48 164.725ZM416.155 174.775H420.955C421.788 174.775 422.43 174.575 422.88 174.175C423.33 173.775 423.555 173.217 423.555 172.5C423.555 171.8 423.322 171.258 422.855 170.875C422.405 170.475 421.772 170.275 420.955 170.275H416.155V174.775ZM436.626 169.15V163.5H437.901V176H436.626V170.35H428.826V176H427.576V163.5H428.826V169.15H436.626ZM447.385 163.225C449.219 163.225 450.702 163.875 451.835 165.175C452.985 166.475 453.56 168.017 453.56 169.8C453.56 169.833 453.552 169.933 453.535 170.1C453.535 170.267 453.535 170.367 453.535 170.4H442.21C442.36 171.8 442.919 172.933 443.885 173.8C444.852 174.65 446.06 175.075 447.51 175.075C448.494 175.075 449.36 174.875 450.11 174.475C450.86 174.058 451.435 173.5 451.835 172.8L452.935 173.45C452.419 174.317 451.677 175.008 450.71 175.525C449.76 176.025 448.685 176.275 447.485 176.275C445.552 176.275 443.977 175.667 442.76 174.45C441.527 173.217 440.91 171.65 440.91 169.75C440.91 167.883 441.51 166.333 442.71 165.1C443.944 163.85 445.502 163.225 447.385 163.225ZM447.385 164.425C445.985 164.425 444.802 164.867 443.835 165.75C442.885 166.633 442.344 167.775 442.21 169.175H452.26C452.127 167.692 451.594 166.533 450.66 165.7C449.727 164.85 448.635 164.425 447.385 164.425ZM469.772 163.225C471.572 163.225 473.097 163.858 474.347 165.125C475.614 166.375 476.247 167.917 476.247 169.75C476.247 171.583 475.614 173.133 474.347 174.4C473.097 175.65 471.572 176.275 469.772 176.275C468.589 176.275 467.522 176 466.572 175.45C465.639 174.883 464.914 174.1 464.397 173.1V181H463.147V163.5H464.397V166.4C464.914 165.4 465.639 164.625 466.572 164.075C467.522 163.508 468.589 163.225 469.772 163.225ZM465.922 173.525C466.956 174.558 468.214 175.075 469.697 175.075C471.164 175.075 472.414 174.558 473.447 173.525C474.481 172.492 474.997 171.233 474.997 169.75C474.997 168.267 474.481 167.008 473.447 165.975C472.414 164.942 471.164 164.425 469.697 164.425C468.214 164.425 466.956 164.942 465.922 165.975C464.906 166.992 464.397 168.25 464.397 169.75C464.397 171.25 464.906 172.508 465.922 173.525ZM490.26 166.325V163.5H491.535V176H490.26V173.175C489.71 174.142 488.969 174.9 488.035 175.45C487.102 176 486.052 176.275 484.885 176.275C483.119 176.275 481.594 175.65 480.31 174.4C479.044 173.133 478.41 171.583 478.41 169.75C478.41 167.917 479.044 166.375 480.31 165.125C481.577 163.858 483.102 163.225 484.885 163.225C486.052 163.225 487.102 163.5 488.035 164.05C488.969 164.6 489.71 165.358 490.26 166.325ZM481.21 173.525C482.244 174.558 483.502 175.075 484.985 175.075C486.452 175.075 487.702 174.558 488.735 173.525C489.752 172.508 490.26 171.25 490.26 169.75C490.26 168.25 489.752 166.992 488.735 165.975C487.702 164.942 486.452 164.425 484.985 164.425C483.502 164.425 482.244 164.942 481.21 165.975C480.194 166.992 479.685 168.25 479.685 169.75C479.685 171.25 480.194 172.508 481.21 173.525ZM505.949 163.5H507.449V176H506.174V165.4L501.499 172.775H501.324L496.624 165.35V176H495.374V163.5H496.849L501.399 170.675L505.949 163.5ZM513.892 169.5L520.867 176H519.167L512.542 169.85V176H511.292V163.5H512.542V169.175L518.867 163.5H520.617L513.892 169.5ZM533.132 166.325V163.5H534.407V176H533.132V173.175C532.582 174.142 531.84 174.9 530.907 175.45C529.973 176 528.923 176.275 527.757 176.275C525.99 176.275 524.465 175.65 523.182 174.4C521.915 173.133 521.282 171.583 521.282 169.75C521.282 167.917 521.915 166.375 523.182 165.125C524.448 163.858 525.973 163.225 527.757 163.225C528.923 163.225 529.973 163.5 530.907 164.05C531.84 164.6 532.582 165.358 533.132 166.325ZM524.082 173.525C525.115 174.558 526.373 175.075 527.857 175.075C529.323 175.075 530.573 174.558 531.607 173.525C532.623 172.508 533.132 171.25 533.132 169.75C533.132 168.25 532.623 166.992 531.607 165.975C530.573 164.942 529.323 164.425 527.857 164.425C526.373 164.425 525.115 164.942 524.082 165.975C523.065 166.992 522.557 168.25 522.557 169.75C522.557 171.25 523.065 172.508 524.082 173.525ZM543.42 169.55L548.395 176H546.87L542.645 170.55L538.42 176H536.895L541.895 169.575L537.195 163.5H538.72L542.645 168.575L546.595 163.5H548.095L543.42 169.55ZM106.926 208.825L114.901 198.5H116.001V211H114.726V200.675L106.776 211H105.676V198.5H106.926V208.825ZM125.861 204.55C126.611 204.8 127.194 205.2 127.611 205.75C128.028 206.3 128.236 206.933 128.236 207.65C128.236 208.7 127.819 209.567 126.986 210.25C126.169 210.933 125.053 211.275 123.636 211.275C121.136 211.275 119.511 210.292 118.761 208.325L119.836 207.7C120.369 209.283 121.636 210.075 123.636 210.075C124.669 210.075 125.478 209.85 126.061 209.4C126.661 208.933 126.961 208.325 126.961 207.575C126.961 206.892 126.711 206.342 126.211 205.925C125.711 205.492 125.044 205.275 124.211 205.275H122.486V204.05H123.736C124.553 204.05 125.194 203.842 125.661 203.425C126.128 203.008 126.361 202.45 126.361 201.75C126.361 201.083 126.086 200.533 125.536 200.1C125.003 199.65 124.294 199.425 123.411 199.425C121.711 199.425 120.586 200.1 120.036 201.45L118.986 200.85C119.353 200.033 119.911 199.392 120.661 198.925C121.411 198.458 122.328 198.225 123.411 198.225C124.678 198.225 125.694 198.567 126.461 199.25C127.228 199.917 127.611 200.733 127.611 201.7C127.611 203.05 127.028 204 125.861 204.55ZM140.044 204.15V198.5H141.319V211H140.044V205.35H132.244V211H130.994V198.5H132.244V204.15H140.044ZM156.178 201.325V198.5H157.453V211H156.178V208.175C155.628 209.142 154.887 209.9 153.953 210.45C153.02 211 151.97 211.275 150.803 211.275C149.037 211.275 147.512 210.65 146.228 209.4C144.962 208.133 144.328 206.583 144.328 204.75C144.328 202.917 144.962 201.375 146.228 200.125C147.495 198.858 149.02 198.225 150.803 198.225C151.97 198.225 153.02 198.5 153.953 199.05C154.887 199.6 155.628 200.358 156.178 201.325ZM147.128 208.525C148.162 209.558 149.42 210.075 150.903 210.075C152.37 210.075 153.62 209.558 154.653 208.525C155.67 207.508 156.178 206.25 156.178 204.75C156.178 203.25 155.67 201.992 154.653 200.975C153.62 199.942 152.37 199.425 150.903 199.425C149.42 199.425 148.162 199.942 147.128 200.975C146.112 201.992 145.603 203.25 145.603 204.75C145.603 206.25 146.112 207.508 147.128 208.525ZM169.592 204.925V198.5H170.867V211H169.592V206.1C168.492 206.65 167.225 206.925 165.792 206.925C164.192 206.925 162.958 206.55 162.092 205.8C161.225 205.05 160.792 203.975 160.792 202.575V198.5H162.042V202.575C162.042 204.675 163.275 205.725 165.742 205.725C167.092 205.725 168.375 205.458 169.592 204.925ZM185.719 201.325V198.5H186.994V211H185.719V208.175C185.169 209.142 184.428 209.9 183.494 210.45C182.561 211 181.511 211.275 180.344 211.275C178.578 211.275 177.053 210.65 175.769 209.4C174.503 208.133 173.869 206.583 173.869 204.75C173.869 202.917 174.503 201.375 175.769 200.125C177.036 198.858 178.561 198.225 180.344 198.225C181.511 198.225 182.561 198.5 183.494 199.05C184.428 199.6 185.169 200.358 185.719 201.325ZM176.669 208.525C177.703 209.558 178.961 210.075 180.444 210.075C181.911 210.075 183.161 209.558 184.194 208.525C185.211 207.508 185.719 206.25 185.719 204.75C185.719 203.25 185.211 201.992 184.194 200.975C183.161 199.942 181.911 199.425 180.444 199.425C178.961 199.425 177.703 199.942 176.669 200.975C175.653 201.992 175.144 203.25 175.144 204.75C175.144 206.25 175.653 207.508 176.669 208.525ZM192.183 198.5H200.983V211H199.733V199.725H193.433V205.75C193.433 207.717 193.074 209.108 192.358 209.925C191.641 210.742 190.599 211.1 189.233 211V209.825C190.249 209.908 190.991 209.633 191.458 209C191.941 208.367 192.183 207.283 192.183 205.75V198.5ZM206.072 203.35H209.772C210.939 203.35 211.914 203.708 212.697 204.425C213.497 205.142 213.897 206.058 213.897 207.175C213.897 208.292 213.497 209.208 212.697 209.925C211.914 210.642 210.939 211 209.772 211H204.822V198.5H206.072V203.35ZM206.072 209.775H209.772C210.589 209.775 211.264 209.533 211.797 209.05C212.347 208.55 212.622 207.925 212.622 207.175C212.622 206.392 212.347 205.767 211.797 205.3C211.264 204.817 210.589 204.575 209.772 204.575H206.072V209.775ZM225.688 204.15V198.5H226.963V211H225.688V205.35H217.888V211H216.638V198.5H217.888V204.15H225.688ZM236.548 211.275C234.715 211.275 233.156 210.65 231.873 209.4C230.606 208.133 229.973 206.583 229.973 204.75C229.973 202.917 230.606 201.375 231.873 200.125C233.14 198.858 234.698 198.225 236.548 198.225C238.365 198.225 239.906 198.858 241.173 200.125C242.456 201.375 243.098 202.917 243.098 204.75C243.098 206.567 242.456 208.117 241.173 209.4C239.89 210.65 238.348 211.275 236.548 211.275ZM232.773 208.525C233.806 209.558 235.065 210.075 236.548 210.075C238.015 210.075 239.265 209.558 240.298 208.525C241.315 207.508 241.823 206.25 241.823 204.75C241.823 203.25 241.315 201.992 240.298 200.975C239.265 199.942 238.015 199.425 236.548 199.425C235.065 199.425 233.806 199.942 232.773 200.975C231.756 201.992 231.248 203.25 231.248 204.75C231.248 206.25 231.756 207.508 232.773 208.525ZM246.106 198.5H253.931V199.725H247.356V211H246.106V198.5ZM261.401 211.275C259.568 211.275 258.01 210.65 256.726 209.4C255.46 208.133 254.826 206.583 254.826 204.75C254.826 202.917 255.46 201.375 256.726 200.125C257.993 198.858 259.551 198.225 261.401 198.225C263.218 198.225 264.76 198.858 266.026 200.125C267.31 201.375 267.951 202.917 267.951 204.75C267.951 206.567 267.31 208.117 266.026 209.4C264.743 210.65 263.201 211.275 261.401 211.275ZM257.626 208.525C258.66 209.558 259.918 210.075 261.401 210.075C262.868 210.075 264.118 209.558 265.151 208.525C266.168 207.508 266.676 206.25 266.676 204.75C266.676 203.25 266.168 201.992 265.151 200.975C264.118 199.942 262.868 199.425 261.401 199.425C259.918 199.425 258.66 199.942 257.626 200.975C256.61 201.992 256.101 203.25 256.101 204.75C256.101 206.25 256.61 207.508 257.626 208.525ZM283.625 204.55C284.375 204.8 284.958 205.2 285.375 205.75C285.791 206.3 286 206.933 286 207.65C286 208.7 285.583 209.567 284.75 210.25C283.933 210.933 282.816 211.275 281.4 211.275C278.9 211.275 277.275 210.292 276.525 208.325L277.6 207.7C278.133 209.283 279.4 210.075 281.4 210.075C282.433 210.075 283.241 209.85 283.825 209.4C284.425 208.933 284.725 208.325 284.725 207.575C284.725 206.892 284.475 206.342 283.975 205.925C283.475 205.492 282.808 205.275 281.975 205.275H280.25V204.05H281.5C282.316 204.05 282.958 203.842 283.425 203.425C283.891 203.008 284.125 202.45 284.125 201.75C284.125 201.083 283.85 200.533 283.3 200.1C282.766 199.65 282.058 199.425 281.175 199.425C279.475 199.425 278.35 200.1 277.8 201.45L276.75 200.85C277.116 200.033 277.675 199.392 278.425 198.925C279.175 198.458 280.091 198.225 281.175 198.225C282.441 198.225 283.458 198.567 284.225 199.25C284.991 199.917 285.375 200.733 285.375 201.7C285.375 203.05 284.791 204 283.625 204.55ZM299.758 201.325V198.5H301.033V211H299.758V208.175C299.208 209.142 298.466 209.9 297.533 210.45C296.599 211 295.549 211.275 294.383 211.275C292.616 211.275 291.091 210.65 289.808 209.4C288.541 208.133 287.908 206.583 287.908 204.75C287.908 202.917 288.541 201.375 289.808 200.125C291.074 198.858 292.599 198.225 294.383 198.225C295.549 198.225 296.599 198.5 297.533 199.05C298.466 199.6 299.208 200.358 299.758 201.325ZM290.708 208.525C291.741 209.558 292.999 210.075 294.483 210.075C295.949 210.075 297.199 209.558 298.233 208.525C299.249 207.508 299.758 206.25 299.758 204.75C299.758 203.25 299.249 201.992 298.233 200.975C297.199 199.942 295.949 199.425 294.483 199.425C292.999 199.425 291.741 199.942 290.708 200.975C289.691 201.992 289.183 203.25 289.183 204.75C289.183 206.25 289.691 207.508 290.708 208.525ZM315.121 198.5V209.775H316.871V214.35H315.596V211H304.796V214.35H303.521V209.775H304.971C305.887 208.542 306.346 206.867 306.346 204.75V198.5H315.121ZM306.521 209.775H313.846V199.725H307.596V204.75C307.596 206.817 307.237 208.492 306.521 209.775ZM330.129 201.325V198.5H331.404V211H330.129V208.175C329.579 209.142 328.837 209.9 327.904 210.45C326.97 211 325.92 211.275 324.754 211.275C322.987 211.275 321.462 210.65 320.179 209.4C318.912 208.133 318.279 206.583 318.279 204.75C318.279 202.917 318.912 201.375 320.179 200.125C321.445 198.858 322.97 198.225 324.754 198.225C325.92 198.225 326.97 198.5 327.904 199.05C328.837 199.6 329.579 200.358 330.129 201.325ZM321.079 208.525C322.112 209.558 323.37 210.075 324.854 210.075C326.32 210.075 327.57 209.558 328.604 208.525C329.62 207.508 330.129 206.25 330.129 204.75C330.129 203.25 329.62 201.992 328.604 200.975C327.57 199.942 326.32 199.425 324.854 199.425C323.37 199.425 322.112 199.942 321.079 200.975C320.062 201.992 319.554 203.25 319.554 204.75C319.554 206.25 320.062 207.508 321.079 208.525ZM344.292 204.15V198.5H345.567V211H344.292V205.35H336.492V211H335.242V198.5H336.492V204.15H344.292ZM350.676 208.825L358.651 198.5H359.751V211H358.476V200.675L350.526 211H349.426V198.5H350.676V208.825ZM367.311 198.5H372.261V211H371.011V206.125H368.311L364.386 211H362.761L366.761 206.1C365.728 205.983 364.869 205.575 364.186 204.875C363.519 204.175 363.186 203.325 363.186 202.325C363.186 201.208 363.586 200.292 364.386 199.575C365.169 198.858 366.144 198.5 367.311 198.5ZM367.311 204.925H371.011V199.725H367.311C366.494 199.725 365.811 199.975 365.261 200.475C364.728 200.958 364.461 201.575 364.461 202.325C364.461 203.108 364.728 203.742 365.261 204.225C365.811 204.692 366.494 204.925 367.311 204.925ZM376.686 209.3H378.236L376.886 214.5H375.736L376.686 209.3ZM396.642 204.925V198.5H397.917V211H396.642V206.1C395.542 206.65 394.276 206.925 392.842 206.925C391.242 206.925 390.009 206.55 389.142 205.8C388.276 205.05 387.842 203.975 387.842 202.575V198.5H389.092V202.575C389.092 204.675 390.326 205.725 392.792 205.725C394.142 205.725 395.426 205.458 396.642 204.925ZM407.395 198.225C409.229 198.225 410.712 198.875 411.845 200.175C412.995 201.475 413.57 203.017 413.57 204.8C413.57 204.833 413.562 204.933 413.545 205.1C413.545 205.267 413.545 205.367 413.545 205.4H402.22C402.37 206.8 402.929 207.933 403.895 208.8C404.862 209.65 406.07 210.075 407.52 210.075C408.504 210.075 409.37 209.875 410.12 209.475C410.87 209.058 411.445 208.5 411.845 207.8L412.945 208.45C412.429 209.317 411.687 210.008 410.72 210.525C409.77 211.025 408.695 211.275 407.495 211.275C405.562 211.275 403.987 210.667 402.77 209.45C401.537 208.217 400.92 206.65 400.92 204.75C400.92 202.883 401.52 201.333 402.72 200.1C403.954 198.85 405.512 198.225 407.395 198.225ZM407.395 199.425C405.995 199.425 404.812 199.867 403.845 200.75C402.895 201.633 402.354 202.775 402.22 204.175H412.27C412.137 202.692 411.604 201.533 410.67 200.7C409.737 199.85 408.645 199.425 407.395 199.425ZM427.067 198.5H428.567V211H427.292V200.4L422.617 207.775H422.442L417.742 200.35V211H416.492V198.5H417.967L422.517 205.675L427.067 198.5ZM437.21 209.625L441.56 198.5H442.91L437.51 212.15C437.01 213.4 436.318 214.375 435.435 215.075C434.552 215.775 433.593 216.083 432.56 216V214.825C433.343 214.892 434.06 214.667 434.71 214.15C435.36 213.633 435.885 212.883 436.285 211.9L436.56 211.225L430.81 198.5H432.16L437.21 209.625ZM455.519 198.5H460.469V211H459.219V206.125H456.519L452.594 211H450.969L454.969 206.1C453.936 205.983 453.077 205.575 452.394 204.875C451.727 204.175 451.394 203.325 451.394 202.325C451.394 201.208 451.794 200.292 452.594 199.575C453.377 198.858 454.352 198.5 455.519 198.5ZM455.519 204.925H459.219V199.725H455.519C454.702 199.725 454.019 199.975 453.469 200.475C452.936 200.958 452.669 201.575 452.669 202.325C452.669 203.108 452.936 203.742 453.469 204.225C454.019 204.692 454.702 204.925 455.519 204.925ZM476.709 211.275C474.876 211.275 473.317 210.65 472.034 209.4C470.767 208.133 470.134 206.583 470.134 204.75C470.134 202.917 470.767 201.375 472.034 200.125C473.301 198.858 474.859 198.225 476.709 198.225C478.526 198.225 480.067 198.858 481.334 200.125C482.617 201.375 483.259 202.917 483.259 204.75C483.259 206.567 482.617 208.117 481.334 209.4C480.051 210.65 478.509 211.275 476.709 211.275ZM472.934 208.525C473.967 209.558 475.226 210.075 476.709 210.075C478.176 210.075 479.426 209.558 480.459 208.525C481.476 207.508 481.984 206.25 481.984 204.75C481.984 203.25 481.476 201.992 480.459 200.975C479.426 199.942 478.176 199.425 476.709 199.425C475.226 199.425 473.967 199.942 472.934 200.975C471.917 201.992 471.409 203.25 471.409 204.75C471.409 206.25 471.917 207.508 472.934 208.525ZM494.323 204.925V198.5H495.598V211H494.323V206.1C493.223 206.65 491.956 206.925 490.523 206.925C488.923 206.925 487.69 206.55 486.823 205.8C485.956 205.05 485.523 203.975 485.523 202.575V198.5H486.773V202.575C486.773 204.675 488.006 205.725 490.473 205.725C491.823 205.725 493.106 205.458 494.323 204.925ZM505.076 198.225C506.909 198.225 508.393 198.875 509.526 200.175C510.676 201.475 511.251 203.017 511.251 204.8C511.251 204.833 511.243 204.933 511.226 205.1C511.226 205.267 511.226 205.367 511.226 205.4H499.901C500.051 206.8 500.609 207.933 501.576 208.8C502.543 209.65 503.751 210.075 505.201 210.075C506.184 210.075 507.051 209.875 507.801 209.475C508.551 209.058 509.126 208.5 509.526 207.8L510.626 208.45C510.109 209.317 509.368 210.008 508.401 210.525C507.451 211.025 506.376 211.275 505.176 211.275C503.243 211.275 501.668 210.667 500.451 209.45C499.218 208.217 498.601 206.65 498.601 204.75C498.601 202.883 499.201 201.333 500.401 200.1C501.634 198.85 503.193 198.225 505.076 198.225ZM505.076 199.425C503.676 199.425 502.493 199.867 501.526 200.75C500.576 201.633 500.034 202.775 499.901 204.175H509.951C509.818 202.692 509.284 201.533 508.351 200.7C507.418 199.85 506.326 199.425 505.076 199.425ZM523.223 204.15V198.5H524.498V211H523.223V205.35H515.423V211H514.173V198.5H515.423V204.15H523.223ZM529.607 203.35H533.307C534.474 203.35 535.449 203.708 536.232 204.425C537.032 205.142 537.432 206.058 537.432 207.175C537.432 208.292 537.032 209.208 536.232 209.925C535.449 210.642 534.474 211 533.307 211H528.357V198.5H529.607V203.35ZM529.607 209.775H533.307C534.124 209.775 534.799 209.533 535.332 209.05C535.882 208.55 536.157 207.925 536.157 207.175C536.157 206.392 535.882 205.767 535.332 205.3C534.799 204.817 534.124 204.575 533.307 204.575H529.607V209.775ZM152.364 233.5V244.775H154.114V249.35H152.839V246H142.039V249.35H140.764V244.775H142.214C143.131 243.542 143.589 241.867 143.589 239.75V233.5H152.364ZM143.764 244.775H151.089V234.725H144.839V239.75C144.839 241.817 144.481 243.492 143.764 244.775ZM162.097 246.275C160.264 246.275 158.706 245.65 157.422 244.4C156.156 243.133 155.522 241.583 155.522 239.75C155.522 237.917 156.156 236.375 157.422 235.125C158.689 233.858 160.247 233.225 162.097 233.225C163.914 233.225 165.456 233.858 166.722 235.125C168.006 236.375 168.647 237.917 168.647 239.75C168.647 241.567 168.006 243.117 166.722 244.4C165.439 245.65 163.897 246.275 162.097 246.275ZM158.322 243.525C159.356 244.558 160.614 245.075 162.097 245.075C163.564 245.075 164.814 244.558 165.847 243.525C166.864 242.508 167.372 241.25 167.372 239.75C167.372 238.25 166.864 236.992 165.847 235.975C164.814 234.942 163.564 234.425 162.097 234.425C160.614 234.425 159.356 234.942 158.322 235.975C157.306 236.992 156.797 238.25 156.797 239.75C156.797 241.25 157.306 242.508 158.322 243.525ZM179.355 239.55C180.822 240.017 181.555 241.017 181.555 242.55C181.555 243.583 181.214 244.417 180.53 245.05C179.864 245.683 178.922 246 177.705 246H171.655V233.5H177.23C178.397 233.5 179.305 233.808 179.955 234.425C180.622 235.025 180.955 235.808 180.955 236.775C180.955 238.108 180.422 239.033 179.355 239.55ZM177.23 234.725H172.905V239.05H177.23C178.03 239.05 178.639 238.858 179.055 238.475C179.472 238.092 179.68 237.55 179.68 236.85C179.68 236.183 179.464 235.667 179.03 235.3C178.614 234.917 178.014 234.725 177.23 234.725ZM172.905 244.775H177.705C178.539 244.775 179.18 244.575 179.63 244.175C180.08 243.775 180.305 243.217 180.305 242.5C180.305 241.8 180.072 241.258 179.605 240.875C179.155 240.475 178.522 240.275 177.705 240.275H172.905V244.775ZM190.051 246.275C188.218 246.275 186.66 245.65 185.376 244.4C184.11 243.133 183.476 241.583 183.476 239.75C183.476 237.917 184.11 236.375 185.376 235.125C186.643 233.858 188.201 233.225 190.051 233.225C191.868 233.225 193.41 233.858 194.676 235.125C195.96 236.375 196.601 237.917 196.601 239.75C196.601 241.567 195.96 243.117 194.676 244.4C193.393 245.65 191.851 246.275 190.051 246.275ZM186.276 243.525C187.31 244.558 188.568 245.075 190.051 245.075C191.518 245.075 192.768 244.558 193.801 243.525C194.818 242.508 195.326 241.25 195.326 239.75C195.326 238.25 194.818 236.992 193.801 235.975C192.768 234.942 191.518 234.425 190.051 234.425C188.568 234.425 187.31 234.942 186.276 235.975C185.26 236.992 184.751 238.25 184.751 239.75C184.751 241.25 185.26 242.508 186.276 243.525ZM200.471 233.5H209.271V246H208.021V234.725H201.721V240.75C201.721 242.717 201.363 244.108 200.646 244.925C199.93 245.742 198.888 246.1 197.521 246V244.825C198.538 244.908 199.28 244.633 199.746 244C200.23 243.367 200.471 242.283 200.471 240.75V233.5ZM218.736 233.225C220.569 233.225 222.052 233.875 223.186 235.175C224.336 236.475 224.911 238.017 224.911 239.8C224.911 239.833 224.902 239.933 224.886 240.1C224.886 240.267 224.886 240.367 224.886 240.4H213.561C213.711 241.8 214.269 242.933 215.236 243.8C216.202 244.65 217.411 245.075 218.861 245.075C219.844 245.075 220.711 244.875 221.461 244.475C222.211 244.058 222.786 243.5 223.186 242.8L224.286 243.45C223.769 244.317 223.027 245.008 222.061 245.525C221.111 246.025 220.036 246.275 218.836 246.275C216.902 246.275 215.327 245.667 214.111 244.45C212.877 243.217 212.261 241.65 212.261 239.75C212.261 237.883 212.861 236.333 214.061 235.1C215.294 233.85 216.852 233.225 218.736 233.225ZM218.736 234.425C217.336 234.425 216.152 234.867 215.186 235.75C214.236 236.633 213.694 237.775 213.561 239.175H223.611C223.477 237.692 222.944 236.533 222.011 235.7C221.077 234.85 219.986 234.425 218.736 234.425ZM236.882 239.15V233.5H238.157V246H236.882V240.35H229.082V246H227.832V233.5H229.082V239.15H236.882ZM243.892 245.125C243.892 245.442 243.783 245.708 243.567 245.925C243.35 246.142 243.083 246.25 242.767 246.25C242.45 246.25 242.183 246.142 241.967 245.925C241.75 245.708 241.642 245.442 241.642 245.125C241.642 244.808 241.75 244.542 241.967 244.325C242.183 244.108 242.45 244 242.767 244C243.083 244 243.35 244.108 243.567 244.325C243.783 244.542 243.892 244.808 243.892 245.125ZM254.254 228.5H260.204C261.771 228.5 263.071 229.017 264.104 230.05C265.137 231.083 265.654 232.375 265.654 233.925C265.654 235.475 265.137 236.767 264.104 237.8C263.087 238.817 261.787 239.325 260.204 239.325H255.579V246H254.254V228.5ZM255.579 238.075H260.204C261.387 238.075 262.371 237.683 263.154 236.9C263.937 236.117 264.329 235.125 264.329 233.925C264.329 232.708 263.937 231.708 263.154 230.925C262.371 230.142 261.387 229.75 260.204 229.75H255.579V238.075ZM278.676 236.325V233.5H279.951V246H278.676V243.175C278.126 244.142 277.384 244.9 276.451 245.45C275.518 246 274.468 246.275 273.301 246.275C271.534 246.275 270.009 245.65 268.726 244.4C267.459 243.133 266.826 241.583 266.826 239.75C266.826 237.917 267.459 236.375 268.726 235.125C269.993 233.858 271.518 233.225 273.301 233.225C274.468 233.225 275.518 233.5 276.451 234.05C277.384 234.6 278.126 235.358 278.676 236.325ZM269.626 243.525C270.659 244.558 271.918 245.075 273.401 245.075C274.868 245.075 276.118 244.558 277.151 243.525C278.168 242.508 278.676 241.25 278.676 239.75C278.676 238.25 278.168 236.992 277.151 235.975C276.118 234.942 274.868 234.425 273.401 234.425C271.918 234.425 270.659 234.942 269.626 235.975C268.609 236.992 268.101 238.25 268.101 239.75C268.101 241.25 268.609 242.508 269.626 243.525ZM289.239 246.3C287.456 246.3 285.956 245.708 284.739 244.525C283.539 243.325 282.939 241.775 282.939 239.875C282.939 237.792 283.239 236.183 283.839 235.05C284.473 233.883 285.731 232.842 287.614 231.925L288.914 231.35C290.148 230.833 290.881 230.508 291.114 230.375C291.664 230.075 292.081 229.767 292.364 229.45C292.648 229.117 292.823 228.692 292.889 228.175L293.889 228.75C293.706 229.683 293.214 230.417 292.414 230.95C292.064 231.167 291.681 231.392 291.264 231.625C290.931 231.808 290.431 232.033 289.764 232.3L288.289 232.925C287.039 233.492 286.131 234.092 285.564 234.725C284.998 235.358 284.614 236.233 284.414 237.35C284.981 236.467 285.723 235.792 286.639 235.325C287.556 234.858 288.514 234.625 289.514 234.625C291.181 234.625 292.564 235.175 293.664 236.275C294.764 237.375 295.314 238.775 295.314 240.475C295.314 242.158 294.739 243.55 293.589 244.65C292.473 245.75 291.023 246.3 289.239 246.3ZM289.239 245.05C290.639 245.05 291.789 244.625 292.689 243.775C293.589 242.892 294.039 241.792 294.039 240.475C294.039 239.125 293.606 238.017 292.739 237.15C291.873 236.283 290.748 235.85 289.364 235.85C288.098 235.85 286.956 236.25 285.939 237.05C284.939 237.85 284.389 238.883 284.289 240.15C284.289 241.567 284.756 242.742 285.689 243.675C286.606 244.592 287.789 245.05 289.239 245.05ZM303.796 246.275C301.963 246.275 300.405 245.65 299.121 244.4C297.855 243.133 297.221 241.583 297.221 239.75C297.221 237.917 297.855 236.375 299.121 235.125C300.388 233.858 301.946 233.225 303.796 233.225C305.613 233.225 307.155 233.858 308.421 235.125C309.705 236.375 310.346 237.917 310.346 239.75C310.346 241.567 309.705 243.117 308.421 244.4C307.138 245.65 305.596 246.275 303.796 246.275ZM300.021 243.525C301.055 244.558 302.313 245.075 303.796 245.075C305.263 245.075 306.513 244.558 307.546 243.525C308.563 242.508 309.071 241.25 309.071 239.75C309.071 238.25 308.563 236.992 307.546 235.975C306.513 234.942 305.263 234.425 303.796 234.425C302.313 234.425 301.055 234.942 300.021 235.975C299.005 236.992 298.496 238.25 298.496 239.75C298.496 241.25 299.005 242.508 300.021 243.525ZM311.266 233.5H321.616V234.725H317.066V246H315.816V234.725H311.266V233.5ZM334.389 236.325V233.5H335.664V246H334.389V243.175C333.839 244.142 333.097 244.9 332.164 245.45C331.231 246 330.181 246.275 329.014 246.275C327.247 246.275 325.722 245.65 324.439 244.4C323.172 243.133 322.539 241.583 322.539 239.75C322.539 237.917 323.172 236.375 324.439 235.125C325.706 233.858 327.231 233.225 329.014 233.225C330.181 233.225 331.231 233.5 332.164 234.05C333.097 234.6 333.839 235.358 334.389 236.325ZM325.339 243.525C326.372 244.558 327.631 245.075 329.114 245.075C330.581 245.075 331.831 244.558 332.864 243.525C333.881 242.508 334.389 241.25 334.389 239.75C334.389 238.25 333.881 236.992 332.864 235.975C331.831 234.942 330.581 234.425 329.114 234.425C327.631 234.425 326.372 234.942 325.339 235.975C324.322 236.992 323.814 238.25 323.814 239.75C323.814 241.25 324.322 242.508 325.339 243.525ZM337.902 233.5H348.252V234.725H343.702V246H342.452V234.725H337.902V233.5ZM351.763 238.35H355.463C356.63 238.35 357.605 238.708 358.388 239.425C359.188 240.142 359.588 241.058 359.588 242.175C359.588 243.292 359.188 244.208 358.388 244.925C357.605 245.642 356.63 246 355.463 246H350.513V233.5H351.763V238.35ZM351.763 244.775H355.463C356.28 244.775 356.955 244.533 357.488 244.05C358.038 243.55 358.313 242.925 358.313 242.175C358.313 241.392 358.038 240.767 357.488 240.3C356.955 239.817 356.28 239.575 355.463 239.575H351.763V244.775ZM371.594 239.5L378.569 246H376.869L370.244 239.85V246H368.994V233.5H370.244V239.175L376.569 233.5H378.319L371.594 239.5ZM385.559 246.275C383.726 246.275 382.168 245.65 380.884 244.4C379.618 243.133 378.984 241.583 378.984 239.75C378.984 237.917 379.618 236.375 380.884 235.125C382.151 233.858 383.709 233.225 385.559 233.225C387.376 233.225 388.918 233.858 390.184 235.125C391.468 236.375 392.109 237.917 392.109 239.75C392.109 241.567 391.468 243.117 390.184 244.4C388.901 245.65 387.359 246.275 385.559 246.275ZM381.784 243.525C382.818 244.558 384.076 245.075 385.559 245.075C387.026 245.075 388.276 244.558 389.309 243.525C390.326 242.508 390.834 241.25 390.834 239.75C390.834 238.25 390.326 236.992 389.309 235.975C388.276 234.942 387.026 234.425 385.559 234.425C384.076 234.425 382.818 234.942 381.784 235.975C380.768 236.992 380.259 238.25 380.259 239.75C380.259 241.25 380.768 242.508 381.784 243.525ZM405.692 233.5H407.192V246H405.917V235.4L401.242 242.775H401.067L396.367 235.35V246H395.117V233.5H396.592L401.142 240.675L405.692 233.5ZM418.11 246.275V251H416.86V246.275C414.827 246.142 413.21 245.475 412.01 244.275C410.794 243.058 410.185 241.55 410.185 239.75C410.185 237.967 410.794 236.467 412.01 235.25C413.227 234.033 414.844 233.358 416.86 233.225V228.5H418.11V233.225C420.094 233.342 421.702 234.017 422.935 235.25C424.169 236.483 424.785 237.983 424.785 239.75C424.785 241.533 424.169 243.042 422.935 244.275C421.735 245.475 420.127 246.142 418.11 246.275ZM416.86 245.05V234.45C415.21 234.583 413.902 235.133 412.935 236.1C411.952 237.083 411.46 238.3 411.46 239.75C411.46 241.2 411.952 242.417 412.935 243.4C413.902 244.367 415.21 244.917 416.86 245.05ZM418.11 234.45V245.05C419.76 244.917 421.069 244.367 422.035 243.4C423.019 242.417 423.51 241.2 423.51 239.75C423.51 238.3 423.019 237.083 422.035 236.1C421.069 235.133 419.76 234.583 418.11 234.45ZM433.508 246.275C431.675 246.275 430.117 245.65 428.833 244.4C427.567 243.133 426.933 241.583 426.933 239.75C426.933 237.917 427.567 236.375 428.833 235.125C430.1 233.858 431.658 233.225 433.508 233.225C435.325 233.225 436.867 233.858 438.133 235.125C439.417 236.375 440.058 237.917 440.058 239.75C440.058 241.567 439.417 243.117 438.133 244.4C436.85 245.65 435.308 246.275 433.508 246.275ZM429.733 243.525C430.767 244.558 432.025 245.075 433.508 245.075C434.975 245.075 436.225 244.558 437.258 243.525C438.275 242.508 438.783 241.25 438.783 239.75C438.783 238.25 438.275 236.992 437.258 235.975C436.225 234.942 434.975 234.425 433.508 234.425C432.025 234.425 430.767 234.942 429.733 235.975C428.717 236.992 428.208 238.25 428.208 239.75C428.208 241.25 428.717 242.508 429.733 243.525ZM449.692 233.225C451.492 233.225 453.017 233.858 454.267 235.125C455.533 236.375 456.167 237.917 456.167 239.75C456.167 241.583 455.533 243.133 454.267 244.4C453.017 245.65 451.492 246.275 449.692 246.275C448.508 246.275 447.442 246 446.492 245.45C445.558 244.883 444.833 244.1 444.317 243.1V251H443.067V233.5H444.317V236.4C444.833 235.4 445.558 234.625 446.492 234.075C447.442 233.508 448.508 233.225 449.692 233.225ZM445.842 243.525C446.875 244.558 448.133 245.075 449.617 245.075C451.083 245.075 452.333 244.558 453.367 243.525C454.4 242.492 454.917 241.233 454.917 239.75C454.917 238.267 454.4 237.008 453.367 235.975C452.333 234.942 451.083 234.425 449.617 234.425C448.133 234.425 446.875 234.942 445.842 235.975C444.825 236.992 444.317 238.25 444.317 239.75C444.317 241.25 444.825 242.508 445.842 243.525ZM457.092 233.5H467.442V234.725H462.892V246H461.642V234.725H457.092V233.5ZM478.752 239.15V233.5H480.027V246H478.752V240.35H470.952V246H469.702V233.5H470.952V239.15H478.752ZM489.612 246.275C487.779 246.275 486.22 245.65 484.937 244.4C483.67 243.133 483.037 241.583 483.037 239.75C483.037 237.917 483.67 236.375 484.937 235.125C486.204 233.858 487.762 233.225 489.612 233.225C491.429 233.225 492.97 233.858 494.237 235.125C495.52 236.375 496.162 237.917 496.162 239.75C496.162 241.567 495.52 243.117 494.237 244.4C492.954 245.65 491.412 246.275 489.612 246.275ZM485.837 243.525C486.87 244.558 488.129 245.075 489.612 245.075C491.079 245.075 492.329 244.558 493.362 243.525C494.379 242.508 494.887 241.25 494.887 239.75C494.887 238.25 494.379 236.992 493.362 235.975C492.329 234.942 491.079 234.425 489.612 234.425C488.129 234.425 486.87 234.942 485.837 235.975C484.82 236.992 484.312 238.25 484.312 239.75C484.312 241.25 484.82 242.508 485.837 243.525ZM498.744 244.3H500.294L498.944 249.5H497.794L498.744 244.3ZM127.966 274.925V268.5H129.241V281H127.966V276.1C126.866 276.65 125.599 276.925 124.166 276.925C122.566 276.925 121.332 276.55 120.466 275.8C119.599 275.05 119.166 273.975 119.166 272.575V268.5H120.416V272.575C120.416 274.675 121.649 275.725 124.116 275.725C125.466 275.725 126.749 275.458 127.966 274.925ZM138.718 268.225C140.552 268.225 142.035 268.875 143.168 270.175C144.318 271.475 144.893 273.017 144.893 274.8C144.893 274.833 144.885 274.933 144.868 275.1C144.868 275.267 144.868 275.367 144.868 275.4H133.543C133.693 276.8 134.252 277.933 135.218 278.8C136.185 279.65 137.393 280.075 138.843 280.075C139.827 280.075 140.693 279.875 141.443 279.475C142.193 279.058 142.768 278.5 143.168 277.8L144.268 278.45C143.752 279.317 143.01 280.008 142.043 280.525C141.093 281.025 140.018 281.275 138.818 281.275C136.885 281.275 135.31 280.667 134.093 279.45C132.86 278.217 132.243 276.65 132.243 274.75C132.243 272.883 132.843 271.333 134.043 270.1C135.277 268.85 136.835 268.225 138.718 268.225ZM138.718 269.425C137.318 269.425 136.135 269.867 135.168 270.75C134.218 271.633 133.677 272.775 133.543 274.175H143.593C143.46 272.692 142.927 271.533 141.993 270.7C141.06 269.85 139.968 269.425 138.718 269.425ZM145.727 268.5H156.077V269.725H151.527V281H150.277V269.725H145.727V268.5ZM160.938 274.5L167.913 281H166.213L159.588 274.85V281H158.338V268.5H159.588V274.175L165.913 268.5H167.663L160.938 274.5ZM174.902 281.275C173.069 281.275 171.511 280.65 170.227 279.4C168.961 278.133 168.327 276.583 168.327 274.75C168.327 272.917 168.961 271.375 170.227 270.125C171.494 268.858 173.052 268.225 174.902 268.225C176.719 268.225 178.261 268.858 179.527 270.125C180.811 271.375 181.452 272.917 181.452 274.75C181.452 276.567 180.811 278.117 179.527 279.4C178.244 280.65 176.702 281.275 174.902 281.275ZM171.127 278.525C172.161 279.558 173.419 280.075 174.902 280.075C176.369 280.075 177.619 279.558 178.652 278.525C179.669 277.508 180.177 276.25 180.177 274.75C180.177 273.25 179.669 271.992 178.652 270.975C177.619 269.942 176.369 269.425 174.902 269.425C173.419 269.425 172.161 269.942 171.127 270.975C170.111 271.992 169.602 273.25 169.602 274.75C169.602 276.25 170.111 277.508 171.127 278.525ZM197.126 274.55C197.876 274.8 198.459 275.2 198.876 275.75C199.292 276.3 199.501 276.933 199.501 277.65C199.501 278.7 199.084 279.567 198.251 280.25C197.434 280.933 196.317 281.275 194.901 281.275C192.401 281.275 190.776 280.292 190.026 278.325L191.101 277.7C191.634 279.283 192.901 280.075 194.901 280.075C195.934 280.075 196.742 279.85 197.326 279.4C197.926 278.933 198.226 278.325 198.226 277.575C198.226 276.892 197.976 276.342 197.476 275.925C196.976 275.492 196.309 275.275 195.476 275.275H193.751V274.05H195.001C195.817 274.05 196.459 273.842 196.926 273.425C197.392 273.008 197.626 272.45 197.626 271.75C197.626 271.083 197.351 270.533 196.801 270.1C196.267 269.65 195.559 269.425 194.676 269.425C192.976 269.425 191.851 270.1 191.301 271.45L190.251 270.85C190.617 270.033 191.176 269.392 191.926 268.925C192.676 268.458 193.592 268.225 194.676 268.225C195.942 268.225 196.959 268.567 197.726 269.25C198.492 269.917 198.876 270.733 198.876 271.7C198.876 273.05 198.292 274 197.126 274.55ZM211.308 274.15V268.5H212.583V281H211.308V275.35H203.508V281H202.258V268.5H203.508V274.15H211.308ZM227.443 271.325V268.5H228.718V281H227.443V278.175C226.893 279.142 226.151 279.9 225.218 280.45C224.285 281 223.235 281.275 222.068 281.275C220.301 281.275 218.776 280.65 217.493 279.4C216.226 278.133 215.593 276.583 215.593 274.75C215.593 272.917 216.226 271.375 217.493 270.125C218.76 268.858 220.285 268.225 222.068 268.225C223.235 268.225 224.285 268.5 225.218 269.05C226.151 269.6 226.893 270.358 227.443 271.325ZM218.393 278.525C219.426 279.558 220.685 280.075 222.168 280.075C223.635 280.075 224.885 279.558 225.918 278.525C226.935 277.508 227.443 276.25 227.443 274.75C227.443 273.25 226.935 271.992 225.918 270.975C224.885 269.942 223.635 269.425 222.168 269.425C220.685 269.425 219.426 269.942 218.393 270.975C217.376 271.992 216.868 273.25 216.868 274.75C216.868 276.25 217.376 277.508 218.393 278.525ZM238.181 268.225C240.015 268.225 241.498 268.875 242.631 270.175C243.781 271.475 244.356 273.017 244.356 274.8C244.356 274.833 244.348 274.933 244.331 275.1C244.331 275.267 244.331 275.367 244.331 275.4H233.006C233.156 276.8 233.715 277.933 234.681 278.8C235.648 279.65 236.856 280.075 238.306 280.075C239.29 280.075 240.156 279.875 240.906 279.475C241.656 279.058 242.231 278.5 242.631 277.8L243.731 278.45C243.215 279.317 242.473 280.008 241.506 280.525C240.556 281.025 239.481 281.275 238.281 281.275C236.348 281.275 234.773 280.667 233.556 279.45C232.323 278.217 231.706 276.65 231.706 274.75C231.706 272.883 232.306 271.333 233.506 270.1C234.74 268.85 236.298 268.225 238.181 268.225ZM238.181 269.425C236.781 269.425 235.598 269.867 234.631 270.75C233.681 271.633 233.14 272.775 233.006 274.175H243.056C242.923 272.692 242.39 271.533 241.456 270.7C240.523 269.85 239.431 269.425 238.181 269.425ZM245.19 268.5H255.54V269.725H250.99V281H249.74V269.725H245.19V268.5ZM256.618 279.3H258.168L256.818 284.5H255.668L256.618 279.3ZM276.574 274.925V268.5H277.849V281H276.574V276.1C275.474 276.65 274.207 276.925 272.774 276.925C271.174 276.925 269.941 276.55 269.074 275.8C268.207 275.05 267.774 273.975 267.774 272.575V268.5H269.024V272.575C269.024 274.675 270.257 275.725 272.724 275.725C274.074 275.725 275.357 275.458 276.574 274.925ZM280.102 268.5H290.452V269.725H285.902V281H284.652V269.725H280.102V268.5ZM297.949 281.275C296.116 281.275 294.558 280.65 293.274 279.4C292.008 278.133 291.374 276.583 291.374 274.75C291.374 272.917 292.008 271.375 293.274 270.125C294.541 268.858 296.099 268.225 297.949 268.225C299.766 268.225 301.308 268.858 302.574 270.125C303.858 271.375 304.499 272.917 304.499 274.75C304.499 276.567 303.858 278.117 302.574 279.4C301.291 280.65 299.749 281.275 297.949 281.275ZM294.174 278.525C295.208 279.558 296.466 280.075 297.949 280.075C299.416 280.075 300.666 279.558 301.699 278.525C302.716 277.508 303.224 276.25 303.224 274.75C303.224 273.25 302.716 271.992 301.699 270.975C300.666 269.942 299.416 269.425 297.949 269.425C296.466 269.425 295.208 269.942 294.174 270.975C293.158 271.992 292.649 273.25 292.649 274.75C292.649 276.25 293.158 277.508 294.174 278.525ZM323.223 274.15V268.5H324.498V281H323.223V275.35H315.423V281H314.173V268.5H315.423V274.15H323.223ZM333.157 279.625L337.507 268.5H338.857L333.457 282.15C332.957 283.4 332.265 284.375 331.382 285.075C330.499 285.775 329.54 286.083 328.507 286V284.825C329.29 284.892 330.007 284.667 330.657 284.15C331.307 283.633 331.832 282.883 332.232 281.9L332.507 281.225L326.757 268.5H328.107L333.157 279.625ZM349.032 274.5L354.932 281H353.382L347.857 274.85V281H346.582V274.85L341.057 281H339.507L345.432 274.5L339.757 268.5H341.307L346.582 274.15V268.5H347.857V274.15L353.132 268.5H354.682L349.032 274.5ZM366.484 274.15V268.5H367.759V281H366.484V275.35H358.684V281H357.434V268.5H358.684V274.15H366.484ZM377.344 281.275C375.511 281.275 373.952 280.65 372.669 279.4C371.402 278.133 370.769 276.583 370.769 274.75C370.769 272.917 371.402 271.375 372.669 270.125C373.936 268.858 375.494 268.225 377.344 268.225C379.161 268.225 380.702 268.858 381.969 270.125C383.252 271.375 383.894 272.917 383.894 274.75C383.894 276.567 383.252 278.117 381.969 279.4C380.686 280.65 379.144 281.275 377.344 281.275ZM373.569 278.525C374.602 279.558 375.861 280.075 377.344 280.075C378.811 280.075 380.061 279.558 381.094 278.525C382.111 277.508 382.619 276.25 382.619 274.75C382.619 273.25 382.111 271.992 381.094 270.975C380.061 269.942 378.811 269.425 377.344 269.425C375.861 269.425 374.602 269.942 373.569 270.975C372.552 271.992 372.044 273.25 372.044 274.75C372.044 276.25 372.552 277.508 373.569 278.525ZM399.567 274.55C400.317 274.8 400.9 275.2 401.317 275.75C401.734 276.3 401.942 276.933 401.942 277.65C401.942 278.7 401.525 279.567 400.692 280.25C399.875 280.933 398.759 281.275 397.342 281.275C394.842 281.275 393.217 280.292 392.467 278.325L393.542 277.7C394.075 279.283 395.342 280.075 397.342 280.075C398.375 280.075 399.184 279.85 399.767 279.4C400.367 278.933 400.667 278.325 400.667 277.575C400.667 276.892 400.417 276.342 399.917 275.925C399.417 275.492 398.75 275.275 397.917 275.275H396.192V274.05H397.442C398.259 274.05 398.9 273.842 399.367 273.425C399.834 273.008 400.067 272.45 400.067 271.75C400.067 271.083 399.792 270.533 399.242 270.1C398.709 269.65 398 269.425 397.117 269.425C395.417 269.425 394.292 270.1 393.742 271.45L392.692 270.85C393.059 270.033 393.617 269.392 394.367 268.925C395.117 268.458 396.034 268.225 397.117 268.225C398.384 268.225 399.4 268.567 400.167 269.25C400.934 269.917 401.317 270.733 401.317 271.7C401.317 273.05 400.734 274 399.567 274.55ZM415.7 271.325V268.5H416.975V281H415.7V278.175C415.15 279.142 414.408 279.9 413.475 280.45C412.542 281 411.492 281.275 410.325 281.275C408.558 281.275 407.033 280.65 405.75 279.4C404.483 278.133 403.85 276.583 403.85 274.75C403.85 272.917 404.483 271.375 405.75 270.125C407.017 268.858 408.542 268.225 410.325 268.225C411.492 268.225 412.542 268.5 413.475 269.05C414.408 269.6 415.15 270.358 415.7 271.325ZM406.65 278.525C407.683 279.558 408.942 280.075 410.425 280.075C411.892 280.075 413.142 279.558 414.175 278.525C415.192 277.508 415.7 276.25 415.7 274.75C415.7 273.25 415.192 271.992 414.175 270.975C413.142 269.942 411.892 269.425 410.425 269.425C408.942 269.425 407.683 269.942 406.65 270.975C405.633 271.992 405.125 273.25 405.125 274.75C405.125 276.25 405.633 277.508 406.65 278.525ZM423.413 274.5L430.388 281H428.688L422.063 274.85V281H420.813V268.5H422.063V274.175L428.388 268.5H430.138L423.413 274.5ZM442.653 271.325V268.5H443.928V281H442.653V278.175C442.103 279.142 441.361 279.9 440.428 280.45C439.495 281 438.445 281.275 437.278 281.275C435.511 281.275 433.986 280.65 432.703 279.4C431.436 278.133 430.803 276.583 430.803 274.75C430.803 272.917 431.436 271.375 432.703 270.125C433.97 268.858 435.495 268.225 437.278 268.225C438.445 268.225 439.495 268.5 440.428 269.05C441.361 269.6 442.103 270.358 442.653 271.325ZM433.603 278.525C434.636 279.558 435.895 280.075 437.378 280.075C438.845 280.075 440.095 279.558 441.128 278.525C442.145 277.508 442.653 276.25 442.653 274.75C442.653 273.25 442.145 271.992 441.128 270.975C440.095 269.942 438.845 269.425 437.378 269.425C435.895 269.425 434.636 269.942 433.603 270.975C432.586 271.992 432.078 273.25 432.078 274.75C432.078 276.25 432.586 277.508 433.603 278.525ZM453.766 274.55C454.516 274.8 455.1 275.2 455.516 275.75C455.933 276.3 456.141 276.933 456.141 277.65C456.141 278.7 455.725 279.567 454.891 280.25C454.075 280.933 452.958 281.275 451.541 281.275C449.041 281.275 447.416 280.292 446.666 278.325L447.741 277.7C448.275 279.283 449.541 280.075 451.541 280.075C452.575 280.075 453.383 279.85 453.966 279.4C454.566 278.933 454.866 278.325 454.866 277.575C454.866 276.892 454.616 276.342 454.116 275.925C453.616 275.492 452.95 275.275 452.116 275.275H450.391V274.05H451.641C452.458 274.05 453.1 273.842 453.566 273.425C454.033 273.008 454.266 272.45 454.266 271.75C454.266 271.083 453.991 270.533 453.441 270.1C452.908 269.65 452.2 269.425 451.316 269.425C449.616 269.425 448.491 270.1 447.941 271.45L446.891 270.85C447.258 270.033 447.816 269.392 448.566 268.925C449.316 268.458 450.233 268.225 451.316 268.225C452.583 268.225 453.6 268.567 454.366 269.25C455.133 269.917 455.516 270.733 455.516 271.7C455.516 273.05 454.933 274 453.766 274.55ZM466.955 274.925V268.5H468.23V281H466.955V276.1C465.855 276.65 464.588 276.925 463.155 276.925C461.555 276.925 460.322 276.55 459.455 275.8C458.588 275.05 458.155 273.975 458.155 272.575V268.5H459.405V272.575C459.405 274.675 460.638 275.725 463.105 275.725C464.455 275.725 465.738 275.458 466.955 274.925ZM473.333 278.825L481.308 268.5H482.408V281H481.133V270.675L473.183 281H472.083V268.5H473.333V278.825ZM488.867 274.5L495.842 281H494.142L487.517 274.85V281H486.267V268.5H487.517V274.175L493.842 268.5H495.592L488.867 274.5ZM502.664 279.625L507.014 268.5H508.364L502.964 282.15C502.464 283.4 501.772 284.375 500.889 285.075C500.006 285.775 499.047 286.083 498.014 286V284.825C498.797 284.892 499.514 284.667 500.164 284.15C500.814 283.633 501.339 282.883 501.739 281.9L502.014 281.225L496.264 268.5H497.614L502.664 279.625ZM510.237 280.125C510.237 280.442 510.129 280.708 509.912 280.925C509.695 281.142 509.429 281.25 509.112 281.25C508.795 281.25 508.529 281.142 508.312 280.925C508.095 280.708 507.987 280.442 507.987 280.125C507.987 279.808 508.095 279.542 508.312 279.325C508.529 279.108 508.795 279 509.112 279C509.429 279 509.695 279.108 509.912 279.325C510.129 279.542 510.237 279.808 510.237 280.125Z" fill="#261911"/>
<path d="M194.409 385.375H179.284V383.275H194.409V385.375ZM204.406 374.5H210.756C212.356 374.5 213.697 375.042 214.781 376.125C215.864 377.208 216.406 378.542 216.406 380.125C216.406 381.708 215.864 383.042 214.781 384.125C213.697 385.208 212.356 385.75 210.756 385.75H206.731V392H204.406V374.5ZM206.731 383.575H210.756C211.739 383.575 212.539 383.25 213.156 382.6C213.789 381.917 214.106 381.092 214.106 380.125C214.106 379.125 213.789 378.3 213.156 377.65C212.522 377 211.722 376.675 210.756 376.675H206.731V383.575ZM228.525 390.425C227.258 391.692 225.7 392.325 223.85 392.325C222 392.325 220.441 391.692 219.175 390.425C217.908 389.158 217.275 387.6 217.275 385.75C217.275 383.9 217.908 382.342 219.175 381.075C220.441 379.808 222 379.175 223.85 379.175C225.7 379.175 227.258 379.808 228.525 381.075C229.808 382.358 230.45 383.917 230.45 385.75C230.45 387.583 229.808 389.142 228.525 390.425ZM223.85 390.2C225.1 390.2 226.15 389.775 227 388.925C227.85 388.075 228.275 387.017 228.275 385.75C228.275 384.483 227.85 383.425 227 382.575C226.15 381.725 225.1 381.3 223.85 381.3C222.616 381.3 221.575 381.725 220.725 382.575C219.875 383.425 219.45 384.483 219.45 385.75C219.45 387.017 219.875 388.075 220.725 388.925C221.575 389.775 222.616 390.2 223.85 390.2ZM243.189 379.5H245.514V392H243.389V382.925L239.414 389.325H239.139L235.164 382.925V392H233.014V379.5H235.339L239.264 385.825L243.189 379.5ZM259.184 381.65V379.5H261.359V392H259.184V389.85C258.117 391.5 256.542 392.325 254.459 392.325C252.692 392.325 251.201 391.692 249.984 390.425C248.751 389.142 248.134 387.583 248.134 385.75C248.134 383.933 248.751 382.383 249.984 381.1C251.217 379.817 252.709 379.175 254.459 379.175C256.542 379.175 258.117 380 259.184 381.65ZM254.734 390.225C256.001 390.225 257.059 389.8 257.909 388.95C258.759 388.067 259.184 387 259.184 385.75C259.184 384.483 258.759 383.425 257.909 382.575C257.059 381.708 256.001 381.275 254.734 381.275C253.484 381.275 252.434 381.708 251.584 382.575C250.734 383.425 250.309 384.483 250.309 385.75C250.309 387 250.734 388.067 251.584 388.95C252.434 389.8 253.484 390.225 254.734 390.225ZM273.304 384.7V379.5H275.479V392H273.304V386.775H266.829V392H264.654V379.5H266.829V384.7H273.304ZM279.54 389.425H282.04L280.415 395.5H278.54L279.54 389.425Z" fill="#261911"/>
<path d="M297.238 392.325C295.605 392.325 294.205 391.95 293.038 391.2C291.888 390.433 291.08 389.375 290.613 388.025L292.613 386.875C293.28 388.992 294.838 390.05 297.288 390.05C298.472 390.05 299.38 389.808 300.013 389.325C300.663 388.842 300.988 388.183 300.988 387.35C300.988 386.533 300.672 385.908 300.038 385.475C299.472 385.092 298.413 384.65 296.863 384.15L295.188 383.6C294.822 383.45 294.338 383.233 293.738 382.95C293.155 382.65 292.73 382.35 292.463 382.05C291.73 381.25 291.363 380.275 291.363 379.125C291.363 377.592 291.897 376.392 292.963 375.525C294.03 374.625 295.33 374.175 296.863 374.175C298.23 374.175 299.43 374.517 300.463 375.2C301.497 375.883 302.272 376.817 302.788 378L300.838 379.125C300.088 377.325 298.763 376.425 296.863 376.425C295.913 376.425 295.147 376.658 294.563 377.125C293.98 377.592 293.688 378.225 293.688 379.025C293.688 379.792 293.963 380.375 294.513 380.775C295.08 381.192 296.03 381.608 297.363 382.025L298.388 382.35C298.955 382.567 299.263 382.683 299.313 382.7C299.847 382.9 300.43 383.175 301.063 383.525C301.513 383.775 301.963 384.158 302.413 384.675C302.997 385.258 303.288 386.133 303.288 387.3C303.288 388.833 302.73 390.058 301.613 390.975C300.48 391.875 299.022 392.325 297.238 392.325ZM310.669 383L318.644 392H315.794L308.244 383.6V392H305.919V374.5H308.244V382.4L315.544 374.5H318.394L310.669 383ZM335.032 392H332.557L331.132 388.075H323.257L321.832 392H319.357L325.882 374.5H328.507L335.032 392ZM327.182 377.275L324.057 385.9H330.332L327.182 377.275ZM347.971 387.55V374.5H350.296V392H348.421L339.421 378.925V392H337.096V374.5H338.971L347.971 387.55ZM354.04 374.5H360.865C363.231 374.5 365.206 375.35 366.79 377.05C368.373 378.733 369.165 380.8 369.165 383.25C369.165 385.683 368.373 387.758 366.79 389.475C365.206 391.158 363.231 392 360.865 392H354.04V374.5ZM356.365 389.8H360.865C362.648 389.8 364.106 389.175 365.24 387.925C366.373 386.658 366.94 385.1 366.94 383.25C366.94 381.4 366.373 379.842 365.24 378.575C364.106 377.325 362.648 376.7 360.865 376.7H356.365V389.8ZM371.984 392V374.5H374.309V392H371.984ZM390.788 392H388.088L383.063 374.5H385.513L389.513 388.9L393.763 374.5H396.113L400.363 388.9L404.363 374.5H406.813L401.788 392H399.088L394.938 378.025L390.788 392ZM407.607 383.25C407.607 380.717 408.482 378.575 410.232 376.825C411.982 375.058 414.123 374.175 416.657 374.175C419.19 374.175 421.332 375.058 423.082 376.825C424.848 378.575 425.732 380.717 425.732 383.25C425.732 385.767 424.848 387.908 423.082 389.675C421.332 391.442 419.19 392.325 416.657 392.325C414.123 392.325 411.982 391.442 410.232 389.675C408.482 387.892 407.607 385.75 407.607 383.25ZM423.407 383.25C423.407 381.317 422.757 379.7 421.457 378.4C420.19 377.083 418.59 376.425 416.657 376.425C414.74 376.425 413.132 377.083 411.832 378.4C410.548 379.717 409.907 381.333 409.907 383.25C409.907 385.15 410.548 386.767 411.832 388.1C413.132 389.4 414.74 390.05 416.657 390.05C418.59 390.05 420.19 389.4 421.457 388.1C422.757 386.767 423.407 385.15 423.407 383.25ZM427.602 383.25C427.602 380.717 428.477 378.575 430.227 376.825C431.977 375.058 434.119 374.175 436.652 374.175C439.185 374.175 441.327 375.058 443.077 376.825C444.844 378.575 445.727 380.717 445.727 383.25C445.727 385.767 444.844 387.908 443.077 389.675C441.327 391.442 439.185 392.325 436.652 392.325C434.119 392.325 431.977 391.442 430.227 389.675C428.477 387.892 427.602 385.75 427.602 383.25ZM443.402 383.25C443.402 381.317 442.752 379.7 441.452 378.4C440.185 377.083 438.585 376.425 436.652 376.425C434.735 376.425 433.127 377.083 431.827 378.4C430.544 379.717 429.902 381.333 429.902 383.25C429.902 385.15 430.544 386.767 431.827 388.1C433.127 389.4 434.735 390.05 436.652 390.05C438.585 390.05 440.185 389.4 441.452 388.1C442.752 386.767 443.402 385.15 443.402 383.25ZM448.522 374.5H455.347C457.714 374.5 459.689 375.35 461.272 377.05C462.855 378.733 463.647 380.8 463.647 383.25C463.647 385.683 462.855 387.758 461.272 389.475C459.689 391.158 457.714 392 455.347 392H448.522V374.5ZM450.847 389.8H455.347C457.13 389.8 458.589 389.175 459.722 387.925C460.855 386.658 461.422 385.1 461.422 383.25C461.422 381.4 460.855 379.842 459.722 378.575C458.589 377.325 457.13 376.7 455.347 376.7H450.847V389.8Z" fill="#FDB75E"/>
<defs>
<filter id="filter0_d" x="0.391088" y="0.391088" width="639.624" height="479.718" filterUnits="userSpaceOnUse" color-interpolation-filters="sRGB">
<feFlood flood-opacity="0" result="BackgroundImageFix"/>
<feColorMatrix in="SourceAlpha" type="matrix" values="0 0 0 0 0 0 0 0 0 0 0 0 0 0 0 0 0 0 127 0" result="hardAlpha"/>
<feOffset dx="7.20297" dy="7.20297"/>
<feGaussianBlur stdDeviation="14.4059"/>
<feComposite in2="hardAlpha" operator="out"/>
<feColorMatrix type="matrix" values="0 0 0 0 0 0 0 0 0 0 0 0 0 0 0 0 0 0 0.08 0"/>
<feBlend mode="normal" in2="BackgroundImageFix" result="effect1_dropShadow"/>
<feBlend mode="normal" in="SourceGraphic" in2="effect1_dropShadow" result="shape"/>
</filter>
<clipPath id="clip0">
<rect width="67" height="67" fill="white" transform="translate(52 62)"/>
</clipPath>
</defs>
</svg>
