<svg width="641" height="481" viewBox="0 0 641 481" fill="none" xmlns="http://www.w3.org/2000/svg">
<g filter="url(#filter0_d)">
<rect x="22" y="22" width="582" height="422.094" rx="7.20297" fill="white"/>
</g>
<g opacity="0.7" clip-path="url(#clip0)">
<path d="M52.0142 108.933C52.0142 117.741 59.1547 124.882 67.9632 124.882C76.7719 124.882 83.9123 117.741 83.9123 108.933C83.9123 100.124 76.7719 92.9837 67.9632 92.9837C66.1529 92.9837 64.42 93.2993 62.7978 93.8555C66.387 73.2704 82.4394 59.9954 67.5589 70.921C51.0587 83.0363 51.9966 108.445 52.015 108.911C52.015 108.918 52.0142 108.925 52.0142 108.933Z" fill="#FDB75E"/>
<path d="M87.1019 108.933C87.1019 117.741 94.2423 124.882 103.051 124.882C111.86 124.882 119 117.741 119 108.933C119 100.124 111.86 92.9837 103.051 92.9837C101.24 92.9837 99.5077 93.2993 97.8855 93.8555C101.475 73.2704 117.527 59.9954 102.647 70.921C86.1463 83.0363 87.0841 108.445 87.1027 108.911C87.1027 108.918 87.1019 108.925 87.1019 108.933Z" fill="#FDB75E"/>
</g>
<path d="M136.723 96.925C137.64 97.275 138.365 97.8333 138.898 98.6C139.448 99.3667 139.723 100.242 139.723 101.225C139.723 102.542 139.256 103.667 138.323 104.6C137.39 105.533 136.265 106 134.948 106H127.398V88.5H134.373C135.64 88.5 136.723 88.95 137.623 89.85C138.523 90.75 138.973 91.8333 138.973 93.1C138.973 93.9333 138.773 94.6917 138.373 95.375C137.973 96.0417 137.423 96.5583 136.723 96.925ZM134.373 89.75H128.723V96.45H134.373C135.273 96.45 136.04 96.125 136.673 95.475C137.323 94.7917 137.648 94 137.648 93.1C137.648 92.1833 137.323 91.4 136.673 90.75C136.056 90.0833 135.29 89.75 134.373 89.75ZM128.723 104.75H134.948C135.881 104.75 136.69 104.408 137.373 103.725C138.056 103.008 138.398 102.175 138.398 101.225C138.398 100.258 138.056 99.4333 137.373 98.75C136.706 98.05 135.898 97.7 134.948 97.7H128.723V104.75ZM153.724 96.325V93.5H154.999V106H153.724V103.175C153.174 104.142 152.433 104.9 151.499 105.45C150.566 106 149.516 106.275 148.349 106.275C146.583 106.275 145.058 105.65 143.774 104.4C142.508 103.133 141.874 101.583 141.874 99.75C141.874 97.9167 142.508 96.375 143.774 95.125C145.041 93.8583 146.566 93.225 148.349 93.225C149.516 93.225 150.566 93.5 151.499 94.05C152.433 94.6 153.174 95.3583 153.724 96.325ZM144.674 103.525C145.708 104.558 146.966 105.075 148.449 105.075C149.916 105.075 151.166 104.558 152.199 103.525C153.216 102.508 153.724 101.25 153.724 99.75C153.724 98.25 153.216 96.9917 152.199 95.975C151.166 94.9417 149.916 94.425 148.449 94.425C146.966 94.425 145.708 94.9417 144.674 95.975C143.658 96.9917 143.149 98.25 143.149 99.75C143.149 101.25 143.658 102.508 144.674 103.525ZM160.188 93.5H168.988V106H167.738V94.725H161.438V100.75C161.438 102.717 161.079 104.108 160.363 104.925C159.646 105.742 158.604 106.1 157.238 106V104.825C158.254 104.908 158.996 104.633 159.463 104C159.946 103.367 160.188 102.283 160.188 100.75V93.5ZM178.452 93.225C180.285 93.225 181.769 93.875 182.902 95.175C184.052 96.475 184.627 98.0167 184.627 99.8C184.627 99.8333 184.619 99.9333 184.602 100.1C184.602 100.267 184.602 100.367 184.602 100.4H173.277C173.427 101.8 173.985 102.933 174.952 103.8C175.919 104.65 177.127 105.075 178.577 105.075C179.56 105.075 180.427 104.875 181.177 104.475C181.927 104.058 182.502 103.5 182.902 102.8L184.002 103.45C183.485 104.317 182.744 105.008 181.777 105.525C180.827 106.025 179.752 106.275 178.552 106.275C176.619 106.275 175.044 105.667 173.827 104.45C172.594 103.217 171.977 101.65 171.977 99.75C171.977 97.8833 172.577 96.3333 173.777 95.1C175.01 93.85 176.569 93.225 178.452 93.225ZM178.452 94.425C177.052 94.425 175.869 94.8667 174.902 95.75C173.952 96.6333 173.41 97.775 173.277 99.175H183.327C183.194 97.6917 182.66 96.5333 181.727 95.7C180.794 94.85 179.702 94.425 178.452 94.425ZM194.174 93.225C195.974 93.225 197.499 93.8583 198.749 95.125C200.015 96.375 200.649 97.9167 200.649 99.75C200.649 101.583 200.015 103.133 198.749 104.4C197.499 105.65 195.974 106.275 194.174 106.275C192.99 106.275 191.924 106 190.974 105.45C190.04 104.883 189.315 104.1 188.799 103.1V111H187.549V93.5H188.799V96.4C189.315 95.4 190.04 94.625 190.974 94.075C191.924 93.5083 192.99 93.225 194.174 93.225ZM190.324 103.525C191.357 104.558 192.615 105.075 194.099 105.075C195.565 105.075 196.815 104.558 197.849 103.525C198.882 102.492 199.399 101.233 199.399 99.75C199.399 98.2667 198.882 97.0083 197.849 95.975C196.815 94.9417 195.565 94.425 194.099 94.425C192.615 94.425 191.357 94.9417 190.324 95.975C189.307 96.9917 188.799 98.25 188.799 99.75C188.799 101.25 189.307 102.508 190.324 103.525ZM204.912 103.825L212.887 93.5H213.987V106H212.712V95.675L204.762 106H203.662V93.5H204.912V103.825ZM221.546 93.5H226.496V106H225.246V101.125H222.546L218.621 106H216.996L220.996 101.1C219.963 100.983 219.105 100.575 218.421 99.875C217.755 99.175 217.421 98.325 217.421 97.325C217.421 96.2083 217.821 95.2917 218.621 94.575C219.405 93.8583 220.38 93.5 221.546 93.5ZM221.546 99.925H225.246V94.725H221.546C220.73 94.725 220.046 94.975 219.496 95.475C218.963 95.9583 218.696 96.575 218.696 97.325C218.696 98.1083 218.963 98.7417 219.496 99.225C220.046 99.6917 220.73 99.925 221.546 99.925ZM237.011 93.5H247.336V106H246.061V94.725H238.261V106H237.011V93.5ZM257.821 93.225C259.621 93.225 261.146 93.8583 262.396 95.125C263.663 96.375 264.296 97.9167 264.296 99.75C264.296 101.583 263.663 103.133 262.396 104.4C261.146 105.65 259.621 106.275 257.821 106.275C256.638 106.275 255.571 106 254.621 105.45C253.688 104.883 252.963 104.1 252.446 103.1V111H251.196V93.5H252.446V96.4C252.963 95.4 253.688 94.625 254.621 94.075C255.571 93.5083 256.638 93.225 257.821 93.225ZM253.971 103.525C255.004 104.558 256.263 105.075 257.746 105.075C259.213 105.075 260.463 104.558 261.496 103.525C262.529 102.492 263.046 101.233 263.046 99.75C263.046 98.2667 262.529 97.0083 261.496 95.975C260.463 94.9417 259.213 94.425 257.746 94.425C256.263 94.425 255.004 94.9417 253.971 95.975C252.954 96.9917 252.446 98.25 252.446 99.75C252.446 101.25 252.954 102.508 253.971 103.525ZM272.934 93.225C274.768 93.225 276.251 93.875 277.384 95.175C278.534 96.475 279.109 98.0167 279.109 99.8C279.109 99.8333 279.101 99.9333 279.084 100.1C279.084 100.267 279.084 100.367 279.084 100.4H267.759C267.909 101.8 268.468 102.933 269.434 103.8C270.401 104.65 271.609 105.075 273.059 105.075C274.043 105.075 274.909 104.875 275.659 104.475C276.409 104.058 276.984 103.5 277.384 102.8L278.484 103.45C277.968 104.317 277.226 105.008 276.259 105.525C275.309 106.025 274.234 106.275 273.034 106.275C271.101 106.275 269.526 105.667 268.309 104.45C267.076 103.217 266.459 101.65 266.459 99.75C266.459 97.8833 267.059 96.3333 268.259 95.1C269.493 93.85 271.051 93.225 272.934 93.225ZM272.934 94.425C271.534 94.425 270.351 94.8667 269.384 95.75C268.434 96.6333 267.893 97.775 267.759 99.175H277.809C277.676 97.6917 277.143 96.5333 276.209 95.7C275.276 94.85 274.184 94.425 272.934 94.425ZM284.631 99.5L291.606 106H289.906L283.281 99.85V106H282.031V93.5H283.281V99.175L289.606 93.5H291.356L284.631 99.5ZM300.741 93.225C302.541 93.225 304.066 93.8583 305.316 95.125C306.583 96.375 307.216 97.9167 307.216 99.75C307.216 101.583 306.583 103.133 305.316 104.4C304.066 105.65 302.541 106.275 300.741 106.275C299.558 106.275 298.491 106 297.541 105.45C296.608 104.883 295.883 104.1 295.366 103.1V111H294.116V93.5H295.366V96.4C295.883 95.4 296.608 94.625 297.541 94.075C298.491 93.5083 299.558 93.225 300.741 93.225ZM296.891 103.525C297.924 104.558 299.183 105.075 300.666 105.075C302.133 105.075 303.383 104.558 304.416 103.525C305.449 102.492 305.966 101.233 305.966 99.75C305.966 98.2667 305.449 97.0083 304.416 95.975C303.383 94.9417 302.133 94.425 300.666 94.425C299.183 94.425 297.924 94.9417 296.891 95.975C295.874 96.9917 295.366 98.25 295.366 99.75C295.366 101.25 295.874 102.508 296.891 103.525ZM321.229 96.325V93.5H322.504V106H321.229V103.175C320.679 104.142 319.938 104.9 319.004 105.45C318.071 106 317.021 106.275 315.854 106.275C314.088 106.275 312.563 105.65 311.279 104.4C310.013 103.133 309.379 101.583 309.379 99.75C309.379 97.9167 310.013 96.375 311.279 95.125C312.546 93.8583 314.071 93.225 315.854 93.225C317.021 93.225 318.071 93.5 319.004 94.05C319.938 94.6 320.679 95.3583 321.229 96.325ZM312.179 103.525C313.213 104.558 314.471 105.075 315.954 105.075C317.421 105.075 318.671 104.558 319.704 103.525C320.721 102.508 321.229 101.25 321.229 99.75C321.229 98.25 320.721 96.9917 319.704 95.975C318.671 94.9417 317.421 94.425 315.954 94.425C314.471 94.425 313.213 94.9417 312.179 95.975C311.163 96.9917 310.654 98.25 310.654 99.75C310.654 101.25 311.163 102.508 312.179 103.525ZM332.067 106.275C330.184 106.275 328.617 105.65 327.367 104.4C326.117 103.15 325.492 101.6 325.492 99.75C325.492 97.9 326.117 96.35 327.367 95.1C328.617 93.85 330.184 93.225 332.067 93.225C333.284 93.225 334.384 93.5167 335.367 94.1C336.351 94.6667 337.067 95.4417 337.517 96.425L336.492 97.025C336.126 96.225 335.542 95.5917 334.742 95.125C333.959 94.6583 333.067 94.425 332.067 94.425C330.584 94.425 329.326 94.9417 328.292 95.975C327.276 96.9917 326.767 98.25 326.767 99.75C326.767 101.267 327.276 102.533 328.292 103.55C329.309 104.567 330.567 105.075 332.067 105.075C333.067 105.075 333.959 104.842 334.742 104.375C335.542 103.908 336.151 103.275 336.567 102.475L337.617 103.1C337.117 104.067 336.367 104.842 335.367 105.425C334.367 105.992 333.267 106.275 332.067 106.275ZM349.406 99.15V93.5H350.681V106H349.406V100.35H341.606V106H340.356V93.5H341.606V99.15H349.406ZM360.266 106.275C358.432 106.275 356.874 105.65 355.591 104.4C354.324 103.133 353.691 101.583 353.691 99.75C353.691 97.9167 354.324 96.375 355.591 95.125C356.857 93.8583 358.416 93.225 360.266 93.225C362.082 93.225 363.624 93.8583 364.891 95.125C366.174 96.375 366.816 97.9167 366.816 99.75C366.816 101.567 366.174 103.117 364.891 104.4C363.607 105.65 362.066 106.275 360.266 106.275ZM356.491 103.525C357.524 104.558 358.782 105.075 360.266 105.075C361.732 105.075 362.982 104.558 364.016 103.525C365.032 102.508 365.541 101.25 365.541 99.75C365.541 98.25 365.032 96.9917 364.016 95.975C362.982 94.9417 361.732 94.425 360.266 94.425C358.782 94.425 357.524 94.9417 356.491 95.975C355.474 96.9917 354.966 98.25 354.966 99.75C354.966 101.25 355.474 102.508 356.491 103.525ZM382.214 106.275C380.331 106.275 378.764 105.65 377.514 104.4C376.264 103.15 375.639 101.6 375.639 99.75C375.639 97.9 376.264 96.35 377.514 95.1C378.764 93.85 380.331 93.225 382.214 93.225C383.431 93.225 384.531 93.5167 385.514 94.1C386.497 94.6667 387.214 95.4417 387.664 96.425L386.639 97.025C386.272 96.225 385.689 95.5917 384.889 95.125C384.106 94.6583 383.214 94.425 382.214 94.425C380.731 94.425 379.472 94.9417 378.439 95.975C377.422 96.9917 376.914 98.25 376.914 99.75C376.914 101.267 377.422 102.533 378.439 103.55C379.456 104.567 380.714 105.075 382.214 105.075C383.214 105.075 384.106 104.842 384.889 104.375C385.689 103.908 386.297 103.275 386.714 102.475L387.764 103.1C387.264 104.067 386.514 104.842 385.514 105.425C384.514 105.992 383.414 106.275 382.214 106.275ZM390.503 93.5H400.828V106H399.553V94.725H391.753V106H390.503V93.5ZM411.312 93.225C413.112 93.225 414.637 93.8583 415.887 95.125C417.154 96.375 417.787 97.9167 417.787 99.75C417.787 101.583 417.154 103.133 415.887 104.4C414.637 105.65 413.112 106.275 411.312 106.275C410.129 106.275 409.062 106 408.112 105.45C407.179 104.883 406.454 104.1 405.937 103.1V111H404.687V93.5H405.937V96.4C406.454 95.4 407.179 94.625 408.112 94.075C409.062 93.5083 410.129 93.225 411.312 93.225ZM407.462 103.525C408.496 104.558 409.754 105.075 411.237 105.075C412.704 105.075 413.954 104.558 414.987 103.525C416.021 102.492 416.537 101.233 416.537 99.75C416.537 98.2667 416.021 97.0083 414.987 95.975C413.954 94.9417 412.704 94.425 411.237 94.425C409.754 94.425 408.496 94.9417 407.462 95.975C406.446 96.9917 405.937 98.25 405.937 99.75C405.937 101.25 406.446 102.508 407.462 103.525ZM431.8 96.325V93.5H433.075V106H431.8V103.175C431.25 104.142 430.509 104.9 429.575 105.45C428.642 106 427.592 106.275 426.425 106.275C424.659 106.275 423.134 105.65 421.85 104.4C420.584 103.133 419.95 101.583 419.95 99.75C419.95 97.9167 420.584 96.375 421.85 95.125C423.117 93.8583 424.642 93.225 426.425 93.225C427.592 93.225 428.642 93.5 429.575 94.05C430.509 94.6 431.25 95.3583 431.8 96.325ZM422.75 103.525C423.784 104.558 425.042 105.075 426.525 105.075C427.992 105.075 429.242 104.558 430.275 103.525C431.292 102.508 431.8 101.25 431.8 99.75C431.8 98.25 431.292 96.9917 430.275 95.975C429.242 94.9417 427.992 94.425 426.525 94.425C425.042 94.425 423.784 94.9417 422.75 95.975C421.734 96.9917 421.225 98.25 421.225 99.75C421.225 101.25 421.734 102.508 422.75 103.525ZM444.614 99.55C446.08 100.017 446.814 101.017 446.814 102.55C446.814 103.583 446.472 104.417 445.789 105.05C445.122 105.683 444.18 106 442.964 106H436.914V93.5H442.489C443.655 93.5 444.564 93.8083 445.214 94.425C445.88 95.025 446.214 95.8083 446.214 96.775C446.214 98.1083 445.68 99.0333 444.614 99.55ZM442.489 94.725H438.164V99.05H442.489C443.289 99.05 443.897 98.8583 444.314 98.475C444.73 98.0917 444.939 97.55 444.939 96.85C444.939 96.1833 444.722 95.6667 444.289 95.3C443.872 94.9167 443.272 94.725 442.489 94.725ZM438.164 104.775H442.964C443.797 104.775 444.439 104.575 444.889 104.175C445.339 103.775 445.564 103.217 445.564 102.5C445.564 101.8 445.33 101.258 444.864 100.875C444.414 100.475 443.78 100.275 442.964 100.275H438.164V104.775ZM450.835 103.825L458.81 93.5H459.91V106H458.635V95.675L450.685 106H449.585V93.5H450.835V103.825ZM465.119 93.5H473.919V106H472.669V94.725H466.369V100.75C466.369 102.717 466.011 104.108 465.294 104.925C464.578 105.742 463.536 106.1 462.169 106V104.825C463.186 104.908 463.928 104.633 464.394 104C464.878 103.367 465.119 102.283 465.119 100.75V93.5ZM488.758 96.325V93.5H490.033V106H488.758V103.175C488.208 104.142 487.467 104.9 486.533 105.45C485.6 106 484.55 106.275 483.383 106.275C481.617 106.275 480.092 105.65 478.808 104.4C477.542 103.133 476.908 101.583 476.908 99.75C476.908 97.9167 477.542 96.375 478.808 95.125C480.075 93.8583 481.6 93.225 483.383 93.225C484.55 93.225 485.6 93.5 486.533 94.05C487.467 94.6 488.208 95.3583 488.758 96.325ZM479.708 103.525C480.742 104.558 482 105.075 483.483 105.075C484.95 105.075 486.2 104.558 487.233 103.525C488.25 102.508 488.758 101.25 488.758 99.75C488.758 98.25 488.25 96.9917 487.233 95.975C486.2 94.9417 484.95 94.425 483.483 94.425C482 94.425 480.742 94.9417 479.708 95.975C478.692 96.9917 478.183 98.25 478.183 99.75C478.183 101.25 478.692 102.508 479.708 103.525ZM499.597 106.275C497.713 106.275 496.147 105.65 494.897 104.4C493.647 103.15 493.022 101.6 493.022 99.75C493.022 97.9 493.647 96.35 494.897 95.1C496.147 93.85 497.713 93.225 499.597 93.225C500.813 93.225 501.913 93.5167 502.897 94.1C503.88 94.6667 504.597 95.4417 505.047 96.425L504.022 97.025C503.655 96.225 503.072 95.5917 502.272 95.125C501.488 94.6583 500.597 94.425 499.597 94.425C498.113 94.425 496.855 94.9417 495.822 95.975C494.805 96.9917 494.297 98.25 494.297 99.75C494.297 101.267 494.805 102.533 495.822 103.55C496.838 104.567 498.097 105.075 499.597 105.075C500.597 105.075 501.488 104.842 502.272 104.375C503.072 103.908 503.68 103.275 504.097 102.475L505.147 103.1C504.647 104.067 503.897 104.842 502.897 105.425C501.897 105.992 500.797 106.275 499.597 106.275ZM509.135 98.35H512.835C514.002 98.35 514.977 98.7083 515.76 99.425C516.56 100.142 516.96 101.058 516.96 102.175C516.96 103.292 516.56 104.208 515.76 104.925C514.977 105.642 514.002 106 512.835 106H507.885V93.5H509.135V98.35ZM509.135 104.775H512.835C513.652 104.775 514.327 104.533 514.86 104.05C515.41 103.55 515.685 102.925 515.685 102.175C515.685 101.392 515.41 100.767 514.86 100.3C514.327 99.8167 513.652 99.575 512.835 99.575H509.135V104.775ZM112.097 141.275C110.213 141.275 108.647 140.65 107.397 139.4C106.147 138.15 105.522 136.6 105.522 134.75C105.522 132.9 106.147 131.35 107.397 130.1C108.647 128.85 110.213 128.225 112.097 128.225C113.313 128.225 114.413 128.517 115.397 129.1C116.38 129.667 117.097 130.442 117.547 131.425L116.522 132.025C116.155 131.225 115.572 130.592 114.772 130.125C113.988 129.658 113.097 129.425 112.097 129.425C110.613 129.425 109.355 129.942 108.322 130.975C107.305 131.992 106.797 133.25 106.797 134.75C106.797 136.267 107.305 137.533 108.322 138.55C109.338 139.567 110.597 140.075 112.097 140.075C113.097 140.075 113.988 139.842 114.772 139.375C115.572 138.908 116.18 138.275 116.597 137.475L117.647 138.1C117.147 139.067 116.397 139.842 115.397 140.425C114.397 140.992 113.297 141.275 112.097 141.275ZM127.05 128.5H137.375V141H136.1V129.725H128.3V141H127.05V128.5ZM146.96 141.275C145.127 141.275 143.568 140.65 142.285 139.4C141.018 138.133 140.385 136.583 140.385 134.75C140.385 132.917 141.018 131.375 142.285 130.125C143.552 128.858 145.11 128.225 146.96 128.225C148.777 128.225 150.318 128.858 151.585 130.125C152.868 131.375 153.51 132.917 153.51 134.75C153.51 136.567 152.868 138.117 151.585 139.4C150.302 140.65 148.76 141.275 146.96 141.275ZM143.185 138.525C144.218 139.558 145.477 140.075 146.96 140.075C148.427 140.075 149.677 139.558 150.71 138.525C151.727 137.508 152.235 136.25 152.235 134.75C152.235 133.25 151.727 131.992 150.71 130.975C149.677 129.942 148.427 129.425 146.96 129.425C145.477 129.425 144.218 129.942 143.185 130.975C142.168 131.992 141.66 133.25 141.66 134.75C141.66 136.25 142.168 137.508 143.185 138.525ZM162.243 141.275C160.36 141.275 158.793 140.65 157.543 139.4C156.293 138.15 155.668 136.6 155.668 134.75C155.668 132.9 156.293 131.35 157.543 130.1C158.793 128.85 160.36 128.225 162.243 128.225C163.46 128.225 164.56 128.517 165.543 129.1C166.527 129.667 167.243 130.442 167.693 131.425L166.668 132.025C166.302 131.225 165.718 130.592 164.918 130.125C164.135 129.658 163.243 129.425 162.243 129.425C160.76 129.425 159.502 129.942 158.468 130.975C157.452 131.992 156.943 133.25 156.943 134.75C156.943 136.267 157.452 137.533 158.468 138.55C159.485 139.567 160.743 140.075 162.243 140.075C163.243 140.075 164.135 139.842 164.918 139.375C165.718 138.908 166.327 138.275 166.743 137.475L167.793 138.1C167.293 139.067 166.543 139.842 165.543 140.425C164.543 140.992 163.443 141.275 162.243 141.275ZM168.688 128.5H179.038V129.725H174.488V141H173.238V129.725H168.688V128.5ZM191.81 131.325V128.5H193.085V141H191.81V138.175C191.26 139.142 190.519 139.9 189.585 140.45C188.652 141 187.602 141.275 186.435 141.275C184.669 141.275 183.144 140.65 181.86 139.4C180.594 138.133 179.96 136.583 179.96 134.75C179.96 132.917 180.594 131.375 181.86 130.125C183.127 128.858 184.652 128.225 186.435 128.225C187.602 128.225 188.652 128.5 189.585 129.05C190.519 129.6 191.26 130.358 191.81 131.325ZM182.76 138.525C183.794 139.558 185.052 140.075 186.535 140.075C188.002 140.075 189.252 139.558 190.285 138.525C191.302 137.508 191.81 136.25 191.81 134.75C191.81 133.25 191.302 131.992 190.285 130.975C189.252 129.942 188.002 129.425 186.535 129.425C185.052 129.425 183.794 129.942 182.76 130.975C181.744 131.992 181.235 133.25 181.235 134.75C181.235 136.25 181.744 137.508 182.76 138.525ZM204.624 134.55C206.09 135.017 206.824 136.017 206.824 137.55C206.824 138.583 206.482 139.417 205.799 140.05C205.132 140.683 204.19 141 202.974 141H196.924V128.5H202.499C203.665 128.5 204.574 128.808 205.224 129.425C205.89 130.025 206.224 130.808 206.224 131.775C206.224 133.108 205.69 134.033 204.624 134.55ZM202.499 129.725H198.174V134.05H202.499C203.299 134.05 203.907 133.858 204.324 133.475C204.74 133.092 204.949 132.55 204.949 131.85C204.949 131.183 204.732 130.667 204.299 130.3C203.882 129.917 203.282 129.725 202.499 129.725ZM198.174 139.775H202.974C203.807 139.775 204.449 139.575 204.899 139.175C205.349 138.775 205.574 138.217 205.574 137.5C205.574 136.8 205.34 136.258 204.874 135.875C204.424 135.475 203.79 135.275 202.974 135.275H198.174V139.775ZM210.456 128.5H219.256V141H218.006V129.725H211.706V135.75C211.706 137.717 211.348 139.108 210.631 139.925C209.914 140.742 208.873 141.1 207.506 141V139.825C208.523 139.908 209.264 139.633 209.731 139C210.214 138.367 210.456 137.283 210.456 135.75V128.5ZM228.72 128.225C230.554 128.225 232.037 128.875 233.17 130.175C234.32 131.475 234.895 133.017 234.895 134.8C234.895 134.833 234.887 134.933 234.87 135.1C234.87 135.267 234.87 135.367 234.87 135.4H223.545C223.695 136.8 224.254 137.933 225.22 138.8C226.187 139.65 227.395 140.075 228.845 140.075C229.829 140.075 230.695 139.875 231.445 139.475C232.195 139.058 232.77 138.5 233.17 137.8L234.27 138.45C233.754 139.317 233.012 140.008 232.045 140.525C231.095 141.025 230.02 141.275 228.82 141.275C226.887 141.275 225.312 140.667 224.095 139.45C222.862 138.217 222.245 136.65 222.245 134.75C222.245 132.883 222.845 131.333 224.045 130.1C225.279 128.85 226.837 128.225 228.72 128.225ZM228.72 129.425C227.32 129.425 226.137 129.867 225.17 130.75C224.22 131.633 223.679 132.775 223.545 134.175H233.595C233.462 132.692 232.929 131.533 231.995 130.7C231.062 129.85 229.97 129.425 228.72 129.425ZM246.867 134.15V128.5H248.142V141H246.867V135.35H239.067V141H237.817V128.5H239.067V134.15H246.867ZM261.052 134.15V128.5H262.327V141H261.052V135.35H253.252V141H252.002V128.5H253.252V134.15H261.052ZM271.911 141.275C270.078 141.275 268.52 140.65 267.236 139.4C265.97 138.133 265.336 136.583 265.336 134.75C265.336 132.917 265.97 131.375 267.236 130.125C268.503 128.858 270.061 128.225 271.911 128.225C273.728 128.225 275.27 128.858 276.536 130.125C277.82 131.375 278.461 132.917 278.461 134.75C278.461 136.567 277.82 138.117 276.536 139.4C275.253 140.65 273.711 141.275 271.911 141.275ZM268.136 138.525C269.17 139.558 270.428 140.075 271.911 140.075C273.378 140.075 274.628 139.558 275.661 138.525C276.678 137.508 277.186 136.25 277.186 134.75C277.186 133.25 276.678 131.992 275.661 130.975C274.628 129.942 273.378 129.425 271.911 129.425C270.428 129.425 269.17 129.942 268.136 130.975C267.12 131.992 266.611 133.25 266.611 134.75C266.611 136.25 267.12 137.508 268.136 138.525ZM289.769 126.325H283.444V125.225H289.769V126.325ZM282.719 138.825L290.694 128.5H291.794V141H290.519V130.675L282.569 141H281.469V128.5H282.719V138.825ZM308.319 134.55C309.069 134.8 309.652 135.2 310.069 135.75C310.486 136.3 310.694 136.933 310.694 137.65C310.694 138.7 310.277 139.567 309.444 140.25C308.627 140.933 307.511 141.275 306.094 141.275C303.594 141.275 301.969 140.292 301.219 138.325L302.294 137.7C302.827 139.283 304.094 140.075 306.094 140.075C307.127 140.075 307.936 139.85 308.519 139.4C309.119 138.933 309.419 138.325 309.419 137.575C309.419 136.892 309.169 136.342 308.669 135.925C308.169 135.492 307.502 135.275 306.669 135.275H304.944V134.05H306.194C307.011 134.05 307.652 133.842 308.119 133.425C308.586 133.008 308.819 132.45 308.819 131.75C308.819 131.083 308.544 130.533 307.994 130.1C307.461 129.65 306.752 129.425 305.869 129.425C304.169 129.425 303.044 130.1 302.494 131.45L301.444 130.85C301.811 130.033 302.369 129.392 303.119 128.925C303.869 128.458 304.786 128.225 305.869 128.225C307.136 128.225 308.152 128.567 308.919 129.25C309.686 129.917 310.069 130.733 310.069 131.7C310.069 133.05 309.486 134 308.319 134.55ZM324.452 131.325V128.5H325.727V141H324.452V138.175C323.902 139.142 323.16 139.9 322.227 140.45C321.294 141 320.244 141.275 319.077 141.275C317.31 141.275 315.785 140.65 314.502 139.4C313.235 138.133 312.602 136.583 312.602 134.75C312.602 132.917 313.235 131.375 314.502 130.125C315.769 128.858 317.294 128.225 319.077 128.225C320.244 128.225 321.294 128.5 322.227 129.05C323.16 129.6 323.902 130.358 324.452 131.325ZM315.402 138.525C316.435 139.558 317.694 140.075 319.177 140.075C320.644 140.075 321.894 139.558 322.927 138.525C323.944 137.508 324.452 136.25 324.452 134.75C324.452 133.25 323.944 131.992 322.927 130.975C321.894 129.942 320.644 129.425 319.177 129.425C317.694 129.425 316.435 129.942 315.402 130.975C314.385 131.992 313.877 133.25 313.877 134.75C313.877 136.25 314.385 137.508 315.402 138.525ZM339.815 128.5V139.775H341.565V144.35H340.29V141H329.49V144.35H328.215V139.775H329.665C330.582 138.542 331.04 136.867 331.04 134.75V128.5H339.815ZM331.215 139.775H338.54V129.725H332.29V134.75C332.29 136.817 331.932 138.492 331.215 139.775ZM354.823 131.325V128.5H356.098V141H354.823V138.175C354.273 139.142 353.531 139.9 352.598 140.45C351.665 141 350.615 141.275 349.448 141.275C347.681 141.275 346.156 140.65 344.873 139.4C343.606 138.133 342.973 136.583 342.973 134.75C342.973 132.917 343.606 131.375 344.873 130.125C346.14 128.858 347.665 128.225 349.448 128.225C350.615 128.225 351.665 128.5 352.598 129.05C353.531 129.6 354.273 130.358 354.823 131.325ZM345.773 138.525C346.806 139.558 348.065 140.075 349.548 140.075C351.015 140.075 352.265 139.558 353.298 138.525C354.315 137.508 354.823 136.25 354.823 134.75C354.823 133.25 354.315 131.992 353.298 130.975C352.265 129.942 351.015 129.425 349.548 129.425C348.065 129.425 346.806 129.942 345.773 130.975C344.756 131.992 344.248 133.25 344.248 134.75C344.248 136.25 344.756 137.508 345.773 138.525ZM368.236 134.925V128.5H369.511V141H368.236V136.1C367.136 136.65 365.87 136.925 364.436 136.925C362.836 136.925 361.603 136.55 360.736 135.8C359.87 135.05 359.436 133.975 359.436 132.575V128.5H360.686V132.575C360.686 134.675 361.92 135.725 364.386 135.725C365.736 135.725 367.02 135.458 368.236 134.925ZM378.989 128.225C380.822 128.225 382.306 128.875 383.439 130.175C384.589 131.475 385.164 133.017 385.164 134.8C385.164 134.833 385.156 134.933 385.139 135.1C385.139 135.267 385.139 135.367 385.139 135.4H373.814C373.964 136.8 374.522 137.933 375.489 138.8C376.456 139.65 377.664 140.075 379.114 140.075C380.097 140.075 380.964 139.875 381.714 139.475C382.464 139.058 383.039 138.5 383.439 137.8L384.539 138.45C384.022 139.317 383.281 140.008 382.314 140.525C381.364 141.025 380.289 141.275 379.089 141.275C377.156 141.275 375.581 140.667 374.364 139.45C373.131 138.217 372.514 136.65 372.514 134.75C372.514 132.883 373.114 131.333 374.314 130.1C375.547 128.85 377.106 128.225 378.989 128.225ZM378.989 129.425C377.589 129.425 376.406 129.867 375.439 130.75C374.489 131.633 373.947 132.775 373.814 134.175H383.864C383.731 132.692 383.197 131.533 382.264 130.7C381.331 129.85 380.239 129.425 378.989 129.425ZM396.386 126.325H390.061V125.225H396.386V126.325ZM389.336 138.825L397.311 128.5H398.411V141H397.136V130.675L389.186 141H388.086V128.5H389.336V138.825ZM404.145 140.125C404.145 140.442 404.037 140.708 403.82 140.925C403.604 141.142 403.337 141.25 403.02 141.25C402.704 141.25 402.437 141.142 402.22 140.925C402.004 140.708 401.895 140.442 401.895 140.125C401.895 139.808 402.004 139.542 402.22 139.325C402.437 139.108 402.704 139 403.02 139C403.337 139 403.604 139.108 403.82 139.325C404.037 139.542 404.145 139.808 404.145 140.125ZM414.508 123.5H427.008V141H425.658V124.75H415.833V141H414.508V123.5ZM436.804 141.275C434.97 141.275 433.412 140.65 432.129 139.4C430.862 138.133 430.229 136.583 430.229 134.75C430.229 132.917 430.862 131.375 432.129 130.125C433.395 128.858 434.954 128.225 436.804 128.225C438.62 128.225 440.162 128.858 441.429 130.125C442.712 131.375 443.354 132.917 443.354 134.75C443.354 136.567 442.712 138.117 441.429 139.4C440.145 140.65 438.604 141.275 436.804 141.275ZM433.029 138.525C434.062 139.558 435.32 140.075 436.804 140.075C438.27 140.075 439.52 139.558 440.554 138.525C441.57 137.508 442.079 136.25 442.079 134.75C442.079 133.25 441.57 131.992 440.554 130.975C439.52 129.942 438.27 129.425 436.804 129.425C435.32 129.425 434.062 129.942 433.029 130.975C432.012 131.992 431.504 133.25 431.504 134.75C431.504 136.25 432.012 137.508 433.029 138.525ZM447.224 128.5H456.024V141H454.774V129.725H448.474V135.75C448.474 137.717 448.115 139.108 447.399 139.925C446.682 140.742 445.64 141.1 444.274 141V139.825C445.29 139.908 446.032 139.633 446.499 139C446.982 138.367 447.224 137.283 447.224 135.75V128.5ZM464.663 139.625L469.013 128.5H470.363L464.963 142.15C464.463 143.4 463.771 144.375 462.888 145.075C462.005 145.775 461.046 146.083 460.013 146V144.825C460.796 144.892 461.513 144.667 462.163 144.15C462.813 143.633 463.338 142.883 463.738 141.9L464.013 141.225L458.263 128.5H459.613L464.663 139.625ZM480.907 134.925V128.5H482.182V141H480.907V136.1C479.807 136.65 478.54 136.925 477.107 136.925C475.507 136.925 474.274 136.55 473.407 135.8C472.54 135.05 472.107 133.975 472.107 132.575V128.5H473.357V132.575C473.357 134.675 474.59 135.725 477.057 135.725C478.407 135.725 479.69 135.458 480.907 134.925ZM487.285 138.825L495.26 128.5H496.36V141H495.085V130.675L487.135 141H486.035V128.5H487.285V138.825ZM501.569 128.5H510.369V141H509.119V129.725H502.819V135.75C502.819 137.717 502.461 139.108 501.744 139.925C501.028 140.742 499.986 141.1 498.619 141V139.825C499.636 139.908 500.378 139.633 500.844 139C501.328 138.367 501.569 137.283 501.569 135.75V128.5ZM519.934 141.275C518.05 141.275 516.484 140.65 515.234 139.4C513.984 138.15 513.359 136.6 513.359 134.75C513.359 132.9 513.984 131.35 515.234 130.1C516.484 128.85 518.05 128.225 519.934 128.225C521.15 128.225 522.25 128.517 523.234 129.1C524.217 129.667 524.934 130.442 525.384 131.425L524.359 132.025C523.992 131.225 523.409 130.592 522.609 130.125C521.825 129.658 520.934 129.425 519.934 129.425C518.45 129.425 517.192 129.942 516.159 130.975C515.142 131.992 514.634 133.25 514.634 134.75C514.634 136.267 515.142 137.533 516.159 138.55C517.175 139.567 518.434 140.075 519.934 140.075C520.934 140.075 521.825 139.842 522.609 139.375C523.409 138.908 524.017 138.275 524.434 137.475L525.484 138.1C524.984 139.067 524.234 139.842 523.234 140.425C522.234 140.992 521.134 141.275 519.934 141.275ZM531.678 128.5H536.628V141H535.378V136.125H532.678L528.753 141H527.128L531.128 136.1C530.095 135.983 529.237 135.575 528.553 134.875C527.887 134.175 527.553 133.325 527.553 132.325C527.553 131.208 527.953 130.292 528.753 129.575C529.537 128.858 530.512 128.5 531.678 128.5ZM531.678 134.925H535.378V129.725H531.678C530.862 129.725 530.178 129.975 529.628 130.475C529.095 130.958 528.828 131.575 528.828 132.325C528.828 133.108 529.095 133.742 529.628 134.225C530.178 134.692 530.862 134.925 531.678 134.925ZM130.212 176.275C128.329 176.275 126.762 175.65 125.512 174.4C124.262 173.15 123.637 171.6 123.637 169.75C123.637 167.9 124.262 166.35 125.512 165.1C126.762 163.85 128.329 163.225 130.212 163.225C131.429 163.225 132.529 163.517 133.512 164.1C134.495 164.667 135.212 165.442 135.662 166.425L134.637 167.025C134.27 166.225 133.687 165.592 132.887 165.125C132.104 164.658 131.212 164.425 130.212 164.425C128.729 164.425 127.47 164.942 126.437 165.975C125.42 166.992 124.912 168.25 124.912 169.75C124.912 171.267 125.42 172.533 126.437 173.55C127.454 174.567 128.712 175.075 130.212 175.075C131.212 175.075 132.104 174.842 132.887 174.375C133.687 173.908 134.295 173.275 134.712 172.475L135.762 173.1C135.262 174.067 134.512 174.842 133.512 175.425C132.512 175.992 131.412 176.275 130.212 176.275ZM144.104 176.275C142.27 176.275 140.712 175.65 139.429 174.4C138.162 173.133 137.529 171.583 137.529 169.75C137.529 167.917 138.162 166.375 139.429 165.125C140.695 163.858 142.254 163.225 144.104 163.225C145.92 163.225 147.462 163.858 148.729 165.125C150.012 166.375 150.654 167.917 150.654 169.75C150.654 171.567 150.012 173.117 148.729 174.4C147.445 175.65 145.904 176.275 144.104 176.275ZM140.329 173.525C141.362 174.558 142.62 175.075 144.104 175.075C145.57 175.075 146.82 174.558 147.854 173.525C148.87 172.508 149.379 171.25 149.379 169.75C149.379 168.25 148.87 166.992 147.854 165.975C146.82 164.942 145.57 164.425 144.104 164.425C142.62 164.425 141.362 164.942 140.329 165.975C139.312 166.992 138.804 168.25 138.804 169.75C138.804 171.25 139.312 172.508 140.329 173.525ZM161.362 169.55C162.828 170.017 163.562 171.017 163.562 172.55C163.562 173.583 163.22 174.417 162.537 175.05C161.87 175.683 160.928 176 159.712 176H153.662V163.5H159.237C160.403 163.5 161.312 163.808 161.962 164.425C162.628 165.025 162.962 165.808 162.962 166.775C162.962 168.108 162.428 169.033 161.362 169.55ZM159.237 164.725H154.912V169.05H159.237C160.037 169.05 160.645 168.858 161.062 168.475C161.478 168.092 161.687 167.55 161.687 166.85C161.687 166.183 161.47 165.667 161.037 165.3C160.62 164.917 160.02 164.725 159.237 164.725ZM154.912 174.775H159.712C160.545 174.775 161.187 174.575 161.637 174.175C162.087 173.775 162.312 173.217 162.312 172.5C162.312 171.8 162.078 171.258 161.612 170.875C161.162 170.475 160.528 170.275 159.712 170.275H154.912V174.775ZM172.958 163.225C174.758 163.225 176.283 163.858 177.533 165.125C178.799 166.375 179.433 167.917 179.433 169.75C179.433 171.583 178.799 173.133 177.533 174.4C176.283 175.65 174.758 176.275 172.958 176.275C171.774 176.275 170.708 176 169.758 175.45C168.824 174.883 168.099 174.1 167.583 173.1V181H166.333V163.5H167.583V166.4C168.099 165.4 168.824 164.625 169.758 164.075C170.708 163.508 171.774 163.225 172.958 163.225ZM169.108 173.525C170.141 174.558 171.399 175.075 172.883 175.075C174.349 175.075 175.599 174.558 176.633 173.525C177.666 172.492 178.183 171.233 178.183 169.75C178.183 168.267 177.666 167.008 176.633 165.975C175.599 164.942 174.349 164.425 172.883 164.425C171.399 164.425 170.141 164.942 169.108 165.975C168.091 166.992 167.583 168.25 167.583 169.75C167.583 171.25 168.091 172.508 169.108 173.525ZM188.071 163.225C189.904 163.225 191.388 163.875 192.521 165.175C193.671 166.475 194.246 168.017 194.246 169.8C194.246 169.833 194.238 169.933 194.221 170.1C194.221 170.267 194.221 170.367 194.221 170.4H182.896C183.046 171.8 183.604 172.933 184.571 173.8C185.538 174.65 186.746 175.075 188.196 175.075C189.179 175.075 190.046 174.875 190.796 174.475C191.546 174.058 192.121 173.5 192.521 172.8L193.621 173.45C193.104 174.317 192.363 175.008 191.396 175.525C190.446 176.025 189.371 176.275 188.171 176.275C186.238 176.275 184.663 175.667 183.446 174.45C182.213 173.217 181.596 171.65 181.596 169.75C181.596 167.883 182.196 166.333 183.396 165.1C184.629 163.85 186.188 163.225 188.071 163.225ZM188.071 164.425C186.671 164.425 185.488 164.867 184.521 165.75C183.571 166.633 183.029 167.775 182.896 169.175H192.946C192.813 167.692 192.279 166.533 191.346 165.7C190.413 164.85 189.321 164.425 188.071 164.425ZM207.743 163.5H209.243V176H207.968V165.4L203.293 172.775H203.118L198.418 165.35V176H197.168V163.5H198.643L203.193 170.675L207.743 163.5ZM218.711 163.225C220.544 163.225 222.027 163.875 223.161 165.175C224.311 166.475 224.886 168.017 224.886 169.8C224.886 169.833 224.877 169.933 224.861 170.1C224.861 170.267 224.861 170.367 224.861 170.4H213.536C213.686 171.8 214.244 172.933 215.211 173.8C216.177 174.65 217.386 175.075 218.836 175.075C219.819 175.075 220.686 174.875 221.436 174.475C222.186 174.058 222.761 173.5 223.161 172.8L224.261 173.45C223.744 174.317 223.002 175.008 222.036 175.525C221.086 176.025 220.011 176.275 218.811 176.275C216.877 176.275 215.302 175.667 214.086 174.45C212.852 173.217 212.236 171.65 212.236 169.75C212.236 167.883 212.836 166.333 214.036 165.1C215.269 163.85 216.827 163.225 218.711 163.225ZM218.711 164.425C217.311 164.425 216.127 164.867 215.161 165.75C214.211 166.633 213.669 167.775 213.536 169.175H223.586C223.452 167.692 222.919 166.533 221.986 165.7C221.052 164.85 219.961 164.425 218.711 164.425ZM236.857 169.15V163.5H238.132V176H236.857V170.35H229.057V176H227.807V163.5H229.057V169.15H236.857ZM251.042 169.15V163.5H252.317V176H251.042V170.35H243.242V176H241.992V163.5H243.242V169.15H251.042ZM257.426 168.35H261.126C262.293 168.35 263.268 168.708 264.051 169.425C264.851 170.142 265.251 171.058 265.251 172.175C265.251 173.292 264.851 174.208 264.051 174.925C263.268 175.642 262.293 176 261.126 176H256.176V163.5H257.426V168.35ZM267.176 176V163.5H268.426V176H267.176ZM257.426 174.775H261.126C261.943 174.775 262.618 174.533 263.151 174.05C263.701 173.55 263.976 172.925 263.976 172.175C263.976 171.392 263.701 170.767 263.151 170.3C262.618 169.817 261.943 169.575 261.126 169.575H257.426V174.775ZM280.565 161.325H274.24V160.225H280.565V161.325ZM273.515 173.825L281.49 163.5H282.59V176H281.315V165.675L273.365 176H272.265V163.5H273.515V173.825ZM294.365 173.825L302.34 163.5H303.44V176H302.165V165.675L294.215 176H293.115V163.5H294.365V173.825ZM313.965 163.5H324.29V176H323.015V164.725H315.215V176H313.965V163.5ZM333.874 176.275C332.041 176.275 330.482 175.65 329.199 174.4C327.932 173.133 327.299 171.583 327.299 169.75C327.299 167.917 327.932 166.375 329.199 165.125C330.466 163.858 332.024 163.225 333.874 163.225C335.691 163.225 337.232 163.858 338.499 165.125C339.782 166.375 340.424 167.917 340.424 169.75C340.424 171.567 339.782 173.117 338.499 174.4C337.216 175.65 335.674 176.275 333.874 176.275ZM330.099 173.525C331.132 174.558 332.391 175.075 333.874 175.075C335.341 175.075 336.591 174.558 337.624 173.525C338.641 172.508 339.149 171.25 339.149 169.75C339.149 168.25 338.641 166.992 337.624 165.975C336.591 164.942 335.341 164.425 333.874 164.425C332.391 164.425 331.132 164.942 330.099 165.975C329.082 166.992 328.574 168.25 328.574 169.75C328.574 171.25 329.082 172.508 330.099 173.525ZM352.482 169.15V163.5H353.757V176H352.482V170.35H344.682V176H343.432V163.5H344.682V169.15H352.482ZM361.317 163.5H366.267V176H365.017V171.125H362.317L358.392 176H356.767L360.767 171.1C359.734 170.983 358.875 170.575 358.192 169.875C357.525 169.175 357.192 168.325 357.192 167.325C357.192 166.208 357.592 165.292 358.392 164.575C359.175 163.858 360.15 163.5 361.317 163.5ZM361.317 169.925H365.017V164.725H361.317C360.5 164.725 359.817 164.975 359.267 165.475C358.734 165.958 358.467 166.575 358.467 167.325C358.467 168.108 358.734 168.742 359.267 169.225C359.817 169.692 360.5 169.925 361.317 169.925ZM368.517 163.5H378.867V164.725H374.317V176H373.067V164.725H368.517V163.5ZM390.178 169.15V163.5H391.453V176H390.178V170.35H382.378V176H381.128V163.5H382.378V169.15H390.178ZM396.562 168.35H400.262C401.429 168.35 402.404 168.708 403.187 169.425C403.987 170.142 404.387 171.058 404.387 172.175C404.387 173.292 403.987 174.208 403.187 174.925C402.404 175.642 401.429 176 400.262 176H395.312V163.5H396.562V168.35ZM406.312 176V163.5H407.562V176H406.312ZM396.562 174.775H400.262C401.079 174.775 401.754 174.533 402.287 174.05C402.837 173.55 403.112 172.925 403.112 172.175C403.112 171.392 402.837 170.767 402.287 170.3C401.754 169.817 401.079 169.575 400.262 169.575H396.562V174.775ZM419.701 161.325H413.376V160.225H419.701V161.325ZM412.651 173.825L420.626 163.5H421.726V176H420.451V165.675L412.501 176H411.401V163.5H412.651V173.825ZM442.501 163.5V174.775H444.251V179.35H442.976V176H432.176V179.35H430.901V174.775H432.351C433.267 173.542 433.726 171.867 433.726 169.75V163.5H442.501ZM433.901 174.775H441.226V164.725H434.976V169.75C434.976 171.817 434.617 173.492 433.901 174.775ZM448.247 173.825L456.222 163.5H457.322V176H456.047V165.675L448.097 176H446.997V163.5H448.247V173.825ZM467.181 169.55C467.931 169.8 468.515 170.2 468.931 170.75C469.348 171.3 469.556 171.933 469.556 172.65C469.556 173.7 469.14 174.567 468.306 175.25C467.49 175.933 466.373 176.275 464.956 176.275C462.456 176.275 460.831 175.292 460.081 173.325L461.156 172.7C461.69 174.283 462.956 175.075 464.956 175.075C465.99 175.075 466.798 174.85 467.381 174.4C467.981 173.933 468.281 173.325 468.281 172.575C468.281 171.892 468.031 171.342 467.531 170.925C467.031 170.492 466.365 170.275 465.531 170.275H463.806V169.05H465.056C465.873 169.05 466.515 168.842 466.981 168.425C467.448 168.008 467.681 167.45 467.681 166.75C467.681 166.083 467.406 165.533 466.856 165.1C466.323 164.65 465.615 164.425 464.731 164.425C463.031 164.425 461.906 165.1 461.356 166.45L460.306 165.85C460.673 165.033 461.231 164.392 461.981 163.925C462.731 163.458 463.648 163.225 464.731 163.225C465.998 163.225 467.015 163.567 467.781 164.25C468.548 164.917 468.931 165.733 468.931 166.7C468.931 168.05 468.348 169 467.181 169.55ZM483.314 166.325V163.5H484.589V176H483.314V173.175C482.764 174.142 482.022 174.9 481.089 175.45C480.156 176 479.106 176.275 477.939 176.275C476.172 176.275 474.647 175.65 473.364 174.4C472.097 173.133 471.464 171.583 471.464 169.75C471.464 167.917 472.097 166.375 473.364 165.125C474.631 163.858 476.156 163.225 477.939 163.225C479.106 163.225 480.156 163.5 481.089 164.05C482.022 164.6 482.764 165.358 483.314 166.325ZM474.264 173.525C475.297 174.558 476.556 175.075 478.039 175.075C479.506 175.075 480.756 174.558 481.789 173.525C482.806 172.508 483.314 171.25 483.314 169.75C483.314 168.25 482.806 166.992 481.789 165.975C480.756 164.942 479.506 164.425 478.039 164.425C476.556 164.425 475.297 164.942 474.264 165.975C473.247 166.992 472.739 168.25 472.739 169.75C472.739 171.25 473.247 172.508 474.264 173.525ZM496.727 161.325H490.402V160.225H496.727V161.325ZM489.677 173.825L497.652 163.5H498.752V176H497.477V165.675L489.527 176H488.427V163.5H489.677V173.825ZM511.662 169.15V163.5H512.937V176H511.662V170.35H503.862V176H502.612V163.5H503.862V169.15H511.662ZM517.372 174.3H518.922L517.572 179.5H516.422L517.372 174.3ZM119.127 198.5H129.477V199.725H124.927V211H123.677V199.725H119.127V198.5ZM136.975 211.275C135.141 211.275 133.583 210.65 132.3 209.4C131.033 208.133 130.4 206.583 130.4 204.75C130.4 202.917 131.033 201.375 132.3 200.125C133.566 198.858 135.125 198.225 136.975 198.225C138.791 198.225 140.333 198.858 141.6 200.125C142.883 201.375 143.525 202.917 143.525 204.75C143.525 206.567 142.883 208.117 141.6 209.4C140.316 210.65 138.775 211.275 136.975 211.275ZM133.2 208.525C134.233 209.558 135.491 210.075 136.975 210.075C138.441 210.075 139.691 209.558 140.725 208.525C141.741 207.508 142.25 206.25 142.25 204.75C142.25 203.25 141.741 201.992 140.725 200.975C139.691 199.942 138.441 199.425 136.975 199.425C135.491 199.425 134.233 199.942 133.2 200.975C132.183 201.992 131.675 203.25 131.675 204.75C131.675 206.25 132.183 207.508 133.2 208.525ZM146.107 209.3H147.657L146.307 214.5H145.157L146.107 209.3ZM166.063 204.925V198.5H167.338V211H166.063V206.1C164.963 206.65 163.697 206.925 162.263 206.925C160.663 206.925 159.43 206.55 158.563 205.8C157.697 205.05 157.263 203.975 157.263 202.575V198.5H158.513V202.575C158.513 204.675 159.747 205.725 162.213 205.725C163.563 205.725 164.847 205.458 166.063 204.925ZM169.591 198.5H179.941V199.725H175.391V211H174.141V199.725H169.591V198.5ZM187.439 211.275C185.605 211.275 184.047 210.65 182.764 209.4C181.497 208.133 180.864 206.583 180.864 204.75C180.864 202.917 181.497 201.375 182.764 200.125C184.03 198.858 185.589 198.225 187.439 198.225C189.255 198.225 190.797 198.858 192.064 200.125C193.347 201.375 193.989 202.917 193.989 204.75C193.989 206.567 193.347 208.117 192.064 209.4C190.78 210.65 189.239 211.275 187.439 211.275ZM183.664 208.525C184.697 209.558 185.955 210.075 187.439 210.075C188.905 210.075 190.155 209.558 191.189 208.525C192.205 207.508 192.714 206.25 192.714 204.75C192.714 203.25 192.205 201.992 191.189 200.975C190.155 199.942 188.905 199.425 187.439 199.425C185.955 199.425 184.697 199.942 183.664 200.975C182.647 201.992 182.139 203.25 182.139 204.75C182.139 206.25 182.647 207.508 183.664 208.525ZM212.712 204.15V198.5H213.987V211H212.712V205.35H204.912V211H203.662V198.5H204.912V204.15H212.712ZM222.646 209.625L226.996 198.5H228.346L222.946 212.15C222.446 213.4 221.755 214.375 220.871 215.075C219.988 215.775 219.03 216.083 217.996 216V214.825C218.78 214.892 219.496 214.667 220.146 214.15C220.796 213.633 221.321 212.883 221.721 211.9L221.996 211.225L216.246 198.5H217.596L222.646 209.625ZM238.521 204.5L244.421 211H242.871L237.346 204.85V211H236.071V204.85L230.546 211H228.996L234.921 204.5L229.246 198.5H230.796L236.071 204.15V198.5H237.346V204.15L242.621 198.5H244.171L238.521 204.5ZM255.974 204.15V198.5H257.249V211H255.974V205.35H248.174V211H246.924V198.5H248.174V204.15H255.974ZM266.833 211.275C265 211.275 263.441 210.65 262.158 209.4C260.891 208.133 260.258 206.583 260.258 204.75C260.258 202.917 260.891 201.375 262.158 200.125C263.425 198.858 264.983 198.225 266.833 198.225C268.65 198.225 270.191 198.858 271.458 200.125C272.741 201.375 273.383 202.917 273.383 204.75C273.383 206.567 272.741 208.117 271.458 209.4C270.175 210.65 268.633 211.275 266.833 211.275ZM263.058 208.525C264.091 209.558 265.35 210.075 266.833 210.075C268.3 210.075 269.55 209.558 270.583 208.525C271.6 207.508 272.108 206.25 272.108 204.75C272.108 203.25 271.6 201.992 270.583 200.975C269.55 199.942 268.3 199.425 266.833 199.425C265.35 199.425 264.091 199.942 263.058 200.975C262.041 201.992 261.533 203.25 261.533 204.75C261.533 206.25 262.041 207.508 263.058 208.525ZM277.716 206.5H276.716L276.466 198.5V193.5H277.966V198.5L277.716 206.5ZM278.341 210.125C278.341 210.442 278.233 210.708 278.016 210.925C277.8 211.142 277.533 211.25 277.216 211.25C276.9 211.25 276.633 211.142 276.416 210.925C276.2 210.708 276.091 210.442 276.091 210.125C276.091 209.808 276.2 209.542 276.416 209.325C276.633 209.108 276.9 209 277.216 209C277.533 209 277.8 209.108 278.016 209.325C278.233 209.542 278.341 209.808 278.341 210.125ZM302.95 193.5H304.625V211H303.3V195.45L296.825 206.2H296.6L290.125 195.45V211H288.8V193.5H290.45L296.7 203.85L302.95 193.5ZM319.716 201.325V198.5H320.991V211H319.716V208.175C319.166 209.142 318.424 209.9 317.491 210.45C316.557 211 315.507 211.275 314.341 211.275C312.574 211.275 311.049 210.65 309.766 209.4C308.499 208.133 307.866 206.583 307.866 204.75C307.866 202.917 308.499 201.375 309.766 200.125C311.032 198.858 312.557 198.225 314.341 198.225C315.507 198.225 316.557 198.5 317.491 199.05C318.424 199.6 319.166 200.358 319.716 201.325ZM310.666 208.525C311.699 209.558 312.957 210.075 314.441 210.075C315.907 210.075 317.157 209.558 318.191 208.525C319.207 207.508 319.716 206.25 319.716 204.75C319.716 203.25 319.207 201.992 318.191 200.975C317.157 199.942 315.907 199.425 314.441 199.425C312.957 199.425 311.699 199.942 310.666 200.975C309.649 201.992 309.141 203.25 309.141 204.75C309.141 206.25 309.649 207.508 310.666 208.525ZM327.429 204.5L334.404 211H332.704L326.079 204.85V211H324.829V198.5H326.079V204.175L332.404 198.5H334.154L327.429 204.5ZM341.294 198.225C343.127 198.225 344.61 198.875 345.744 200.175C346.894 201.475 347.469 203.017 347.469 204.8C347.469 204.833 347.46 204.933 347.444 205.1C347.444 205.267 347.444 205.367 347.444 205.4H336.119C336.269 206.8 336.827 207.933 337.794 208.8C338.76 209.65 339.969 210.075 341.419 210.075C342.402 210.075 343.269 209.875 344.019 209.475C344.769 209.058 345.344 208.5 345.744 207.8L346.844 208.45C346.327 209.317 345.585 210.008 344.619 210.525C343.669 211.025 342.594 211.275 341.394 211.275C339.46 211.275 337.885 210.667 336.669 209.45C335.435 208.217 334.819 206.65 334.819 204.75C334.819 202.883 335.419 201.333 336.619 200.1C337.852 198.85 339.41 198.225 341.294 198.225ZM341.294 199.425C339.894 199.425 338.71 199.867 337.744 200.75C336.794 201.633 336.252 202.775 336.119 204.175H346.169C346.035 202.692 345.502 201.533 344.569 200.7C343.635 199.85 342.544 199.425 341.294 199.425ZM348.302 198.5H358.652V199.725H354.102V211H352.852V199.725H348.302V198.5ZM362.163 203.35H365.863C367.029 203.35 368.004 203.708 368.788 204.425C369.588 205.142 369.988 206.058 369.988 207.175C369.988 208.292 369.588 209.208 368.788 209.925C368.004 210.642 367.029 211 365.863 211H360.913V198.5H362.163V203.35ZM371.913 211V198.5H373.163V211H371.913ZM362.163 209.775H365.863C366.679 209.775 367.354 209.533 367.888 209.05C368.438 208.55 368.713 207.925 368.713 207.175C368.713 206.392 368.438 205.767 367.888 205.3C367.354 204.817 366.679 204.575 365.863 204.575H362.163V209.775ZM393.917 198.5V209.775H395.667V214.35H394.392V211H383.592V214.35H382.317V209.775H383.767C384.683 208.542 385.142 206.867 385.142 204.75V198.5H393.917ZM385.317 209.775H392.642V199.725H386.392V204.75C386.392 206.817 386.033 208.492 385.317 209.775ZM399.763 198.5H408.563V211H407.313V199.725H401.013V205.75C401.013 207.717 400.654 209.108 399.938 209.925C399.221 210.742 398.179 211.1 396.813 211V209.825C397.829 209.908 398.571 209.633 399.038 209C399.521 208.367 399.763 207.283 399.763 205.75V198.5ZM416.102 198.5H421.052V211H419.802V206.125H417.102L413.177 211H411.552L415.552 206.1C414.519 205.983 413.66 205.575 412.977 204.875C412.31 204.175 411.977 203.325 411.977 202.325C411.977 201.208 412.377 200.292 413.177 199.575C413.96 198.858 414.935 198.5 416.102 198.5ZM416.102 204.925H419.802V199.725H416.102C415.285 199.725 414.602 199.975 414.052 200.475C413.519 200.958 413.252 201.575 413.252 202.325C413.252 203.108 413.519 203.742 414.052 204.225C414.602 204.692 415.285 204.925 416.102 204.925ZM439.267 204.55C440.734 205.017 441.467 206.017 441.467 207.55C441.467 208.583 441.125 209.417 440.442 210.05C439.775 210.683 438.834 211 437.617 211H431.567V198.5H437.142C438.309 198.5 439.217 198.808 439.867 199.425C440.534 200.025 440.867 200.808 440.867 201.775C440.867 203.108 440.334 204.033 439.267 204.55ZM437.142 199.725H432.817V204.05H437.142C437.942 204.05 438.55 203.858 438.967 203.475C439.384 203.092 439.592 202.55 439.592 201.85C439.592 201.183 439.375 200.667 438.942 200.3C438.525 199.917 437.925 199.725 437.142 199.725ZM432.817 209.775H437.617C438.45 209.775 439.092 209.575 439.542 209.175C439.992 208.775 440.217 208.217 440.217 207.5C440.217 206.8 439.984 206.258 439.517 205.875C439.067 205.475 438.434 205.275 437.617 205.275H432.817V209.775ZM449.863 198.225C451.696 198.225 453.18 198.875 454.313 200.175C455.463 201.475 456.038 203.017 456.038 204.8C456.038 204.833 456.03 204.933 456.013 205.1C456.013 205.267 456.013 205.367 456.013 205.4H444.688C444.838 206.8 445.396 207.933 446.363 208.8C447.33 209.65 448.538 210.075 449.988 210.075C450.971 210.075 451.838 209.875 452.588 209.475C453.338 209.058 453.913 208.5 454.313 207.8L455.413 208.45C454.896 209.317 454.155 210.008 453.188 210.525C452.238 211.025 451.163 211.275 449.963 211.275C448.03 211.275 446.455 210.667 445.238 209.45C444.005 208.217 443.388 206.65 443.388 204.75C443.388 202.883 443.988 201.333 445.188 200.1C446.421 198.85 447.98 198.225 449.863 198.225ZM449.863 199.425C448.463 199.425 447.28 199.867 446.313 200.75C445.363 201.633 444.821 202.775 444.688 204.175H454.738C454.605 202.692 454.071 201.533 453.138 200.7C452.205 199.85 451.113 199.425 449.863 199.425ZM465.585 198.225C467.385 198.225 468.91 198.858 470.16 200.125C471.426 201.375 472.06 202.917 472.06 204.75C472.06 206.583 471.426 208.133 470.16 209.4C468.91 210.65 467.385 211.275 465.585 211.275C464.401 211.275 463.335 211 462.385 210.45C461.451 209.883 460.726 209.1 460.21 208.1V216H458.96V198.5H460.21V201.4C460.726 200.4 461.451 199.625 462.385 199.075C463.335 198.508 464.401 198.225 465.585 198.225ZM461.735 208.525C462.768 209.558 464.026 210.075 465.51 210.075C466.976 210.075 468.226 209.558 469.26 208.525C470.293 207.492 470.81 206.233 470.81 204.75C470.81 203.267 470.293 202.008 469.26 200.975C468.226 199.942 466.976 199.425 465.51 199.425C464.026 199.425 462.768 199.942 461.735 200.975C460.718 201.992 460.21 203.25 460.21 204.75C460.21 206.25 460.718 207.508 461.735 208.525ZM480.798 211.275C478.915 211.275 477.348 210.65 476.098 209.4C474.848 208.15 474.223 206.6 474.223 204.75C474.223 202.9 474.848 201.35 476.098 200.1C477.348 198.85 478.915 198.225 480.798 198.225C482.015 198.225 483.115 198.517 484.098 199.1C485.081 199.667 485.798 200.442 486.248 201.425L485.223 202.025C484.856 201.225 484.273 200.592 483.473 200.125C482.69 199.658 481.798 199.425 480.798 199.425C479.315 199.425 478.056 199.942 477.023 200.975C476.006 201.992 475.498 203.25 475.498 204.75C475.498 206.267 476.006 207.533 477.023 208.55C478.04 209.567 479.298 210.075 480.798 210.075C481.798 210.075 482.69 209.842 483.473 209.375C484.273 208.908 484.881 208.275 485.298 207.475L486.348 208.1C485.848 209.067 485.098 209.842 484.098 210.425C483.098 210.992 481.998 211.275 480.798 211.275ZM487.242 198.5H497.592V199.725H493.042V211H491.792V199.725H487.242V198.5ZM502.453 204.5L509.428 211H507.728L501.103 204.85V211H499.853V198.5H501.103V204.175L507.428 198.5H509.178L502.453 204.5ZM513.188 208.825L521.163 198.5H522.263V211H520.988V200.675L513.038 211H511.938V198.5H513.188V208.825ZM125.28 233.5H135.605V246H134.33V234.725H126.53V246H125.28V233.5ZM145.19 246.275C143.357 246.275 141.798 245.65 140.515 244.4C139.248 243.133 138.615 241.583 138.615 239.75C138.615 237.917 139.248 236.375 140.515 235.125C141.782 233.858 143.34 233.225 145.19 233.225C147.007 233.225 148.548 233.858 149.815 235.125C151.098 236.375 151.74 237.917 151.74 239.75C151.74 241.567 151.098 243.117 149.815 244.4C148.532 245.65 146.99 246.275 145.19 246.275ZM141.415 243.525C142.448 244.558 143.707 245.075 145.19 245.075C146.657 245.075 147.907 244.558 148.94 243.525C149.957 242.508 150.465 241.25 150.465 239.75C150.465 238.25 149.957 236.992 148.94 235.975C147.907 234.942 146.657 234.425 145.19 234.425C143.707 234.425 142.448 234.942 141.415 235.975C140.398 236.992 139.89 238.25 139.89 239.75C139.89 241.25 140.398 242.508 141.415 243.525ZM164.51 233.5V244.775H166.26V249.35H164.985V246H154.185V249.35H152.91V244.775H154.36C155.277 243.542 155.735 241.867 155.735 239.75V233.5H164.51ZM155.91 244.775H163.235V234.725H156.985V239.75C156.985 241.817 156.627 243.492 155.91 244.775ZM169.006 233.5H176.831V234.725H170.256V246H169.006V233.5ZM184.301 246.275C182.468 246.275 180.91 245.65 179.626 244.4C178.36 243.133 177.726 241.583 177.726 239.75C177.726 237.917 178.36 236.375 179.626 235.125C180.893 233.858 182.451 233.225 184.301 233.225C186.118 233.225 187.66 233.858 188.926 235.125C190.21 236.375 190.851 237.917 190.851 239.75C190.851 241.567 190.21 243.117 188.926 244.4C187.643 245.65 186.101 246.275 184.301 246.275ZM180.526 243.525C181.56 244.558 182.818 245.075 184.301 245.075C185.768 245.075 187.018 244.558 188.051 243.525C189.068 242.508 189.576 241.25 189.576 239.75C189.576 238.25 189.068 236.992 188.051 235.975C187.018 234.942 185.768 234.425 184.301 234.425C182.818 234.425 181.56 234.942 180.526 235.975C179.51 236.992 179.001 238.25 179.001 239.75C179.001 241.25 179.51 242.508 180.526 243.525ZM191.771 233.5H202.121V234.725H197.571V246H196.321V234.725H191.771V233.5ZM209.619 246.275C207.785 246.275 206.227 245.65 204.944 244.4C203.677 243.133 203.044 241.583 203.044 239.75C203.044 237.917 203.677 236.375 204.944 235.125C206.21 233.858 207.769 233.225 209.619 233.225C211.435 233.225 212.977 233.858 214.244 235.125C215.527 236.375 216.169 237.917 216.169 239.75C216.169 241.567 215.527 243.117 214.244 244.4C212.96 245.65 211.419 246.275 209.619 246.275ZM205.844 243.525C206.877 244.558 208.135 245.075 209.619 245.075C211.085 245.075 212.335 244.558 213.369 243.525C214.385 242.508 214.894 241.25 214.894 239.75C214.894 238.25 214.385 236.992 213.369 235.975C212.335 234.942 211.085 234.425 209.619 234.425C208.135 234.425 206.877 234.942 205.844 235.975C204.827 236.992 204.319 238.25 204.319 239.75C204.319 241.25 204.827 242.508 205.844 243.525ZM226.877 239.55C228.344 240.017 229.077 241.017 229.077 242.55C229.077 243.583 228.735 244.417 228.052 245.05C227.385 245.683 226.444 246 225.227 246H219.177V233.5H224.752C225.919 233.5 226.827 233.808 227.477 234.425C228.144 235.025 228.477 235.808 228.477 236.775C228.477 238.108 227.944 239.033 226.877 239.55ZM224.752 234.725H220.427V239.05H224.752C225.552 239.05 226.16 238.858 226.577 238.475C226.994 238.092 227.202 237.55 227.202 236.85C227.202 236.183 226.985 235.667 226.552 235.3C226.135 234.917 225.535 234.725 224.752 234.725ZM220.427 244.775H225.227C226.06 244.775 226.702 244.575 227.152 244.175C227.602 243.775 227.827 243.217 227.827 242.5C227.827 241.8 227.594 241.258 227.127 240.875C226.677 240.475 226.044 240.275 225.227 240.275H220.427V244.775ZM232.71 233.5H241.51V246H240.26V234.725H233.96V240.75C233.96 242.717 233.601 244.108 232.885 244.925C232.168 245.742 231.126 246.1 229.76 246V244.825C230.776 244.908 231.518 244.633 231.985 244C232.468 243.367 232.71 242.283 232.71 240.75V233.5ZM250.974 233.225C252.807 233.225 254.29 233.875 255.424 235.175C256.574 236.475 257.149 238.017 257.149 239.8C257.149 239.833 257.14 239.933 257.124 240.1C257.124 240.267 257.124 240.367 257.124 240.4H245.799C245.949 241.8 246.507 242.933 247.474 243.8C248.44 244.65 249.649 245.075 251.099 245.075C252.082 245.075 252.949 244.875 253.699 244.475C254.449 244.058 255.024 243.5 255.424 242.8L256.524 243.45C256.007 244.317 255.265 245.008 254.299 245.525C253.349 246.025 252.274 246.275 251.074 246.275C249.14 246.275 247.565 245.667 246.349 244.45C245.115 243.217 244.499 241.65 244.499 239.75C244.499 237.883 245.099 236.333 246.299 235.1C247.532 233.85 249.09 233.225 250.974 233.225ZM250.974 234.425C249.574 234.425 248.39 234.867 247.424 235.75C246.474 236.633 245.932 237.775 245.799 239.175H255.849C255.715 237.692 255.182 236.533 254.249 235.7C253.315 234.85 252.224 234.425 250.974 234.425ZM269.121 239.15V233.5H270.396V246H269.121V240.35H261.321V246H260.071V233.5H261.321V239.15H269.121ZM275.505 238.35H279.205C280.372 238.35 281.347 238.708 282.13 239.425C282.93 240.142 283.33 241.058 283.33 242.175C283.33 243.292 282.93 244.208 282.13 244.925C281.347 245.642 280.372 246 279.205 246H274.255V233.5H275.505V238.35ZM285.255 246V233.5H286.505V246H285.255ZM275.505 244.775H279.205C280.022 244.775 280.697 244.533 281.23 244.05C281.78 243.55 282.055 242.925 282.055 242.175C282.055 241.392 281.78 240.767 281.23 240.3C280.697 239.817 280.022 239.575 279.205 239.575H275.505V244.775ZM297.009 233.5H307.334V246H306.059V234.725H298.259V246H297.009V233.5ZM317.819 233.225C319.619 233.225 321.144 233.858 322.394 235.125C323.66 236.375 324.294 237.917 324.294 239.75C324.294 241.583 323.66 243.133 322.394 244.4C321.144 245.65 319.619 246.275 317.819 246.275C316.635 246.275 315.569 246 314.619 245.45C313.685 244.883 312.96 244.1 312.444 243.1V251H311.194V233.5H312.444V236.4C312.96 235.4 313.685 234.625 314.619 234.075C315.569 233.508 316.635 233.225 317.819 233.225ZM313.969 243.525C315.002 244.558 316.26 245.075 317.744 245.075C319.21 245.075 320.46 244.558 321.494 243.525C322.527 242.492 323.044 241.233 323.044 239.75C323.044 238.267 322.527 237.008 321.494 235.975C320.46 234.942 319.21 234.425 317.744 234.425C316.26 234.425 315.002 234.942 313.969 235.975C312.952 236.992 312.444 238.25 312.444 239.75C312.444 241.25 312.952 242.508 313.969 243.525ZM333.032 246.275C331.199 246.275 329.64 245.65 328.357 244.4C327.09 243.133 326.457 241.583 326.457 239.75C326.457 237.917 327.09 236.375 328.357 235.125C329.624 233.858 331.182 233.225 333.032 233.225C334.849 233.225 336.39 233.858 337.657 235.125C338.94 236.375 339.582 237.917 339.582 239.75C339.582 241.567 338.94 243.117 337.657 244.4C336.374 245.65 334.832 246.275 333.032 246.275ZM329.257 243.525C330.29 244.558 331.549 245.075 333.032 245.075C334.499 245.075 335.749 244.558 336.782 243.525C337.799 242.508 338.307 241.25 338.307 239.75C338.307 238.25 337.799 236.992 336.782 235.975C335.749 234.942 334.499 234.425 333.032 234.425C331.549 234.425 330.29 234.942 329.257 235.975C328.24 236.992 327.732 238.25 327.732 239.75C327.732 241.25 328.24 242.508 329.257 243.525ZM349.665 246.275V251H348.415V246.275C346.382 246.142 344.765 245.475 343.565 244.275C342.348 243.058 341.74 241.55 341.74 239.75C341.74 237.967 342.348 236.467 343.565 235.25C344.782 234.033 346.398 233.358 348.415 233.225V228.5H349.665V233.225C351.648 233.342 353.257 234.017 354.49 235.25C355.723 236.483 356.34 237.983 356.34 239.75C356.34 241.533 355.723 243.042 354.49 244.275C353.29 245.475 351.682 246.142 349.665 246.275ZM348.415 245.05V234.45C346.765 234.583 345.457 235.133 344.49 236.1C343.507 237.083 343.015 238.3 343.015 239.75C343.015 241.2 343.507 242.417 344.49 243.4C345.457 244.367 346.765 244.917 348.415 245.05ZM349.665 234.45V245.05C351.315 244.917 352.623 244.367 353.59 243.4C354.573 242.417 355.065 241.2 355.065 239.75C355.065 238.3 354.573 237.083 353.59 236.1C352.623 235.133 351.315 234.583 349.665 234.45ZM364.963 233.225C366.796 233.225 368.28 233.875 369.413 235.175C370.563 236.475 371.138 238.017 371.138 239.8C371.138 239.833 371.13 239.933 371.113 240.1C371.113 240.267 371.113 240.367 371.113 240.4H359.788C359.938 241.8 360.496 242.933 361.463 243.8C362.43 244.65 363.638 245.075 365.088 245.075C366.071 245.075 366.938 244.875 367.688 244.475C368.438 244.058 369.013 243.5 369.413 242.8L370.513 243.45C369.996 244.317 369.255 245.008 368.288 245.525C367.338 246.025 366.263 246.275 365.063 246.275C363.13 246.275 361.555 245.667 360.338 244.45C359.105 243.217 358.488 241.65 358.488 239.75C358.488 237.883 359.088 236.333 360.288 235.1C361.521 233.85 363.08 233.225 364.963 233.225ZM364.963 234.425C363.563 234.425 362.38 234.867 361.413 235.75C360.463 236.633 359.921 237.775 359.788 239.175H369.838C369.705 237.692 369.171 236.533 368.238 235.7C367.305 234.85 366.213 234.425 364.963 234.425ZM379.785 246.275C377.901 246.275 376.335 245.65 375.085 244.4C373.835 243.15 373.21 241.6 373.21 239.75C373.21 237.9 373.835 236.35 375.085 235.1C376.335 233.85 377.901 233.225 379.785 233.225C381.001 233.225 382.101 233.517 383.085 234.1C384.068 234.667 384.785 235.442 385.235 236.425L384.21 237.025C383.843 236.225 383.26 235.592 382.46 235.125C381.676 234.658 380.785 234.425 379.785 234.425C378.301 234.425 377.043 234.942 376.01 235.975C374.993 236.992 374.485 238.25 374.485 239.75C374.485 241.267 374.993 242.533 376.01 243.55C377.026 244.567 378.285 245.075 379.785 245.075C380.785 245.075 381.676 244.842 382.46 244.375C383.26 243.908 383.868 243.275 384.285 242.475L385.335 243.1C384.835 244.067 384.085 244.842 383.085 245.425C382.085 245.992 380.985 246.275 379.785 246.275ZM393.676 246.275C391.793 246.275 390.226 245.65 388.976 244.4C387.726 243.15 387.101 241.6 387.101 239.75C387.101 237.9 387.726 236.35 388.976 235.1C390.226 233.85 391.793 233.225 393.676 233.225C394.893 233.225 395.993 233.517 396.976 234.1C397.96 234.667 398.676 235.442 399.126 236.425L398.101 237.025C397.735 236.225 397.151 235.592 396.351 235.125C395.568 234.658 394.676 234.425 393.676 234.425C392.193 234.425 390.935 234.942 389.901 235.975C388.885 236.992 388.376 238.25 388.376 239.75C388.376 241.267 388.885 242.533 389.901 243.55C390.918 244.567 392.176 245.075 393.676 245.075C394.676 245.075 395.568 244.842 396.351 244.375C397.151 243.908 397.76 243.275 398.176 242.475L399.226 243.1C398.726 244.067 397.976 244.842 396.976 245.425C395.976 245.992 394.876 246.275 393.676 246.275ZM403.215 243.825L411.19 233.5H412.29V246H411.015V235.675L403.065 246H401.965V233.5H403.215V243.825ZM421.875 246.275C420.041 246.275 418.483 245.65 417.2 244.4C415.933 243.133 415.3 241.583 415.3 239.75C415.3 237.917 415.933 236.375 417.2 235.125C418.466 233.858 420.025 233.225 421.875 233.225C423.691 233.225 425.233 233.858 426.5 235.125C427.783 236.375 428.425 237.917 428.425 239.75C428.425 241.567 427.783 243.117 426.5 244.4C425.216 245.65 423.675 246.275 421.875 246.275ZM418.1 243.525C419.133 244.558 420.391 245.075 421.875 245.075C423.341 245.075 424.591 244.558 425.625 243.525C426.641 242.508 427.15 241.25 427.15 239.75C427.15 238.25 426.641 236.992 425.625 235.975C424.591 234.942 423.341 234.425 421.875 234.425C420.391 234.425 419.133 234.942 418.1 235.975C417.083 236.992 416.575 238.25 416.575 239.75C416.575 241.25 417.083 242.508 418.1 243.525ZM440.483 239.15V233.5H441.758V246H440.483V240.35H432.683V246H431.433V233.5H432.683V239.15H440.483ZM456.617 236.325V233.5H457.892V246H456.617V243.175C456.067 244.142 455.326 244.9 454.392 245.45C453.459 246 452.409 246.275 451.242 246.275C449.476 246.275 447.951 245.65 446.667 244.4C445.401 243.133 444.767 241.583 444.767 239.75C444.767 237.917 445.401 236.375 446.667 235.125C447.934 233.858 449.459 233.225 451.242 233.225C452.409 233.225 453.459 233.5 454.392 234.05C455.326 234.6 456.067 235.358 456.617 236.325ZM447.567 243.525C448.601 244.558 449.859 245.075 451.342 245.075C452.809 245.075 454.059 244.558 455.092 243.525C456.109 242.508 456.617 241.25 456.617 239.75C456.617 238.25 456.109 236.992 455.092 235.975C454.059 234.942 452.809 234.425 451.342 234.425C449.859 234.425 448.601 234.942 447.567 235.975C446.551 236.992 446.042 238.25 446.042 239.75C446.042 241.25 446.551 242.508 447.567 243.525ZM463.081 233.5H471.881V246H470.631V234.725H464.331V240.75C464.331 242.717 463.972 244.108 463.256 244.925C462.539 245.742 461.497 246.1 460.131 246V244.825C461.147 244.908 461.889 244.633 462.356 244C462.839 243.367 463.081 242.283 463.081 240.75V233.5ZM476.97 238.35H480.67C481.837 238.35 482.812 238.708 483.595 239.425C484.395 240.142 484.795 241.058 484.795 242.175C484.795 243.292 484.395 244.208 483.595 244.925C482.812 245.642 481.837 246 480.67 246H475.72V233.5H476.97V238.35ZM476.97 244.775H480.67C481.487 244.775 482.162 244.533 482.695 244.05C483.245 243.55 483.52 242.925 483.52 242.175C483.52 241.392 483.245 240.767 482.695 240.3C482.162 239.817 481.487 239.575 480.67 239.575H476.97V244.775ZM496.586 239.15V233.5H497.861V246H496.586V240.35H488.786V246H487.536V233.5H488.786V239.15H496.586ZM507.446 246.275C505.613 246.275 504.054 245.65 502.771 244.4C501.504 243.133 500.871 241.583 500.871 239.75C500.871 237.917 501.504 236.375 502.771 235.125C504.038 233.858 505.596 233.225 507.446 233.225C509.263 233.225 510.804 233.858 512.071 235.125C513.354 236.375 513.996 237.917 513.996 239.75C513.996 241.567 513.354 243.117 512.071 244.4C510.788 245.65 509.246 246.275 507.446 246.275ZM503.671 243.525C504.704 244.558 505.963 245.075 507.446 245.075C508.913 245.075 510.163 244.558 511.196 243.525C512.213 242.508 512.721 241.25 512.721 239.75C512.721 238.25 512.213 236.992 511.196 235.975C510.163 234.942 508.913 234.425 507.446 234.425C505.963 234.425 504.704 234.942 503.671 235.975C502.654 236.992 502.146 238.25 502.146 239.75C502.146 241.25 502.654 242.508 503.671 243.525ZM516.578 244.3H518.128L516.778 249.5H515.628L516.578 244.3ZM223.488 271.325V268.5H224.763V281H223.488V278.175C222.938 279.142 222.196 279.9 221.263 280.45C220.329 281 219.279 281.275 218.113 281.275C216.346 281.275 214.821 280.65 213.538 279.4C212.271 278.133 211.638 276.583 211.638 274.75C211.638 272.917 212.271 271.375 213.538 270.125C214.804 268.858 216.329 268.225 218.113 268.225C219.279 268.225 220.329 268.5 221.263 269.05C222.196 269.6 222.938 270.358 223.488 271.325ZM214.438 278.525C215.471 279.558 216.729 280.075 218.213 280.075C219.679 280.075 220.929 279.558 221.963 278.525C222.979 277.508 223.488 276.25 223.488 274.75C223.488 273.25 222.979 271.992 221.963 270.975C220.929 269.942 219.679 269.425 218.213 269.425C216.729 269.425 215.471 269.942 214.438 270.975C213.421 271.992 212.913 273.25 212.913 274.75C212.913 276.25 213.421 277.508 214.438 278.525ZM231.201 274.5L238.176 281H236.476L229.851 274.85V281H228.601V268.5H229.851V274.175L236.176 268.5H237.926L231.201 274.5ZM243.286 274.5L250.261 281H248.561L241.936 274.85V281H240.686V268.5H241.936V274.175L248.261 268.5H250.011L243.286 274.5ZM257.082 279.625L261.432 268.5H262.782L257.382 282.15C256.882 283.4 256.191 284.375 255.307 285.075C254.424 285.775 253.466 286.083 252.432 286V284.825C253.216 284.892 253.932 284.667 254.582 284.15C255.232 283.633 255.757 282.883 256.157 281.9L256.432 281.225L250.682 268.5H252.032L257.082 279.625ZM271.652 268.225C273.452 268.225 274.977 268.858 276.227 270.125C277.493 271.375 278.127 272.917 278.127 274.75C278.127 276.583 277.493 278.133 276.227 279.4C274.977 280.65 273.452 281.275 271.652 281.275C270.468 281.275 269.402 281 268.452 280.45C267.518 279.883 266.793 279.1 266.277 278.1V286H265.027V268.5H266.277V271.4C266.793 270.4 267.518 269.625 268.452 269.075C269.402 268.508 270.468 268.225 271.652 268.225ZM267.802 278.525C268.835 279.558 270.093 280.075 271.577 280.075C273.043 280.075 274.293 279.558 275.327 278.525C276.36 277.492 276.877 276.233 276.877 274.75C276.877 273.267 276.36 272.008 275.327 270.975C274.293 269.942 273.043 269.425 271.577 269.425C270.093 269.425 268.835 269.942 267.802 270.975C266.785 271.992 266.277 273.25 266.277 274.75C266.277 276.25 266.785 277.508 267.802 278.525ZM292.14 271.325V268.5H293.415V281H292.14V278.175C291.59 279.142 290.848 279.9 289.915 280.45C288.982 281 287.932 281.275 286.765 281.275C284.998 281.275 283.473 280.65 282.19 279.4C280.923 278.133 280.29 276.583 280.29 274.75C280.29 272.917 280.923 271.375 282.19 270.125C283.457 268.858 284.982 268.225 286.765 268.225C287.932 268.225 288.982 268.5 289.915 269.05C290.848 269.6 291.59 270.358 292.14 271.325ZM283.09 278.525C284.123 279.558 285.382 280.075 286.865 280.075C288.332 280.075 289.582 279.558 290.615 278.525C291.632 277.508 292.14 276.25 292.14 274.75C292.14 273.25 291.632 271.992 290.615 270.975C289.582 269.942 288.332 269.425 286.865 269.425C285.382 269.425 284.123 269.942 283.09 270.975C282.073 271.992 281.565 273.25 281.565 274.75C281.565 276.25 282.073 277.508 283.09 278.525ZM295.653 268.5H306.003V269.725H301.453V281H300.203V269.725H295.653V268.5ZM317.314 274.15V268.5H318.589V281H317.314V275.35H309.514V281H308.264V268.5H309.514V274.15H317.314ZM328.173 281.275C326.34 281.275 324.782 280.65 323.498 279.4C322.232 278.133 321.598 276.583 321.598 274.75C321.598 272.917 322.232 271.375 323.498 270.125C324.765 268.858 326.323 268.225 328.173 268.225C329.99 268.225 331.532 268.858 332.798 270.125C334.082 271.375 334.723 272.917 334.723 274.75C334.723 276.567 334.082 278.117 332.798 279.4C331.515 280.65 329.973 281.275 328.173 281.275ZM324.398 278.525C325.432 279.558 326.69 280.075 328.173 280.075C329.64 280.075 330.89 279.558 331.923 278.525C332.94 277.508 333.448 276.25 333.448 274.75C333.448 273.25 332.94 271.992 331.923 270.975C330.89 269.942 329.64 269.425 328.173 269.425C326.69 269.425 325.432 269.942 324.398 270.975C323.382 271.992 322.873 273.25 322.873 274.75C322.873 276.25 323.382 277.508 324.398 278.525ZM345.647 278.825L353.622 268.5H354.722V281H353.447V270.675L345.497 281H344.397V268.5H345.647V278.825ZM373.546 274.925V268.5H374.821V281H373.546V276.1C372.446 276.65 371.18 276.925 369.746 276.925C368.146 276.925 366.913 276.55 366.046 275.8C365.18 275.05 364.746 273.975 364.746 272.575V268.5H365.996V272.575C365.996 274.675 367.23 275.725 369.696 275.725C371.046 275.725 372.33 275.458 373.546 274.925ZM384.299 268.225C386.132 268.225 387.616 268.875 388.749 270.175C389.899 271.475 390.474 273.017 390.474 274.8C390.474 274.833 390.466 274.933 390.449 275.1C390.449 275.267 390.449 275.367 390.449 275.4H379.124C379.274 276.8 379.832 277.933 380.799 278.8C381.766 279.65 382.974 280.075 384.424 280.075C385.407 280.075 386.274 279.875 387.024 279.475C387.774 279.058 388.349 278.5 388.749 277.8L389.849 278.45C389.332 279.317 388.591 280.008 387.624 280.525C386.674 281.025 385.599 281.275 384.399 281.275C382.466 281.275 380.891 280.667 379.674 279.45C378.441 278.217 377.824 276.65 377.824 274.75C377.824 272.883 378.424 271.333 379.624 270.1C380.857 268.85 382.416 268.225 384.299 268.225ZM384.299 269.425C382.899 269.425 381.716 269.867 380.749 270.75C379.799 271.633 379.257 272.775 379.124 274.175H389.174C389.041 272.692 388.507 271.533 387.574 270.7C386.641 269.85 385.549 269.425 384.299 269.425ZM391.307 268.5H401.657V269.725H397.107V281H395.857V269.725H391.307V268.5ZM406.518 274.5L413.493 281H411.793L405.168 274.85V281H403.918V268.5H405.168V274.175L411.493 268.5H413.243L406.518 274.5ZM420.483 281.275C418.65 281.275 417.091 280.65 415.808 279.4C414.541 278.133 413.908 276.583 413.908 274.75C413.908 272.917 414.541 271.375 415.808 270.125C417.075 268.858 418.633 268.225 420.483 268.225C422.3 268.225 423.841 268.858 425.108 270.125C426.391 271.375 427.033 272.917 427.033 274.75C427.033 276.567 426.391 278.117 425.108 279.4C423.825 280.65 422.283 281.275 420.483 281.275ZM416.708 278.525C417.741 279.558 419 280.075 420.483 280.075C421.95 280.075 423.2 279.558 424.233 278.525C425.25 277.508 425.758 276.25 425.758 274.75C425.758 273.25 425.25 271.992 424.233 270.975C423.2 269.942 421.95 269.425 420.483 269.425C419 269.425 417.741 269.942 416.708 270.975C415.691 271.992 415.183 273.25 415.183 274.75C415.183 276.25 415.691 277.508 416.708 278.525ZM430.915 280.125C430.915 280.442 430.807 280.708 430.59 280.925C430.374 281.142 430.107 281.25 429.79 281.25C429.474 281.25 429.207 281.142 428.99 280.925C428.774 280.708 428.665 280.442 428.665 280.125C428.665 279.808 428.774 279.542 428.99 279.325C429.207 279.108 429.474 279 429.79 279C430.107 279 430.374 279.108 430.59 279.325C430.807 279.542 430.915 279.808 430.915 280.125ZM181.47 305.675H186.47C187.886 305.675 189.103 306.183 190.12 307.2C191.136 308.2 191.645 309.408 191.645 310.825C191.645 312.242 191.136 313.458 190.12 314.475C189.12 315.492 187.903 316 186.47 316H180.145V298.5H190.22V299.75H181.47V305.675ZM181.47 314.75H186.47C187.52 314.75 188.42 314.367 189.17 313.6C189.92 312.833 190.295 311.908 190.295 310.825C190.295 309.775 189.92 308.858 189.17 308.075C188.42 307.308 187.52 306.925 186.47 306.925H181.47V314.75ZM198.562 314.625L202.912 303.5H204.262L198.862 317.15C198.362 318.4 197.67 319.375 196.787 320.075C195.904 320.775 194.945 321.083 193.912 321V319.825C194.695 319.892 195.412 319.667 196.062 319.15C196.712 318.633 197.237 317.883 197.637 316.9L197.912 316.225L192.162 303.5H193.512L198.562 314.625ZM215.999 303.5V314.775H217.749V319.35H216.474V316H205.674V319.35H204.399V314.775H205.849C206.766 313.542 207.224 311.867 207.224 309.75V303.5H215.999ZM207.399 314.775H214.724V304.725H208.474V309.75C208.474 311.817 208.116 313.492 207.399 314.775ZM225.632 303.225C227.465 303.225 228.949 303.875 230.082 305.175C231.232 306.475 231.807 308.017 231.807 309.8C231.807 309.833 231.799 309.933 231.782 310.1C231.782 310.267 231.782 310.367 231.782 310.4H220.457C220.607 311.8 221.165 312.933 222.132 313.8C223.099 314.65 224.307 315.075 225.757 315.075C226.74 315.075 227.607 314.875 228.357 314.475C229.107 314.058 229.682 313.5 230.082 312.8L231.182 313.45C230.665 314.317 229.924 315.008 228.957 315.525C228.007 316.025 226.932 316.275 225.732 316.275C223.799 316.275 222.224 315.667 221.007 314.45C219.774 313.217 219.157 311.65 219.157 309.75C219.157 307.883 219.757 306.333 220.957 305.1C222.19 303.85 223.749 303.225 225.632 303.225ZM225.632 304.425C224.232 304.425 223.049 304.867 222.082 305.75C221.132 306.633 220.59 307.775 220.457 309.175H230.507C230.374 307.692 229.84 306.533 228.907 305.7C227.974 304.85 226.882 304.425 225.632 304.425ZM245.304 303.5H246.804V316H245.529V305.4L240.854 312.775H240.679L235.979 305.35V316H234.729V303.5H236.204L240.754 310.675L245.304 303.5ZM263.037 316.275C261.203 316.275 259.645 315.65 258.362 314.4C257.095 313.133 256.462 311.583 256.462 309.75C256.462 307.917 257.095 306.375 258.362 305.125C259.628 303.858 261.187 303.225 263.037 303.225C264.853 303.225 266.395 303.858 267.662 305.125C268.945 306.375 269.587 307.917 269.587 309.75C269.587 311.567 268.945 313.117 267.662 314.4C266.378 315.65 264.837 316.275 263.037 316.275ZM259.262 313.525C260.295 314.558 261.553 315.075 263.037 315.075C264.503 315.075 265.753 314.558 266.787 313.525C267.803 312.508 268.312 311.25 268.312 309.75C268.312 308.25 267.803 306.992 266.787 305.975C265.753 304.942 264.503 304.425 263.037 304.425C261.553 304.425 260.295 304.942 259.262 305.975C258.245 306.992 257.737 308.25 257.737 309.75C257.737 311.25 258.245 312.508 259.262 313.525ZM278.045 316.3C276.262 316.3 274.762 315.708 273.545 314.525C272.345 313.325 271.745 311.775 271.745 309.875C271.745 307.792 272.045 306.183 272.645 305.05C273.278 303.883 274.537 302.842 276.42 301.925L277.72 301.35C278.953 300.833 279.687 300.508 279.92 300.375C280.47 300.075 280.887 299.767 281.17 299.45C281.453 299.117 281.628 298.692 281.695 298.175L282.695 298.75C282.512 299.683 282.02 300.417 281.22 300.95C280.87 301.167 280.487 301.392 280.07 301.625C279.737 301.808 279.237 302.033 278.57 302.3L277.095 302.925C275.845 303.492 274.937 304.092 274.37 304.725C273.803 305.358 273.42 306.233 273.22 307.35C273.787 306.467 274.528 305.792 275.445 305.325C276.362 304.858 277.32 304.625 278.32 304.625C279.987 304.625 281.37 305.175 282.47 306.275C283.57 307.375 284.12 308.775 284.12 310.475C284.12 312.158 283.545 313.55 282.395 314.65C281.278 315.75 279.828 316.3 278.045 316.3ZM278.045 315.05C279.445 315.05 280.595 314.625 281.495 313.775C282.395 312.892 282.845 311.792 282.845 310.475C282.845 309.125 282.412 308.017 281.545 307.15C280.678 306.283 279.553 305.85 278.17 305.85C276.903 305.85 275.762 306.25 274.745 307.05C273.745 307.85 273.195 308.883 273.095 310.15C273.095 311.567 273.562 312.742 274.495 313.675C275.412 314.592 276.595 315.05 278.045 315.05ZM293.502 303.225C295.302 303.225 296.827 303.858 298.077 305.125C299.344 306.375 299.977 307.917 299.977 309.75C299.977 311.583 299.344 313.133 298.077 314.4C296.827 315.65 295.302 316.275 293.502 316.275C292.319 316.275 291.252 316 290.302 315.45C289.369 314.883 288.644 314.1 288.127 313.1V321H286.877V303.5H288.127V306.4C288.644 305.4 289.369 304.625 290.302 304.075C291.252 303.508 292.319 303.225 293.502 303.225ZM289.652 313.525C290.685 314.558 291.944 315.075 293.427 315.075C294.894 315.075 296.144 314.558 297.177 313.525C298.21 312.492 298.727 311.233 298.727 309.75C298.727 308.267 298.21 307.008 297.177 305.975C296.144 304.942 294.894 304.425 293.427 304.425C291.944 304.425 290.685 304.942 289.652 305.975C288.635 306.992 288.127 308.25 288.127 309.75C288.127 311.25 288.635 312.508 289.652 313.525ZM313.99 306.325V303.5H315.265V316H313.99V313.175C313.44 314.142 312.699 314.9 311.765 315.45C310.832 316 309.782 316.275 308.615 316.275C306.849 316.275 305.324 315.65 304.04 314.4C302.774 313.133 302.14 311.583 302.14 309.75C302.14 307.917 302.774 306.375 304.04 305.125C305.307 303.858 306.832 303.225 308.615 303.225C309.782 303.225 310.832 303.5 311.765 304.05C312.699 304.6 313.44 305.358 313.99 306.325ZM304.94 313.525C305.974 314.558 307.232 315.075 308.715 315.075C310.182 315.075 311.432 314.558 312.465 313.525C313.482 312.508 313.99 311.25 313.99 309.75C313.99 308.25 313.482 306.992 312.465 305.975C311.432 304.942 310.182 304.425 308.715 304.425C307.232 304.425 305.974 304.942 304.94 305.975C303.924 306.992 303.415 308.25 303.415 309.75C303.415 311.25 303.924 312.508 304.94 313.525ZM335.679 303.5V314.775H337.429V319.35H336.154V316H319.104V303.5H320.354V314.775H326.754V303.5H328.029V314.775H334.404V303.5H335.679ZM350.685 306.325V303.5H351.96V316H350.685V313.175C350.135 314.142 349.393 314.9 348.46 315.45C347.526 316 346.476 316.275 345.31 316.275C343.543 316.275 342.018 315.65 340.735 314.4C339.468 313.133 338.835 311.583 338.835 309.75C338.835 307.917 339.468 306.375 340.735 305.125C342.001 303.858 343.526 303.225 345.31 303.225C346.476 303.225 347.526 303.5 348.46 304.05C349.393 304.6 350.135 305.358 350.685 306.325ZM341.635 313.525C342.668 314.558 343.926 315.075 345.41 315.075C346.876 315.075 348.126 314.558 349.16 313.525C350.176 312.508 350.685 311.25 350.685 309.75C350.685 308.25 350.176 306.992 349.16 305.975C348.126 304.942 346.876 304.425 345.41 304.425C343.926 304.425 342.668 304.942 341.635 305.975C340.618 306.992 340.11 308.25 340.11 309.75C340.11 311.25 340.618 312.508 341.635 313.525ZM354.198 303.5H364.548V304.725H359.998V316H358.748V304.725H354.198V303.5ZM368.059 308.35H371.759C372.925 308.35 373.9 308.708 374.684 309.425C375.484 310.142 375.884 311.058 375.884 312.175C375.884 313.292 375.484 314.208 374.684 314.925C373.9 315.642 372.925 316 371.759 316H366.809V303.5H368.059V308.35ZM368.059 314.775H371.759C372.575 314.775 373.25 314.533 373.784 314.05C374.334 313.55 374.609 312.925 374.609 312.175C374.609 311.392 374.334 310.767 373.784 310.3C373.25 309.817 372.575 309.575 371.759 309.575H368.059V314.775ZM384.228 316.275C382.345 316.275 380.778 315.65 379.528 314.4C378.278 313.15 377.653 311.6 377.653 309.75C377.653 307.9 378.278 306.35 379.528 305.1C380.778 303.85 382.345 303.225 384.228 303.225C385.445 303.225 386.545 303.517 387.528 304.1C388.511 304.667 389.228 305.442 389.678 306.425L388.653 307.025C388.286 306.225 387.703 305.592 386.903 305.125C386.12 304.658 385.228 304.425 384.228 304.425C382.745 304.425 381.486 304.942 380.453 305.975C379.436 306.992 378.928 308.25 378.928 309.75C378.928 311.267 379.436 312.533 380.453 313.55C381.47 314.567 382.728 315.075 384.228 315.075C385.228 315.075 386.12 314.842 386.903 314.375C387.703 313.908 388.311 313.275 388.728 312.475L389.778 313.1C389.278 314.067 388.528 314.842 387.528 315.425C386.528 315.992 385.428 316.275 384.228 316.275ZM395.973 303.5H400.923V316H399.673V311.125H396.973L393.048 316H391.423L395.423 311.1C394.389 310.983 393.531 310.575 392.848 309.875C392.181 309.175 391.848 308.325 391.848 307.325C391.848 306.208 392.248 305.292 393.048 304.575C393.831 303.858 394.806 303.5 395.973 303.5ZM395.973 309.925H399.673V304.725H395.973C395.156 304.725 394.473 304.975 393.923 305.475C393.389 305.958 393.123 306.575 393.123 307.325C393.123 308.108 393.389 308.742 393.923 309.225C394.473 309.692 395.156 309.925 395.973 309.925ZM417.063 303.225C418.896 303.225 420.379 303.875 421.513 305.175C422.663 306.475 423.238 308.017 423.238 309.8C423.238 309.833 423.229 309.933 423.213 310.1C423.213 310.267 423.213 310.367 423.213 310.4H411.888C412.038 311.8 412.596 312.933 413.563 313.8C414.529 314.65 415.738 315.075 417.188 315.075C418.171 315.075 419.038 314.875 419.788 314.475C420.538 314.058 421.113 313.5 421.513 312.8L422.613 313.45C422.096 314.317 421.354 315.008 420.388 315.525C419.438 316.025 418.363 316.275 417.163 316.275C415.229 316.275 413.654 315.667 412.438 314.45C411.204 313.217 410.588 311.65 410.588 309.75C410.588 307.883 411.188 306.333 412.388 305.1C413.621 303.85 415.179 303.225 417.063 303.225ZM417.063 304.425C415.663 304.425 414.479 304.867 413.513 305.75C412.563 306.633 412.021 307.775 411.888 309.175H421.938C421.804 307.692 421.271 306.533 420.338 305.7C419.404 304.85 418.313 304.425 417.063 304.425ZM442.734 303.5V314.775H444.484V319.35H443.209V316H426.159V303.5H427.409V314.775H433.809V303.5H435.084V314.775H441.459V303.5H442.734ZM452.365 303.225C454.199 303.225 455.682 303.875 456.815 305.175C457.965 306.475 458.54 308.017 458.54 309.8C458.54 309.833 458.532 309.933 458.515 310.1C458.515 310.267 458.515 310.367 458.515 310.4H447.19C447.34 311.8 447.899 312.933 448.865 313.8C449.832 314.65 451.04 315.075 452.49 315.075C453.474 315.075 454.34 314.875 455.09 314.475C455.84 314.058 456.415 313.5 456.815 312.8L457.915 313.45C457.399 314.317 456.657 315.008 455.69 315.525C454.74 316.025 453.665 316.275 452.465 316.275C450.532 316.275 448.957 315.667 447.74 314.45C446.507 313.217 445.89 311.65 445.89 309.75C445.89 307.883 446.49 306.333 447.69 305.1C448.924 303.85 450.482 303.225 452.365 303.225ZM452.365 304.425C450.965 304.425 449.782 304.867 448.815 305.75C447.865 306.633 447.324 307.775 447.19 309.175H457.24C457.107 307.692 456.574 306.533 455.64 305.7C454.707 304.85 453.615 304.425 452.365 304.425ZM462.787 311.5H461.787L461.537 303.5V298.5H463.037V303.5L462.787 311.5ZM463.412 315.125C463.412 315.442 463.304 315.708 463.087 315.925C462.87 316.142 462.604 316.25 462.287 316.25C461.97 316.25 461.704 316.142 461.487 315.925C461.27 315.708 461.162 315.442 461.162 315.125C461.162 314.808 461.27 314.542 461.487 314.325C461.704 314.108 461.97 314 462.287 314C462.604 314 462.87 314.108 463.087 314.325C463.304 314.542 463.412 314.808 463.412 315.125Z" fill="#261911"/>
<path d="M232.104 385.375H216.979V383.275H232.104V385.375ZM254.476 383.05L261.501 392H258.851L252.226 383.6V392H249.926V383.6L243.301 392H240.676L247.676 383.05L240.926 374.5H243.551L249.926 382.525V374.5H252.226V382.525L258.601 374.5H261.251L254.476 383.05ZM272.807 381.65V379.5H274.982V392H272.807V389.85C271.74 391.5 270.165 392.325 268.082 392.325C266.315 392.325 264.823 391.692 263.607 390.425C262.373 389.142 261.757 387.583 261.757 385.75C261.757 383.933 262.373 382.383 263.607 381.1C264.84 379.817 266.332 379.175 268.082 379.175C270.165 379.175 271.74 380 272.807 381.65ZM268.357 390.225C269.623 390.225 270.682 389.8 271.532 388.95C272.382 388.067 272.807 387 272.807 385.75C272.807 384.483 272.382 383.425 271.532 382.575C270.682 381.708 269.623 381.275 268.357 381.275C267.107 381.275 266.057 381.708 265.207 382.575C264.357 383.425 263.932 384.483 263.932 385.75C263.932 387 264.357 388.067 265.207 388.95C266.057 389.8 267.107 390.225 268.357 390.225ZM286.927 384.7V379.5H289.102V392H286.927V386.775H280.452V392H278.277V379.5H280.452V384.7H286.927ZM301.063 384.7V379.5H303.238V392H301.063V386.775H294.588V392H292.413V379.5H294.588V384.7H301.063ZM316.898 381.65V379.5H319.073V392H316.898V389.85C315.832 391.5 314.257 392.325 312.173 392.325C310.407 392.325 308.915 391.692 307.698 390.425C306.465 389.142 305.848 387.583 305.848 385.75C305.848 383.933 306.465 382.383 307.698 381.1C308.932 379.817 310.423 379.175 312.173 379.175C314.257 379.175 315.832 380 316.898 381.65ZM312.448 390.225C313.715 390.225 314.773 389.8 315.623 388.95C316.473 388.067 316.898 387 316.898 385.75C316.898 384.483 316.473 383.425 315.623 382.575C314.773 381.708 313.715 381.275 312.448 381.275C311.198 381.275 310.148 381.708 309.298 382.575C308.448 383.425 308.023 384.483 308.023 385.75C308.023 387 308.448 388.067 309.298 388.95C310.148 389.8 311.198 390.225 312.448 390.225ZM323.119 389.425H325.619L323.994 395.5H322.119L323.119 389.425Z" fill="#261911"/>
<path d="M339.917 383L347.892 392H345.042L337.492 383.6V392H335.167V374.5H337.492V382.4L344.792 374.5H347.642L339.917 383ZM360.614 386.75H350.139C350.356 387.85 350.864 388.717 351.664 389.35C352.464 389.967 353.464 390.275 354.664 390.275C356.314 390.275 357.514 389.667 358.264 388.45L360.114 389.5C358.881 391.383 357.047 392.325 354.614 392.325C352.647 392.325 351.031 391.708 349.764 390.475C348.531 389.208 347.914 387.633 347.914 385.75C347.914 383.85 348.522 382.283 349.739 381.05C350.956 379.8 352.531 379.175 354.464 379.175C356.297 379.175 357.789 379.825 358.939 381.125C360.106 382.392 360.689 383.942 360.689 385.775C360.689 386.092 360.664 386.417 360.614 386.75ZM354.464 381.225C353.314 381.225 352.347 381.55 351.564 382.2C350.797 382.85 350.322 383.733 350.139 384.85H358.489C358.306 383.7 357.847 382.808 357.114 382.175C356.381 381.542 355.497 381.225 354.464 381.225ZM369.414 379.175C370.881 379.175 372.056 379.642 372.939 380.575C373.822 381.492 374.264 382.742 374.264 384.325V392H372.089V384.45C372.089 383.45 371.814 382.667 371.264 382.1C370.714 381.533 369.956 381.25 368.989 381.25C367.872 381.25 366.989 381.6 366.339 382.3C365.689 382.983 365.364 384.008 365.364 385.375V392H363.189V379.5H365.364V381.3C366.231 379.883 367.581 379.175 369.414 379.175ZM387.675 381.65V379.5H389.825V391.475C389.825 393.325 389.2 394.758 387.95 395.775C386.684 396.808 385.184 397.325 383.45 397.325C382.05 397.325 380.842 397.058 379.825 396.525C378.809 396.008 378.042 395.258 377.525 394.275L379.425 393.2C380.109 394.6 381.467 395.3 383.5 395.3C384.8 395.3 385.817 394.958 386.55 394.275C387.3 393.592 387.675 392.658 387.675 391.475V389.7C386.575 391.367 385.009 392.2 382.975 392.2C381.175 392.2 379.667 391.567 378.45 390.3C377.217 389.017 376.6 387.475 376.6 385.675C376.6 383.875 377.217 382.342 378.45 381.075C379.667 379.808 381.175 379.175 382.975 379.175C385.025 379.175 386.592 380 387.675 381.65ZM387.675 385.675C387.675 384.425 387.25 383.375 386.4 382.525C385.55 381.675 384.492 381.25 383.225 381.25C381.959 381.25 380.9 381.675 380.05 382.525C379.2 383.375 378.775 384.425 378.775 385.675C378.775 386.942 379.2 388 380.05 388.85C380.9 389.7 381.959 390.125 383.225 390.125C384.492 390.125 385.55 389.7 386.4 388.85C387.25 388 387.675 386.942 387.675 385.675ZM401.746 386.125V379.5H403.921V392H401.746V390.2C400.879 391.617 399.529 392.325 397.696 392.325C396.229 392.325 395.054 391.867 394.171 390.95C393.287 390.017 392.846 388.758 392.846 387.175V379.5H395.021V387.05C395.021 388.05 395.296 388.833 395.846 389.4C396.396 389.967 397.154 390.25 398.121 390.25C399.237 390.25 400.121 389.908 400.771 389.225C401.421 388.525 401.746 387.492 401.746 386.125ZM409.407 379.5V381.6C410.124 380.05 411.424 379.275 413.307 379.275V381.55C412.24 381.5 411.324 381.783 410.557 382.4C409.79 383.017 409.407 384.008 409.407 385.375V392H407.232V379.5H409.407ZM424.06 386.125V379.5H426.235V392H424.06V390.2C423.193 391.617 421.843 392.325 420.01 392.325C418.543 392.325 417.368 391.867 416.485 390.95C415.602 390.017 415.16 388.758 415.16 387.175V379.5H417.335V387.05C417.335 388.05 417.61 388.833 418.16 389.4C418.71 389.967 419.468 390.25 420.435 390.25C421.552 390.25 422.435 389.908 423.085 389.225C423.735 388.525 424.06 387.492 424.06 386.125Z" fill="#FDB75E"/>
<defs>
<filter id="filter0_d" x="0.391088" y="0.391088" width="639.624" height="479.718" filterUnits="userSpaceOnUse" color-interpolation-filters="sRGB">
<feFlood flood-opacity="0" result="BackgroundImageFix"/>
<feColorMatrix in="SourceAlpha" type="matrix" values="0 0 0 0 0 0 0 0 0 0 0 0 0 0 0 0 0 0 127 0" result="hardAlpha"/>
<feOffset dx="7.20297" dy="7.20297"/>
<feGaussianBlur stdDeviation="14.4059"/>
<feComposite in2="hardAlpha" operator="out"/>
<feColorMatrix type="matrix" values="0 0 0 0 0 0 0 0 0 0 0 0 0 0 0 0 0 0 0.08 0"/>
<feBlend mode="normal" in2="BackgroundImageFix" result="effect1_dropShadow"/>
<feBlend mode="normal" in="SourceGraphic" in2="effect1_dropShadow" result="shape"/>
</filter>
<clipPath id="clip0">
<rect width="67" height="67" fill="white" transform="translate(52 62)"/>
</clipPath>
</defs>
</svg>
